<?xml version="1.0" encoding="UTF-8"?>
<svg id="Layer_2" data-name="Layer 2" xmlns="http://www.w3.org/2000/svg" viewBox="0 0 77.61 154.45">
  <defs>
    <style>
      .cls-1 {
        fill: #954118;
      }

      .cls-2 {
        fill: #ee7d36;
      }

      .cls-3 {
        fill: #e97636;
      }

      .cls-4 {
        fill: #b55320;
      }

      .cls-5 {
        fill: #92421b;
      }

      .cls-6 {
        fill: #df692d;
      }

      .cls-7 {
        fill: #c65b26;
      }

      .cls-8 {
        fill: #fdfefd;
      }

      .cls-9 {
        fill: #f1833b;
      }

      .cls-10 {
        fill: #0d1315;
      }

      .cls-11 {
        fill: #1b1b1a;
      }

      .cls-12 {
        fill: #f5a166;
      }

      .cls-13 {
        fill: #e48b52;
      }

      .cls-14 {
        fill: #e57736;
      }

      .cls-15 {
        fill: #393939;
      }

      .cls-16 {
        fill: #f1a065;
      }

      .cls-17 {
        fill: #ec7f39;
      }

      .cls-18 {
        fill: #fcfefc;
      }

      .cls-19 {
        fill: #f08038;
      }

      .cls-20 {
        fill: #ee803b;
      }

      .cls-21 {
        fill: #f18137;
      }

      .cls-22 {
        fill: #f1a46f;
      }

      .cls-23 {
        fill: #fdfefe;
      }

      .cls-24 {
        fill: #e16c2e;
      }
    </style>
  </defs>
  <g id="Layer_1-2" data-name="Layer 1">
    <g>
      <path class="cls-11" d="M59.28,154.22l-38.08.23c-6.01.04-10.71-2.06-12.79-7.55-.25,1.27-.08,2.26-.77,3.12-.63.79-1.54,1.18-2.91,1.11-1.14-.06-3.01-.77-3.02-2.32l-.11-18.45c0-1.15.94-2.11,1.64-2.44,1.06-.52,2.27-.46,3.75.02l-3.42-59.48c-1.47.34-3.47-.11-3.49-1.64l-.08-6.99,9.62-12.24c2.43-3.09,6.28-1.47,10.24-2.17l-.02-3.67c-5.57-2.26-10.27-5.95-13.46-11.13C1.85,23.22,1.35,13.41,9.25,8.99c2.4-1.34,5.05-2.3,7.85-2.33l7.7-.1.13-2.9c.05-1.23.2-2.22.88-2.92.84-.86,1.87-.67,3.08-.68L48.74,0c1.94,0,3.83.38,3.88,2.75l.08,3.79,8.14.13c2.45.04,4.74.91,6.92,2.02,4.16,2.11,6.72,6.22,6.64,11-.17,9.84-7.53,18.58-16.82,22.06l-.03,3.72c5.45.6,7.76-1.25,11.3,3.22l7.49,9.48c.59.74,1.26,1.58,1.27,2.55v5.47c.02.83-.47,1.5-.91,1.86-.57.47-1.62.61-2.76.43l-3.52,59.46c1.51-.51,2.82-.5,3.87.11,1.28.75,1.49,2.07,1.49,3.6v16.34c0,1.93-1.34,3.15-3.27,3.14-1.08,0-2.08-.26-2.7-.94-.75-.82-.71-2.02-.91-3.21-1.52,3.71-4.92,7.22-9.59,7.25ZM47.94,2.28c.69,0,1.45.05,1.46.72l.05,3.52,2.37.07.1-2.66c.03-.93,0-1.77-.55-2.4s-1.31-.8-2.3-.8l-21.15.02c-1.07,0-2.25.86-2.26,1.89l-.03,3.86c.95.15,1.7.14,2.48,0l.05-3.5c.01-.95,1.28-.71,1.98-.71h17.79ZM48.65,6.58l-.04-3.52h-19.66s-.06,3.51-.06,3.51h19.76ZM3.94,18.3c-.93,11.26,9.37,21.95,20.78,24.01,8.27,1.5,16.33,1.32,24.69.55s16.22-5.04,20.8-12.28c2.27-3.59,3.58-7.54,3.41-11.54-.32-7.47-7.13-11.69-14.62-11.68l-41.63.09c-5.99.01-12.87,4.13-13.43,10.85ZM23.59,45.5v-2.57s-2.91-.92-2.91-.92l-.04,3.49h2.95ZM53.7,45.54l2.96-.03-.04-3.34-3.04.88.12,2.49ZM52.83,45.49l-.07-2.34c-9.04,1.29-19.25,1.34-28.35-.08-.07.93-.12,1.64.05,2.44l1.87.12h24.63s1.86-.14,1.86-.14ZM9.61,48.82l-7.95,10.02c-.72.91-1.08,1.66-1,2.71.13,1.63-.38,3.58.28,5.32.42,1.11,2.22.8,3.16.86l.45,3.92,4.01,70.81c.15,2.73.57,4.91,2.09,6.92,2.21,2.93,5.97,4.3,9.69,4.31l32.57.07c3.31,0,6.49.08,9.35-1.07,3.44-1.39,6.19-4.53,6.43-8.61l4.3-76.2,1.76-.15c.67-.06,1.19-.09,1.61-.42.74-.57.58-3.27.62-5.53.03-1.69-.85-2.67-1.82-3.87l-8.23-10.23c-.67-.84-2.25-1.37-3.45-1.38l-48.68-.05c-2.29,0-3.9.94-5.19,2.56ZM7,149.52c.71-3.67,1.05-7.58.35-11.19-.36-1.88.32-3.85-.3-5.78l-.15-3.31c-.05-1.12-2.3-1.26-3.33-.7-1.08.59-1.36,1.69-1.35,3.1l.13,16.88c0,.62.64,1.17.98,1.48.16.15,3.51.36,3.67-.48ZM74.66,149.31c.1-.13-.5-.58.29-.57l.04-18.42c-.75.11-.7-.6-.4-.94-.85-1.39-3.45-1.42-4.17-.39l-.73,11.29.16,8.65c0,.33.54.72.71.85s.45-.38.84.21c1.47.38,2.46.35,3.27-.68Z"/>
      <path class="cls-21" d="M62.26,152.69c-2.85,1.15-6.04,1.08-9.35,1.07l-32.57-.07-4.92-81.99,46.48-.02-4.96,81.44c2.09.75,4.12-1.15,5.32-.42ZM50.3,88.61c-1.27.15-1.3.54-1.93.86l-2.25-3.65c-.53-.86-1.46-1.26-2.49-1.26h-8.07c.91.42,1.69.95,2.25,1.89l3.9,6.58c-.61.74-1.31.84-2.06,1.33l7.49.44,3.16-6.2ZM34.45,95.12l3.79-6.24c-.48-1.26-1.29-2.53-2.42-3.3-1.85-1.25-4.06-.5-5.11,1.37l-2.52,4.51,6.26,3.65ZM53.7,104.69c1.67-1.08,1.97-2.9,1.11-4.48l-2.94-5.02-6.37,3.57,3.98,6.59c1.35.23,2.95.16,4.23-.67ZM26.46,110.83c.1-1.3.38-2.43,1.11-3.6l3.59-5.74,2.12.97-3.32-6.56-7.52.56,2.27,1.23-1.99,3.44c-.6,1.03-.58,2.21.02,3.25l3.72,6.45ZM50.44,112.13l3.93-6.8-2.02.78-8.55.07c0-.81.12-1.41-.28-2.27l-3.77,5.93,4.08,6.45.24-2.51,3.74-.04c1.1-.01,2.09-.69,2.63-1.62ZM36.87,113.68l-.07-7.37-7.67.03c-1.46,1.91-2.32,4.04-1.37,5.69.58,1,1.68,1.77,3.04,1.75l6.07-.1Z"/>
      <path class="cls-6" d="M72.98,67.89l-4.3,76.2c-.24,4.07-2.98,7.22-6.43,8.61-1.2-.73-3.23,1.17-5.32.42l4.96-81.44-46.48.02-.09-3.8h57.65Z"/>
      <path class="cls-12" d="M6.66,67.89l.25,3.8h8.51s4.92,82.01,4.92,82.01c-3.72,0-7.48-1.38-9.69-4.31.2-.12.42-.38.4-.78l-1.72-33.34-2.41-43.46-2.38-.15-.45-3.92,2.57.16Z"/>
      <path class="cls-19" d="M76.97,61.79c-.04,2.26.12,4.96-.62,5.53-.43.33-.95.36-1.61.42l-1.76.15H15.33s-8.67,0-8.67,0l-2.57-.16c-.94-.06-2.74.25-3.16-.86-.66-1.74-.15-3.7-.28-5.32.93.8,1.84.92,3.26.92h69.48c1.48,0,2.44-.08,3.57-.67Z"/>
      <path class="cls-22" d="M73.62,19.03c-.6.19-.36-.45-.75-.95-2.44-5.27-8.16-7.8-14.19-7.8l-39.08-.02c-4.3,0-8.35.87-11.65,3.54-1.36,1.1-2.5,2.41-3.13,3.9-.18.43-.42.81-.87.59.56-6.72,7.44-10.84,13.43-10.85l41.63-.09c7.49-.02,14.3,4.2,14.62,11.68Z"/>
      <path class="cls-9" d="M10.65,149.38c-1.52-2.01-1.94-4.19-2.09-6.92l-4.01-70.81,2.38.15,2.41,43.46,1.72,33.34c.02.4-.2.66-.4.78Z"/>
      <path class="cls-2" d="M5.53,19.38c.36,5.04,2.32,9.98,6.09,13.64,4.63,5.16,10.78,7.53,17.55,8.19s12.91.67,19.6-.02c7.12-.74,13.56-3.64,18.14-9.19,3.03-3.68,4.82-8.08,4.99-12.82.01-.15-.07-.51.23-.66.23-.07.48-.27.74-.44.39.5.15,1.14.75.95.17,4-1.14,7.95-3.41,11.54-4.58,7.24-12.27,11.5-20.8,12.28s-16.42.95-24.69-.55C13.31,40.24,3.01,29.56,3.94,18.3c.46.22.69-.16.87-.59.13,0,.36-.02.46.05.36.24-.07,1.08.26,1.63Z"/>
      <path class="cls-16" d="M11.02,49.87l-7.19,9.7c-.25.33.26,1.14.8,1.14h67.81c.75,0,1.18-.29,1.26-.87.05-.34-.05-.72-.25-.98.25-.76.9-1.1,1.7-.96.97,1.2,1.85,2.18,1.82,3.87-1.13.59-2.09.67-3.57.67H3.91c-1.42,0-2.33-.12-3.26-.92-.08-1.05.28-1.8,1-2.71l7.95-10.02c.38.41.68.79,1.41,1.05Z"/>
      <path class="cls-17" d="M75.15,57.91c-.8-.14-1.45.2-1.7.96l-7.91-10.02c-.61-.77-1.72-.92-2.71-.91l-48.99.03c-.63,0-1.04.15-1.37.48l-1.46,1.43c-.74-.26-1.03-.65-1.41-1.05,1.28-1.62,2.89-2.56,5.19-2.56l48.68.05c1.2,0,2.77.54,3.45,1.38l8.23,10.23Z"/>
      <path class="cls-15" d="M74.66,149.31c-.81,1.03-1.8,1.06-3.27.68-.39-.59-.68-.08-.84-.21s-.7-.52-.71-.85l-.16-8.65.73-11.29c.73-1.03,3.32-1,4.17.39-.3.34-.35,1.04.4.94l-.04,18.42c-.79,0-.18.44-.29.57Z"/>
      <path class="cls-15" d="M7,149.52c-.16.83-3.51.63-3.67.48-.34-.31-.97-.86-.98-1.48l-.13-16.88c-.01-1.41.27-2.5,1.35-3.1s3.28-.42,3.33.7l.15,3.31c.62,1.93-.07,3.9.3,5.78.7,3.61.36,7.52-.35,11.19Z"/>
      <path class="cls-20" d="M47.94,2.28h-17.79c-.7,0-1.97-.23-1.98.72l-.05,3.5c-.78.14-1.52.15-2.48,0l.03-3.86c0-1.03,1.19-1.89,2.26-1.89l21.15-.02c.98,0,1.75.17,2.3.8s.58,1.47.55,2.4l-.1,2.66-2.37-.07-.05-3.52c-.01-.67-.77-.72-1.46-.72Z"/>
      <polygon class="cls-3" points="23.59 45.5 20.65 45.5 20.68 42.01 23.6 42.93 23.59 45.5"/>
      <polygon class="cls-14" points="53.7 45.54 53.58 43.05 56.62 42.17 56.66 45.51 53.7 45.54"/>
      <polygon class="cls-13" points="15.33 67.89 15.42 71.7 6.91 71.68 6.66 67.89 15.33 67.89"/>
      <path class="cls-24" d="M72.87,18.08c-.26.16-.51.37-.74.44-.27.08-.27.17-.43.2-.37.07-.3.44-.17.72-2.82,7.64-9.09,14.37-17.32,16.44-8.69,2.19-17.34,1.91-26.09.98-10.07-1.07-18.67-7.56-22.04-17.07.44-.17.27-.44.15-.48-.31-.12-.52-.03-.69.07-.34-.55.1-1.39-.26-1.63-.1-.07-.33-.05-.46-.05.63-1.49,1.77-2.8,3.13-3.9,3.3-2.67,7.35-3.54,11.65-3.54l39.08.02c6.03,0,11.75,2.53,14.19,7.8Z"/>
      <path class="cls-7" d="M5.53,19.38c.17-.1.38-.19.69-.07.12.05.29.32-.15.48,3.38,9.51,11.97,16,22.04,17.07,8.75.93,17.4,1.21,26.09-.98,8.23-2.07,14.5-8.81,17.32-16.44-.14-.28-.2-.65.17-.72.17-.03.17-.12.43-.2-.29.15-.21.51-.23.66-.17,4.74-1.95,9.14-4.99,12.82-4.58,5.56-11.02,8.46-18.14,9.19-6.7.69-12.89.67-19.6.02s-12.92-3.03-17.55-8.19c-3.77-3.66-5.73-8.6-6.09-13.64Z"/>
      <path class="cls-1" d="M12.51,60.08c-2.9,0-5.81.13-8.68-.51l7.19-9.7,1.46-1.43.03,11.64Z"/>
      <path class="cls-5" d="M73.45,58.87c.2.26.3.64.25.98-2.9.39-5.87.21-8.78.21l.18-10.57c0-.34-.07-.55.45-.64l7.91,10.02Z"/>
      <path class="cls-10" d="M12.51,60.08l52.41-.03c2.91,0,5.88.18,8.78-.21-.08.57-.51.87-1.26.87H4.63c-.53,0-1.04-.82-.8-1.15,2.87.65,5.78.51,8.68.51Z"/>
      <path class="cls-4" d="M65.54,48.85c-.52.08-.44.29-.45.64l-.18,10.57-52.41.03-.03-11.64c.33-.33.73-.48,1.37-.48l48.99-.03c.99,0,2.1.15,2.71.91Z"/>
      <path class="cls-8" d="M50.52,88.51l-3.16,6.2-7.49-.44c.75-.49,1.45-.59,2.06-1.33l-3.9-6.58c-.56-.94-1.34-1.48-2.25-1.89h8.07c1.03,0,1.96.39,2.49,1.26l2.25,3.65c.62-.31.65-.71,1.93-.86Z"/>
      <path class="cls-23" d="M50.66,112.03c-.54.93-1.53,1.61-2.63,1.62l-3.74.04-.24,2.51-4.08-6.45,3.77-5.93c.4.86.27,1.46.28,2.27l8.55-.07,2.02-.78-3.93,6.8Z"/>
      <path class="cls-8" d="M26.68,110.73l-3.72-6.45c-.6-1.04-.62-2.22-.02-3.25l1.99-3.44-2.27-1.23,7.52-.56,3.32,6.56-2.12-.97-3.59,5.74c-.73,1.17-1.01,2.31-1.11,3.6Z"/>
      <path class="cls-8" d="M37.09,113.58l-6.07.1c-1.36.02-2.46-.75-3.04-1.75-.95-1.65-.09-3.78,1.37-5.69l7.67-.03.07,7.37Z"/>
      <path class="cls-8" d="M53.93,104.59c-1.27.82-2.88.9-4.23.67l-3.98-6.59,6.37-3.57,2.94,5.02c.86,1.58.56,3.4-1.11,4.48Z"/>
      <path class="cls-18" d="M34.68,95.02l-6.26-3.65,2.52-4.51c1.05-1.88,3.26-2.62,5.11-1.37,1.13.77,1.94,2.03,2.42,3.3l-3.79,6.24Z"/>
      <path class="cls-8" d="M43.31,84.87c1.03,0,1.96.4,2.49,1.26l2.25,3.65"/>
      <line class="cls-23" x1="54.06" y1="105.63" x2="50.12" y2="112.43"/>
      <path class="cls-8" d="M26.14,111.13l-3.72-6.45c-.6-1.04-.62-2.22-.02-3.25l1.99-3.44-2.27-1.23,7.52-.56,3.32,6.56-2.12-.97-3.59,5.74c-.73,1.17-1.01,2.31-1.11,3.6Z"/>
      <line class="cls-8" x1="28.81" y1="106.64" x2="36.48" y2="106.61"/>
      <path class="cls-8" d="M53.39,104.99c-1.27.82-2.88.9-4.23.67l-3.98-6.59,6.37-3.57,2.94,5.02c.86,1.58.56,3.4-1.11,4.48Z"/>
      <path class="cls-18" d="M34.14,95.42l-6.26-3.65,2.52-4.51c1.05-1.88,3.26-2.62,5.11-1.37,1.13.77,1.94,2.03,2.42,3.3l-3.79,6.24Z"/>
    </g>
  </g>
</svg>