<?xml version="1.0" encoding="UTF-8"?>
<svg id="Layer_2" data-name="Layer 2" xmlns="http://www.w3.org/2000/svg" viewBox="0 0 77.62 154.41">
  <defs>
    <style>
      .cls-1 {
        fill: #181818;
      }

      .cls-2 {
        fill: #3e275b;
      }

      .cls-3 {
        fill: #7857a8;
      }

      .cls-4 {
        fill: #7f5cac;
      }

      .cls-5 {
        fill: #8466b1;
      }

      .cls-6 {
        fill: #513676;
      }

      .cls-7 {
        fill: #412b5f;
      }

      .cls-8 {
        fill: #5a3d86;
      }

      .cls-9 {
        fill: #fdfefd;
      }

      .cls-10 {
        fill: #9f85c3;
      }

      .cls-11 {
        fill: #393839;
      }

      .cls-12 {
        fill: #7e5db0;
      }

      .cls-13 {
        fill: #9b80c2;
      }

      .cls-14 {
        fill: #7b5aae;
      }

      .cls-15 {
        fill: #6b4b9c;
      }

      .cls-16 {
        fill: #6c4c9e;
      }

      .cls-17 {
        fill: #7e5eaf;
      }

      .cls-18 {
        fill: #a083c4;
      }

      .cls-19 {
        fill: #8565b4;
      }

      .cls-20 {
        fill: #815fb2;
      }

      .cls-21 {
        fill: #805faf;
      }

      .cls-22 {
        fill: #7758a1;
      }

      .cls-23 {
        fill: #6f4ea0;
      }

      .cls-24 {
        fill: #111210;
      }

      .cls-25 {
        fill: #fcfefc;
      }

      .cls-26 {
        fill: #37383a;
      }

      .cls-27 {
        fill: #fdfefe;
      }
    </style>
  </defs>
  <g id="Layer_1-2" data-name="Layer 1">
    <g>
      <path class="cls-23" d="M7,68.51l.09,3.12h-2.35s-.15-3.66-.15-3.66c.8-.27,1.75-.38,2.41.54Z"/>
      <g>
        <path class="cls-1" d="M56.78,154.41H21.23c-5.76,0-10.15-1.98-12.49-7.27-.3,1.36-.17,2.23-.91,2.99-1.34,1.36-4,1.23-5.11.13-.89-.88-.83-1.75-.83-2.94v-15.99c-.01-1.24.01-2.37,1.16-3.13s2.6-.79,4.24-.25l-2.12-37.05-1.43-22.5c-1.62.4-3.56-.13-3.6-1.63L0,61.68c-.02-.91.05-1.86.64-2.6l8.62-10.89c1.64-2.07,3.88-2.9,6.48-2.57l4.33-.14-.03-3.76c-8.82-3.44-15.83-11.3-16.57-20.78-.32-4.14.74-7.85,4.02-10.54,2.88-2.36,6.5-3.72,10.27-3.75l7.12-.05.1-3.01c.05-1.48.55-3.45,2.31-3.46L49.09,0c1.82-.01,3.51.6,3.56,2.72l.08,3.83,5.68.04c4.01.03,7.88.92,11.12,3.22,6.4,4.56,5.84,13.34,2.02,20.14-3.08,5.49-8,9.48-13.93,11.79l-.04,3.73,5.63.12c2.5.05,4.29,1.42,5.73,3.31l8.33,10.88c.38,2.81.64,6.92-.41,8.04-.72.77-1.77.77-3.03.68l-2.53,43.51-.93,15.91c2.18-.96,5.13-.04,5.15,2.18l.15,17.87c.01,1.66-1.18,2.9-2.7,3.08-1.25.14-2.5-.11-3.22-.85-.94-.96-.84-2.17-.91-3.61-1.64,5.17-6.47,7.81-12.09,7.81ZM49.34,2.39l.15,4.12c.83.12,1.6.13,2.48.02v-3.6c-.01-.92-.79-2.17-1.96-2.16l-22.6.04c-1.21,0-1.76,1.57-1.75,2.42l.03,3.31,2.42.09.12-3.63c.02-.69.78-.72,1.31-.71l19.8.11ZM48.7,6.58l-.04-3.52h-19.65s-.07,3.5-.07,3.5l19.76.02ZM4.18,18.64c-.22,3.98.83,7.77,2.92,11.31,4.56,7.74,12.62,12.13,21.37,12.95,1.15.11,2.29.06,3.45.45l13.52-.05c3.23-.56,6.36-.51,9.51-1.43,10.39-3.05,18.98-12.25,18.69-22.83-.19-7.23-7.02-11.64-13.98-11.65l-40.04-.05c-7.75,0-15.02,3.65-15.45,11.3ZM23.94,45.53v-2.6s-3.03-.89-3.03-.89l-.1,3.46,3.13.04ZM56.93,45.47l-.09-3.36-3.09.83v2.56s3.18-.03,3.18-.03ZM52.87,43.06l-7.24.87-13.38-.04-3.57-.31-3.98-.52c-.13.95-.19,1.69.03,2.51l26.27.05,1.98-.19-.11-2.37ZM1.85,58.72c-.74.92-1.14,1.69-1.16,2.95s0,2.69.06,4.2c.1,2.42,1.99,1.55,3.84,2.11l.15,3.66,4.11,70.51c.18,3.12.6,5.69,2.61,7.84,2.25,2.42,5.67,3.73,9.12,3.73h36.85c1.31,0,2.57-.42,3.52-.68,4.71-1.28,7.41-5.01,7.71-9.9l3.56-58.63.87-16.57c.92-.5,2.2.18,3.09-.54.39-.32.58-.88.58-1.53v-4.44c0-1.25-.58-2.1-1.3-3.02l-6.81-8.62c-.89-1.12-2.22-3.42-4.22-3.42l-51.09-.04c-1.13,0-2.42,1.16-3.02,1.9L1.85,58.72ZM7.61,149c-.42-1.33,1.05-5.23.14-9.9-.41-2.13.26-4.23-.34-6.18l-.19-2.35c.02-.39.35-1.04.06-1.56-.42-.76-2.63-1.23-4.03-.12-.84.67-.72,1.63-.72,2.76v15.7c0,.97-.11,1.75.85,2.33.5.3,1.23.69,2.08.33l.85.21c.19.05.23-.42.25-.58.52.55,1.17-.26,1.06-.63ZM73.47,149.95c.38-.29.88-.26,1.07-.52.24-.32.1-.84.1-1.14l.13-17.28c-.25-.32-.44-.78-.08-1.12-.38-.8-1.07-1.33-1.75-1.53-.8-.23-2.34-.05-2.59.66l-.49,5.79c-.36,4.23-.36,8.26-.18,12.55.04,1.03-.09,2.26,1.23,2.65.64.19,2.04.35,2.57-.05Z"/>
        <path class="cls-12" d="M60.94,153.03c-.95.26-2.21.67-3.52.67H20.57s-2.38-39.09-2.38-39.09l-2.59-43,46.4.09-5.15,81.06c-.08,1.31,2.81-.39,4.08.27Z"/>
        <path class="cls-15" d="M73.08,67.93l-.87,16.57-3.56,58.63c-.3,4.9-3,8.63-7.71,9.9-1.27-.66-4.17,1.04-4.08-.27l5.15-81.06-46.4-.09-.2-3.69h57.68Z"/>
        <path class="cls-18" d="M15.6,71.61l2.59,43,2.38,39.1c-3.44,0-6.87-1.32-9.12-3.73l-2.73-50.41-1.63-27.94,8.51-.02Z"/>
        <path class="cls-17" d="M73.08,67.93H15.4s-7.53,0-7.53,0c-.22,0-.61-.05-.72.06-.08.08-.16.41-.15.52-.65-.92-1.6-.81-2.41-.54-1.86-.55-3.74.32-3.84-2.11-.06-1.51-.08-2.89-.06-4.2l1.63.79h71.09c1.46,0,2.46-.13,3.34-1.03v4.44c0,.65-.19,1.21-.59,1.53-.89.72-2.17.04-3.09.54Z"/>
        <path class="cls-10" d="M73.65,19.04c-.42.22-.84-.42-.25-.71-.06-.35-.4-.29-.55-.21-2.06-5.21-8-7.81-13.82-7.81l-40.36.02c-5.45,0-11.51,2.7-13.6,7.3-.21.47-.43.97-.88,1.01.43-7.65,7.69-11.31,15.45-11.3l40.04.05c6.97,0,13.79,4.43,13.98,11.65Z"/>
        <path class="cls-20" d="M7.08,71.63l1.63,27.94,2.73,50.41c-2.01-2.15-2.43-4.73-2.61-7.84l-4.11-70.51h2.35Z"/>
        <path class="cls-14" d="M6.04,20.92c1.02,10.48,11.26,19.32,21.78,20.03l10.71.73c5.06-.07,10.02-.35,14.96-1.36,9.67-1.99,18.37-11.17,18.5-21.31l.85-.89c.15-.08.49-.15.55.21-.58.29-.17.93.25.71.29,10.58-8.3,19.78-18.69,22.83-3.14.92-6.28.87-9.51,1.43l-13.52.05c-1.16-.39-2.31-.34-3.45-.45-8.75-.82-16.81-5.21-21.37-12.95-2.08-3.53-3.14-7.33-2.92-11.31.45-.04.66-.54.88-1.01.16.19.13.42.09.56-.03.13.4.29.51.36l-.12,2.31c0,.11.37.14.5.05Z"/>
        <path class="cls-13" d="M3.96,59.16c.04.05.11.14.02.23-.17.16-.22.59-.07.78.12.15.32.35.73.52h67.5c.61.01.98-.08,1.32-.4.2-.19.42-.55.08-.84-.06-.06-.08-.22-.05-.35l1.96-.7c.72.92,1.31,1.76,1.31,3.02-.88.9-1.88,1.03-3.34,1.03H2.32s-1.63-.78-1.63-.78c.02-1.26.42-2.03,1.16-2.95.49.15.91-.13,1.35-.19.4-.05.67.43.75.64Z"/>
        <path class="cls-21" d="M68.64,49.78c-.74-.45-1.22-.15-2.01.4-.43-.56-.95-1.19-1.51-1.62-.43-.33-.84-.58-1.63-.58H14.19c-.95,0-1.55.2-2,.78l-8.23,10.41c-.08-.21-.35-.69-.75-.64-.45.06-.86.34-1.35.19l8.46-10.5c.6-.75,1.88-1.9,3.02-1.9l51.09.04c2,0,3.34,2.3,4.22,3.42Z"/>
        <path class="cls-26" d="M7.61,149c.12.37-.54,1.17-1.06.63-.02.17-.06.63-.25.58l-.85-.21c-.85.35-1.58-.04-2.08-.33-.95-.57-.84-1.36-.84-2.33v-15.7c0-1.13-.12-2.1.72-2.76,1.4-1.11,3.61-.64,4.03.12.29.53-.04,1.18-.06,1.56l.19,2.35c.6,1.95-.08,4.06.34,6.18.91,4.67-.56,8.57-.14,9.9Z"/>
        <path class="cls-11" d="M73.47,149.95c-.53.4-1.93.24-2.57.05-1.32-.4-1.18-1.62-1.23-2.65-.19-4.28-.19-8.31.18-12.55l.49-5.79c.25-.71,1.78-.89,2.59-.66.69.2,1.37.73,1.75,1.53-.35.34-.17.8.08,1.12l-.13,17.28c0,.31.14.83-.1,1.14-.19.25-.69.23-1.07.52Z"/>
        <path class="cls-4" d="M49.34,2.39l-19.8-.11c-.53,0-1.29.03-1.31.71l-.12,3.63-2.42-.09-.03-3.31c0-.85.54-2.42,1.75-2.42l22.6-.04c1.17,0,1.94,1.24,1.95,2.16v3.6c-.87.12-1.65.11-2.47-.02l-.15-4.12Z"/>
        <path class="cls-19" d="M68.64,49.78l6.81,8.62-1.96.7-6.86-8.92c.8-.55,1.28-.85,2.01-.4Z"/>
        <polygon class="cls-22" points="23.94 45.53 20.81 45.49 20.91 42.03 23.93 42.92 23.94 45.53"/>
        <polygon class="cls-3" points="56.93 45.47 53.75 45.49 53.74 42.94 56.84 42.11 56.93 45.47"/>
        <path class="cls-5" d="M15.4,67.92l.2,3.69-8.51.02-.09-3.12c0-.11.08-.45.15-.52.11-.12.5-.06.72-.06h7.53Z"/>
        <path class="cls-16" d="M72.84,18.12l-.85.89c-.25,0-.72.12-.43.77-2.95,7.42-9.1,14.21-17.36,16.12-9.98,2.31-20.29,2.27-30.18.14-8.48-1.82-14.77-8.58-17.71-16.18-.39.21-.57.48-.57.58,0,.15.19.29.28.47-.12.08-.5.06-.5-.05l.12-2.31c-.1-.07-.54-.23-.51-.36.03-.14.07-.37-.09-.56,2.09-4.6,8.15-7.3,13.6-7.3l40.36-.02c5.82,0,11.76,2.6,13.82,7.81Z"/>
        <path class="cls-8" d="M6.04,20.92c-.1-.19-.29-.32-.28-.47,0-.1.18-.37.57-.58,2.94,7.59,9.23,14.35,17.71,16.18,9.89,2.13,20.2,2.17,30.18-.14,8.26-1.91,14.41-8.71,17.36-16.12-.29-.65.17-.76.43-.77-.14,10.15-8.83,19.32-18.5,21.31-4.94,1.02-9.9,1.3-14.96,1.36l-10.71-.73c-10.53-.72-20.76-9.55-21.78-20.03Z"/>
        <path class="cls-7" d="M66.63,50.18l6.86,8.92c-.03.13-.01.29.05.35-.67.67-1.64.55-2.59.56l-5.96.06.13-11.51c.56.43,1.08,1.07,1.51,1.62Z"/>
        <path class="cls-2" d="M12.53,60.09c-1.22,0-2.39-.08-3.61-.33-1.69-.35-3.76.3-4.95-.36.09-.09.02-.18-.02-.23l8.23-10.41c.46.34.34.87.34,1.36v9.97Z"/>
        <path class="cls-24" d="M12.53,60.09l52.46-.02,5.96-.06c.95,0,1.92.12,2.59-.56.34.29.12.66-.08.84-.34.31-.71.41-1.32.41H4.64c-.41-.17-.61-.38-.73-.53-.15-.19-.1-.62.07-.78,1.19.66,3.25.01,4.95.36,1.22.25,2.38.33,3.61.33Z"/>
        <path class="cls-6" d="M65.12,48.56l-.13,11.51-52.46.02v-9.97c0-.49.12-1.02-.34-1.36.45-.57,1.05-.78,2-.78h49.3c.79,0,1.2.25,1.63.58Z"/>
        <path class="cls-9" d="M50.74,91.37l-3.16,6.2-7.49-.44c.75-.49,1.45-.59,2.06-1.33l-3.9-6.58c-.56-.94-1.34-1.48-2.25-1.89h8.07c1.03,0,1.96.39,2.49,1.26l2.25,3.65c.62-.31.65-.71,1.93-.86Z"/>
        <path class="cls-27" d="M50.88,114.88c-.54.93-1.53,1.61-2.63,1.62l-3.74.04-.24,2.51-4.08-6.45,3.77-5.93c.4.86.27,1.46.28,2.27l8.55-.07,2.02-.78-3.93,6.8Z"/>
        <path class="cls-9" d="M26.9,113.58l-3.72-6.45c-.6-1.04-.62-2.22-.02-3.25l1.99-3.44-2.27-1.23,7.52-.56,3.32,6.56-2.12-.97-3.59,5.74c-.73,1.17-1.01,2.31-1.11,3.6Z"/>
        <path class="cls-9" d="M37.31,116.44l-6.07.1c-1.36.02-2.46-.75-3.04-1.75-.95-1.65-.09-3.78,1.37-5.69l7.67-.03.07,7.37Z"/>
        <path class="cls-9" d="M54.14,107.45c-1.27.82-2.88.9-4.23.67l-3.98-6.59,6.37-3.57,2.94,5.02c.86,1.58.56,3.4-1.11,4.48Z"/>
        <path class="cls-25" d="M34.89,97.87l-6.26-3.65,2.52-4.51c1.05-1.88,3.26-2.62,5.11-1.37,1.13.77,1.94,2.03,2.42,3.3l-3.79,6.24Z"/>
        <path class="cls-9" d="M43.53,87.72c1.03,0,1.96.4,2.49,1.26l2.25,3.65"/>
        <line class="cls-27" x1="54.27" y1="108.48" x2="50.34" y2="115.28"/>
        <path class="cls-9" d="M26.36,113.98l-3.72-6.45c-.6-1.04-.62-2.22-.02-3.25l1.99-3.44-2.27-1.23,7.52-.56,3.32,6.56-2.12-.97-3.59,5.74c-.73,1.17-1.01,2.31-1.11,3.6Z"/>
        <line class="cls-9" x1="29.03" y1="109.5" x2="36.7" y2="109.47"/>
        <path class="cls-9" d="M53.61,107.84c-1.27.82-2.88.9-4.23.67l-3.98-6.59,6.37-3.57,2.94,5.02c.86,1.58.56,3.4-1.11,4.48Z"/>
        <path class="cls-25" d="M34.36,98.27l-6.26-3.65,2.52-4.51c1.05-1.88,3.26-2.62,5.11-1.37,1.13.77,1.94,2.03,2.42,3.3l-3.79,6.24Z"/>
      </g>
    </g>
  </g>
</svg>