<?xml version="1.0" encoding="UTF-8"?>
<svg id="Layer_2" data-name="Layer 2" xmlns="http://www.w3.org/2000/svg" viewBox="0 0 77.61 154.34">
  <defs>
    <style>
      .cls-1 {
        fill: #967155;
      }

      .cls-2 {
        fill: #6d472c;
      }

      .cls-3 {
        fill: #8f6749;
      }

      .cls-4 {
        fill: #68452b;
      }

      .cls-5 {
        fill: #805a3c;
      }

      .cls-6 {
        fill: #ac8a6c;
      }

      .cls-7 {
        fill: #ac8b6d;
      }

      .cls-8 {
        fill: #482d1a;
      }

      .cls-9 {
        fill: #865f44;
      }

      .cls-10 {
        fill: #fdfefd;
      }

      .cls-11 {
        fill: #8a6041;
      }

      .cls-12 {
        fill: #7d5537;
      }

      .cls-13 {
        fill: #896041;
      }

      .cls-14 {
        fill: #5f3e25;
      }

      .cls-15 {
        fill: #af8c6e;
      }

      .cls-16 {
        fill: #916849;
      }

      .cls-17 {
        fill: #393939;
      }

      .cls-18 {
        fill: #8f6748;
      }

      .cls-19 {
        fill: #1a1a18;
      }

      .cls-20 {
        fill: #1a1715;
      }

      .cls-21 {
        fill: #373738;
      }

      .cls-22 {
        fill: #fcfefc;
      }

      .cls-23 {
        fill: #4a2f1b;
      }

      .cls-24 {
        fill: #fdfefe;
      }

      .cls-25 {
        fill: #7d5739;
      }
    </style>
  </defs>
  <g id="Layer_1-2" data-name="Layer 1">
    <g>
      <path class="cls-19" d="M59.04,154.22l-39.68.13c-4.44.01-9.7-3.29-10.87-7.72-.25,1.3.1,2.48-.7,3.4-.66.75-1.62,1.14-2.97,1.08-1.16-.05-3.03-.73-3.04-2.32l-.12-19.28c1.08-2,3.07-2.41,5.42-1.55l-3.29-59.42c-1.09.03-2.04.06-2.8-.55C.18,67.33,0,66.44,0,65.18v-3.18c0-1.04.04-2.06.71-2.92l8.63-10.9c1.36-1.71,3.29-2.57,5.49-2.62l5.3-.12-.09-3.72C10.53,37.93,3.16,29.07,3.43,18.81c.22-8,7.79-12.15,15.56-12.22l6.07-.05.12-4.48C25.23.34,27.11-.01,28.64,0l22.08.16c1.72.01,2.02,2.48,2.04,3.68l.05,2.7,7.26.07c2.78.03,5.33.84,7.77,2.07,8,4.01,8.16,13.42,3.81,21.25-3.08,5.54-7.93,9.52-13.87,11.85l-.05,3.69,5.24.11c2.33.05,4.27,1.03,5.64,2.77l9.02,11.55v6.89c0,1.53-1.95,2.04-3.55,1.65l-3.52,59.48c2.06-.86,5.18-.25,5.19,2.09l.12,17.3c0,1.06,0,1.92-.68,2.74-1.16,1.38-4.11,1.44-5.28.1-.62-.71-.83-1.74-.71-2.91.2-.67-.83-.71-.42.15-1.6,3.65-5.22,6.82-9.72,6.83ZM48.34,2.28c.78,0,1.24.34,1.24,1v3.24c.82.12,1.55.13,2.47,0v-3.54c-.02-1.62-1.4-2.28-2.9-2.28l-21.68.05c-.91.35-1.66.96-1.67,1.92l-.04,3.85c.89.14,1.64.16,2.5-.01.03-1.19-.22-2.43.08-3.49s1.45-.73,2.21-.73h17.79ZM48.74,6.56l-.04-3.52h-19.63s-.06,3.52-.06,3.52h19.73ZM4.36,17.43c-.69,4.1.41,8.16,2.44,11.88,4.18,7.64,11.9,12.32,20.53,13.42,7.35.93,14.36.83,21.63.23,9.13-.76,17.38-5.28,22-13.36,1.92-3.36,2.94-7.06,2.77-10.71-.36-7.81-7.56-11.59-15.63-11.58l-38.42.05c-7.09,0-14.12,2.95-15.32,10.08ZM23.83,45.39v-2.57s-2.91-.74-2.91-.74l-.05,3.33c1.05.11,1.96.14,2.96-.02ZM57,45.48l-.15-3.25-3.02.7.09,2.62,3.07-.07ZM53.08,45.41l-.09-2.33c-4.66.82-9.09.97-13.77.97s-9.58-.13-14.49-1.04l-.1,2.49c.61,0,1.14-.12,1.79.14l24.63-.03,2.02-.19ZM1.9,58.76c-.74.92-1.21,1.8-1.19,3.06l.07,4.65c0,.41.63,1.13,1.02,1.17l2.69.27,4.3,76.45c.13,2.24,1.12,3.93,2.33,5.35,2.22,2.61,5.76,3.97,9.28,3.98l36.42.03,2.87-.35c4.91-.6,8.84-4.41,9.15-9.56l1.04-17.72,3.25-54.44.15-3.85c.79,0,1.91.06,2.68-.18,1.21-.38,1.1-1.76,1.07-2.68l-.12-3.22c-.06-1.52-.74-2.55-1.61-3.64l-7.72-9.67c-.71-.9-2-2.07-3.4-2.07l-48.63-.1c-2.1,0-3.85.35-5.17,2L1.9,58.76ZM7.63,148.4c-.01-3.47.37-7.05-.16-10.41-.28-1.79.2-3.68-.33-5.48l-.29-3.54c-.06-.79-1.95-.92-2.66-.68-.64.21-1.81.75-1.81,1.8l-.03,18.14c0,.87.61,1.26.92,1.62.35.4,3,.47,3.75-.11.34-.25.1-.62.6-1.35ZM74.07,149.93c.25-.26.19-1.21,1-1.35l.03-18.62c-.55.27-.68-.28-.34-.46-.47-1.33-3.3-1.75-4.19-.6l-.89,13.59.14,5.13c.02.88.16,1.5.65,1.99.78.79,3.3.62,3.6.3Z"/>
      <path class="cls-18" d="M59.68,153.37l-2.87.35-36.42-.03-4.82-82.09,46.12.05.22,2.91-2.06,35.56-2.84,42.96c1.27.61,2.33-.44,2.67.3Z"/>
      <path class="cls-12" d="M62.23,67.88l.07,3.8,10.82-.03-3.25,54.44-1.04,17.72c-.3,5.15-4.24,8.96-9.15,9.56-.33-.73-1.4.31-2.67-.3l2.84-42.96,2.06-35.56-.22-2.91-46.12-.05-.19-3.68,46.84-.04Z"/>
      <path class="cls-7" d="M15.58,71.6l4.82,82.09c-3.53,0-7.06-1.37-9.28-3.98l-1.45-29.99-2.59-48.04,8.5-.08Z"/>
      <path class="cls-3" d="M73.27,67.8l-11.04.08-46.84.04-8.43-.05.12,3.81,2.59,48.04,1.45,29.99c-1.2-1.41-2.2-3.1-2.33-5.35l-4.3-76.45-2.69-.27c-.39-.04-1.01-.76-1.02-1.17l-.07-4.65c.85.27,1.53.59,2.65.59l70.11.02c1.42,0,2.34-.12,3.42-.72l.12,3.22c.04.92.14,2.3-1.07,2.68-.76.24-1.88.17-2.68.18Z"/>
      <path class="cls-6" d="M73.73,18.88c-.18,0-.28-.02-.37-.06-.11-.06-.15-.33-.19-.44-.89-2.01-2.38-4.14-4.46-5.41-2.53-1.55-5.26-2.63-8.36-2.63l-42.26.02c-4.57,0-10.33,2.57-12.63,6.44-.88-.25-.13.89-1.09.64,1.2-7.13,8.23-10.07,15.32-10.08l38.42-.05c8.08,0,15.27,3.77,15.63,11.58Z"/>
      <path class="cls-13" d="M5.45,16.78c-.13.32-.29.66-.32,1.09-.03.36.41.58.81.69-.04,7.05,3.59,13.23,9.17,17.45,4.21,3.18,8.64,4.61,13.83,5.17,7.17.77,13.94.77,21.08-.14,11.79-1.49,20.98-9.73,22.26-21.39v-1.13c.01-.24.64-.24.89-.15.05.11.08.38.19.44.09.05.19.06.37.06.17,3.65-.85,7.35-2.77,10.71-4.62,8.09-12.87,12.6-22,13.36-7.27.61-14.28.7-21.63-.23-8.63-1.09-16.35-5.77-20.53-13.42-2.04-3.72-3.14-7.78-2.44-11.88.96.25.22-.89,1.09-.64Z"/>
      <path class="cls-16" d="M75.27,58.07c-.64-.03-1.34.54-1.35,1.06-.08,0-.34-.01-.43.05l-7.95-10.36c-.61-.78-1.8-.87-2.97-.87l-49.09.06c-.49,0-1.01.46-1.2.7l-8.34,10.61c.02.18-.02.46-.16.51l-1.9-1.06,8.44-10.54c1.32-1.65,3.08-2.01,5.17-2l48.63.1c1.41,0,2.69,1.17,3.4,2.07l7.72,9.67Z"/>
      <path class="cls-15" d="M75.27,58.07c.87,1.09,1.56,2.12,1.61,3.64-1.08.6-2,.72-3.42.72l-70.11-.02c-1.11,0-1.8-.32-2.65-.59-.02-1.26.45-2.13,1.19-3.06l1.9,1.06c.12.72.59.89,1.47.89l67.25-.02c.62,0,.93-.05,1.19-.29.36-.33.21-.85.22-1.27,0-.52.71-1.09,1.35-1.06Z"/>
      <path class="cls-21" d="M7.63,148.4c-.51.73-.27,1.09-.6,1.35-.76.58-3.41.51-3.75.11-.31-.35-.92-.74-.92-1.62l.03-18.14c0-1.05,1.17-1.59,1.81-1.8.71-.24,2.59-.11,2.66.68l.29,3.54c.53,1.8.05,3.69.33,5.48.53,3.36.15,6.94.16,10.41Z"/>
      <path class="cls-17" d="M74.07,149.93c-.3.32-2.82.49-3.6-.3-.49-.49-.63-1.12-.65-1.99l-.14-5.13.89-13.59c.89-1.15,3.72-.73,4.19.6-.33.18-.21.73.34.46l-.03,18.62c-.81.14-.74,1.08-1,1.35Z"/>
      <path class="cls-9" d="M48.34,2.28h-17.79c-.76,0-1.93-.28-2.21.73s-.04,2.29-.08,3.49c-.86.18-1.61.15-2.5.01l.04-3.85c0-.96.76-1.57,1.67-1.92l21.68-.05c1.5,0,2.88.66,2.89,2.28v3.54c-.91.13-1.64.12-2.47,0v-3.24c.01-.66-.45-1-1.23-1Z"/>
      <polygon class="cls-2" points="73.27 67.8 73.12 71.64 62.3 71.67 62.23 67.88 73.27 67.8"/>
      <path class="cls-11" d="M23.83,45.39c-1,.16-1.91.14-2.96.02l.05-3.33,2.9.74v2.57Z"/>
      <polygon class="cls-5" points="57 45.48 53.93 45.55 53.83 42.93 56.85 42.23 57 45.48"/>
      <polygon class="cls-1" points="15.39 67.92 15.58 71.6 7.08 71.68 6.96 67.87 15.39 67.92"/>
      <path class="cls-25" d="M73.17,18.37c-.24-.08-.87-.08-.88.15v1.13c-.28-.25-.81-.15-.61.37-3.19,7.63-9.44,14.01-17.69,16s-17.21,1.75-25.92.85c-10.51-1.09-19.3-8.28-22.13-18.31-.41-.12-.84-.34-.81-.69.03-.43.19-.77.32-1.09,2.29-3.86,8.05-6.44,12.63-6.44l42.26-.02c3.1,0,5.84,1.08,8.36,2.63,2.09,1.28,3.57,3.41,4.46,5.41Z"/>
      <path class="cls-4" d="M72.28,19.66c-1.28,11.66-10.47,19.89-22.26,21.39-7.13.9-13.91.91-21.08.14-5.19-.56-9.62-1.99-13.83-5.17-5.59-4.21-9.21-10.4-9.17-17.45,2.83,10.03,11.61,17.22,22.13,18.31,8.71.9,17.31,1.23,25.92-.85s14.5-8.37,17.69-16c-.2-.52.33-.62.6-.37Z"/>
      <path class="cls-14" d="M65.55,48.82c-.16-.01-.42-.11-.52-.04-.15.11-.11.44-.11.69l-.07,10.54-52.14.05v-10.59c0-.39-.09-.59-.4-.77.19-.24.71-.7,1.2-.7l49.09-.06c1.16,0,2.36.09,2.97.87Z"/>
      <path class="cls-23" d="M12.7,60.07l-7.52-.24c-.21-.4-.9-.15-1.23-.51l8.34-10.61c.31.18.4.38.4.77v10.59Z"/>
      <path class="cls-8" d="M65.55,48.82l7.95,10.36c-.13.1-.23.47-.57.47l-6.94-.02c-.27.4-.85.38-1.14.38l.07-10.54c0-.25-.04-.58.11-.69.11-.08.37.02.52.04Z"/>
      <path class="cls-20" d="M73.93,59.13c0,.42.14.94-.22,1.27-.26.24-.58.29-1.19.29l-67.25.02c-.88,0-1.35-.17-1.47-.89.14-.05.18-.33.16-.51.33.36,1.02.11,1.23.51l7.52.24,52.14-.05c.3,0,.87.02,1.14-.38l6.94.02c.34,0,.44-.37.57-.47.08-.06.35-.05.43-.05Z"/>
      <path class="cls-10" d="M50.94,92.58l-3.16,6.2-7.49-.44c.75-.49,1.45-.59,2.06-1.33l-3.9-6.58c-.56-.94-1.34-1.48-2.25-1.89h8.07c1.03,0,1.96.39,2.49,1.26l2.25,3.65c.62-.31.65-.71,1.93-.86Z"/>
      <path class="cls-24" d="M51.08,116.1c-.54.93-1.53,1.61-2.63,1.62l-3.74.04-.24,2.51-4.08-6.45,3.77-5.93c.4.86.27,1.46.28,2.27l8.55-.07,2.02-.78-3.93,6.8Z"/>
      <path class="cls-10" d="M27.1,114.8l-3.72-6.45c-.6-1.04-.62-2.22-.02-3.25l1.99-3.44-2.27-1.23,7.52-.56,3.32,6.56-2.12-.97-3.59,5.74c-.73,1.17-1.01,2.31-1.11,3.6Z"/>
      <path class="cls-10" d="M37.5,117.65l-6.07.1c-1.36.02-2.46-.75-3.04-1.75-.95-1.65-.09-3.78,1.37-5.69l7.67-.03.07,7.37Z"/>
      <path class="cls-10" d="M54.34,108.66c-1.27.82-2.88.9-4.23.67l-3.98-6.59,6.37-3.57,2.94,5.02c.86,1.58.56,3.4-1.11,4.48Z"/>
      <path class="cls-22" d="M35.09,99.09l-6.26-3.65,2.52-4.51c1.05-1.88,3.26-2.62,5.11-1.37,1.13.77,1.94,2.03,2.42,3.3l-3.79,6.24Z"/>
      <path class="cls-10" d="M43.73,88.93c1.03,0,1.96.4,2.49,1.26l2.25,3.65"/>
      <line class="cls-24" x1="54.47" y1="109.7" x2="50.54" y2="116.49"/>
      <path class="cls-10" d="M26.56,115.19l-3.72-6.45c-.6-1.04-.62-2.22-.02-3.25l1.99-3.44-2.27-1.23,7.52-.56,3.32,6.56-2.12-.97-3.59,5.74c-.73,1.17-1.01,2.31-1.11,3.6Z"/>
      <line class="cls-10" x1="29.23" y1="110.71" x2="36.89" y2="110.68"/>
      <path class="cls-10" d="M53.8,109.06c-1.27.82-2.88.9-4.23.67l-3.98-6.59,6.37-3.57,2.94,5.02c.86,1.58.56,3.4-1.11,4.48Z"/>
      <path class="cls-22" d="M34.55,99.49l-6.26-3.65,2.52-4.51c1.05-1.88,3.26-2.62,5.11-1.37,1.13.77,1.94,2.03,2.42,3.3l-3.79,6.24Z"/>
    </g>
  </g>
</svg>