<?xml version="1.0" encoding="UTF-8"?>
<svg id="Layer_2" data-name="Layer 2" xmlns="http://www.w3.org/2000/svg" xmlns:xlink="http://www.w3.org/1999/xlink" viewBox="0 0 90.62 127.18">
  <defs>
    <style>
      .cls-1 {
        fill: #191c19;
      }

      .cls-2 {
        fill: #98a311;
      }

      .cls-3 {
        fill: #b0b7a2;
      }

      .cls-4 {
        fill: #e7eacf;
      }

      .cls-5 {
        fill: #70740e;
      }

      .cls-6 {
        fill: #98a312;
      }

      .cls-7 {
        fill: #868e10;
      }

      .cls-8 {
        fill: #1d2012;
      }

      .cls-9 {
        fill: #80870e;
      }

      .cls-10 {
        fill: #282d12;
      }

      .cls-11 {
        fill: #2c3010;
      }

      .cls-12 {
        fill: #1e200f;
      }

      .cls-13 {
        fill: #757b0c;
      }

      .cls-14 {
        fill: #65690d;
      }

      .cls-15 {
        fill: #5c610d;
      }

      .cls-16 {
        fill: #585d0c;
      }

      .cls-17 {
        fill: #949f11;
      }

      .cls-18 {
        fill: #c5cc7a;
      }

      .cls-19 {
        fill: #7a7829;
      }

      .cls-20 {
        fill: #98a212;
      }

      .cls-21 {
        fill: #919a0f;
      }

      .cls-22 {
        fill: #f1f2e3;
      }

      .cls-23 {
        fill: #525311;
      }

      .cls-24 {
        fill: #17190f;
      }

      .cls-25 {
        fill: #5f640c;
      }

      .cls-26 {
        fill: #d6db7a;
      }

      .cls-27 {
        fill: url(#linear-gradient);
      }

      .cls-28 {
        fill: #1f2210;
      }

      .cls-29 {
        fill: #1a1e15;
      }

      .cls-30 {
        fill: #80870c;
      }
    </style>
    <linearGradient id="linear-gradient" x1="-3478.75" y1="-4426.86" x2="-3250.12" y2="-4368.02" gradientTransform="translate(523.38 1330.09) scale(.14 .3)" gradientUnits="userSpaceOnUse">
      <stop offset="0" stop-color="#696c0e"/>
      <stop offset="1" stop-color="#4d5010"/>
    </linearGradient>
  </defs>
  <g id="Layer_1-2" data-name="Layer 1">
    <g>
      <path class="cls-1" d="M90.32,99.47l-.32,6.7c-.49,10.03-8.34,17.51-18.62,19.39-11.24,2.05-30.25,1.78-42.82,1.2-5.7-.26-11.01-.38-16.25-2.44-5.68-2.23-10.31-6.53-11.25-12.47l-.67-18.02L0,34.6c-.02-2.72,2.13-5.29,3.9-6.99l8.9-8.58c-1.53-.68-4.05-1.62-4.05-3.16l.05-12.93c0-1.78,3.43-2.72,5.05-2.39,1.83.37,3.21-.52,4.46-.52l42.68-.03,14.25.6c2.05.09,6.31.92,6.39,3.09l.39,10.32c.06,1.53-.12,2.86-1.06,3.8-1.01,1.02-2.51,1.29-4.5,1.19,3.73,5.42,13.13,11.88,13.3,17.15l.38,11.67c.05,1.41.71,2.58.12,3.98-.58,1.37-.62,4.18-.11,5.74.89,2.68.21,4.85.21,7.21l-.05,34.73ZM10.33,2.78c-.95,1.23-.44,2.87-.47,4.47l-.11,7.45c-.02,1.32,1.28,2.38,2.86,2.42l11.77.33,45.97.23c1.23,0,2.93-.84,4.06-.56,2.37.59,3.57-1.61,5.64-1.12,2.19-3.32.03-5.54.63-8.66.22-1.13-.44-3.58-1.39-4.55-4.61-1.2-9.37-1.32-14.13-1.34l-48.23-.27c-.85,0-2.26,1.1-3.72.56-1.11-.41-2.45.39-2.89,1.04ZM73.89,19.45c.53-.01,1.66-.5,1.95-1.1l-57.19-.06-2.24-.68c-.32-.1-1.46.01-.61.98.81.33,2.82.71,3.85.73l26.93.54c3.44.07,6.61.08,10.06,0l17.24-.41ZM88.92,104.88l.16-64.14c.01-5.49-3.18-9.8-6.96-13.3l-7.79-7.23c-1.1,0-2.38-.19-3.5.63l-46.17-.35c-3.39-.03-6.56-.24-10.19-.96l-9.46,9.13c-1.12,1.08-3.2,3.12-3.19,5.11l.47,76.42c.05,8.38,8.74,13.34,16.5,14.29,16.28,1.99,31.94,1.78,48.34.45,11.92-.97,21.75-8.09,21.78-20.04Z"/>
      <path class="cls-4" d="M88.92,104.88c-.03,11.96-9.86,19.08-21.78,20.04-16.39,1.33-32.06,1.54-48.34-.45-7.76-.95-16.45-5.91-16.5-14.29l-.47-76.42c-.01-1.99,2.07-4.03,3.19-5.11l9.46-9.13c3.63.72,6.8.93,10.19.96l46.17.35c1.12-.82,2.4-.63,3.5-.63l7.79,7.23c3.77,3.5,6.97,7.81,6.96,13.3l-.16,64.14ZM29.12,120.32c-.71.68-2.07.11-2.75,1.5,4.23.81,8.19,1.02,12.49,1.03l23.52.06c3.01,0,5.91.03,8.77-.82.7-.15,2.28.95,2.96-.08.37-.57,1.28-1.39,1.98-2.27.36,0,1.44.71,1.76.31l1.24-1.54c2.51-1.14,3.06-3.29,4.7-4.79-.43-.72.21-.68.48-.73.38-.07-.18-1.34.28-1.07.76-.54,0-1.62.77-1.97.62-.89,1.62-2.34,2.53-3.25-.28-5.49.89-11.29-.54-16.16-.78-2.66-1.55-6-.09-8.38,1.14-1.86.78-4.45-.25-6.16l-.59-36.12c0-.52.06-1.32-.23-1.67-.3-.37-1.2.15-1.64.41.22-.97-.6-2.11-1.42-2.9l-5.38-5.12-56.46.36c-4.94.03-10.1.41-14.42,2.38-1.11.84-1.27,3.86-1.27,5.13l.02,24.6.76,45.82c.08,4.99,5.7,8.72,10.38,9.46l12.41,1.97Z"/>
      <path class="cls-27" d="M80.69,7.34c-.6,3.11,1.56,5.33-.63,8.66-2.07-.48-3.27,1.71-5.64,1.12-1.13-.28-2.83.56-4.06.56l-45.97-.23-11.77-.33c-1.58-.04-2.88-1.1-2.86-2.42l.11-7.45c.02-1.59-.49-3.24.47-4.47,1.04.88,2.5-.35,3.24-.35l53.53-.04c1.75,0,3.5.96,5.36.6,3.1-.6,6.22.4,7.53,2.96-.6.83.09,1.51.69,1.39Z"/>
      <path class="cls-18" d="M80.69,7.34c-.61.12-1.3-.55-.69-1.39-1.32-2.55-4.44-3.55-7.53-2.96-1.86.36-3.61-.6-5.36-.6l-53.53.04c-.74,0-2.2,1.24-3.24.35.45-.65,1.78-1.45,2.89-1.04,1.46.54,2.87-.57,3.72-.56l48.23.27c4.75.03,9.52.14,14.13,1.34.94.97,1.61,3.42,1.39,4.55Z"/>
      <path class="cls-22" d="M73.89,19.45l-17.24.41c-3.45.08-6.62.07-10.06,0l-26.93-.54c-1.03-.02-3.04-.4-3.85-.73-.85-.96.29-1.08.61-.98l2.24.68,57.19.06c-.29.6-1.41,1.08-1.95,1.1Z"/>
      <path class="cls-24" d="M84.52,38.61c-.22.97.58,2.3.58,3.32l-.04,59.08-1.56,5.55c-.74,6.39-6.26,10.84-12.91,12.11l-10.53,2.01-26.27.04c-1.37,0-3.45-.21-4.65-.4l-12.41-1.97c-4.67-.74-10.29-4.46-10.38-9.46l-.76-45.82-.02-24.6c0-1.27.16-4.3,1.27-5.13,4.33-1.97,9.49-2.35,14.42-2.38l56.46-.36,5.38,5.12c.83.79,1.65,1.93,1.42,2.9ZM35.21,35.35c-.42.09-.46.33-.39.52.23.67-.33,1.08-.87.9l-2.52-5.03-15.13.36-6.81,1.22c-3.19.57-3.01,5.55-2.98,10.69l.34,59.33c.03,4.78.8,9.7,5.55,12.25,5.75,3.09,16.58,4.12,23.26,4.07l25.06-.2c3.66-.03,7.19-1.12,10.52-1.98,5.49-1.43,9.19-4.65,11.17-9.76l-.07-16.01.25-32.18c.03-4.08-.69-8.49.73-12.24,1.45-3.84.6-11.74-2.35-11.45-1.12-1.77-2.63-3.61-5.04-4.65l-4.8.06-6.37.38-32.21.35c.88,1.69,1.54,2.78,2.66,3.4ZM83.26,102.56c.24.07.63-.17.63-.35v-52.83c-.03-.17-.37-.41-.65-.39l.02,53.58Z"/>
      <path class="cls-3" d="M29.12,120.32c1.2.19,3.28.4,4.65.4l26.27-.04,10.53-2.01c6.65-1.27,12.17-5.72,12.91-12.11l1.56-5.55.04-59.08c0-1.01-.8-2.35-.58-3.32.44-.27,1.34-.78,1.64-.41.29.35.22,1.14.23,1.67l.59,36.12c1.04,1.71,1.39,4.31.25,6.16-1.45,2.38-.68,5.72.09,8.38,1.42,4.87.25,10.67.54,16.16-.91.91-1.91,2.36-2.53,3.25-.77.36,0,1.43-.77,1.97-.46-.27.1,1-.28,1.07-.28.05-.91.01-.48.73-1.65,1.5-2.19,3.65-4.7,4.79l-1.24,1.54c-.32.4-1.4-.3-1.76-.31-.69.87-1.6,1.7-1.98,2.27-.68,1.03-2.26-.07-2.96.08-2.86.85-5.77.83-8.77.82l-23.52-.06c-4.3-.01-8.26-.21-12.49-1.03.68-1.4,2.04-.83,2.75-1.5Z"/>
      <path class="cls-14" d="M82.59,59.5c-2.46.11-5.37.67-6.98,2.54l-1.74-3.15c-.37-.67-.17-1.34-.65-1.58s-1.64-.46-2.15-.28c.02-.64-.55-.8-.99-.64l-1.57.56-9.53,1.48c-.77-.58-1.59.07-1.24.77l-11.2,3.68c.26,1.75,1.27,1.54,1.76,2.27l-7.12,2.57c-.42-.36-1.24-.3-1.61.03-.27.24-.72.49-.69,1s-.56.65-.93.88c-.7-.54-1.62-.22-2.06.25-.37.4-1.22.74-.94,1.52.11.3-.07.59-.47.56-.73-.32-1.41.29-1.6.8-.29.77-.28,1.91.57,2.16.05.71.35,1.79.02,2.56-1.28,1.16.24,1.67.05,3.57-1.11.63-.7,1.93-.9,2.8-.94.02-.99-.78-1.33-1.35l-2.63-4.5c-.13-.22-1.14-.17-1.09-.39s.07-.49-.06-.75c-1.55-3.31-4.23-4.03-8.23-3.33-7.22,1.25-7.62,11.04-6.26,18.74-1.13,6.12-.91,12.29,2.37,18.36,2.39,3.84,9.15,5.74,13.01,2.67l3.69-6.44c.12-.21.09-.68.55-.75,2.48,1.05-1.87,5.12,1.43,5-.07,3.2.9,6.36,4.9,6.79-.69,1.32-2.01,1.1-3.3,1.76-6.68.05-17.51-.97-23.26-4.07-4.75-2.56-5.52-7.47-5.55-12.25l-.34-59.33c.71-.55,2.68.03,2.46,1.03-.54,2.59,1.36,4.49,1.99,6.48.82,2.61,1.6,4.79,3.95,6.66.95,1.87,2.96,3.84,5.32,3.21,3.3,2.55,7.58,3.85,12.16,3.5l4.23-6.65c.71.43.81.81.93,1.14.21.55,1.5.02,2.03-.2.4,1.55-.3,2.85,1.02,4.07.4-2.45.21-4.94.25-7.42l10.06.39c4.51.2,8.21-2.42,12.13-4.02,3.67-1.5,5.47-4.35,5.94-8.1,1.58-2.28.99-5.18-1.23-6.42-.18-1.5,1.16-3.07-.31-4.87,1.11-.95,2.43-.8,3.67-1.58l4.8-.06c2.41,1.04,3.92,2.88,5.04,4.65,2.96-.29,3.8,7.61,2.35,11.45-1.42,3.75-.7,8.16-.73,12.24Z"/>
      <path class="cls-5" d="M82.34,91.68l.07,16.01c-1.98,5.11-5.68,8.34-11.17,9.76-3.33.86-6.85,1.95-10.52,1.98l-25.06.2c1.29-.65,2.6-.43,3.3-1.76,2.13-.89,5.16-.89,7.96-1.27,3.36-.45,5.91-2.34,8.76-3.42,8.82-3.33,15.3-11.98,12.62-18.7l-2.1-5.26c-.79-1.97-2.77-2.57-5.18-1.98-.3-1.21.22-1.88.16-2.64,6.58-2.81,13.55-4.1,18.29.89,1.87,1.97.94,6.12,2.88,6.17Z"/>
      <path class="cls-7" d="M33.95,36.77l.21,4.03c.14,2.64.18,5.26-.81,7.9-7.8-2.54-16.66,1.98-13.34-3.41,3.53.85,6.45-1.01,7.27-3.98.96-3.5-1.39-5.96-5.12-7.34-3-1.12-6.45.52-7.6,3.62-.92,2.48.21,5.48,2.84,7.14-.59.13-2.13.25-2.4,1.05-.17.52.16,1.16.14,2.38-.03,1.89-1.07,4.91.77,6.25,2.61,1.9,3.08,4.61,4.32,6.97-2.36.63-4.37-1.34-5.32-3.21-2.34-1.87-3.12-4.05-3.95-6.66-.63-1.99-2.53-3.9-1.99-6.48.21-1-1.76-1.58-2.46-1.03-.03-5.14-.21-10.12,2.98-10.69l6.81-1.22,15.13-.36,2.52,5.03Z"/>
      <path class="cls-23" d="M82.59,59.5l-.25,32.18c-1.94-.05-1.01-4.2-2.88-6.17-4.74-4.99-11.71-3.71-18.29-.89l-6.15,2.63c.21-.79,1.53-1.76,2.37-1.98,4.02-1.05,7.11-3.59,11.1-5.41,4.92-2.24,9.35-6.22,8.33-11.5l-1.22-6.31c1.61-1.87,4.52-2.43,6.98-2.54Z"/>
      <path class="cls-9" d="M71.12,31.22c-1.24.77-2.56.63-3.67,1.58,1.47,1.8.12,3.37.31,4.87-5.21-.2-13.63-.54-16.8,1.55-.25-1.22-1.96-.57-2.66-.56-3.65-2.29-6.42-4.58-9.58-3.83-.98.23-2.71-.99-3.52.52-1.13-.61-1.78-1.7-2.66-3.4l32.21-.35,6.37-.38Z"/>
      <path class="cls-25" d="M50.97,39.22l-4.38,2.89c-2.17,1.43-4.39,3.16-5.16,5.53-.66-.29-1.32,0-1.64.3-.31-.52-.54-1.03-.72-1.17s-.84-.33-1.18.47c-1.25-1.65-2.66-3.24-.89-5.84-.74-.39-1.89-.82-2.83-.6l-.21-4.03c.53.19,1.1-.23.87-.9-.07-.19-.03-.43.39-.52.8-1.52,2.53-.29,3.52-.52,3.16-.75,5.93,1.54,9.58,3.83.7,0,2.4-.66,2.66.56Z"/>
      <path class="cls-19" d="M83.26,102.56l-.02-53.58c.28-.02.62.22.65.39v52.83c0,.19-.38.42-.63.35Z"/>
      <path class="cls-6" d="M38.96,117.89c-4-.42-4.97-3.59-4.9-6.79.03-1.55.5-3.39.46-4.74,1.36-1.97,2.46-3.55,4.13-5.4.75-.82.96-3.31,2.86-3.29,1.72.02,2.93-.19,4.07-.88,2.07-1.26-.63-6.12,9.11-7.65-.14-.83-.64-1.29.33-1.9l6.15-2.63c.06.76-.46,1.43-.16,2.64,2.41-.59,4.39,0,5.18,1.98l2.1,5.26c2.68,6.71-3.8,15.37-12.62,18.7-2.86,1.08-5.41,2.97-8.76,3.42-2.79.38-5.82.37-7.96,1.27Z"/>
      <path class="cls-21" d="M27.49,76.85l-6.05,1.25c-1.28,1.08.91,3.78,2.7,3.68,1.24-.07,2.66-.62,3.6.46.63.71,1.03,2.86-.89,3.26-1.14,3.8-1.05,7.76-.58,11.59,1.95-.48,3.11-.09,3.84.81,1.51,1.86-1.28,7.79,1.97,8.96l-3.69,6.44c-3.86,3.07-10.62,1.17-13.01-2.67-3.28-6.06-3.5-12.24-2.37-18.36-1.36-7.71-.96-17.49,6.26-18.74,4-.69,6.68.03,8.23,3.33Z"/>
      <path class="cls-2" d="M55.47,83.31c-5.1,1.94-11.29,2.99-15.56-.63l-6.46-5.21c.34-.78.03-1.85-.02-2.56-.22-1.19.38-2.01,1.04-2.96.4.03.58-.26.47-.56l3-1.77c.37-.23.95-.35.93-.88.93.12,1.71-.45,2.31-1.03l7.12-2.57,8.93-2.04c3-.69,6.43,2.2,7.85,4.26,2.04,2.96,2.92,6.76.93,9.7-2.35,3.46-6.79,4.82-10.53,6.25Z"/>
      <path class="cls-20" d="M67.76,37.66c2.22,1.25,2.81,4.15,1.23,6.42-.47,3.75-2.26,6.6-5.94,8.1-3.92,1.6-7.62,4.22-12.13,4.02l-10.06-.39c.04-2.7-.29-5.58.56-8.18.77-2.37,3-4.1,5.16-5.53l4.38-2.89c3.16-2.09,11.59-1.76,16.8-1.55Z"/>
      <path class="cls-13" d="M71.08,57.02c.51-.17,1.68.05,2.15.28s.28.91.65,1.58l1.74,3.15,1.22,6.31c1.02,5.28-3.41,9.26-8.33,11.5-3.99,1.82-7.08,4.36-11.1,5.41.29-.45.4-1.07.03-1.36-.54-.43-1.21-.28-1.96-.59,3.74-1.43,8.18-2.78,10.53-6.25,1.99-2.94,1.11-6.74-.93-9.7-1.42-2.06-4.85-4.95-7.85-4.26l-8.93,2.04c-.49-.73-1.5-.53-1.76-2.27l11.2-3.68,4.94-.61c2.77-.34,5.81-.7,8.4-1.56Z"/>
      <path class="cls-17" d="M17.4,44.73c.83-.18,1.85.38,2.61.56-3.32,5.39,5.54.87,13.34,3.41,4.84,1.57,4.2,8.08,3.27,9.54l-4.23,6.65c-4.59.34-8.87-.95-12.16-3.5-1.24-2.36-1.71-5.08-4.32-6.97-1.84-1.33-.8-4.36-.77-6.25.02-1.22-.32-1.86-.14-2.38.27-.8,1.81-.92,2.4-1.05Z"/>
      <path class="cls-15" d="M55.47,83.31c.75.31,1.43.16,1.96.59.37.29.26.91-.03,1.36-.84.22-2.17,1.2-2.37,1.98-.96.61-.47,1.08-.33,1.9-9.74,1.52-7.04,6.39-9.11,7.65-1.14.7-2.36.91-4.07.88-1.91-.03-2.12,2.46-2.86,3.29-1.67,1.84-2.77,3.43-4.13,5.4l-.59-18.36c-.03-.83-.5-2.15-1.31-1.97-.32-.19-.52-.59-.42-.99.09-.35.39-.43.73-.32,1.04-.78.46-2.53.57-3.67.19-1.9-1.33-2.42-.05-3.57l6.46,5.21c4.27,3.62,10.46,2.57,15.56.63Z"/>
      <path class="cls-30" d="M27.49,76.85c.12.26.1.53.06.75s.97.17,1.09.39l2.63,4.5c.34.57.39,1.38,1.33,1.35.03.2.31.51.33.87-.34-.11-.64-.02-.73.32-.1.4.1.8.42.99l.52,5.65c.23,2.52.65,5.39-.17,8.13.71,2.05.89,4.33-.34,6.29-.47.07-.43.54-.55.75-3.24-1.17-.46-7.09-1.97-8.96-.72-.89-1.88-1.28-3.84-.81-.47-3.83-.56-7.79.58-11.59,1.92-.4,1.52-2.54.89-3.26-.94-1.08-2.36-.53-3.6-.46-1.79.09-3.98-2.6-2.7-3.68l6.05-1.25Z"/>
      <path class="cls-16" d="M41.42,47.64c-.85,2.6-.52,5.49-.56,8.18-.04,2.48.15,4.97-.25,7.42-1.32-1.22-.62-2.52-1.02-4.07-.54.23-1.82.76-2.03.2-.13-.33-.22-.7-.93-1.14.93-1.46,1.57-7.96-3.27-9.54.99-2.64.94-5.27.81-7.9.95-.22,2.09.21,2.83.6-1.77,2.6-.36,4.19.89,5.84.34-.8,1-.61,1.18-.47s.41.65.72,1.17c.32-.29.98-.6,1.64-.3Z"/>
      <path class="cls-10" d="M34.51,106.36c.04,1.34-.43,3.19-.46,4.74-3.3.12,1.05-3.95-1.43-5,1.23-1.96,1.05-4.24.34-6.29.82-2.74.41-5.6.17-8.13l-.52-5.65c.81-.18,1.29,1.14,1.31,1.97l.59,18.36Z"/>
      <path class="cls-11" d="M71.08,57.02c-2.58.86-5.62,1.22-8.4,1.56l-4.94.61c-.35-.7.47-1.35,1.24-.77l9.53-1.48,1.57-.56c.44-.16,1.01,0,.99.64Z"/>
      <path class="cls-29" d="M32.93,84.72c-.02-.37-.3-.67-.33-.87.2-.87-.21-2.17.9-2.8-.11,1.14.47,2.9-.57,3.67Z"/>
      <path class="cls-12" d="M33.43,74.91c-.85-.26-.86-1.39-.57-2.16.19-.51.87-1.12,1.6-.8-.65.95-1.25,1.77-1.04,2.96Z"/>
      <path class="cls-28" d="M37.94,69.62l-3,1.77c-.27-.78.57-1.12.94-1.52.43-.47,1.35-.79,2.06-.25Z"/>
      <path class="cls-8" d="M41.17,67.71c-.59.58-1.37,1.15-2.31,1.03-.02-.51.42-.77.69-1,.38-.33,1.19-.38,1.61-.03Z"/>
      <path class="cls-26" d="M20.01,45.29c-.76-.18-1.78-.74-2.61-.56-2.63-1.67-3.76-4.66-2.84-7.14,1.15-3.11,4.6-4.74,7.6-3.62,3.72,1.38,6.08,3.85,5.12,7.34-.82,2.98-3.74,4.83-7.27,3.98Z"/>
    </g>
  </g>
</svg>