<?xml version="1.0" encoding="UTF-8"?>
<svg id="Layer_2" data-name="Layer 2" xmlns="http://www.w3.org/2000/svg" viewBox="0 0 67.65 143.72">
  <defs>
    <style>
      .cls-1 {
        fill: #737271;
      }

      .cls-2 {
        fill: #383737;
      }

      .cls-3 {
        fill: #fbcc7c;
      }

      .cls-4 {
        fill: #3e3c3b;
      }

      .cls-5 {
        fill: #aa4201;
      }

      .cls-6 {
        fill: #d06302;
      }

      .cls-7 {
        fill: #50504f;
      }

      .cls-8 {
        fill: #201c1b;
      }

      .cls-9 {
        fill: #622505;
      }

      .cls-10 {
        fill: #1f1a18;
      }

      .cls-11 {
        fill: #221107;
      }

      .cls-12 {
        fill: #5a2307;
      }

      .cls-13 {
        fill: #888889;
      }

      .cls-14 {
        fill: #b54e04;
      }

      .cls-15 {
        fill: #331504;
      }

      .cls-16 {
        fill: #444343;
      }

      .cls-17 {
        fill: #f39f49;
      }

      .cls-18 {
        fill: #d26104;
      }

      .cls-19 {
        fill: #c45519;
      }

      .cls-20 {
        fill: #a84202;
      }

      .cls-21 {
        fill: #d16402;
      }

      .cls-22 {
        fill: #727372;
      }

      .cls-23 {
        fill: #969595;
      }
    </style>
  </defs>
  <g id="Layer_1-2" data-name="Layer 1">
    <g>
      <path class="cls-8" d="M63.21,130.97c.07,11.99-15.98,13.08-28.8,12.68l-18.2-.56C8.25,142.84,0,139.05,0,132.54l.08-58.98c.01-9.41,8.25-17.26,18.79-19.87.91-.74.99-3.24.49-4.31-2.04.27-4.66-.64-4.65-2.51l.05-14c.23-2.62,1.91-4.59,4.89-4.75,1.64-2.29,3.45-4.23,6.7-5.28l.39-13.29c-4.28-.33-8.39.27-12.68-1.13-2.17-.71-2.6-5.6-.24-6.36C21-.27,28.6-.18,35.92.21c2.5.13,3.79,1.48,5.6,2.16,3.58,1.33,7.7.85,11.39,1.35l12.32,1.66c1.07.14,1.72,1.06,2.12,1.52.49.55.36,2.88-.48,2.94-10.02.7-19.77.08-29.94-.36l.11,13.71c6.86.45,5.79,3.94,7,4.25,2.32.6,4.58,2.37,4.62,4.88l.27,16.26c-1.53,1.01-3.15.68-4.83.78-1.55.1-1.01,1.61-.88,2.29.57,2.98,6.57,2.86,11.74,6.81,4.88,3.72,7.84,8.4,7.88,14.34l.35,58.19ZM37.35,5.19c1.3.53,3.71.64,5.37-.9-1.5-.73-2.78-.53-4.52-.4.17.58.14,1.03-.85,1.3-.13-.52.16-.85.07-1.11-.2-.56.68-1.16.97-1.39-.87-1.21-3.49-1.89-4.14-.81s-2.03-.13-2.71-.54l-10.52.26c-2.73.07-6.1.58-6.78,1.4-.6.73-.51,2.54.18,2.84l18.6-.27c1.5-.33,3.03-.93,4.35-.4ZM46.9,4.81s-.14-.21-.36-.35c-.99-.04-2.05-.2-3.04.23.01.04.14.21.36.35.99.04,2.05.2,3.04-.23ZM55.64,5.45c-.01-.06-.11-.25-.36-.38-1.44,0-2.94-.21-4.39.2.01.06.11.25.36.38,1.44,0,2.94.21,4.39-.2ZM27.31,25.17c-1.55-.02-3.36-.07-3.98,1.32-.6-.21-1.37-.36-1.61.65-.24,1-.26,1.5.9,1.56,1.29.07,1.64.3,1.57-1.46,2.67-.15,5.38-.25,8.06-1.63-.8.09-3.47-.46-1.68-1.82-.63-.51-2.2-.53-3.16-.07.88.05.82.79.57,1.11-.13.17-.29.22-.65.33ZM25.97,48.07c2.12-.24,4.16.28,7.14.54l-.59-15.31c-.03-.69.09-1.15.61-1.41.46-.23,1.8-.03,1.77.75l-.48,15.48c4.86.16,8.66.14,13.14-.14l-.23-7.31c-.1-3.26.97-6.81-.31-10.91h-22.19s-5.5-.17-5.5-.17c-2.04-.06-3.14,1.17-3.15,2.93l-.09,14.6c3.68.45,6.66,1.34,9.89.97ZM28.59,55.26c-1.53,1.16-3.09.64-5.16.28-10.33-1.8-22.04,7.9-22.06,17.95l-.08,59.72c0,2.8,2.97,4.87,4.63,5.99,3.01,2.03,6.56,2.58,10.4,2.71l14.73.5c7.58.26,19.11.08,24.29-2.42,10.35-5.02,5.01-11.26,6.6-16.04.52-1.57.62-2.72-.04-4.32-.64-1.56.11-3.7-.43-5.36-.18-.56.87-1.64.86-2.25l-.37-27.45-.53-12.32c-.1-2.26-.61-4.53-1.72-6.39-2.64-4.43-6.86-7.91-12.02-9.69-1.54-.53-3.61-.93-5.41-.81-.02-.22-.09-1.81-.44-1.7s-.9.74-1.8.41c1.31-1.44,2.06-2.83,1.63-4.78-3.84.21-7.18-.53-10.37.46-3.35-.89-6.8-.33-10.45-.51.25,2.05-.09,3.67-.32,5.54,1.39.23,2.97.6,3.82-.98.42,1.61,2.72,2.26,4.22,1.46Z"/>
      <path class="cls-20" d="M61.48,114.27c.54,1.66-.21,3.8.43,5.36.66,1.6.57,2.75.04,4.32-1.59,4.78,3.75,11.02-6.6,16.04-5.17,2.51-16.7,2.68-24.29,2.42l-14.73-.5c-3.84-.13-7.39-.68-10.4-2.71-.39-1.65.46-3.24,1.04-4.47,2.44.6,4.67,1.07,6.29-.62,9.45.19,18.87.09,28.45-.2.76-.45,1.35-.53,2.23-.76.63-.17.78-.36.56-1.19.32-.28.67-1.11.46-1.47,1.16-.77,2.63-.43,4.36-1.05l.74-12.57-.54-43.48c.32-.15.48-.35.49-.61,4.98,0,8.96.25,8.98-1.41.13-.07,1-.29,1.42.03.72,2.94,1.17,6.1-.86,8.95l.15,33.26,1.77.67ZM38.19,137.08c.07-.18-.16-.54-.38-.54l-27.94.09c-.07.18.16.54.38.54l27.94-.09ZM49.68,137.45c.89.62,2.26.79,2.89-.59-.98-.16-1.88.23-2.89.59Z"/>
      <path class="cls-18" d="M47.71,56.17c-.39,1-.87.5-1.27.57-1.59.27,3.74,8.53,3.43,15.26l-17.52-.1-.6-13.45-.61,13.58-9.56-.28c-2.5-.07-4.83-.27-7.16-.38-.24-.05-.37-.22-.41-.37.65-2.12.66-4.75,1.86-7.05.38-.73,2.22-2.45,1.05-3.28-2.48-.66-6.25.34-8.15,2.32-2.2,2.29-2.23,5.21-2.24,7.85l-.09,49.74c0,4.82-.46,9.99.55,14.16-.58,1.23-1.43,2.82-1.04,4.47-1.66-1.12-4.64-3.19-4.63-5.99l.08-59.72c.01-10.05,11.73-19.75,22.06-17.95,2.07.36,3.63.88,5.16-.28,2.04-.33,4.43-2.35,2.94-4.16-.24-.29-.36-.72-.21-1.35,3.19-.99,6.52-.25,10.37-.46.43,1.96-.32,3.34-1.63,4.78.91.33,1.44-.3,1.8-.41s.42,1.48.44,1.7c1.8-.12,3.87.28,5.41.81ZM35.44,54.8c-1.26-.52-1.66.95-.14.74.74.18,1-.66.14-.74Z"/>
      <path class="cls-4" d="M25.97,48.07l-.38-16.62c-.01-.7-.71-1.31-.77-1.72h22.19c1.28,4.11.21,7.66.31,10.92l.23,7.31c-4.48.28-8.28.3-13.14.14l.48-15.48c.02-.77-1.31-.98-1.77-.75-.52.26-.64.72-.61,1.41l.59,15.31c-2.98-.26-5.02-.78-7.14-.54Z"/>
      <path class="cls-13" d="M24.83,29.74c.06.41.75,1.01.77,1.72l.38,16.62c-3.23.37-6.2-.52-9.89-.97l.09-14.6c.01-1.76,1.12-2.99,3.15-2.93l5.5.16Z"/>
      <path class="cls-5" d="M59.73,65.86c-.26-.02-.98-.06-1.34.15l.62,5.34c-3.04-.09-5.49.67-9.13.65.32-6.72-5.02-14.99-3.43-15.26.4-.07.88.43,1.27-.57,5.16,1.78,9.38,5.26,12.02,9.69Z"/>
      <path class="cls-19" d="M59.73,65.86c1.11,1.86,1.62,4.13,1.72,6.39l.53,12.32.37,27.45c0,.61-1.05,1.69-.86,2.25l-1.77-.67-.15-33.26c2.03-2.85,1.58-6.01.86-8.95-.43-.33-1.3-.11-1.42-.03l-.62-5.34c.36-.21,1.08-.17,1.34-.15Z"/>
      <path class="cls-2" d="M37.35,5.19c-1.31-.53-2.85.06-4.35.4l-18.6.27c-.69-.29-.78-2.11-.18-2.84.68-.83,4.06-1.34,6.78-1.4l10.52-.26c.69.4,2.05,1.65,2.71.54s3.26-.4,4.14.81c-.29.22-1.17.82-.97,1.39.09.25-.2.58-.07,1.11Z"/>
      <path class="cls-14" d="M31.33,49.75c-.16.63-.03,1.06.21,1.35-.66,1.64-1.24,3.26-2.94,4.16-1.5.79-3.81.15-4.22-1.46-.84,1.58-2.42,1.21-3.82.98.24-1.86.57-3.49.32-5.54,3.64.19,7.1-.38,10.45.51Z"/>
      <path class="cls-7" d="M23.32,26.5h3.94c.25-.31.17-1.12.04-1.32.36-.11.52-.16.65-.33.25-.33.31-1.06-.57-1.11.97-.45,2.53-.44,3.16.07-1.78,1.35.89,1.9,1.68,1.82-2.67,1.38-5.39,1.48-8.06,1.63.07,1.75-.28,1.52-1.57,1.46-1.16-.06-1.15-.56-.9-1.56.25-1.01,1.02-.86,1.61-.65Z"/>
      <path class="cls-16" d="M37.35,5.19c.99-.27,1.02-.72.85-1.3,1.74-.13,3.02-.34,4.52.4-1.66,1.54-4.08,1.43-5.37.9Z"/>
      <path class="cls-23" d="M27.31,25.17c.13.21.21,1.01-.04,1.32h-3.94c.62-1.39,2.43-1.34,3.98-1.32Z"/>
      <path class="cls-22" d="M55.64,5.45c-1.44.42-2.94.21-4.39.2-.25-.12-.35-.32-.36-.38,1.44-.42,2.94-.21,4.39-.2.25.12.35.32.36.38Z"/>
      <path class="cls-1" d="M46.9,4.81c-.99.43-2.06.27-3.04.23-.22-.14-.35-.31-.36-.35.99-.43,2.06-.27,3.04-.23.22.14.35.31.36.35Z"/>
      <path class="cls-21" d="M44.51,131.95c.21.84.07,1.03-.56,1.19-.88.23-1.47.32-2.23.76-9.58.29-19,.39-28.45.2-.05-.13.01-.62.65-.81l.02-46.48.44-14.74c1.53-.3,2.99.27,4.58.31l13.73.4.4,9.48.69,7.86.87,8.94,3.19,14.94c1.36,6.38,3.35,12.38,6.68,17.92Z"/>
      <path class="cls-6" d="M50.02,72.76c-.01.26-.17.46-.49.61l.54,43.48-.74,12.57c-1.72.62-3.19.28-4.36,1.05-4.11-7.19-6.3-15.04-7.82-23.2l-2.13-11.47-.61-7.4-.6-9.93-.74-5.7h16.95Z"/>
      <path class="cls-17" d="M14,70.99c.04.15.17.33.41.37l-.03.72-.44,14.74-.02,46.48c-.64.18-.7.67-.65.81-1.61,1.7-3.85,1.22-6.29.62-1.01-4.18-.55-9.35-.55-14.16l.09-49.74,7.48.16Z"/>
      <path class="cls-11" d="M49.87,72c3.63.02,6.08-.73,9.13-.65-.02,1.65-4,1.4-8.98,1.41h-16.95s.74,5.71.74,5.71l.6,9.93.61,7.4,2.13,11.47c1.52,8.15,3.71,16.01,7.82,23.2.21.36-.14,1.19-.46,1.47-3.33-5.55-5.32-11.55-6.68-17.92l-3.19-14.94-.87-8.94-.69-7.86-.4-9.48-13.73-.4c-1.59-.05-3.05-.61-4.58-.31l.03-.72c2.33.12,4.66.31,7.16.38l9.56.28.61-13.58.6,13.45,17.52.1Z"/>
      <path class="cls-9" d="M38.19,137.08l-27.94.09c-.22,0-.44-.36-.38-.54l27.94-.09c.22,0,.44.36.38.54Z"/>
      <path class="cls-12" d="M49.68,137.45c1.01-.36,1.91-.75,2.89-.59-.64,1.39-2,1.22-2.89.59Z"/>
      <path class="cls-3" d="M14,70.99l-7.48-.16c0-2.64.04-5.56,2.24-7.85,1.9-1.98,5.67-2.98,8.15-2.32,1.17.83-.67,2.55-1.05,3.28-1.2,2.31-1.21,4.94-1.86,7.05Z"/>
      <path class="cls-10" d="M28.59,55.26c1.7-.9,2.28-2.52,2.94-4.16,1.5,1.81-.89,3.83-2.94,4.16Z"/>
      <path class="cls-15" d="M35.44,54.8c.85.08.6.92-.14.74-1.52.22-1.11-1.25.14-.74Z"/>
    </g>
  </g>
</svg>