<?xml version="1.0" encoding="UTF-8"?>
<svg id="Layer_2" data-name="Layer 2" xmlns="http://www.w3.org/2000/svg" viewBox="0 0 89.63 92">
  <defs>
    <style>
      .cls-1 {
        fill: #cc2208;
      }

      .cls-2 {
        fill: #ea3905;
      }

      .cls-3 {
        fill: #171310;
      }

      .cls-4 {
        fill: #fa5b09;
      }

      .cls-5 {
        fill: #428729;
      }

      .cls-6 {
        fill: #498e38;
      }

      .cls-7 {
        fill: #43892c;
      }

      .cls-8 {
        fill: #fd6b0e;
      }

      .cls-9 {
        fill: #881505;
      }

      .cls-10 {
        fill: #fd851e;
      }

      .cls-11 {
        fill: #b73508;
      }
    </style>
  </defs>
  <g id="Layer_1-2" data-name="Layer 1">
    <g>
      <path class="cls-3" d="M84.84,71.77c-6.56,11.72-19.91,18.3-34.08,18.51-24.18,6.95-46.45-7.92-50.1-29.92-2.65-15.93,2.49-30.14,19-37.34-1.45-1.22-2.09-3.34-1.41-4.51,2.55-4.44,8.74.1,15.2-.5,2.06-.19,3.94-.71,5.46.55C41.2,10.42,45.97-1.37,52.98.13c1.82.39,2.05,2.33,1.9,3.66-.36,3.16-10.33,7.09-10.31,16.37l14.12-8.1c2.07-1.19,4.14-1.6,5.79.11,1.33,1.38.87,3.55-1.16,5.31,14.31,3.53,26.47,18.56,26.31,31.48l-.11,9.32c-.05,4.61-2.3,9.25-4.68,13.49ZM35.82,23.91c-5.77-.69-9.51-1.77-15.48.41-9,3.28-15.48,10.56-17.9,19.21-.74,2.64-1.17,5.88-1.02,8.62l.46,8.32c1.55,7.59,5.06,14.41,10.92,20.09,9.84,9.55,24.36,12.24,37.7,8.3.73.14,1.69.07,2.16-.49,1.81-2.17,7.41-4.14,10.67-7.56.08,3.57-6.86,4.34-9.66,8.06,19.05-1.35,32.2-14.04,34.57-31.22v-9.22c-.03-11.81-12.2-27.22-26.1-29.8-2.66,2.83-6.37,2.63-8.29,4.34l7.69,2.58c1.54.52,2.46,1.74,2.61,2.93.2,1.56-1.24,2.59-3.05,3.21-1.26.43-2.56-.18-3.74-.44-4.94-1.09-9.79-2.3-15.26-2.36-1.1,2.9-.76,5.88-.24,8.6l.57,2.99c.36,1.87-.63,3.59-2.3,4s-3.91-.41-4.62-1.93l-1.95-4.12c.64-3.43-.41-6.73,1.67-10.35.68-1.19,1.68-3.25.58-4.16.5-.05,1.48.08,1.74.49.84,1.33-5.31,9.92-.98,17.06.67,1.11,2.23,1.96,3.09,1.84,1.2-.17,2.3-2.18,1.68-3.52-2.11-4.58-1.68-8.66.44-13.49,2.89-1.74,6.16-3.61,9.62-4.86,1.47-.53,2.95-1.95,4.84-2.1,3.78.58,8.38-2.86,7.11-6.35-.59-1.62-3.65-.29-4.64.29l-9.29,5.52-4.77,2.61c-.46.25-1.37-.2-1.18-.29.44-.21-.05-1-.03-1.27.56-6.52,1.68-9.13,8.13-13.62,1.69-1.17,3.21-4.33,1.35-5-8.01-.17-11.36,12.65-13.37,20.5-1.9.84-.42-1.85-.9-2.5-1.09-1.47-7.59.89-14.92-1.04-.89-.24-2.87-1.14-3.72-.24-.67.7-1.52,2.03-.36,3.08.9.81,1.95.7,3.47.47,2.47-.38,11.35,1.11,12.71,2.43ZM60.46,30.64c.51.1,2.04-.65,2.22-1.07,1.65-3.79-12.72-8.63-20.18-2.32,2.04,1.05,4.43.71,6.5,1.12l11.46,2.27Z"/>
      <path class="cls-4" d="M35.82,23.91c1.1.91.1,2.96-.58,4.16-2.08,3.62-1.03,6.92-1.67,10.35l-3.1-2.58c-1.77-1.47-3.43-2.46-6.03-1.33-.4-.41-1.06-1.13-1.67-1-.52.11-1.18.92-1.85,1.24-3.4,1.64-5.71,5-4.83,8.08,4.09-.8,2.33,5.08,4.87,3.05,1.21-.01,1.8,1.12,1.9,1.7.19,1.2-2.11,4.92-4.69,4.85-3.87-.1-5.92,3.06-5.6,6.42.14,1.5.12,2.49,1.11,3.4.82.76,4.23.8,7.66,1.02-2,2.62-2.84,4.77-2.9,7.96l-.78,2.87c-.05.05-1.86-.17-2.01.27-.67,1.97,1.02,4.08,3.14,5.07,2.75,1.28,5.45,3.51,8.5,4.16s6.08,1.53,9.36,1.57c7.36.08,15.2-3.5,19.21-9.04,5.92-8.19,8.97-20.19,5.44-29.55l-3.87-4.93c-.33-.76.17-3.15-1.35-3.22l-6.83-.31c-1.89-.09-3.15-.48-4.67,1.02-.54-.8-.71-1.69-1.07-2.08-.48-.52-1.43-.49-1.63.44-.52-2.72-.87-5.7.24-8.6,5.47.06,10.32,1.27,15.26,2.36-.24.76.54,1.95,1.53,2.21,2.23.57,2.77,2.57,3.87,3.78,3.43,3.76,3.73,7.37,4.3,11.81,1.16,8.98.17,17.43-4.67,25.48-2.87,4.76-6.33,9.69-11.83,12.69-.39.21,0,1.61-.07,1.65-13.35,3.94-27.86,1.25-37.7-8.3-5.86-5.68-9.36-12.51-10.92-20.09l-.46-8.32c-.15-2.74.28-5.98,1.02-8.62.93.27,1.64.66,3.5.74,1.46-6.19,8.21-13.68,14.51-16.91.83-.69-.04-2.26-.11-3.04,5.97-2.17,9.7-1.09,15.48-.41ZM6.03,48.26c.37-1.18.63-2.54-.17-3.6-1.8,6.86-.94,13.62,1.27,19.92.44-5.56-2.79-10.91-1.1-16.32Z"/>
      <path class="cls-1" d="M50.5,88.86c.06-.04-.32-1.44.07-1.65,5.5-3,8.96-7.93,11.83-12.69,4.84-8.04,5.84-16.49,4.67-25.48-.58-4.45-.88-8.05-4.3-11.81-1.1-1.21-1.65-3.21-3.87-3.78-.99-.25-1.76-1.45-1.53-2.21,1.18.26,2.48.87,3.74.44,1.8-.62,3.25-1.65,3.05-3.21-.15-1.19-1.07-2.41-2.61-2.93l-7.69-2.58c1.92-1.71,5.63-1.51,8.29-4.34,13.9,2.58,26.08,17.99,26.09,29.8v9.22c-2.36,17.18-15.51,29.87-34.56,31.22,2.8-3.72,9.74-4.49,9.66-8.06-3.25,3.42-8.86,5.39-10.67,7.56-.47.57-1.43.64-2.16.49ZM71.67,61.96c.14,0,.38-.09.5-.33l-.17-9.55c-.14,0-.38.09-.5.33l.17,9.55Z"/>
      <path class="cls-8" d="M33.57,38.42l1.95,4.12c.72,1.51,2.92,2.34,4.62,1.93s2.66-2.14,2.3-4l-.57-2.99c.2-.93,1.15-.97,1.63-.44.36.39.53,1.29,1.07,2.08,1.51-1.5,2.77-1.1,4.67-1.02l6.83.31c1.52.07,1.02,2.47,1.35,3.22-2.69,2.31-7.89,2.26-12.4,6.1l5.27,1.14c1.2.26,3.8.97,3.62,2.52l-10.07,5.25,6.96,3.32c1.79.85,3.76,3.58,2.69,5.08s-3.97.55-5.53-.09c-2.51-1.02-3.69-3.58-7.42-3.1,2.67,4.03,5.27,8.31,3.67,12.91-.42,1.21-4.27.96-5.38.69-.86-3.24-.51-6.11-1.99-9.01-2.07,1.37-3.31,3.18-3.13,5.44.12,1.41-1.83,4.44-3.61,3.8-3.48-1.24.41-8.78-2.27-11.72l-3.68,5.62-1.03,4.17c.05.53.58,1.36.27,1.72-1.28,1.44-3.33.41-5.74-1.38l.78-2.87c.06-3.18.9-5.34,2.9-7.96-3.42-.21-6.84-.26-7.66-1.02-.99-.91-.97-1.9-1.11-3.4-.31-3.36,1.74-6.51,5.6-6.42,2.59.06,4.88-3.65,4.69-4.85-.09-.58-.68-1.72-1.9-1.7-2.54,2.03-.78-3.86-4.87-3.05-.89-3.07,1.42-6.44,4.83-8.08.67-.32,1.33-1.13,1.85-1.24.61-.13,1.27.59,1.67,1,2.6-1.12,4.26-.14,6.03,1.33l3.1,2.58Z"/>
      <path class="cls-7" d="M49.42,18.79c.06.64.37.9,1.31.99-.58.07-.77.84-.43.96.3.1.57-.16,1.11.69-3.46,1.25-6.73,3.12-9.62,4.86-2.12,4.84-2.55,8.91-.44,13.49.62,1.34-.48,3.35-1.68,3.52-.86.12-2.41-.72-3.09-1.84-4.33-7.15,1.82-15.74.98-17.06-.25-.4-1.23-.54-1.74-.49-1.36-1.32-10.24-2.8-12.71-2.43-1.52.23-2.57.34-3.47-.47-1.16-1.05-.31-2.37.36-3.08.86-.9,2.83,0,3.72.24,7.33,1.93,13.83-.43,14.92,1.04.48.65-.99,3.34.9,2.5,2.01-7.85,5.35-20.67,13.37-20.5,1.85.67.33,3.83-1.35,5-6.45,4.49-7.57,7.1-8.13,13.62-.02.27.47,1.06.03,1.27-.19.09.71.55,1.18.29l4.77-2.61Z"/>
      <path class="cls-10" d="M2.44,43.53c2.42-8.65,8.9-15.93,17.9-19.21.07.78.94,2.35.11,3.04-6.3,3.23-13.05,10.72-14.51,16.91-1.86-.08-2.57-.47-3.5-.74Z"/>
      <path class="cls-5" d="M60.46,30.64l-11.46-2.27c-2.07-.41-4.46-.07-6.5-1.12,7.46-6.31,21.84-1.46,20.18,2.32-.18.42-1.71,1.17-2.22,1.07Z"/>
      <path class="cls-6" d="M51.41,21.43c-.54-.85-.82-.59-1.11-.69-.34-.12-.15-.89.43-.96-.93-.09-1.25-.35-1.31-.99l9.29-5.52c.98-.59,4.05-1.92,4.64-.29,1.27,3.5-3.33,6.93-7.11,6.35-1.89.15-3.37,1.57-4.84,2.1Z"/>
      <path class="cls-2" d="M17.65,74.1c2.41,1.79,4.46,2.82,5.74,1.38.32-.36-.21-1.19-.27-1.72l1.03-4.17,3.68-5.62c2.69,2.94-1.2,10.48,2.27,11.72,1.78.64,3.73-2.39,3.61-3.8-.19-2.27,1.05-4.07,3.13-5.44,1.49,2.9,1.14,5.77,1.99,9.01,1.11.27,4.95.52,5.38-.69,1.6-4.6-1-8.88-3.67-12.91,3.73-.48,4.91,2.08,7.42,3.1,1.55.63,4.45,1.58,5.53.09s-.91-4.23-2.69-5.08l-6.96-3.32,10.07-5.25c.18-1.56-2.42-2.26-3.62-2.52l-5.27-1.14c4.5-3.84,9.7-3.79,12.4-6.1l3.87,4.93c3.53,9.36.48,21.37-5.44,29.55-4.01,5.54-11.85,9.12-19.21,9.04-3.29-.04-6.29-.91-9.36-1.57s-5.75-2.88-8.5-4.16c-2.11-.99-3.81-3.09-3.14-5.07.15-.45,1.96-.22,2.01-.27Z"/>
      <path class="cls-11" d="M6.03,48.26c-1.69,5.41,1.54,10.76,1.1,16.32-2.21-6.3-3.08-13.07-1.27-19.92.8,1.06.54,2.42.17,3.6Z"/>
      <path class="cls-9" d="M71.67,61.96l-.17-9.55c.12-.24.36-.33.5-.33l.17,9.55c-.12.24-.36.33-.5.33Z"/>
    </g>
  </g>
</svg>