<?xml version="1.0" encoding="UTF-8"?>
<svg id="Layer_2" data-name="Layer 2" xmlns="http://www.w3.org/2000/svg" viewBox="0 0 140.72 153.61">
  <defs>
    <style>
      .cls-1 {
        fill: #feb434;
      }

      .cls-2 {
        fill: #fbe44b;
      }

      .cls-3 {
        fill: #fc921a;
      }

      .cls-4 {
        fill: #feb535;
      }

      .cls-5 {
        fill: #b45604;
      }

      .cls-6 {
        fill: #fdee49;
      }

      .cls-7 {
        fill: #f9de45;
      }

      .cls-8 {
        fill: #fce052;
      }

      .cls-9 {
        fill: #fdb535;
      }

      .cls-10 {
        fill: #fcb338;
      }

      .cls-11 {
        fill: #bd5b05;
      }

      .cls-12 {
        fill: #512909;
      }

      .cls-13 {
        fill: #feb331;
      }

      .cls-14 {
        fill: #fdbb3b;
      }

      .cls-15 {
        fill: #f9e650;
      }

      .cls-16 {
        fill: #feb637;
      }

      .cls-17 {
        fill: #e9560f;
      }

      .cls-18 {
        fill: #fbdf46;
      }

      .cls-19 {
        fill: #160f0d;
      }
    </style>
  </defs>
  <g id="Layer_1-2" data-name="Layer 1">
    <g>
      <path class="cls-19" d="M60.62,149.26l-13.09-.94-8.48-1.21-21.77-2.47-10.79-1.23c-1.67-.19-5.52.91-6.18-2.82-.65-3.66-.18-8.99.12-13l.88-11.97,3.77-35.8,2.13-16.74L13.99,14.76c.61-4.37.14-9.1,3.11-13.05l25.33-.25,60.18-.71L118.5.01c3.27-.15,5.67,1.03,6.34,4.92l4.21,24.29,2.72,16.32,6.61,52.87.75,11.2,1.06,9.45.53,21.85c-3.52,3.19-7.61,2.83-11.18,4.04l-24.01,8.07c-4.23,1.42-10.64-.15-15.19-.68l-8.89-1.03-13.57-.88-7.25-1.17ZM22,3.63c-.87-.11-2,1.71-4.04.17l-1.48,3.85c-.49,1.28-.12,2.99-.12,4.38-1.78.27-.74,2.93-.91,4.12l-2.75,19.58-1,5.42c-.5,2.72.5,6.09-1.07,8.57-.43,1.28.03,3.99-.16,5.65-2.79,8.11-1.95,19.18-3.61,23.43-.66,1.69,0,4.61.1,6.52-.32-.17-.88-.15-1.28.12.53,4.63-.92,8.55-.89,12.66l.13,5.35c-2.47.83.18,6.06-1.91,11.96-.63,1.77-.01,4.55.1,6.52-.31-.24-1-.14-1.15.12l.21,18.97c6.28,1.94,11.46,1.06,16.69,1.69l28.61,3.49,12.82.85,7.53,1.24,11.8.9,9.43,1.19,14.12,1.24,1.33-16.44,1.04-12.6.79-11.25,5-43.7,1.18-10.4,5.02-30.13,4.53-24.25-15.12-.6-6.22.82-57.33.47-21.37.08ZM136.78,140.69l1.48-.58c.51-.2.74-1.08.7-2.12l-.75-19.82-1.21-14.73-8.22-65.18-.76-4.45-1.2-8.63c-.8-5.74-1.29-10.51-3.47-16.26-1.84,6.13-2.82,11.3-3.86,17.16l-4.95,27.93-1.31,11.45-4.97,41.56-.77,11.32-2.11,20.96c-.39,3.86-.51,7.36-.28,12.21,4.73-2.48,9.21-3.81,14.06-5.33l17.61-5.51Z"/>
      <path class="cls-3" d="M3.1,121.93c1.21-1.42,1.22-5.23-.1-6.52,2.1-5.9-.56-11.13,1.91-11.96,1.42-.47,1.37-4.63-.13-5.35-.03-4.11,1.42-8.02.89-12.66.4-.27.96-.29,1.28-.12,1.21-1.41,1.22-5.23-.1-6.52,1.66-4.25.82-15.32,3.61-23.43.51-1.49,2.52-4.1.16-5.65,1.56-2.48.57-5.85,1.07-8.57,1.75.32,2.08-.9,1.81-2.79-.12-.82.54-2.37-.81-2.63l2.75-19.58c.17-1.19-.87-3.85.91-4.12,1.13-.17,1.2-1.5,1.01-2.67-.1-.57.23-1.58-.89-1.71l1.48-3.85c2.05,1.53,3.18-.28,4.04-.17-.5.79-.68,1.48-.35,2.5.28.89,1.02,1.49,2.47,1.49l60.46-.31,1.41-2.12,3.59-.42,17.2-.29c.3-.99.19-1.62.16-2.22l15.12.6-4.53,24.25-5.02,30.13-1.18,10.4-5,43.7-.79,11.25-1.04,12.6-1.33,16.44-14.12-1.24-9.43-1.19-11.8-.9-7.53-1.24-12.82-.85-28.61-3.49c-5.23-.64-10.41.24-16.69-1.69l-.21-18.97c.15-.26.84-.37,1.15-.12ZM99.1,45.39c-.32-7.86-7.8-12.8-13.9-12.39l-11.26.76c-2.28.15-6.28,2.61-7.91,4.49-3.46,4.01-.63,10.4,2.94,12.95,12.04,8.59,30.44,1.64,30.13-5.81ZM63.8,74.87c.16-2.74-1.96-3.43-3.5-2.62-2.88,1.51-2.6,6.77-.91,7.61,1.01.5,2.7.07,3.22-.56.71-.85,1.06-2.15,1.19-4.43ZM52.36,74.68c-.6-1.91-5.72-1.93-6.72-.23-2.05,3.49-1.95,7.61-.25,10.47.79,1.33,2.3,1.96,3.18,1.84,3.05-.41,4.06-6.09,3.79-12.08ZM68.62,78.53c-.85,1.76.22,3.08,1.26,3.26.98.16,1.16-.32,1.66-1.21.68-1.21.55-1.79-.18-2.5-.8-.79-2.15-.77-2.75.46ZM79.01,95.3c4.82-1.55,4.7-5.35,3.97-7.63-1.03-3.22-5.46-3.66-6.54-1.68-2.05,3.79-.41,10.27,2.57,9.31ZM41.33,89.54c-1.85-4.41-6.51-3.3-8.1-1.07-1.93,2.71-2.17,7.45,1.47,8.76,3.48,1.25,8.2-3.93,6.63-7.69ZM59.99,96.92c2.54-1.27,2.47-5.35,1.3-7.21-.78-1.25-2.8-3.07-4.48-1.46-1.55,1.48-2.37,4.38-1.86,6.07.47,1.56,2.74,3.75,5.04,2.6ZM72.31,95.46c.24-2.34-.27-4.05-1.63-4.47-1.05-.33-2.33-.12-3.33,1.13-.69.86-.79,2.13-.19,4,.47,1.45,1.49,1.98,2.65,1.98.88,0,2.26-.38,2.5-2.65Z"/>
      <path class="cls-5" d="M128.02,33.82c-1.38,1-1.53,4.09-1.62,6.54l-1.49,41.64-2.06,27.02-3.31,10.31c-1.32-.12-1.9-1.41-2.1-.07-.32,2.17,8,5.2,15.68,15.32.3.39.94.39,1.31-.13.38.5,1.84,3.58,2.92-.04,1.03,2.2.57,4.01-.58,6.28l-17.61,5.51c-4.85,1.52-9.34,2.85-14.06,5.33-.22-4.85-.1-8.34.28-12.21l2.11-20.96.77-11.32,4.97-41.56,1.31-11.45,4.95-27.93c1.04-5.86,2.01-11.04,3.86-17.16,2.18,5.75,2.67,10.52,3.47,16.26l1.2,8.63Z"/>
      <path class="cls-11" d="M136.78,140.69c1.14-2.27,1.6-4.07.58-6.28-1.08,3.62-2.54.54-2.92.04-3.45-6.2-13.44-13.99-14.48-13.74-.4.1-.89-.95-.41-1.38l3.31-10.31,2.06-27.02,1.49-41.64c.09-2.44.24-5.53,1.62-6.54l.76,4.45,8.22,65.18,1.21,14.73.75,19.82c.04,1.03-.19,1.92-.7,2.12l-1.48.58Z"/>
      <path class="cls-10" d="M106.92,2.26c.03.59.14,1.23-.16,2.22l-17.2.29-3.59.42-1.41,2.12-60.46.31c-1.45,0-2.18-.6-2.47-1.49-.32-1.01-.14-1.71.35-2.5l21.37-.08,57.33-.47,6.22-.82Z"/>
      <path class="cls-15" d="M3.1,121.93c-.11-1.97-.73-4.75-.1-6.52,1.32,1.29,1.31,5.1.1,6.52Z"/>
      <path class="cls-18" d="M11.69,41.15l1-5.42c1.34.25.69,1.8.81,2.63.27,1.89-.06,3.11-1.81,2.79Z"/>
      <path class="cls-2" d="M6.95,85.33c-.1-1.91-.76-4.83-.1-6.52,1.32,1.29,1.31,5.11.1,6.52Z"/>
      <path class="cls-7" d="M10.47,55.38c.19-1.66-.27-4.37.16-5.65,2.36,1.55.35,4.16-.16,5.65Z"/>
      <path class="cls-8" d="M4.91,103.46l-.13-5.35c1.5.72,1.55,4.88.13,5.35Z"/>
      <path class="cls-6" d="M16.35,12.03c0-1.39-.38-3.1.12-4.38,1.12.13.79,1.14.89,1.71.2,1.17.13,2.5-1.01,2.67Z"/>
      <path class="cls-17" d="M99.1,45.39c.31,7.45-18.09,14.4-30.13,5.81-3.57-2.55-6.4-8.94-2.94-12.95,1.63-1.89,5.63-4.34,7.91-4.49l11.26-.76c6.11-.41,13.58,4.53,13.9,12.39Z"/>
      <path class="cls-13" d="M52.36,74.68c.26,5.99-.75,11.67-3.79,12.08-.88.12-2.39-.51-3.18-1.84-1.7-2.86-1.8-6.98.25-10.47,1-1.7,6.13-1.68,6.72.23Z"/>
      <path class="cls-9" d="M41.33,89.54c1.58,3.77-3.15,8.94-6.63,7.69-3.65-1.31-3.41-6.06-1.47-8.76,1.59-2.23,6.25-3.34,8.1,1.07Z"/>
      <path class="cls-14" d="M79.01,95.3c-2.98.96-4.62-5.52-2.57-9.31,1.08-1.99,5.51-1.55,6.54,1.68.73,2.28.85,6.09-3.97,7.63Z"/>
      <path class="cls-1" d="M59.99,96.92c-2.3,1.15-4.57-1.03-5.04-2.6-.51-1.7.31-4.59,1.86-6.07,1.68-1.61,3.7.21,4.48,1.46,1.17,1.87,1.24,5.94-1.3,7.21Z"/>
      <path class="cls-16" d="M63.8,74.87c-.13,2.27-.49,3.58-1.19,4.43-.52.63-2.21,1.07-3.22.56-1.69-.84-1.97-6.1.91-7.61,1.54-.81,3.66-.12,3.5,2.62Z"/>
      <path class="cls-16" d="M72.31,95.46c-.24,2.27-1.62,2.65-2.5,2.65-1.16,0-2.18-.53-2.65-1.98-.61-1.87-.5-3.14.19-4,1-1.26,2.27-1.46,3.33-1.13,1.37.43,1.88,2.13,1.63,4.47Z"/>
      <path class="cls-4" d="M68.62,78.53c.6-1.23,1.94-1.25,2.75-.46.72.71.85,1.29.18,2.5-.5.9-.69,1.38-1.66,1.21-1.04-.17-2.12-1.5-1.26-3.26Z"/>
      <path class="cls-12" d="M119.54,119.33c-.48.43.02,1.48.41,1.38,1.04-.26,11.03,7.54,14.48,13.74-.36.52-1.01.53-1.31.13-7.68-10.12-16-13.15-15.68-15.32.2-1.34.77-.05,2.1.07Z"/>
    </g>
  </g>
</svg>