<?xml version="1.0" encoding="UTF-8"?>
<svg id="Layer_2" data-name="Layer 2" xmlns="http://www.w3.org/2000/svg" viewBox="0 0 179.21 137.82">
  <defs>
    <style>
      .cls-1 {
        fill: #cebba7;
      }

      .cls-2 {
        fill: #373c45;
      }

      .cls-3 {
        fill: #272b34;
      }

      .cls-4 {
        fill: #cbb7a3;
      }

      .cls-5 {
        fill: #272a2d;
      }

      .cls-6 {
        fill: #3a424c;
      }

      .cls-7 {
        fill: #3c454f;
      }

      .cls-8 {
        fill: #6b7f89;
      }

      .cls-9 {
        fill: #cebaa6;
      }

      .cls-10 {
        fill: #303841;
      }

      .cls-11 {
        fill: #17191b;
      }

      .cls-12 {
        fill: #cdb9a5;
      }

      .cls-13 {
        fill: #ccb9a4;
      }

      .cls-14 {
        fill: #ccb7a4;
      }

      .cls-15 {
        fill: #fdedcf;
      }

      .cls-16 {
        fill: #6f7b85;
      }

      .cls-17 {
        fill: #616c76;
      }

      .cls-18 {
        fill: #cdbaa6;
      }

      .cls-19 {
        fill: #cebaa5;
      }

      .cls-20 {
        fill: #515c66;
      }

      .cls-21 {
        fill: #7b878f;
      }

      .cls-22 {
        fill: #fdedce;
      }

      .cls-23 {
        fill: #7c8991;
      }

      .cls-24 {
        fill: #3a434b;
      }

      .cls-25 {
        fill: #8b9ca8;
      }

      .cls-26 {
        fill: #88949d;
      }

      .cls-27 {
        fill: #6f7b84;
      }

      .cls-28 {
        fill: #3f454e;
      }

      .cls-29 {
        fill: #82919b;
      }

      .cls-30 {
        fill: #343a44;
      }

      .cls-31 {
        fill: #cdb9a6;
      }

      .cls-32 {
        fill: #677d88;
      }

      .cls-33 {
        fill: #393d45;
      }

      .cls-34 {
        fill: #394047;
      }

      .cls-35 {
        fill: #323840;
      }

      .cls-36 {
        fill: #ccb8a5;
      }

      .cls-37 {
        fill: #7f8e97;
      }

      .cls-38 {
        fill: #cab6a2;
      }

      .cls-39 {
        fill: #3e434b;
      }

      .cls-40 {
        fill: #949c9f;
      }

      .cls-41 {
        fill: #ccb9a5;
      }

      .cls-42 {
        fill: #cdb8a5;
      }
    </style>
  </defs>
  <g id="Layer_1-2" data-name="Layer 1">
    <g>
      <path class="cls-11" d="M48.74,0c-3.32-.06-7.29,1.42-10.87.41-.34.98-.21,1.55,0,1.93l-23.51-.85c-1.43.23-2.8-.05-3.93.83s-1.43,2.24-1.57,4.52L2.31,113.5c-.17,2.73-.43,4.62,1.09,6.55,3.07,3.92,7.36.86,10.55,2.87l19.13.39,12.88,1.24,22.76.35c2.09,1.75,5.27.95,6.12-1.76,1.27-4.02.46-11.98,1.53-19.16.23-.13.7.05.68.81l-.31,10.17c-.1,3.2-.73,6.38-.52,9.36l.52.49c.73-3.52-.31-5.68,1.67-4.76-.09,1.38-.76,5.11.99,5.26l8.89.76,20.53.9,11.5.87,18.4.87,12.09.88c2.48.18,5.27.65,7.54.13,2.1-.48,2.89-2.17,3-4.38l.57-12.36.81-8.48.64-11.54.8-10.16.66-13.24.8-9.33.65-12.4.8-10.17.67-13.26.78-10.11c.23-2.99.2-6.06.24-9.32l-42-.95c-.19-.04-.21-.32-.03-.77h15.07s.11-1.56.11-1.56l25.48.5c3.32.07,6.52.81,8.43,3.59s2.87,6.61,2.56,10.57l.82,2.08-.94,2.16c.76,7.27-.62,14.66-1.24,21.55l-1.3,14.47-.98,13.5-1.11,10.99-2.95,36.13-.86,5.74c.56,7.43-2.34,13.16-8.59,14.53-3.4.75-7.02-.02-10.68-.22l-29.32-1.67-26.71-1.23c-4.18-.19-8.25.27-12.19-1.18-1.74-2.02-4.31-2.16-5.97.46l-28.67-1.61-15.31-.8-14.05-.73c-1.51-.08-2.99-.76-4.72-.54-4.06.5-7.96-.73-10.54-4.13-2.52-3.32-3.33-7.63-3.02-12.46l2.22-34.31,1.53-26.64,1.48-24.27,1.38-21.67c.12-1.94,1.46-6.46,3.34-6.47h38.73ZM113.24,128.68l-18.46-.85-14.95-.98c.99,4.8,3.66,5.08,6.59,5.24l34.08,1.82,36.65,2.1c5.92.34,10.38-3.24,11.15-10.43l.9-8.34,1.55-20.48,2.15-21.78.91-11.82.72-9.51,2.3-27.81.65-6.91c.61-6.55-1.75-13.33-7.4-15.2l-.85,15.66-.71,13.06-.79,10.15-.65,11.62-.81,12.63-.64,10.79-.81,10.94-.63,9.92-.81,11.02-.74,13.01c-.12,2.15-.04,7.35-2.89,7.87-4.76.88-10.46.26-15.41,0l-15.75-.86-15.34-.84ZM75.07,126.22c-6.96.46-13.61.07-20.05-.24l-15.67-.76-17.14-.92-14.11-.69c-1.5-.07-2.94-.96-4.71-.48,1.26,4.97,5.5,5.34,11.29,5.66l13.79.75,17.81.76,28.56,1.66c1.55.09,2.86-1.58,2.84-3.14-.02-1.76-.83-2.72-2.61-2.6Z"/>
      <path class="cls-5" d="M141.92,1.68l-.11,1.55h-15.07c-.18.46-.16.74.03.78l-39.08-.65-6.55,75.68c-.78,2.07,1.63,2.05.8-.2,1.24-1.77,2.98-1.3,4.15-.07.83.87,1.89,2.68.46,4.57-1.25,1.65-3.81.71-5.29-1.46l-1.82,23.59c1.83-.64,2.87-.38,3.6.64,1.05,1.46,2.03,3.56.75,5.15-.63.78-2.15-.11-2.72-.6-.9-.79-1.05-2.43-1.44-4.18-1.1,4.25-.96,9.2-1.24,13.57-1.98-.92-.94,1.24-1.67,4.76l-.52-.49c-.21-2.98.42-6.16.52-9.36l.31-10.17c.02-.76-.45-.94-.68-.81l3.61-46.06,4.98-55.18-47.1-.4c-.2-.38-.33-.95,0-1.93,3.58,1.01,7.55-.47,10.87-.41l62.06,1.09,31.12.59ZM83.79,79.69c-1.28.87-1.28,1.87-.63,2.63.76.88,1.39.63,1.89.28.89-.62,1.19-1.79.67-2.53-.41-.59-1.34-.78-1.94-.38Z"/>
      <path class="cls-15" d="M126.77,4.01l42,.95c-.04,3.26,0,6.32-.24,9.32l-.78,10.11-.67,13.26-.8,10.17-.65,12.4-.8,9.33-.66,13.24-.8,10.16-.64,11.54-.81,8.48-.57,12.36c-.1,2.21-.89,3.91-3,4.38-2.27.51-5.06.05-7.54-.13l-12.09-.88-18.4-.87-11.5-.87-20.53-.9-8.89-.76c-1.75-.15-1.08-3.88-.99-5.26.28-4.37.14-9.33,1.24-13.57.39,1.75.54,3.39,1.44,4.18.57.49,2.08,1.39,2.72.6,1.28-1.58.3-3.69-.75-5.15-.73-1.02-1.77-1.28-3.6-.64l1.82-23.59c1.48,2.17,4.04,3.12,5.29,1.46,1.43-1.89.37-3.7-.46-4.57-1.18-1.23-2.91-1.69-4.15.07.83,2.25-1.58,2.27-.8.2L87.7,3.36l39.08.65ZM90.75,22.93c1.6-.51,1.9-2.95,1.46-4.33-.34-1.09-1.16-3.19-2.83-3.09-1.93.11-2.51,2.68-2.12,4.61.29,1.47,1.73,3.38,3.49,2.81ZM153.9,24.23c1.53.08,1.98-1.7,1.57-2.09-.37-.35-1.18-.66-1.91-.68l-26.23-.91-26.06-.63c-.74.17-.83,1.37-.54,1.63.31.27,1.18.72,1.83.74l28.41.78,22.94,1.18ZM87.2,29.53c-1.59.9-1.44,3.71-.6,4.57,1.14,1.17,2.75,1.61,3.63.89,1.45-1.19,1.28-2.76.9-3.84-.66-1.87-2.28-2.55-3.92-1.62ZM123.14,33.9c11.05.23,21.46,1.45,32.53-.16-10.67-2.43-20.74-1.4-31.24-2.01l-23-.75c-.37.97-.01,2.15.36,2.22l1.49.29,19.86.41ZM90.65,45.8c.25-1.69-.28-3.13-.99-3.57-.98-.62-2.63-.25-3.25.44-.83.92-1.06,2.27-.69,4s1.65,2.77,2.63,2.63c1.36-.19,2-1.5,2.3-3.49ZM153.78,47.17l-26.45-.76-30.29-1.23-.33,1.78,57.5,2.95c1.17.06,1.52-1.05,1.21-1.56s-1.06-1.17-1.63-1.19ZM85.28,53.91c-1.5,1.02-1.6,3.72-.29,5.24.92,1.06,2.19,1.49,3.35.39,1.24-1.18,1.28-2.95.73-4.29-.71-1.76-2.22-2.41-3.79-1.34ZM153.42,60.36c.83.03,1.03-1.34.57-1.68-.22-.16-.61-.62-1.21-.64l-14.36-.5-43.67-.59c7.6,3.31,15.7,1.21,23.78,1.96l18.26.83,16.62.62ZM86.85,67.15c-.5-1.7-1.41-2.76-2.85-2.18-1.89.77-1.38,5.81,0,6.83,1.17.86,2.29.22,2.88-.86s.4-2.34-.02-3.79ZM152.86,73.68c1.23.07,1.53-1.39,1.16-2-.48-.8-1-.67-1.91-.71l-26.26-.97-31.98-.6c0,.31.47,1.08.88,1.56l14.36.67,17.75.64,26,1.4ZM152.36,83.28l-20.65-.9-18.96-.85-18.73-.76c-.52-.02-.86.74-.87,1.03s.33,1.17.82,1.2l39.16,1.82,18.95,1.09c.63.04,1.34-1.07,1.41-1.49.04-.28-.43-1.1-1.13-1.13ZM84.57,96.77c1.37-.85,1.06-3.9.33-5.01-.5-.76-1.27-2.16-2.55-1.56-1.98.93-1.92,2.91-1.68,4.66s1.84,3.19,3.9,1.91ZM151.77,97.6c-7.45-3.82-14.43-2.09-21.52-2.44l-36.51-1.78c.68,2.19,2.18,2.01,3.73,2.08l34.95,1.67c6.63.32,13.04,1.93,19.36.46ZM148.4,111.18c.92.05,1.86.57,2.34.3s.96-1.59.5-2.36l-20.25-1.04-35.82-1.91c-.65-.03-1.26-.59-1.81.26-.19.29-.35.6.03,1.05.23.26.54.62,1.17.66l17.51,1.11,36.34,1.93Z"/>
      <path class="cls-22" d="M37.86,2.34l47.1.4-4.98,55.18-3.61,46.06c-1.07,7.18-.26,15.13-1.53,19.16-.85,2.71-4.03,3.51-6.12,1.76l-22.76-.35-12.88-1.24-19.13-.39c-3.19-2.01-7.48,1.05-10.55-2.87-1.51-1.93-1.25-3.82-1.09-6.55L8.85,6.85c.14-2.29.41-3.62,1.57-4.52s2.5-.6,3.93-.83l23.51.85ZM75.26,15.78c-.65.86-.59,3.05-.32,4.3.29,1.35,1.7,1.5,2.81,1.53,1.53.04,2.05-.82,2.34-2.3.36-1.83.13-3.47-1.42-4.39-.89-.52-2.45-.4-3.41.86ZM63.55,21.55c1.22.06,1.52-1.88,1.2-2.07l-20.52-.7-24.81-.75c.49,1.67,1.57,1.92,2.95,1.96l23.31.73,17.86.83ZM75.71,34.55c2.94.54,3.47-1.31,4.16-3.19.58-1.58-1.17-4.06-2.42-3.59-1.6.59-2.84,1.85-3.24,2.91-.56,1.48.03,3.6,1.51,3.87ZM67.39,31.12l-22.42-.87-23.31-.87c-.65-.02-1.6.28-1.83.7-.19.36-.23,1.13.48,1.8l46.43,1.71c.84.03,1.3-.8,1.4-1.23.06-.28-.31-1.22-.75-1.24ZM78.74,45.45c1.23-1.55-.18-4.85-1.99-5.1-1.18-.16-3.21,1-3.75,2.77-.38,1.25.06,3.99,1.84,4.28,1,.16,2.92-.73,3.9-1.96ZM66.22,44.08c-7.09-2.98-14.07-1.21-21.26-1.81-9.13-.77-17.76-1.13-26.97-.74.55,1.72,1.52,1.58,2.92,1.65l21.87.97c7.79.34,15.21,2.03,23.43-.06ZM62.5,56.11c-.65-2.23-2.16-1.54-3.65-1.59l-26.98-1.05-12.87-.53c-.67-.03-1.16,1.47-.74,2.26l15.79.25c9.6.15,18.73,1.14,28.45.67ZM72.66,52.89c-1.82,1.27-1.92,3.67-1.01,5.52.76.93,2.31,2.3,4.23.49.44-.36.99-2.72.89-4.06-.14-1.76-2.66-2.97-4.12-1.95ZM64.47,67.27c-7.02-2.8-13.56-1.21-20.23-1.6l-17.96-1.13c-2.92-.18-5.63-.96-8.29-.31v1.28s8.07,1.02,8.07,1.02c7.1.9,13.89,1.19,21.11,1.11,5.72-.06,11.43,2.34,17.3-.37ZM75.91,68.38c-.04-1.81-.3-3.26-1.42-3.51s-2.36.07-2.96.83c-.74.94-.4,2.18-.46,3.63-.07,1.8,1.66,2.06,2.69,2.19,1.36.17,2.18-1.33,2.14-3.14ZM59.16,80.56c1.14.07,1.68-.9,1.72-1.34.02-.29-.34-1.05-.84-1.07l-44.14-1.98c-.71-.03-1.07.44-1.32.55-.4.17-.24,1.69.29,1.71l28.64,1.25,15.66.89ZM73.04,84.6c1.66-.31,2.56-1.62,2.63-2.82.07-1.31.22-2.91-1.09-3.79-1.58-1.07-3.9.64-4.08,2.89-.14,1.7.8,4.05,2.54,3.73ZM56.18,90.16l-19.96-.82-21.85-1.11c-1.06-.05-1.69.41-1.62,1.35.03.37.23,1.04.96,1.07l42.19,1.78c.81.03,1.35.33,1.88-.47.17-.25.24-.69-.03-.95-.2-.2-.64-.81-1.57-.85ZM74.89,94.67c.06-.71-.34-1.13-.41-1.43-.34-1.52-2.21-2.22-3.7-1.71-1.82.63-2.74,3.07-1.54,5.28.69,1.27,2.53,1.41,3.65.91.82-.36,1.86-1.59,1.99-3.05ZM59.77,105.77c.18-.82.12-1.65-.59-2.24l-24.41-1.35-23.96-.22c3.68,1.76,7.23,1.53,10.87,1.73l38.09,2.08ZM71.38,111.02l1.98-.65c.59-.19.24-3.07-.88-2.66-.1-1.64-.97-1.99-1.71-2.08-1.5-.17-2.37.21-3.5,1.51-.86.98-1.44,2.87-1.18,3.81.28,1.02,1.31,2.48,2.41,2.39.93-.08,2.18-2.09,2.89-2.32Z"/>
      <path class="cls-32" d="M113.24,128.68l15.34.84,15.75.86c4.96.27,10.65.88,15.41,0,2.84-.52,2.77-5.72,2.89-7.87l.74-13.01.81-11.02.63-9.92.81-10.94.64-10.79.81-12.63.65-11.62.79-10.15.71-13.06.85-15.66c5.66,1.87,8.02,8.64,7.4,15.2l-.65,6.91-2.3,27.81-.72,9.51-.91,11.82-2.15,21.78-1.55,20.48-.9,8.34c-.78,7.19-5.24,10.77-11.15,10.43l-36.65-2.1-34.08-1.82c-2.93-.16-5.6-.44-6.59-5.24l14.95.98,18.46.85Z"/>
      <path class="cls-8" d="M75.07,126.22c1.78-.12,2.58.84,2.61,2.6.02,1.55-1.3,3.23-2.84,3.14l-28.56-1.66-17.81-.76-13.79-.75c-5.78-.31-10.02-.68-11.29-5.66,1.77-.48,3.2.41,4.71.48l14.11.69,17.14.92,15.67.76c6.45.31,13.09.7,20.05.24Z"/>
      <path class="cls-27" d="M83.79,79.69c.6-.4,1.53-.21,1.94.38.52.74.22,1.91-.67,2.53-.5.35-1.13.6-1.89-.28-.66-.76-.65-1.76.63-2.63Z"/>
      <path class="cls-19" d="M152.36,83.28c.7.03,1.18.86,1.13,1.13-.07.42-.78,1.53-1.41,1.49l-18.95-1.09-39.16-1.82c-.49-.02-.83-.91-.82-1.2s.34-1.05.87-1.03l18.73.76,18.96.85,20.65.9Z"/>
      <path class="cls-41" d="M153.78,47.17c.57.02,1.33.7,1.63,1.19.32.51-.04,1.62-1.21,1.56l-57.5-2.95.33-1.78,30.29,1.23,26.45.76Z"/>
      <path class="cls-42" d="M152.86,73.68l-26-1.4-17.75-.64-14.36-.67c-.41-.48-.87-1.25-.88-1.56l31.98.6,26.26.97c.91.03,1.43-.09,1.91.71.37.61.07,2.07-1.16,2Z"/>
      <path class="cls-9" d="M153.42,60.36l-16.62-.62-18.26-.83c-8.09-.75-16.18,1.35-23.78-1.96l43.67.59,14.36.5c.6.02.99.48,1.21.64.46.34.26,1.71-.57,1.68Z"/>
      <path class="cls-1" d="M123.14,33.9l-19.86-.41-1.49-.29c-.38-.07-.74-1.25-.36-2.22l23,.75c10.5.61,20.57-.42,31.24,2.01-11.06,1.62-21.48.39-32.53.16Z"/>
      <path class="cls-12" d="M151.77,97.6c-6.32,1.46-12.72-.15-19.36-.46l-34.95-1.67c-1.55-.07-3.05.11-3.73-2.08l36.51,1.78c7.09.35,14.07-1.38,21.52,2.44Z"/>
      <path class="cls-4" d="M148.4,111.18l-36.34-1.93-17.51-1.11c-.63-.04-.94-.39-1.17-.66-.38-.44-.22-.76-.03-1.05.55-.85,1.16-.29,1.81-.26l35.82,1.91,20.25,1.04c.46.78-.04,2.11-.5,2.36s-1.42-.25-2.34-.3Z"/>
      <path class="cls-13" d="M153.9,24.23l-22.94-1.18-28.41-.78c-.65-.02-1.52-.47-1.83-.74-.29-.25-.2-1.46.54-1.63l26.06.63,26.23.91c.73.03,1.54.33,1.91.68.41.39-.03,2.17-1.57,2.09Z"/>
      <path class="cls-10" d="M90.75,22.93c-1.76.56-3.2-1.34-3.49-2.81-.38-1.93.19-4.5,2.12-4.61,1.67-.09,2.49,2,2.83,3.09.44,1.38.14,3.81-1.46,4.33Z"/>
      <path class="cls-24" d="M87.2,29.53c1.64-.93,3.26-.25,3.92,1.62.38,1.08.55,2.65-.9,3.84-.88.72-2.49.28-3.63-.89-.84-.86-.99-3.67.6-4.57Z"/>
      <path class="cls-20" d="M86.85,67.15c.42,1.45.63,2.66.02,3.79s-1.71,1.72-2.88.86c-1.38-1.01-1.89-6.06,0-6.83,1.44-.59,2.35.48,2.85,2.18Z"/>
      <path class="cls-7" d="M84.57,96.77c-2.06,1.28-3.67-.21-3.9-1.91s-.3-3.73,1.68-4.66c1.28-.6,2.05.79,2.55,1.56.73,1.11,1.03,4.16-.33,5.01ZM82.9,93.39c-.55,1.13.2,1.98.71,1.54s.77-.82.4-1.45c-.13-.21-.58-1.16-1.1-.08Z"/>
      <path class="cls-28" d="M90.65,45.8c-.3,1.99-.94,3.3-2.3,3.49-.98.14-2.26-.94-2.63-2.63s-.15-3.07.69-4c.62-.69,2.27-1.06,3.25-.44.7.45,1.24,1.88.99,3.57ZM87.32,43.22c-1.14,1.98-.4,2.48-.25,3.09.29,1.12,1.37,1.03,1.83.31.32-.5.66-1.59-.27-2.04-.37-.18-.6-.45-1.31-1.37Z"/>
      <path class="cls-34" d="M85.28,53.91c1.57-1.07,3.07-.42,3.79,1.34.55,1.35.51,3.11-.73,4.29-1.16,1.1-2.43.67-3.35-.39-1.31-1.52-1.21-4.22.29-5.24ZM85.94,55.39c-1.07,1-.7,2.73.15,3.3.43.29,1.16.13,1.6-.59.34-.55.5-1.44.29-2.32-.14-.56-1.38-1.01-2.04-.4Z"/>
      <path class="cls-18" d="M67.39,31.12c.44.02.81.96.75,1.24-.1.43-.56,1.26-1.4,1.23l-46.43-1.71c-.71-.67-.68-1.44-.48-1.8.23-.42,1.18-.73,1.83-.7l23.31.87,22.42.87Z"/>
      <path class="cls-38" d="M59.77,105.77l-38.09-2.08c-3.63-.2-7.19.04-10.87-1.73l23.96.22,24.41,1.35c.71.59.76,1.41.59,2.24Z"/>
      <path class="cls-18" d="M59.16,80.56l-15.66-.89-28.64-1.25c-.53-.02-.69-1.55-.29-1.71.26-.1.62-.58,1.32-.55l44.14,1.98c.51.02.87.78.84,1.07-.04.44-.58,1.41-1.72,1.34Z"/>
      <path class="cls-12" d="M56.18,90.16c.93.04,1.37.65,1.57.85.26.27.19.7.03.95-.53.8-1.07.51-1.88.47l-42.19-1.78c-.72-.03-.93-.7-.96-1.07-.07-.94.55-1.41,1.62-1.35l21.85,1.11,19.96.82Z"/>
      <path class="cls-14" d="M63.55,21.55l-17.86-.83-23.31-.73c-1.38-.04-2.46-.3-2.95-1.96l24.81.75,20.52.7c.32.19.02,2.13-1.2,2.07Z"/>
      <path class="cls-36" d="M66.22,44.08c-8.22,2.09-15.65.41-23.43.06l-21.87-.97c-1.4-.06-2.38.08-2.92-1.65,9.22-.39,17.84-.03,26.97.74,7.18.61,14.16-1.17,21.26,1.81Z"/>
      <path class="cls-36" d="M64.47,67.27c-5.87,2.71-11.58.3-17.3.37-7.22.08-14.01-.22-21.11-1.11l-8.08-1.02v-1.28c2.67-.66,5.39.13,8.3.31l17.96,1.13c6.67.39,13.21-1.2,20.23,1.6Z"/>
      <path class="cls-31" d="M62.5,56.11c-9.72.47-18.84-.52-28.45-.67l-15.79-.25c-.42-.79.07-2.29.74-2.26l12.87.53,26.98,1.05c1.49.06,3-.63,3.65,1.59Z"/>
      <path class="cls-17" d="M78.74,45.45c-.98,1.23-2.9,2.12-3.9,1.96-1.78-.29-2.22-3.03-1.84-4.28.54-1.77,2.56-2.93,3.75-2.77,1.81.24,3.22,3.55,1.99,5.1Z"/>
      <path class="cls-2" d="M72.66,52.89c1.46-1.02,3.98.19,4.12,1.95.1,1.34-.45,3.7-.89,4.06-1.93,1.82-3.47.44-4.23-.49-.91-1.85-.81-4.25,1.01-5.52Z"/>
      <path class="cls-30" d="M75.91,68.38c.04,1.81-.78,3.31-2.14,3.14-1.03-.13-2.76-.39-2.69-2.19.06-1.45-.28-2.69.46-3.63.6-.75,1.84-1.07,2.96-.83s1.38,1.7,1.42,3.51Z"/>
      <path class="cls-16" d="M77.75,21.61c-2.08-1.33-2.46-3.08-2.49-5.83.95-1.26,2.51-1.39,3.41-.86,1.56.91,1.79,2.56,1.42,4.39-.3,1.48-.82,2.35-2.34,2.3Z"/>
      <path class="cls-40" d="M72.49,107.71c1.11-.4,1.46,2.47.88,2.66l-1.98.65c-.48-1.52-.93-.48-1.32-.26-.51.28-1.13.45-1.95,1.44-1.11-1.96-.8-3.91,1.21-5.48.7-.96,1.96.58,3.17.99Z"/>
      <path class="cls-6" d="M75.71,34.55c-1.47-.27-2.07-2.39-1.51-3.87.4-1.06,1.64-2.32,3.24-2.91,1.25-.46,3,2.01,2.42,3.59-.69,1.88-1.22,3.72-4.16,3.19ZM75.87,33.21c.45.98,1.95.43,2.3-.44.26-.63.57-1.44.29-2.86-.2-.97-1.67-.92-2.19-.23s-1.25,1.68-.4,3.53Z"/>
      <path class="cls-39" d="M72.49,107.71c-1.21-.42-2.47-1.95-3.17-.99-2.01,1.57-2.32,3.52-1.21,5.48.82-.99,1.44-1.16,1.95-1.44.39-.22.84-1.26,1.32.26-.71.23-1.96,2.24-2.89,2.32-1.09.1-2.13-1.37-2.41-2.39-.26-.95.33-2.83,1.18-3.81,1.14-1.3,2-1.68,3.5-1.51.74.08,1.61.43,1.71,2.08Z"/>
      <path class="cls-33" d="M73.04,84.6c-1.74.32-2.68-2.03-2.54-3.73.18-2.24,2.51-3.95,4.08-2.89,1.31.89,1.16,2.49,1.09,3.79-.07,1.2-.97,2.51-2.63,2.82ZM71.14,81.17c.32,1.76,1.31,2.09,1.95,2.03,1.06-.09,1.56-.9,1.82-1.63.34-.97-.03-3.03-1.53-2.44-.72.28-1.75,1.49-2.23,2.04Z"/>
      <path class="cls-35" d="M74.48,93.25c-1.58-.66-3.6-1.1-4.5,1.43-.34.94.75,2.39,1.6,2.11,2.4-.79,2.17-2.51,3.31-2.11-.13,1.46-1.18,2.69-1.99,3.05-1.12.5-2.96.36-3.65-.91-1.2-2.21-.28-4.65,1.54-5.28,1.48-.51,3.36.2,3.7,1.71Z"/>
      <path class="cls-26" d="M74.48,93.25c.07.3.47.72.41,1.43-1.14-.4-.91,1.32-3.31,2.11-.85.28-1.94-1.17-1.6-2.11.9-2.53,2.92-2.09,4.5-1.43Z"/>
      <path class="cls-3" d="M77.75,21.61c-1.11-.03-2.52-.18-2.81-1.53-.26-1.25-.33-3.43.32-4.3.02,2.75.41,4.5,2.49,5.83Z"/>
      <path class="cls-25" d="M82.9,93.39c.52-1.07.98-.13,1.1.08.37.63.1,1.02-.4,1.45s-1.26-.4-.71-1.54Z"/>
      <path class="cls-23" d="M87.32,43.22c.71.92.94,1.19,1.31,1.37.93.45.59,1.53.27,2.04-.46.72-1.54.81-1.83-.31-.16-.61-.89-1.11.25-3.09Z"/>
      <path class="cls-37" d="M85.94,55.39c.66-.61,1.9-.16,2.04.4.21.88.05,1.77-.29,2.32-.44.71-1.17.87-1.6.59-.86-.57-1.23-2.3-.15-3.3Z"/>
      <path class="cls-29" d="M75.87,33.21c-.85-1.85-.11-2.85.4-3.53s1.99-.74,2.19.23c.29,1.41-.03,2.22-.29,2.86-.35.87-1.85,1.42-2.3.44Z"/>
      <path class="cls-21" d="M71.14,81.17c.48-.55,1.51-1.76,2.23-2.04,1.5-.59,1.87,1.47,1.53,2.44-.26.74-.76,1.55-1.82,1.63-.64.05-1.63-.27-1.95-2.03Z"/>
    </g>
  </g>
</svg>