<?xml version="1.0" encoding="UTF-8"?>
<svg id="Layer_2" data-name="Layer 2" xmlns="http://www.w3.org/2000/svg" viewBox="0 0 167.32 131.61">
  <defs>
    <style>
      .cls-1 {
        fill: #ce6a09;
      }

      .cls-2 {
        fill: #f2ac44;
      }

      .cls-3 {
        fill: #302713;
      }

      .cls-4 {
        fill: #302613;
      }

      .cls-5 {
        fill: #cc821d;
      }

      .cls-6 {
        fill: #291f0d;
      }

      .cls-7 {
        fill: #5a2808;
      }

      .cls-8 {
        fill: #19120c;
      }

      .cls-9 {
        fill: #ce710d;
      }

      .cls-10 {
        fill: #282010;
      }

      .cls-11 {
        fill: #2b2210;
      }

      .cls-12 {
        fill: #ea9b35;
      }

      .cls-13 {
        fill: #2c220f;
      }

      .cls-14 {
        fill: #29200e;
      }
    </style>
  </defs>
  <g id="Layer_1-2" data-name="Layer 1">
    <g>
      <path class="cls-8" d="M161.6,95.61c-9.05,8.18-18.61,14.28-28.27,20.99-7.92,5.51-14.91,11.13-23.82,15.01l-88.07-25.89-8.6-2.65c-2.23-.69-4.88-.9-6.69-2.8l-.37-29.11-.42-19.61-4.92-1.72-.45-27.3,11-4.78L58.62,0c2.78,1.52,5.43.9,8.07,1.19l15.59,1.66,33.33,4.68,51.37,6.69c.14,5.22.76,10.21-.17,14.95l-.54,12.69c-1.35,1.93-2.29,3.97-2.37,6.62l-.68,21.57-.75,13.68-.89,11.88ZM112.34,44.62l11.44-6.31,37.57-19.51-13.48,7.65-33.87,18.69-.46,7.81-.78,20.12c-.02.52-.71,1.32-.07,2.03.31.34,1,.85,1.78.35l22.69-14.88,27.92-18.97.24-9.68.43-15.66-4.41,2.55c.52-1.34,1.97-2.07,3.29-3.26l-44.46-5.86-49.37-6.57-5.85-.44c-2.39-.18-5.61-.94-7.5-.86L2.2,22.71c2.17,1.04,4.48,1.02,6.64,1.57-.09.33-.34.49-.44.52-2.13.15-4.27-.61-7.05-1.23-.73,2.74-.16,5.15-.05,7.77l.7,17.42,21.98,5.39,46.02,10.79,41.92,9.66.15-11.08.27-18.91ZM110.34,100.46c-.01-2.6-.28-5.21.38-7.99.76-3.19.32-6.63.3-9.76l-.03-6.71-68.12-16L7.42,51.74c-1.06,1.61-.85,3.08-.77,4.73.74,14.52.82,28.54.67,43.52l61.21,18.3,40.79,11.72.64-12.06.39-15.93c.76.07.82.71.71,1.51l-.32,21.66c-.03,1.7-.44,3.38.15,4.86,16.49-10.47,31.96-21.48,47.21-32.97,2.87-2.17,2.7-4.28,2.85-7.47.27-6.08.74-12.2.9-18.18l.55-21.08c.05-1.9.87-3.59.43-5.49l-39.52,26.3c-3.59,2.39-6.8,5.54-11.35,5.76l-.2,23.4c-.65.24-1.09.15-1.42.13Z"/>
      <path class="cls-2" d="M161.35,18.81l-37.57,19.51-11.44,6.31c-2.63-.96-5.46-1.48-8.72-1.41l-18.66-4.25c-1.42-.32-2.89-.34-4.15-.26-2.46-.52-5.14-2.43-7.98-1.18,3.01,1.01,5.4,1.37,7.98,1.18l18.88,4.35c1.45.33,2.89.32,3.92.15,2.46.56,5.97,2.93,8.72,1.41l-.27,18.91-.15,11.08-41.92-9.66-46.02-10.79L1.99,48.76l-.7-17.42c-.1-2.61-.67-5.03.05-7.77,2.78.62,4.92,1.38,7.05,1.23.11-.03.35-.19.44-.52-2.16-.55-4.47-.53-6.64-1.57L57.46,1.82c1.89-.08,5.11.68,7.5.86l5.85.44,49.37,6.57,44.46,5.86c-1.32,1.19-2.77,1.92-3.29,3.26ZM17.35,26.29c1.35,1.04,5.86,1.92,8.18,1.67,1.62,1.1,3.91,1.84,6.92,1.21-2.21-.92-4.68-1.62-6.92-1.21-2.4-1.63-5.37-1.8-8.18-1.67-1.68-1.29-4.47-1.87-7.67-1.24,2.44,1.16,5.07,1.48,7.67,1.24ZM41.11,30.72c-2.36-.89-4.9-1.97-7.88-.91,2.42.32,4.45,1.62,7.88.91ZM49.05,32.28c-3.07-1.13-4.71-1.79-7.19-1,2.46,1.23,4.75,1.66,7.19,1ZM56.67,34.04c.16.1.67-.41.03-.66-2.08-.2-4.37-1.29-6.43-.83-.17,0-.39.17-.45.42,2.27.48,4.48,1.41,6.85,1.06ZM64.79,35.5c2.19,1.42,5.03,2.12,7.41,1.35-2.49-1.35-4.69-1.43-7.41-1.35-1.64-1.06-3.87-1.82-6.9-1.19,2.22,1,4.67,1.52,6.9,1.19Z"/>
      <path class="cls-12" d="M111.02,82.71c.01,3.13.46,6.57-.3,9.76-.66,2.77-.39,5.39-.38,7.99v1.56s-.38,15.93-.38,15.93l-.64,12.06-40.79-11.72L7.33,99.99c.16-14.97.07-29-.67-43.52-.08-1.65-.29-3.12.77-4.73-.04,1.88-.25,3.56.36,4.53,6.85,2.6,13.09,3.97,19.52,5.92l18.93,5.73,19.33,4.09,12.43,3.39,27.52,6.95,5.51.36Z"/>
      <path class="cls-1" d="M110.35,102.02v-1.56c.32.02.76.11,1.41-.13l.2-23.4c4.55-.22,7.75-3.37,11.35-5.76l39.52-26.3c.44,1.89-.38,3.59-.43,5.49l-.55,21.08c-.16,5.98-.63,12.1-.9,18.18-.14,3.19.03,5.3-2.85,7.47-15.25,11.49-30.72,22.5-47.21,32.97-.59-1.48-.18-3.17-.15-4.86l.32-21.66c.1-.8.04-1.44-.71-1.51ZM129.69,94.87c5.38-1.81,10.26-4.67,14.75-7.95,5.32-3.89,7.96-12.07,4.47-16.87-4.68.72-7.88,2.41-9.75,6.5-1.87,4.11-10.22,5.01-12.34,14.64-.38,1.71,1.15,4.25,2.87,3.67Z"/>
      <path class="cls-9" d="M161.35,18.81l4.41-2.55-.43,15.66-.24,9.68-27.92,18.97-22.69,14.88c-.77.51-1.47,0-1.78-.35-.64-.71.05-1.51.07-2.03l.78-20.12.46-7.81,33.87-18.69,13.48-7.65Z"/>
      <path class="cls-5" d="M111.02,82.71l-5.51-.36-27.52-6.95-12.43-3.39-19.33-4.09-18.93-5.73c-6.43-1.95-12.67-3.32-19.52-5.92-.61-.97-.4-2.65-.36-4.53l35.45,8.26,68.12,16,.03,6.71Z"/>
      <path class="cls-13" d="M103.62,43.21c-1.04.16-2.47.18-3.92-.15l-18.88-4.35c1.26-.09,2.72-.07,4.15.26l18.66,4.25Z"/>
      <path class="cls-13" d="M112.34,44.62c-2.75,1.52-6.27-.85-8.72-1.41,3.26-.07,6.09.46,8.72,1.41Z"/>
      <path class="cls-13" d="M80.81,38.7c-2.58.18-4.97-.17-7.98-1.18,2.84-1.24,5.52.67,7.98,1.18Z"/>
      <path class="cls-3" d="M17.35,26.29c-2.6.24-5.23-.08-7.67-1.24,3.2-.62,5.99-.05,7.67,1.24Z"/>
      <path class="cls-10" d="M41.11,30.72c-3.44.71-5.47-.59-7.88-.91,2.98-1.06,5.52.02,7.88.91Z"/>
      <path class="cls-6" d="M64.79,35.5c2.73-.08,4.92,0,7.41,1.35-2.38.77-5.22.08-7.41-1.35Z"/>
      <path class="cls-11" d="M49.05,32.28c-2.45.65-4.73.22-7.19-1,2.49-.79,4.13-.13,7.19,1Z"/>
      <path class="cls-4" d="M25.53,27.96c-2.32.25-6.83-.63-8.18-1.67,2.81-.13,5.78.04,8.18,1.67Z"/>
      <path class="cls-14" d="M56.67,34.04c-2.37.35-4.58-.58-6.85-1.06.06-.25.28-.43.45-.42,2.06-.47,4.35.63,6.43.83.64.25.13.76-.03.66Z"/>
      <path class="cls-6" d="M64.79,35.5c-2.24.33-4.69-.19-6.9-1.19,3.03-.63,5.27.13,6.9,1.19Z"/>
      <path class="cls-4" d="M25.53,27.96c2.24-.41,4.71.28,6.92,1.21-3.01.63-5.3-.11-6.92-1.21Z"/>
      <path class="cls-7" d="M129.69,94.87c-1.71.58-3.24-1.96-2.87-3.67,2.11-9.63,10.46-10.53,12.34-14.64,1.87-4.09,5.07-5.78,9.75-6.5,3.5,4.8.85,12.98-4.47,16.87-4.49,3.28-9.38,6.14-14.75,7.95Z"/>
    </g>
  </g>
</svg>