<?xml version="1.0" encoding="UTF-8"?>
<svg id="Layer_2" data-name="Layer 2" xmlns="http://www.w3.org/2000/svg" viewBox="0 0 142.26 174.53">
  <defs>
    <style>
      .cls-1 {
        fill: #54b8d1;
      }

      .cls-2 {
        fill: #78c8d9;
      }

      .cls-3 {
        fill: #abedf5;
      }

      .cls-4 {
        fill: #81cfdd;
      }

      .cls-5 {
        fill: #79c9d9;
      }

      .cls-6 {
        fill: #d7fcfd;
      }

      .cls-7 {
        fill: #349ec1;
      }

      .cls-8 {
        fill: #d2fcfe;
      }

      .cls-9 {
        fill: #80cedd;
      }

      .cls-10 {
        fill: #d5fbfd;
      }

      .cls-11 {
        fill: #d1fafd;
      }

      .cls-12 {
        fill: #d6fbfe;
      }

      .cls-13 {
        fill: #85d2df;
      }

      .cls-14 {
        fill: #3093b6;
      }

      .cls-15 {
        fill: #84d2df;
      }

      .cls-16 {
        fill: #42a5c3;
      }

      .cls-17 {
        fill: #3ba0c0;
      }
    </style>
  </defs>
  <g id="Layer_1-2" data-name="Layer 1">
    <g>
      <path class="cls-14" d="M133.09,19.74c8.5,40.62,12.8,85.57,5.32,126.79-2.06,11.32,2.47,19.41-2.04,23.67-1.99,1.88-5.54,2.78-8.94,2.44-31.79-3.18-52.8,3.28-72.94,1.59l-16.55-1.39c-5.19-.44-10.3-.28-15.49.04l-13.1.81c-4.68.29-7.7-2.4-8.48-6.18-1-4.8,2.85-12.02,1.77-26.68L0,104.98l.17-26.72C1.91,52.69,6.15,27.77,11.88,2.75c.78-3.4,22.41-3.45,25.14-1.2.96.8,1.25,2.29,1.48,3.85l4.37,29.53,2.77,21.7c2.97.22,5.68-.73,8.57-1.44,12.15-3,24.26-2.51,36.24.69,2.56.68,5.21,1.27,7.82.44l3.19-23,4.15-30.83c1.05-1.66,5.43-1.89,7.59-1.89l13.49.03c2.12,0,3.45,1.28,3.72,2.89l2.69,16.22ZM6.09,166.33c.12.09.25,1.13,0,1.04-.38-.14-2.25,0-2.31.39-.44,3.02,3.2,4.44,6.28,4.2l7.43-.57,21.75-.12c17.91,1.9,34.97,1.5,52.77-.72,12.07-1.5,23.55-.76,35.44.63,3,.35,7.16-.78,8.22-3.17,1.93-4.36-.53-9.29,0-13.95l3.66-32.02c1.49-13.01.89-25.16.18-38.28-1.24-23.08-4.16-45.46-9.65-67.52-.51-2.05-.63-3.78.59-6.41-1.25-.39-1.49.04-1.7,1.32-2.11-4.94-1.28-8.7-1.35-8.78-.48-.53-1.52-.41-2.27-.57-5.42-1.13-15.05-.76-17.69,1.4-1.44,1.18-.31,2.57-.48,4.24-1.4,13.53-3.23,26.59-3.24,40l-.59,5.66c-.33,3.12-1.97,5.76-5.73,6.36l-10.69-1.79c-8.95-1.54-17.8-2.61-26.99-.97l-15.12,3.81c.09-.83.41-1.52,1.86-2.19-.96-.73-1.87-1.26-3.49-1.89-1.62-17.45-3.72-34.46-7.9-51.35,1.72.37,2.44-1.2.47-1.31.31-1.18-1.86-2.04-1.86-.28.06.02-.55.08-.75.02.25-.53.27-1.24-.32-1.54-.39-.2-1.11-.63-2.03-.62l-13.23.12c-1.79.02-3.05.66-3.69,1.78-.64,1.11-.4,2-.7,3.37l-2,9.24-.82,5.41c-2.81,18.66-6.11,37.45-6.95,57.01-.57,13.31-.26,25.78.62,38.95l2.11,31.35-2.08,14.33c-.24,1.67.79,2.99,2.27,3.41Z"/>
      <path class="cls-3" d="M129.86,16.24c-1.71,2.14-.71,7.24-.23,11.65l.96,8.89c1.59,14.62,3.78,28.81,3.03,43.64-.63,12.55-3.62,24.58-8.79,35.86-12.27,26.77-29.88,40.58-63.2,44.34-9.2,1.04-17.65.27-26.73-1.36-8.32-1.49-17.53,1.02-24.71,4.11-1.75-2.18-.7-5.27-.46-8.14.89-10.72.07-21.04-.42-31.86-.55-12.1-.88-23.72-.36-35.68l.81-18.42,2.83-37.97,3.35-24.58c.19-1.37,5.56-1.4,5.92-.07,1.38,5.11.59,10.71.88,15.75.68,12.07-.78,23.88,1.3,35.29,2.79-1.89,2.58-4.56,2.99-7.05,2.35-14.34,2.14-28.6,1.28-43.17-.08-1.42,2.49-2.29,3.69-2.08.27-.78.54-1.54.94-1.88.2.06.81,0,.75-.02.22.98.27,1.97-.19,3.02-1.48,3.37-1.48,6.8-1.45,10.5l.3,41.64c2.23,2.71,8.04,2.97,11.18,2.14,1.52.76,3.21.45,4.77,1.75-1.76,1.24-1.4,3.81.06,3.78,15.18-.33,26.59-3.9,36.67-2.82,3.49.37,6.89,1.95,10.47.9-.58-1.77-.31-3.31,1.16-3.87,1.37.8,2.21-.54.73-1.06,3.76-.6,5.4-3.24,5.73-6.36.38.39,2.31,1.04,3.08.57,2.31-7.48,1.73-15.21,2.52-23.04l1.89-18.62c.16-1.6.53-3.66,1.62-4.79.6-.62,2.32-.13,2.6.26l.4,17.43c1.63,10.48,3.83,20.56,7.08,30.37,1.29-2.08-.72-4.05-.87-5.86l-.99-11.99-.87-6.85-3.16-20.45c-.22-1.43.29-2.51-.8-3.52,1.45-.36,3.27-1.28,4.94-.81,1.76.5,2.8.26,3.56-.89.64-.96,1.6-1.72.99-3.13.76.16,1.8.04,2.27.57.07.08-.76,3.84,1.35,8.78.2-1.28.45-1.72,1.7-1.32-1.22,2.62-1.1,4.35-.59,6.41ZM12.72,58.52c2.25-2.12,1.37-4.38,1.6-6.44l.9-8.06c.34-3.07.31-6.37.22-9.33-.22-.02-.51.09-.63.37-.14,2.16,0,4.62-.35,6.91l-.89,5.94-.61,6.94c-.11,1.25-.86,2.34-.24,3.66ZM86.8,92.87c4.88-6.02,8.79-12.68,10.88-19.88.47-1.63.53-3.22-1.36-4.33-3.58,10.1-8.92,19.28-16.62,27.92,3.32-.08,5.51-1.75,7.1-3.71ZM57.89,133.2c4.45-2.62-8.86-10.33-14.8-18.59l-.58-1.11.65-1.02c-2.63-4.51-5.56-9.17-7.63-13.84-2.03-8.33-2.81-16.5-2.15-25.11,1.36-.71,1.69-2.06.47-2.83l-4.59,10.01-.43,4.34c-1.53,3.78-.94,7.22-.79,11.09.39,10.4,3.75,20.57,10.92,28.76,5.11,5.83,14.58,10.87,18.92,8.32ZM62.62,120.4c-10.19-12.19-16.44-24.91-19.89-38.77-.54-2.16-1.04-4.23-2.39-5.88-.95.66-1.76,1.42-1.8,1.98-1.1,14.57,5.42,28.02,16.33,38.83,2.31,2.29,4.75,4.06,7.75,3.84ZM80.7,110.16c8.01-4.3,13.58-10.03,17.63-16.78.69-1.14.54-2.47-.64-2.99-3.94,5.92-8.33,10.52-14.36,14.58-1.13,1.52-2.6,3.06-2.63,5.2ZM33.02,138.35l-8.92-12.11c-1.27-1.73-2.36-3.58-5.1-4.54.43,11.45,5.93,21.47,15.22,29.38,3.36,2.86,8.83,3.53,13.97,2.98-5.84-5.07-10.85-9.83-15.17-15.7Z"/>
      <path class="cls-9" d="M6.09,166.33c.7.29,1.42.37,2,0,.71-.43.89-2.44,2.1-2.96,7.18-3.09,16.39-5.61,24.71-4.11,9.08,1.63,17.53,2.39,26.73,1.36,33.33-3.76,50.93-17.57,63.2-44.34,5.17-11.28,8.16-23.31,8.79-35.86.75-14.83-1.45-29.02-3.03-43.64l-.96-8.89c-.48-4.41-1.48-9.51.23-11.65,5.5,22.06,8.41,44.44,9.65,67.52.71,13.12,1.31,25.26-.18,38.28l-3.66,32.02c-.53,4.66,1.93,9.59,0,13.95-1.06,2.39-5.22,3.52-8.22,3.17-11.89-1.39-23.37-2.13-35.44-.63-17.8,2.21-34.86,2.61-52.77.72l-21.75.12-7.43.57c-3.08.24-6.72-1.18-6.28-4.2.06-.38,1.93-.53,2.31-.39.25.09.11-.95,0-1.04ZM132.53,115.89s.27-.14.45-.37c.05-1,.26-2.08-.29-3.09-.05.01-.27.14-.45.37-.05,1-.26,2.08.29,3.09ZM125.06,151.4c.89-.09.86-.56.92-1.06l5.34-26.26.93-7.12c-.04-.16-.23-.38-.55-.37l-3.07,12.39c-.1.42-1.57,1.18-1.23,1.45.29.23.71.53.64.98l-3,19.98ZM100.92,161.46c5.96-2.94,10.55-6.73,13.92-11.98l-13.92,11.98Z"/>
      <path class="cls-12" d="M32.93,3.5c-.4.34-.67,1.1-.94,1.88-1.2-.21-3.77.66-3.69,2.08.86,14.57,1.07,28.83-1.28,43.17-.41,2.49-.2,5.17-2.99,7.05-2.07-11.41-.61-23.21-1.3-35.29-.29-5.05.5-10.64-.88-15.75-.36-1.33-5.73-1.3-5.92.07l-3.35,24.58-2.83,37.97-.81,18.42c-.52,11.95-.19,23.58.36,35.68.49,10.83,1.31,21.15.42,31.86-.24,2.87-1.28,5.97.46,8.14-1.21.52-1.39,2.53-2.1,2.96-.59.36-1.31.28-2,0-1.48-.42-2.51-1.75-2.27-3.41l2.08-14.33-2.11-31.35c-.89-13.17-1.2-25.64-.62-38.95.84-19.56,4.14-38.35,6.95-57.01l.82-5.41,2-9.24c.3-1.37.06-2.27.7-3.37.65-1.12,1.9-1.76,3.69-1.78l13.23-.12c.92,0,1.65.42,2.03.62.6.3.58,1.01.32,1.54Z"/>
      <path class="cls-2" d="M44.6,60.51l-1.07.28c-3.14.83-8.95.56-11.18-2.14l-.3-41.64c-.03-3.7-.03-7.12,1.45-10.5.46-1.05.4-2.04.19-3.02,0-1.76,2.17-.91,1.86.28,1.97.11,1.25,1.68-.47,1.31,4.18,16.89,6.28,33.9,7.9,51.35,1.62.63,2.53,1.16,3.49,1.89-1.45.67-1.77,1.36-1.86,2.19Z"/>
      <path class="cls-11" d="M97.39,59.47c1.48.52.64,1.86-.73,1.06-1.47.55-1.74,2.09-1.16,3.87-3.58,1.05-6.98-.53-10.47-.9-10.08-1.07-21.49,2.5-36.67,2.82-1.46.03-1.82-2.53-.06-3.78-1.56-1.29-3.25-.99-4.77-1.75l1.07-.28,15.12-3.81c9.19-1.64,18.04-.56,26.99.97l10.69,1.79Z"/>
      <path class="cls-6" d="M125.12,1.81c.6,1.41-.36,2.16-.99,3.13-.75,1.14-1.8,1.38-3.56.89-1.67-.47-3.49.45-4.94.81-.53.13-.81.38-.8.86-.28-.39-2-.88-2.6-.26-1.09,1.12-1.46,3.19-1.62,4.79l-1.89,18.62c-.79,7.83-.21,15.55-2.52,23.04-.77.47-2.7-.17-3.08-.57l.59-5.66c.02-13.41,1.84-26.47,3.24-40,.17-1.68-.96-3.06.48-4.24,2.64-2.15,12.27-2.52,17.69-1.4Z"/>
      <path class="cls-8" d="M57.89,133.2c-4.35,2.56-13.82-2.49-18.92-8.32-7.17-8.19-10.53-18.36-10.92-28.76-.15-3.87-.73-7.31.79-11.09l.43-4.34,4.59-10.01c1.22.77.89,2.12-.47,2.83-.66,8.61.12,16.79,2.15,25.11,2.06,4.67,5,9.33,7.63,13.84l-.65,1.02.58,1.11c5.94,8.26,19.25,15.97,14.8,18.59Z"/>
      <path class="cls-13" d="M33.02,138.35c4.33,5.87,9.33,10.64,15.17,15.7-5.14.55-10.6-.11-13.97-2.98-9.29-7.91-14.79-17.93-15.22-29.38,2.74.96,3.82,2.82,5.1,4.54l8.92,12.11Z"/>
      <path class="cls-15" d="M62.62,120.4c-3,.22-5.43-1.55-7.75-3.84-10.91-10.81-17.43-24.25-16.33-38.83.04-.56.85-1.32,1.8-1.98,1.34,1.65,1.85,3.72,2.39,5.88,3.45,13.85,9.7,26.57,19.89,38.77Z"/>
      <path class="cls-5" d="M114.83,7.49c-.01-.47.28-.73.8-.86,1.09,1.01.58,2.09.8,3.52l3.16,20.45.87,6.85.99,11.99c.15,1.81,2.16,3.78.87,5.86-3.26-9.8-5.46-19.89-7.08-30.37l-.4-17.43Z"/>
      <path class="cls-4" d="M86.8,92.87c-1.59,1.96-3.77,3.63-7.1,3.71,7.7-8.64,13.04-17.81,16.62-27.92,1.89,1.11,1.83,2.7,1.36,4.33-2.09,7.2-5.99,13.86-10.88,19.88Z"/>
      <path class="cls-10" d="M80.7,110.16c.03-2.14,1.5-3.68,2.63-5.2,6.03-4.06,10.42-8.65,14.36-14.58,1.19.52,1.33,1.85.64,2.99-4.05,6.75-9.62,12.48-17.63,16.78Z"/>
      <path class="cls-1" d="M12.72,58.52c-.62-1.33.13-2.41.24-3.66l.61-6.94.89-5.94c.34-2.29.21-4.74.35-6.91.12-.28.42-.39.63-.37.09,2.96.12,6.25-.22,9.33l-.9,8.06c-.23,2.06.65,4.31-1.6,6.44Z"/>
      <path class="cls-7" d="M125.06,151.4l3-19.98c.07-.46-.35-.75-.64-.98-.34-.27,1.12-1.03,1.23-1.45l3.07-12.39c.32-.02.51.21.55.37l-.93,7.12-5.34,26.26c-.06.49-.03.96-.92,1.06Z"/>
      <path class="cls-17" d="M100.92,161.46l13.92-11.98c-3.37,5.24-7.96,9.03-13.92,11.98Z"/>
      <path class="cls-16" d="M132.53,115.89c-.55-1-.35-2.09-.29-3.09.18-.23.4-.35.45-.37.55,1,.35,2.09.29,3.09-.18.23-.4.35-.45.37Z"/>
    </g>
  </g>
</svg>