<?xml version="1.0" encoding="UTF-8"?>
<svg id="Layer_2" data-name="Layer 2" xmlns="http://www.w3.org/2000/svg" viewBox="0 0 118.17 146.12">
  <defs>
    <style>
      .cls-1 {
        fill: #327d2f;
      }

      .cls-2 {
        fill: #83d155;
      }

      .cls-3 {
        fill: #a6e773;
      }

      .cls-4 {
        fill: #74c04d;
      }

      .cls-5 {
        fill: #5ea941;
      }

      .cls-6 {
        fill: #5fa845;
      }

      .cls-7 {
        fill: #a4e573;
      }
    </style>
  </defs>
  <g id="Layer_1-2" data-name="Layer 1">
    <g>
      <path class="cls-1" d="M17.45,1.65c-2.3.16-1.88,3.67-2.24,7l-.49,4.55-2.95,22.75-.74,5.31C6.68,72.39,2.28,103.34,1.78,134.92c.74.02.87.23,1.36.6-.71.03-1.22-.42-1.22-.38l-.15,2.78c-.06,1.05.17,1.89,1.04,2.69s2.14,1.17,3.69,1.22l52.96,1.86c12.03.42,23.46.97,35.43.77,3.1-.05,5.76-1.13,8.22-2.42l9.93-5.21c2.69-1.41,3.76-3.12,3.76-5.51,0-4.18-.23-8.16-.57-12.34l-1.97-23.75-3.92-37.14-.77-6.33-4.91-48.88c-.61.52-.96,1.19-.96,1.68l-.15,18.11-1.19,26.31-.49,11.96-.55,13.58-.51,12.35-.52,15.66-2.03,37.79c-.48.21-1.53.23-1.58.03l-.76-2.73,2.11-41.65.56-14.47.58-11.92.52-11.12.54-8.23.55-11.12.54-9.06.55-9.88.67-9.05.41-6.72c.05-.78.37-2.43-1.12-2.53-4.25-.29-8.62-.22-12.77.18-1.34,1.28-1.02,2.69-1.21,4.13-.74,5.69-.28,11.16-.63,16.87l-.62,9.88-.61,4.86c-.35,2.82-2.06,5.02-4.72,6.65-5.54,1.62-11.55,1.69-17.47,1.39-12.72-.62-25.93-1.73-28.54-12.77-1.11-4.68-1.32-9.28-1.52-14.11-.21-5.02-.69-9.81-.09-14.87.04-.38-1.55-2.08-.65-3.42,1.88.7,2.23,2.29,2.23,3.88,0,7.28-.08,14.34.59,21.5.71,7.7,1.93,14.57,12.76,16.87,9.13,1.94,27.75,3.39,33.02-.7,2.69-2.09,3.04-5.16,3.17-8.02l.87-18.96c.2-4.4-.11-8.65.94-12.87.29-1.15,1.96-2,3.42-2l12.02-.06c2.75-.01,4.28,1.37,4.49,3.44l3.38,33.56,3.27,30.49,4.2,41.65.82,13.33.04,10.46c0,1.42-.97,2.95-2.46,3.92-4.72,3.06-9.8,5.54-15.27,7.8-2.64,1.09-5.73,1.21-8.83,1.12l-37.6-1.08-46.77-1.62c-3.85-.13-6.8-2.1-7.01-4.78-.46-5.94-.16-11.51.21-17.66,1.56-25.82,4.6-51.19,8.34-76.83l1.9-12.99,2.7-21.91.49-6.18c.14-1.77,1.69-2.9,3.91-2.93l-.34,1.53Z"/>
      <path class="cls-6" d="M32.98.68c-.9,1.34.69,3.04.65,3.42-.6,5.06-.12,9.85.09,14.87.2,4.84.41,9.43,1.52,14.11,2.61,11.04,15.83,12.14,28.54,12.77,0,.27.16.54.44.62s.87.16,1.48.09c1.07-.12,1.1.96,0,.91-7.56.54-15.65.38-23.21.02-5.05-.24-10.65-1.02-13.8-4.49-3.31-3.65-3.43-8.57-2.48-12.91l3.87-17.7c.81-3.69,1.84-9.82.81-10.42-.9-.52-1.79-.29-2.61-.29l-10.83-.03.34-1.53L28.94,0c1.52-.02,2.69.18,4.03.68Z"/>
      <path class="cls-2" d="M63.78,45.85c5.92.29,11.93.22,17.47-1.39,2.83-.83,2.88-2.21,4.23-1.22,1.42-1.84,1.81-3.99,2.02-6.02l.64-6.09.69-15.04c.2-4.31.02-11.89,1.72-11.89l11.5.02-.08,6.53c0,.34.34.44.55.39l-.67,9.05-.55,9.88-.54,9.06-.55,11.12-.54,8.23-.52,11.12-.58,11.92-.56,14.47-2.11,41.65c-2.53,1.22-3.2,3.72-7.59,3.48l-6.79-.37c-.81-1.01-2.43-1.1-3.82-1.37l-7.36-1.45-7.6-2.43-6.54-1.78c-9.75-2.66-19.95-4.11-30.28-3-8.38.9-13.28,5.74-18.26,6.17-1.94.17-4.13-.2-4.53-1.36l.33-11.7c1.74-28.06,4.95-55.6,9.11-83.42l4.37-29.24.95-7.02h9.93c.1-.98.04-1.74.44-2.47.82,0,1.71-.23,2.61.29,1.03.6,0,6.73-.81,10.42l-3.87,17.7c-.95,4.34-.84,9.27,2.48,12.91s8.75,4.25,13.8,4.49c7.56.36,15.65.52,23.21-.02,1.1.05,1.08-1.03,0-.91-.61.07-1.19-.02-1.48-.09s-.45-.35-.44-.62Z"/>
      <path class="cls-5" d="M1.76,137.92c1.6,1.02,3.59,1.31,5.92,1.22,5.55-.21,10.83.14,16.34.36l18.56.76,14.16.47c8.08.27,15.82.66,23.81.3l.96-.3,6.79.37c4.39.24,5.06-2.26,7.59-3.48l.76,2.73c.06.21,1.1.18,1.58-.03l2.03-37.79.52-15.66.51-12.35.55-13.58.49-11.96,1.19-26.31.15-18.11c0-.49.35-1.17.96-1.68l4.91,48.88.77,6.33,3.92,37.14,1.97,23.75c.35,4.18.58,8.16.57,12.34,0,2.39-1.07,4.1-3.76,5.51l-9.93,5.21c-2.46,1.29-5.12,2.37-8.22,2.42-11.97.21-23.4-.34-35.43-.77l-52.96-1.86c-1.54-.05-2.85-.46-3.69-1.22s-1.1-1.64-1.04-2.69Z"/>
      <path class="cls-4" d="M81.52,140.74l-.96.3c-7.99.37-15.73-.03-23.81-.3l-14.16-.47-18.56-.76c-5.51-.23-10.79-.57-16.34-.36-2.33.09-4.33-.2-5.92-1.22l.15-2.78s.51.41,1.22.38c.4,1.16,2.58,1.53,4.53,1.36,4.98-.43,9.89-5.27,18.26-6.17,10.32-1.11,20.52.34,30.28,3l6.54,1.78,7.6,2.43,7.36,1.45c1.39.27,3.01.36,3.82,1.37Z"/>
      <path class="cls-3" d="M17.45,1.65l10.83.03c-.4.73-.34,1.49-.44,2.46h-9.93s-.95,7.03-.95,7.03l-4.37,29.24c-4.16,27.82-7.37,55.36-9.11,83.42l-.33,11.7c-.49-.38-.62-.59-1.36-.6.5-31.58,4.9-62.53,9.24-93.65l.74-5.31,2.95-22.75.49-4.55c.36-3.33-.06-6.84,2.24-7Z"/>
      <path class="cls-7" d="M102.53,11.14c-.21.05-.55-.05-.55-.39l.08-6.53-11.5-.02c-1.71,0-1.52,7.58-1.72,11.89l-.69,15.04-.64,6.09c-.21,2.03-.6,4.17-2.02,6.02-1.35-.99-1.4.4-4.23,1.22,2.66-1.63,4.37-3.83,4.72-6.65l.61-4.86.62-9.88c.36-5.71-.11-11.18.63-16.87.19-1.44-.13-2.85,1.21-4.13,4.15-.41,8.52-.47,12.77-.18,1.49.1,1.17,1.75,1.12,2.53l-.41,6.72Z"/>
    </g>
  </g>
</svg>