<?xml version="1.0" encoding="UTF-8"?>
<svg id="Layer_2" data-name="Layer 2" xmlns="http://www.w3.org/2000/svg" viewBox="0 0 51.64 98.98">
  <defs>
    <style>
      .cls-1 {
        fill: #164b91;
      }

      .cls-2 {
        fill: #2365b9;
      }

      .cls-3 {
        fill: #04235b;
      }

      .cls-4 {
        fill: #f64820;
      }

      .cls-5 {
        fill: #fa714a;
      }

      .cls-6 {
        fill: #3e7dce;
      }

      .cls-7 {
        fill: #f96c45;
      }

      .cls-8 {
        fill: #1a58a8;
      }

      .cls-9 {
        fill: #f24520;
      }

      .cls-10 {
        fill: #1e60b4;
      }

      .cls-11 {
        fill: #4c8fde;
      }

      .cls-12 {
        fill: #326cbe;
      }

      .cls-13 {
        fill: #b51e10;
      }

      .cls-14 {
        fill: #2065bb;
      }

      .cls-15 {
        fill: #19529e;
      }

      .cls-16 {
        fill: #042760;
      }

      .cls-17 {
        fill: #dc3117;
      }

      .cls-18 {
        fill: #cf2815;
      }
    </style>
  </defs>
  <g id="Layer_1-2" data-name="Layer 1">
    <g>
      <path class="cls-16" d="M30.83,17.33c11.46,8.58,18.43,18.65,20.18,33.75.83,7.12.76,14.11.29,21.29s-1.02,13.96-2.28,20.86c-.38,2.1-1.64,3.58-3.65,3.96-12.73,2.4-25.88,2.34-38.64.18-2.13-.36-3.43-1.78-3.83-4.03-1.32-7.48-2.16-14.94-2.62-22.6-.74-12.41-.09-24.57,2.98-36.31,1.44-5.5,3.54-10.61,6.24-15.47.48-.86,1.23-1.51,1.98-1.71.43-.11.77,0,1.06,0l18.28.1ZM3.78,92.87c.34,1.76,1.21,3.11,2.98,3.38l6.46.99c.1,0,.27-.27.36-.31.25-.1.43.25.58.31,1.03.44,2.39.1,3.47.23,3.19.39,6.2.25,9.16.25h5.88s2.98-.34,2.98-.34c3.46-.4,7.72-.41,10.79-1.85,1.28-.6,1.69-2.29,1.86-3.62l1.44-10.85.17-3.24.66-10.5-.05-9.92c-.02-3.23-.26-6.54-1.1-9.79l-.16-1.3c-1.53-6.9-4.43-13.15-8.82-18.42-2.95-3.54-6.16-6.69-9.86-9.18-1-.33-2.32-.04-3.28-.05l-10.07-.06-5.16-.14c-.82-.02-1.48.51-1.96,1.38C2.36,33.92.35,51.37,1.11,68.38l.6,8.31c.4,5.47,1.05,10.82,2.07,16.18Z"/>
      <path class="cls-13" d="M30.83,17.33l-18.28-.1c-.3,0-.64-.12-1.06,0l-.26-.49.05-4.78c.01-1.28,1.3-1.26,2.36-1.67l.14-8.29C13.8,1.01,14.35,0,15.42,0h11.58c.87,0,1.51,1.03,1.53,1.91l.13,8.63c.96-.12,2.28.27,2.3,1.31l-.12,5.48ZM14.63,7.54l-.08,3.49,10.91.06c.8,0,1.57.04,2.37-.46l-.35-9.27c-.03-.7-1.01-.51-1.41-.51l-10.58.03c-.6,0-.84.72-.84,1.3l-.02,5.37ZM17.49,16.68c3.45.08,6.89-.1,10.38-.28l2.22-.11c.13-1.34.12-2.76-.08-4.26-.66-.4-1.4-.03-1.99-.03l-4.39-.06c-1.81-.02-3.59.02-5.51,0l-5.47-.03c-.37,1.27-.57,2.81-.24,3.97.04.13.37.22.11.72,1-.72,1.31-.01,1.85,0l3.13.07Z"/>
      <path class="cls-14" d="M27.29,18.66c.11.97.9,1.54,1.58,2.19,1.7,1.63,3.4,3.11,5.31,4.43,1.67,1.16,2.93,2.69,4.37,4.12.58.58,1.29,1.07,1.22,2.09.34.12.56.39.44.56-.2.29-.33.45-.7.55-1.97-2.64-4.72-5.84-8.49-4.75-1.76.51-2.64,2.53-2.65,4.42l-.03,9.39c.3,5.26,1.27,10.32,3.39,15.11,1.2,2.72,3.17,4.73,4.91,6.97l1.97,2.52c2.01,2.57,3.96,5.38,4.61,8.81,1.01,5.3.58,10.35-3.61,13.29l-1.06.94c-.27.24-.87.19-1.22.28-.07-.33-.42-.32-.62-.23l-.59.26-8.41.77-9.6.04-4.04-.41c-2.04-.21-4.09-.34-6.05-1.24-1.23-.56-1.71-3.2-2.04-2-.43-.88-.54-1.75-.63-2.73l-.6-6.4c-1.07-11.53-.62-23.21.91-34.72l1.25-7.18c.67-3.83,2.15-7.2,4.52-10.15l3.47-4.31c.79-.98,1.91-1.58,2.3-2.71l10.07.06Z"/>
      <path class="cls-2" d="M12.06,18.46c.19.88-.47,1.24-.76,1.8l-3.03,5.89c-1.76,3.41-2.83,7.07-3.3,10.95l-1.3,10.83-.26,5.41-.03,13.17.75,10.74c.01.2.21.45.3.47s.2-.04.33-.06l.6,6.4c.09.99.2,1.86.63,2.73.37.75.69,2.08,1.53,2.6,2.45,1.53,5.35,1.63,8.1,1.71l6.2.18c5.37.16,10.51-.31,15.51-1.68.35-.1.95-.04,1.22-.28-.07.2.44.51.44.69v5c-.01.82-1.15.83-1.62.87l-3.49.3-5.7.23c-6.93.28-13.74-.21-20.49-1.5-1.38-.26-2.59-1.02-3.45-2.31l-.48.27c-1.02-5.36-1.67-10.7-2.07-16.18l-.6-8.31c-.76-17.01,1.26-34.45,8.99-48.54.48-.87,1.14-1.4,1.96-1.38Z"/>
      <path class="cls-1" d="M50.51,57.4l.05,9.92-.66,10.5-.17,3.24-1.44,10.85c-.18,1.33-.58,3.02-1.86,3.62-3.07,1.44-7.33,1.45-10.79,1.85l-2.98.35h-5.88c-2.96,0-5.97.13-9.16-.26-1.08-.13-2.43.21-3.47-.23-.15-.06-.33-.42-.58-.31-.09.04-.27.31-.36.31l-6.46-.99c-1.77-.27-2.64-1.62-2.98-3.38l.48-.27c.86,1.29,2.07,2.05,3.45,2.31,6.75,1.29,13.55,1.77,20.49,1.5l5.7-.23,3.49-.3c.47-.04,1.6-.05,1.6-.87v-5c.01-.18-.49-.49-.42-.69l1.06-.94c4.2-2.94,4.63-7.99,3.61-13.29-.66-3.43-2.61-6.23-4.61-8.81.61.04,1.33-.22,1.5-1.13.53.43,1.13.72,1.71.98,1.21.53,1.95-.44,2.75-1.09,1.01-.82,1.36-1.78,2-2.74l2.39-3.58c.45-.67.47-1.68,1.08-2.21.15.26.15.51.1.69-.06.22.13.42.37.18Z"/>
      <path class="cls-10" d="M50.51,57.4c-.24.25-.42.04-.37-.18.05-.18.05-.44-.1-.69-.61.52-.63,1.54-1.08,2.21l-2.39,3.58c-.38-.26-.3-.52-.27-.84.21-2.2.12-4.39.01-6.52l-.13-2.71-1.61-9.73c-.19-1.16-.46-2.22-1.14-3.19-.13.38-.13.53-.44.64.08-.63-.21-.88-.44-.97-.54-2.29-1.67-4.52-3.05-6.38.37-.1.5-.27.7-.55.12-.17-.1-.45-.44-.56.08-1.02-.64-1.51-1.22-2.09-1.44-1.44-2.7-2.97-4.37-4.12-1.91-1.32-3.61-2.8-5.31-4.43-.68-.65-1.47-1.23-1.58-2.19.96,0,2.28-.28,3.28.05,3.7,2.49,6.91,5.63,9.86,9.18,4.39,5.27,7.29,11.51,8.82,18.42l.16,1.3c.84,3.25,1.08,6.56,1.1,9.79Z"/>
      <path class="cls-11" d="M17.22,18.59c-.39,1.12-1.51,1.73-2.3,2.71l-3.47,4.31c-2.37,2.95-3.86,6.32-4.52,10.15l-1.25,7.18c-1.52,11.51-1.98,23.19-.91,34.72-.13.02-.24.09-.33.06s-.29-.28-.3-.47l-.75-10.74.03-13.17.26-5.41,1.3-10.83c.46-3.87,1.54-7.54,3.3-10.95l3.03-5.89c.29-.57.95-.92.76-1.8l5.16.14Z"/>
      <path class="cls-9" d="M26.08.84c.16.33.14.6.17,1.08.18,2.92.32,5.71.1,8.59-.4-.05-.7.02-.85.16-.08.07-.07.33-.03.42l-10.91-.06.08-3.49c.09-.05.23-.01.26.07l.03,2.78c.05.11.13.15.2.15l.05-7.82c0-.25.06-.47.14-.55,1.13-1.34.19,5.67.86,8.62,1-2.85-.28-8.63.82-8.3.18.05.3.22.3.53v7.29c.18-.02.35-.11.44-.16l.19-7.38c0-.22.27-.28.36-.28.22-.02.44.14.44.52l-.02,7.4c.28.01.54-.03.65-.08l.02-7.49c0-.28.48-.5.6-.41.16.12.32.24.33.59l.08,3.45c.11,0,.62-.12.63-.26l.14-3.7c.34-.23,1.01-.46.93-1.11l-6.46.06c-.19,0-.27-.4-.12-.56l10.58-.03Z"/>
      <path class="cls-4" d="M28.02,12c.32,1.48.07,2.99-.15,4.4-3.49.18-6.93.35-10.38.28l.25-3.85c2.69-.49,5.59.43,5.89-.89l4.39.06Z"/>
      <path class="cls-7" d="M14.63,7.54l.02-5.37c0-.58.24-1.3.84-1.3-.15.16-.07.56.12.56l6.46-.06c.08.66-.58.88-.93,1.11l-.14,3.7c0,.14-.52.25-.63.26l-.08-3.45c0-.35-.17-.48-.33-.59-.12-.09-.6.13-.6.41l-.02,7.49c-.11.05-.37.09-.65.08l.02-7.4c0-.38-.21-.53-.44-.52-.1,0-.36.06-.36.28l-.19,7.38c-.09.05-.26.15-.45.16V3.01c0-.31-.11-.48-.29-.53-1.1-.33.18,5.45-.82,8.3-.67-2.95.28-9.95-.86-8.62-.07.09-.13.31-.14.55l-.05,7.82c-.07,0-.16-.04-.2-.15l-.03-2.78c-.02-.08-.16-.12-.26-.07Z"/>
      <path class="cls-5" d="M23.63,11.94c-.3,1.32-3.2.4-5.89.89l-.25,3.85-3.13-.07c-.54-.01-.85-.72-1.85,0,.27-.5-.07-.59-.11-.72-.32-1.15-.12-2.7.24-3.97l5.47.03c1.92.01,3.7-.03,5.51,0Z"/>
      <path class="cls-17" d="M25.46,11.08c-.04-.09-.05-.35.03-.42.15-.13.45-.21.85-.16.22-2.88.08-5.67-.1-8.59-.03-.48,0-.75-.17-1.08.4,0,1.38-.18,1.41.51l.35,9.27c-.81.51-1.57.47-2.37.46Z"/>
      <path class="cls-18" d="M27.87,16.41c.22-1.42.47-2.92.15-4.4.59,0,1.33-.36,1.99.03.2,1.5.21,2.91.08,4.26l-2.22.11Z"/>
      <path class="cls-8" d="M39.5,32.62c1.38,1.85,2.52,4.09,3.05,6.38-.26,1.96,1.19,4.32,1.22,7.07-.12-.05-.4.12-.46.08-1.42-5.76-4.58-12.91-9.45-15.28-.48.25-.9-.24-1.17.06-1.07.7-2.02,1.5-2.11,2.98-.11,1.76-.34,3.75-.17,5.4l.47,4.75c.1.99.34,2.28.59,3.26,1.13,4.49,2.74,8.68,5.56,12.23.91,1.14,1.87,2.13,3.01,2.72-.23.24-.55.6-.45.86.37.95,3.05,1.64,4.54.2.87-.84,1.38-2.56.95-3.92-.25.07-.47.45-.68.42l.32-1.42c1.43-.24.15-3.21.92-3.62.21-.11.36,0,.68.16.1,2.13.2,4.31-.01,6.52-.03.32-.11.58.27.84-.64.95-1,1.92-2,2.74-.8.65-1.54,1.63-2.75,1.09-.58-.26-1.18-.55-1.71-.98-.16.91-.88,1.17-1.5,1.13l-1.97-2.52c-1.75-2.24-3.72-4.26-4.91-6.97-2.12-4.8-3.09-9.86-3.39-15.11l.03-9.39c0-1.88.89-3.91,2.65-4.42,3.77-1.09,6.52,2.11,8.49,4.75Z"/>
      <path class="cls-6" d="M37.34,89.61c-4.99,1.38-10.13,1.84-15.51,1.68l-6.2-.18c-2.76-.08-5.65-.18-8.1-1.71-.84-.52-1.17-1.86-1.53-2.6.33-1.2.81,1.44,2.04,2,1.96.9,4.01,1.03,6.05,1.24l4.04.41,9.6-.04,8.41-.77.59-.26c.2-.09.54-.09.62.23Z"/>
      <path class="cls-12" d="M46.31,54.95c-.32-.16-.46-.28-.68-.16-.77.41.51,3.37-.92,3.62.11-3.78-.27-7.62-1.1-11.35-.12-.53-.05-.64.16-.99-.03-2.76-1.48-5.11-1.22-7.07.23.09.52.34.44.97.31-.11.31-.26.44-.64.68.97.95,2.03,1.14,3.19l1.61,9.73.13,2.71Z"/>
      <path class="cls-3" d="M43.77,46.07c-.21.36-.28.46-.16.99.83,3.73,1.21,7.57,1.1,11.35l-.32,1.42c-.22.97-.59,2.27-1.65,2.57-.89.25-1.99.24-2.71-.13-1.15-.58-2.1-1.57-3.01-2.72-2.82-3.54-4.43-7.73-5.56-12.23-.25-.98-.49-2.26-.59-3.26l-.47-4.75c-.16-1.64.06-3.63.17-5.4.1-1.48,1.04-2.28,2.11-2.98.27-.3.69.19,1.17-.06,4.87,2.37,8.03,9.52,9.45,15.28.06.04.33-.13.46-.08ZM43.57,54.38c-.47-6.12-1.92-11.94-4.86-17.08-1.44-2.53-4.28-5.88-5.97-4.74-.42.28-.94,1.11-1,1.89-.5,6.99.73,14.16,3.69,20.38,1.37,2.88,3.91,6.78,6.44,6.68,1.89-.08,1.92-4.08,1.68-7.12Z"/>
      <path class="cls-15" d="M40.04,62.26c.72.37,1.83.38,2.71.13,1.06-.3,1.43-1.6,1.65-2.57.21.03.43-.35.68-.42.43,1.36-.08,3.08-.95,3.92-1.49,1.44-4.17.75-4.54-.2-.1-.26.22-.62.45-.86Z"/>
    </g>
  </g>
</svg>