<?xml version="1.0" encoding="UTF-8"?>
<svg id="Layer_2" data-name="Layer 2" xmlns="http://www.w3.org/2000/svg" viewBox="0 0 93.01 194.14">
  <defs>
    <style>
      .cls-1 {
        fill: #fb9d01;
      }

      .cls-2 {
        fill: #f68502;
      }

      .cls-3 {
        fill: #e55806;
      }

      .cls-4 {
        fill: #fedc81;
      }

      .cls-5 {
        fill: #f97801;
      }

      .cls-6 {
        fill: #feca52;
      }

      .cls-7 {
        fill: #fecc37;
      }

      .cls-8 {
        fill: #febc05;
      }

      .cls-9 {
        fill: #fea61b;
      }
    </style>
  </defs>
  <g id="Layer_1-2" data-name="Layer 1">
    <g>
      <path class="cls-1" d="M19.73,35.94l-5.38,9.63C.74,78.15,2.11,116.56,9,151.06c2.32,11.62,4.06,23.11,8.71,33.79.79,2.56,4.37.05,5.65,1.52s3.39,2.5,4.88,3.25c1.88.95,5.1-1.29,6.78-1.71,13.47-3.44,31.14,2.92,37.21-13.92,3.46-9.62,7.56-19.32,8.82-29.47l2.21-17.86c1.92-15.55,1.15-30.75-.15-46.34-.9-10.75-3.29-20.73-10.32-29.53-3.71-4.64-4.98-10.38-3.41-15.66l8.47.23c3.39.09,12.04,30.07,13.15,41.76l1.87,19.67c1.02,29.24-2.8,58.13-11.22,86.06-.94,3.12-2.16,7.29-5.23,9.17-5.17,3.15-11.93,1.87-17.73,1.86h-26.46c-4.73-.02-10.56.75-14.8-1.9-3.01-1.88-4.05-6.08-5.03-9.24-5.69-18.27-9.05-36.65-11.16-55.59-1.67-15-1.59-29.6-.03-44.55,1.48-14.2,4.97-27.77,10.96-40.86l4.13-6.54c1.33.36,2.35.22,3.44.74Z"/>
      <path class="cls-2" d="M77.92,27.86c-1.07.84-.3,3.28-.73,4.67-.82,2.62-4.37.91-6.23.9l-44.65-.21c-1.46,1.54-4.35-.19-4.1,1.63l-2.47,1.09c-1.09-.52-2.11-.38-3.44-.74,2.19-4.77,1.43-10.55,2.21-16.05l1.78-12.58c.29-2.03.8-4.06,2.6-5.1,1.49-.85,3.7-1.41,5.82-1.41L60.65,0c3.21,0,6.49.6,9.44,1.33,3.29.82,4.09,3.74,4.5,6.21l3.34,20.32ZM20.65,31.92c-.01,1.14,3.95.81,4.71-.7l33.76-.06c3.38.05,4.64-2.13,4.77-4.76l.92-17.72c.12-2.27,1.07-4.41.44-6.79-3.16-.78-6.55-.75-9.86-.72l-27.49.26c-1.51.01-3.97,1.05-4.13,2.5l-3.12,27.99Z"/>
      <path class="cls-3" d="M77.83,35.35l-8.47-.23c-2.32-.06-4.69-.45-6.99-.5l-15.48-.35c-3.21-.07-6.18-.1-9.4.01l-15.29.56c-.25-1.82,2.64-.09,4.1-1.63l44.65.21c1.86,0,5.41,1.72,6.23-.9.44-1.39-.34-3.83.73-4.67.42,2.56,1.39,5.07-.09,7.49Z"/>
      <path class="cls-8" d="M69.36,35.13c-1.57,5.28-.29,11.02,3.41,15.66,7.02,8.79,9.42,18.77,10.32,29.53,1.3,15.59,2.07,30.8.15,46.34l-2.21,17.86c-1.25,10.14-5.36,19.85-8.82,29.47-6.06,16.84-23.73,10.48-37.21,13.92-1.68.43-4.9,2.67-6.78,1.71-1.48-.75-3.58-1.76-4.88-3.25s-4.85,1.04-5.65-1.52c1.01.01,1.6.7,3.09.39l-7.31-30.6c-6.33-36.11-8.46-75.73,5.8-109.49,1.19-2.82,2.95-5.59,5.31-7.49l37.06-1.02c.81-.02.96-1.61.72-2.01,2.29.05,4.67.44,6.99.5ZM68.19,155.06c3.85-6.74,4.57-14.31,5.57-21.79,2.11-15.75,2.41-31.4,1.52-47.22l-1.55-13.07c-.66-5.57-4.36-11.36-10.21-14.16-7.54-3.61-17.08-4.71-25.56-2.85-11.26,2.46-16.61,11.28-17.91,20.78-2.83,20.79-4.93,63.5,6.31,79.01,2.09,2.89,6.73,4.33,10.45,4.54,11.34.63,23.35,1.13,31.38-5.22Z"/>
      <path class="cls-4" d="M62.37,34.63c.24.39.09,1.98-.72,2.01l-37.06,1.02c-2.36,1.9-4.12,4.67-5.31,7.49-14.26,33.76-12.13,73.38-5.8,109.49l7.31,30.6c-1.49.32-2.07-.37-3.09-.39-4.65-10.68-6.39-22.17-8.71-33.79C2.11,116.56.74,78.15,14.36,45.56l5.38-9.63,2.47-1.09,15.29-.56c3.22-.12,6.19-.09,9.4-.01l15.48.35Z"/>
      <path class="cls-9" d="M20.65,31.92c.95-.66,2.07-.98,4.04-.87,1.73-8.28.66-24.94,2.44-26.6.95-.89,9.24-2.09,13.14-2.06l14.81.14c.22-.63.14-1.02.32-1.36,3.31-.03,6.7-.06,9.86.72.62,2.38-.32,4.53-.44,6.79l-.92,17.72c-.14,2.62-1.4,4.8-4.77,4.76l-33.76.06c-.76,1.51-4.72,1.84-4.71.7ZM60.07,9.52l-26.15-.56c9.36,7.28,16.47,7.12,26.15.56Z"/>
      <path class="cls-6" d="M55.4,1.17c-.19.34-.1.73-.32,1.36l-14.81-.14c-3.9-.04-12.19,1.17-13.14,2.06-1.78,1.66-.7,18.32-2.44,26.6-1.97-.11-3.09.21-4.04.87l3.12-27.99c.16-1.45,2.62-2.49,4.13-2.5l27.49-.26Z"/>
      <path class="cls-7" d="M68.19,155.06c-8.02,6.35-20.04,5.85-31.38,5.22-3.71-.21-8.35-1.65-10.45-4.54-11.24-15.51-9.14-58.22-6.31-79.01,1.29-9.5,6.65-18.32,17.91-20.78,8.48-1.85,18.01-.76,25.56,2.85,5.85,2.8,9.54,8.59,10.21,14.16l1.55,13.07c.89,15.82.59,31.47-1.52,47.22-1,7.48-1.73,15.05-5.57,21.79Z"/>
      <path class="cls-5" d="M60.07,9.52c-9.67,6.56-16.79,6.72-26.15-.56l26.15.56Z"/>
    </g>
  </g>
</svg>