<?xml version="1.0" encoding="UTF-8"?>
<svg id="Layer_2" data-name="Layer 2" xmlns="http://www.w3.org/2000/svg" viewBox="0 0 130.78 194.59">
  <defs>
    <style>
      .cls-1 {
        fill: #384b53;
      }

      .cls-2 {
        fill: #796830;
      }

      .cls-3 {
        fill: #f8f9f7;
      }

      .cls-4 {
        fill: #d04237;
      }

      .cls-5 {
        fill: #f2b43f;
      }

      .cls-6 {
        fill: #f5f5f3;
      }

      .cls-7 {
        fill: #857043;
      }

      .cls-8 {
        fill: #7f6232;
      }

      .cls-9 {
        fill: #933f7f;
      }

      .cls-10 {
        fill: #6a2625;
      }

      .cls-11 {
        fill: #fab340;
      }

      .cls-12 {
        fill: #4f574b;
      }

      .cls-13 {
        fill: #805e3b;
      }

      .cls-14 {
        fill: #825b2d;
      }

      .cls-15 {
        fill: #facb7f;
      }

      .cls-16 {
        fill: #f87971;
      }

      .cls-17 {
        fill: #f68a5c;
      }

      .cls-18 {
        fill: #f5bc3b;
      }

      .cls-19 {
        fill: #8e7447;
      }

      .cls-20 {
        fill: #454b41;
      }

      .cls-21 {
        fill: #84723e;
      }

      .cls-22 {
        fill: #f0b243;
      }

      .cls-23 {
        fill: #fdfefd;
      }

      .cls-24 {
        fill: #f7c23e;
      }

      .cls-25 {
        fill: #7c6534;
      }

      .cls-26 {
        fill: #fabd43;
      }

      .cls-27 {
        fill: #873a2e;
      }

      .cls-28 {
        fill: #6e5d39;
      }

      .cls-29 {
        fill: #726546;
      }

      .cls-30 {
        fill: #f6f8f6;
      }

      .cls-31 {
        fill: #f9bc42;
      }

      .cls-32 {
        fill: #774638;
      }

      .cls-33 {
        fill: #93407e;
      }

      .cls-34 {
        fill: #705d31;
      }

      .cls-35 {
        fill: #a0427b;
      }

      .cls-36 {
        fill: #eb5044;
      }

      .cls-37 {
        fill: #775b30;
      }

      .cls-38 {
        fill: #65573f;
      }

      .cls-39 {
        fill: #5d2c33;
      }

      .cls-40 {
        fill: #ea5042;
      }

      .cls-41 {
        fill: #57452a;
      }

      .cls-42 {
        fill: #816f45;
      }

      .cls-43 {
        fill: #f18275;
      }

      .cls-44 {
        fill: #75613b;
      }

      .cls-45 {
        fill: #b186b9;
      }

      .cls-46 {
        fill: #673b2b;
      }

      .cls-47 {
        fill: #fecb9f;
      }

      .cls-48 {
        fill: #e85a4e;
      }

      .cls-49 {
        fill: #fbfdfb;
      }

      .cls-50 {
        fill: #6a5a34;
      }

      .cls-51 {
        fill: #f9c540;
      }

      .cls-52 {
        fill: #5f4044;
      }

      .cls-53 {
        fill: #f6bb41;
      }

      .cls-54 {
        fill: #f7bc40;
      }

      .cls-55 {
        fill: #fabb42;
      }

      .cls-56 {
        fill: #826335;
      }

      .cls-57 {
        fill: #f3f4ef;
      }

      .cls-58 {
        fill: #f4c156;
      }

      .cls-59 {
        fill: #e39f3b;
      }

      .cls-60 {
        fill: #574f38;
      }

      .cls-61 {
        fill: #7f6128;
      }

      .cls-62 {
        fill: #f5bb36;
      }

      .cls-63 {
        fill: #fad181;
      }

      .cls-64 {
        fill: #856a39;
      }

      .cls-65 {
        fill: #524531;
      }

      .cls-66 {
        fill: #f9fbf7;
      }

      .cls-67 {
        fill: #7e5e2b;
      }

      .cls-68 {
        fill: #f8be41;
      }

      .cls-69 {
        fill: #ebb140;
      }
    </style>
  </defs>
  <g id="Layer_1-2" data-name="Layer 1">
    <g>
      <path class="cls-36" d="M29.83,15.48c-.17.08-.07.69.2.72l19.08,1.97,12.81,2.02,37.12,2.67c3.62.26,8.43-1.18,11.37,1.16-.98,3.2-2.69,5.59-4.72,8.01l-13.67,16.31c-1.72,2.05-4.54,2.95-5.82,5.45-2.31-1.72-5.11-4.4-8.2-3.05-3.84,1.68-7.44,1.42-11.2-.19-8.22-3.52-13.12,4.99-17.12,4.65-5.37-.45-9.55,1.25-13.82,4.17-.22-6.37-1.02-12.6-3.47-18.36-.7-1.66-.76-3.48-3.11-3.93,2.71-3.26,4.79,3.78,7.55,2.25,3.7-2.05-6.04-8.45-11.03-13.12-1.26-1.18-2.24-3.94-4.47-3.18-.39,2.92.25,4.82.63,7.49l.72,5.01c-1.8,1.71-.28,4.37,1.34,5.6.05.66-.29,2.29.55,2.93.55.42,1.28.65,2.2.91l.46,11.75-2.07,15.86c-1.6,4.8-3.24,9.99-3.14,15.16-2.21,1.9-5.54,2.94-7.1,5.45-.18.2-.73.22-.94.1.39-7.54,1.32-15.33,2.25-23.03l1.8-14.92c1.41-4.59.97-9.72,1.32-14.29l-6.02-20.67c-.44-1.5-1.01-2.7-.42-4.18.11-.28.1-.88.09-1.2,5.62,1.55,11.3,0,16.84.49ZM80.97,25.97c-.16-.54-.59-1.02-1.46-.92l-19.84,2.29c-6.12.71-13.05.6-18.82-1.29l-14.13-4.62c-.09.13-.27.68.31.99l13.31,5.05c4.11,1.56,8.21,1.41,12.47,1.34l8.77-.14,19.4-2.69ZM47.23,42.51l13.43-4.79c.73-.26,2.18-.06,2.57-.79.31-.57.16-2.42-.73-2.91-5.52-3.03-12.49,2.98-21.47,4.69-.39,3.24,3.2,4.87,6.2,3.8Z"/>
      <path class="cls-22" d="M107.67,178.89l9.33-.42c.07.65.13,2.14-.2,2.7-.59,1.02-2.76.46-3.55.48l-12.76.43c-4.21.14-9.21-.36-13.37-.95l-12.05-1.73c-2.62-.38-5.63-2.35-8.57.12l15.88,2.35c7.07,1.05,14.62,1.53,21.68,1.57l8.98.05,2.29-.97c.77-.32,1.42.53,2.13,1.44-.03.33-.16.57-.09.97-3.81,2.25-8.36,1.15-12.84,1.51-7.43.61-15.11-.21-22.28-1.43l-6.93-1.18c-5.67-.97-10.7-2.59-16.11-.19l20.09,2.14,27.28,2.1,7.12-.24c1.52-.05,2.51.22,2.81,1.86.16.9-.17,2.33-1.05,2.4-1.76-2.14-4.32-3.02-6.23.13-1.72,1.22-6.85-5.35-7.04-2.54l-.11,1.55-3.95.96c-1.28-1.43-2.46-3.52-3.96-2.66l-3.21,1.85c-1.09.63-2.32.07-3.1-.04.01-1.5-1.15-2.25-2.09-2.34-1.76-.17-2.91.3-4.54,2.85-3.02-4.84-6.48-4-9.99-1.2-1.07-1.89-3.78-3.88-5.74-2.82-1.2.65-3.53,2.57-4.79,1.77-.32-1.14-1.26-2.93-3.08-3.24-1.18.83-3.22,3.83-5.36,2.7-.39-1.05-.59-2.58-2.08-2.63s-2.94.17-3.32,1.96h-4.05c-3.22-3.14-4.41,1.54-8.58.16-.71-.23-1.45-.96-1.35-2.25.24-3.3-4.77.99-7.71.85l-2.64-3.95c-1.6,1.95-3.77,3.13-5.83,3.41l-1.69-4.23,10.28-.12,10.06-.46,10.65-.12c3.26-.04,6.28-.07,9.24.06.41-.17.56-.54.57-.82l-15.65-.87-18.54.9c-5.52.27-11.4.18-16.86-1.27l-2.89-.77c-.56-.15-.72-1.98-.27-2.55s1.77-.7,2.86-.37c5.55,1.69,11.39,1.77,17.03,1.64l8.85-.21,9.16-.47,15.08.54c.39-.13.58-.47.59-.82l-18.4-.99-9.27.47-24.57-1.33c-.94-.05-1.46-2.93-.91-2.9l20.49,1.03,11.1-.59,31.63,2.31,18.39,2.29,24.02,2.12Z"/>
      <path class="cls-69" d="M48.72,4.4c1.7.16,3.1-1.78,4.73-1.06l1.66,1.88c.43.48,1.29-.09,1.64-.6,1.05,2.45,4.91,2.57,6.6,1.72.39-.2,1.47-1.17,1.94-1.05,1.69,1,3.07,2.37,4.6,2.46l.95.06c1.3.08,2.59-.47,2.78-2.13.73-.45,2.17-1.05,3.4-.53.61.26,1.42,1.22,1.3,2.12-.1.72.19,1.05.5,1.25,2.41,1.51,3.02-2.85,7.06-1.63-.16.9,1.39,2.71,2.8,2.11l4.25-1.79,4.08,2.28c2.07-.55,4.32-2.65,6.42-1.11,2.37,1.72,5.38,1.11,7.95-1.36,1.24,2.22,2.18,2.83,3.95,2.98,1.45.12,2.82-.05,3.5-1.9,3.89-.59,4.02,2.21,5.9,2.53.72.12,2.27.66,2.46-.91.88.13,1.81.02,2.41.82.46.61.45,1.66-.22,2.59-.32.45-1,.82-1.9-.03-6.02-.37-12.14-1.04-18.05-.97l-11.33.14-9.21.46c-5.79.29-12.19-.55-17.99-1.32l-14.89-1.96-9.08-1.78c-14.83-2.9-26.11-.47-32.57-1.93l-1.13-2.01c-.13-.23-1.07.24-1.25.25-.01-.93.83-2.43.53-3.97,2.11-.15,4.2,1.7,5.1,2.88.87,3.77,2.58-2.46,6.92-1.74l1.13.34c.44.13.47.51.44,1.05-.07,1.42,1.03,2.18,1.8,1.74,1.11-.64,1.9-.3,2.76-2.19,1.35.07,3.53.74,4.59,1.43.9.59,2.47,1.65,3.82.54.68-.56,1.75-1.44,1.99-2.75.64-.63.91-.55,1.95.29,1.66,1.3,3.76,2.63,5.69,2.81Z"/>
      <path class="cls-56" d="M129.03,25.49c-.52-.09-.84-.12-1.23-.03-2.9-3.49-8.68-.64-12.93-2.24l.15-1.89,12.13,1.32c1.05.11,1.59-.42,1.93-.77.46-.47.22-2.62-.98-2.69l-26.52-1.47-8.35.59-19.77-.92c-.42-.28-.55-.77-.42-1.23,5.61-.09,11.56,1.15,17.45.85l9.22-.47,11.56-.04c10.27-.03,16.32,1.58,17.3,1.29.35-.1.91-.57.98-1.08.09-.61-.82-1.77-1.9-1.83l-26.73-1.37-10.23.44-30.05-2.11-8.11-1.81-11.45-1.61c-4.26-.6-8.58-1.45-12.97-.94-4.96.57-10.07-.77-15.21,1.04.77,3.19,2.84,2.34,4.73,2.29l10.19-.29c6.73-.19,14.05.47,20.76,1.5l14.71,2.24c.8,1.38-.53,1.65-1.02,1.44l-3-1.28-13.51-1.6c-4.83-.57-10-1.48-15.07-.99-6.24.6-16.71-.44-17.39.88-.28.53-.31,1.61-.28,2.3.01.32.02.92-.09,1.2-1.25-.52-.77-2.51-.8-4.12l-.12-8.1c.18-.01,1.13-.48,1.25-.25l1.13,2.01c6.46,1.47,17.74-.97,32.57,1.93l9.08,1.78,14.89,1.96c5.79.76,12.19,1.61,17.99,1.32l9.21-.46,11.33-.14c5.91-.07,12.02.6,18.05.97.9.86,1.58.48,1.9.03.67-.93.69-1.97.22-2.59-.6-.79-1.53-.68-2.41-.82.18-.95,1.59-1.5,3.56-1.99.16,5.96-.35,12.12-1.72,17.75Z"/>
      <path class="cls-8" d="M22.63,170.89l-.1,1.87-20.49-1.03c-.55-.03-.03,2.85.91,2.9l24.57,1.33,9.27-.47,18.4.99c0,.35-.2.69-.59.82l-15.08-.54-9.16.47-8.85.21c-5.64.13-11.48.05-17.03-1.64-1.09-.33-2.41-.2-2.86.37s-.29,2.4.27,2.55l2.89.77c5.46,1.46,11.34,1.54,16.86,1.27l18.54-.9,15.65.87c-.01.28-.16.65-.57.82-2.96-.14-5.98-.1-9.24-.06l-10.65.12-10.06.46-10.28.12,1.69,4.23c-.69-.49-2.33-1.67-3.58-1.76-1.61,1.25-3.03,3.11-4.34,2.08l-3.02-2.39-5.78,1.66,1.42-15.2c.36-3.84,1.89-7.06,4.05-9.58-.62,4.65-2.68,7.29-2.42,7.7,2.79,4.27,17.04,1.18,19.59,1.94ZM9.29,185.33c1.21.04,3.35-1.65,4.52-3.08l-11.88-2.24c-1.06-.02-1.34,3.88-.11,3.98,1.53-.48,3-1.7,4.02-1.36,1.12.37,2.47,2.66,3.44,2.7Z"/>
      <path class="cls-37" d="M118.52,186.12c-1.39,2.24-.3,5.21-.88,7.98-2,.29-3.75-2.76-5.65-2.34-.9.2-1.55.93-2.37,1.97-.44-.09-.99-.13-1.74.85-.96-1.88-3.93-3.93-5.81-3.55l.11-1.55c.19-2.8,5.32,3.76,7.04,2.54,1.91-3.15,4.47-2.26,6.23-.13.88-.06,1.21-1.5,1.05-2.4-.29-1.64-1.29-1.91-2.81-1.86l-7.12.24-27.28-2.1-20.09-2.14c5.41-2.4,10.44-.77,16.11.19l6.93,1.18c7.17,1.22,14.85,2.04,22.28,1.43,4.48-.37,9.03.74,12.84-1.51,0,.72.42,1.19,1.14,1.18Z"/>
      <path class="cls-19" d="M11.1,148.25c.94-4.03,1.25-7.39,1.27-11.89l.08-13.45,1.53-29.64c.21.12.77.1.94-.1l-1.5,28.76.1,12.18c.06,6.68.4,13.51-2.43,14.13Z"/>
      <path class="cls-64" d="M87.85,191.15c-.96-.13-2.59-1.82-3.56-.9-.61.58-2.07,2.85-2.82,2.36l-5.82-3.82c-1.03,1.28-3.07,3.96-4.11,3.13l-3.62-2.89c-1.19-.95-3.99,1.23-4.77,2.34l-2.45-1.96c1.26.8,3.59-1.13,4.79-1.77,1.96-1.06,4.68.93,5.74,2.82,3.51-2.8,6.97-3.63,9.99,1.2,1.62-2.55,2.78-3.01,4.54-2.85.94.09,2.1.84,2.09,2.34Z"/>
      <path class="cls-7" d="M102.07,191.04c-.76.52-1.69,2.88-2.65,2.87-1.41,0-3.29-1.98-4.21-2.99-1.1-1.19-4.66,3.14-5.92,2.35-.55-.34-1.27-1.36-1.43-2.13.79.11,2.01.67,3.1.04l3.21-1.85c1.5-.86,2.68,1.23,3.96,2.66l3.95-.96Z"/>
      <path class="cls-21" d="M5.46,161.25c.66-4.63,3.33-9.1,5.64-13-1.03,4.37-2.83,9.71-5.64,13Z"/>
      <path class="cls-34" d="M35.27,3.52c-1.06-.69-3.24-1.36-4.59-1.43-.85,1.89-1.65,1.55-2.76,2.19-.77.45-1.88-.32-1.8-1.74.49.13,1.91.51,2.52-.05C29.82,1.2,31.59-.01,32.77.42c1.27.47,2.54,1.5,2.49,3.1Z"/>
      <path class="cls-25" d="M25.18,186.97c-.42-.56-1.97-1.26-2.69-1.39-1.79.78-4.33,2.34-5.77.85,2.05-.28,4.23-1.46,5.83-3.41l2.64,3.95Z"/>
      <path class="cls-44" d="M60.7,189.41c-.53-.43-1.75-.53-2.74-1.84-1.65,2.44-4.11,3.04-5.7,1.31,2.15,1.13,4.18-1.87,5.36-2.7,1.82.3,2.76,2.09,3.08,3.24Z"/>
      <path class="cls-50" d="M24.55,1.15c-4.34-.72-6.05,5.51-6.92,1.74.46.16,1.25-.31,1.69-1.05,1.36-2.28,4.19-2.1,5.23-.69Z"/>
      <path class="cls-28" d="M32.88,186.12c-.58-.02-1.95-.25-2.64.04-1.26,2.44-4.14,2.04-5.07.81,2.93.13,7.95-4.15,7.71-.85Z"/>
      <path class="cls-2" d="M53.45,3.34c-1.62-.72-3.03,1.22-4.73,1.06.3-1.22,1.56-2.77,2.41-3.08,1.32-.48,1.8,1.44,2.31,2.02Z"/>
      <path class="cls-60" d="M41.08,1.31c-.24,1.31-1.31,2.18-1.99,2.75-1.35,1.11-2.92.05-3.82-.54,2.54.54,3.91-1.72,5.81-2.21Z"/>
      <path class="cls-29" d="M52.26,188.88c-1.64-1.78-3.47-.57-5.4-.67.38-1.78,1.82-2.01,3.32-1.96s1.68,1.58,2.08,2.63Z"/>
      <path class="cls-42" d="M46.86,188.21c-.3,1.15-.82,1.01-1.53,1.01-1.39,0-1.82-.31-2.52-1h4.05Z"/>
      <path class="cls-4" d="M113.87,130.52l-.6,9.31-.26,3.2c-.2,2.4-2.05,4.63-.59,6.97-.42-.18-.83.07-.9.61-.13.96.19.99.3,1.4l6.07,23.44c.27,1.03.25,1.41.18,2.19-.53-.25-1.14.2-1.07.84l-9.33.42c.17-.15.08-.72-.21-.75l-19.97-2.14-14.62-2.1-19.73-2.34c-3.5-.41-6.72-.6-10.24-.7l-13.61-.37,6.33-6.7c-2.84-1.72-4.84-.22-6.81.16l-.04-1.39c1.73-.35,5.07-1.04,7.05-.59l2.68-1.5,14.85,3.21c4.89,1.06,10.34,4.63,15.5,3.65,11.23-2.13,21.88-2.35,31.79,2.71,1.49-3.04,1.96-4.49,1.8-7.07l-.79-12.79c-.11-1.71.86-2.95,1.43-3.86.58.42,1.24,0,1.19-.4s.9-1.36.93-1.76l1.3-16.05c-.26-.3-.8-.37-1-.28l1.54-14.18.81-19.99,9.1-7.37-3.07,44.21ZM109.93,165.69c.37-.14.88-.8.56-1.59l-5.81-14.19c-.66-.33-2.11,1.1-1.31,1.73,1.9,1.52,2.96,8.67,6.56,14.04Z"/>
      <path class="cls-61" d="M68.03,4.08c.21,1.44,1.39,2.37,1.87,3.68-1.54-.09-2.91-1.46-4.6-2.46-.47-.12-1.55.85-1.94,1.05l.14-1.19c1.23-1.59,3.11-.69,4.53-1.08Z"/>
      <path class="cls-14" d="M117.99,178.68l-.53,5.3c-.71-.91-1.36-1.77-2.13-1.44l-2.29.97-8.98-.05c-7.06-.04-14.61-.52-21.68-1.57l-15.88-2.35c2.93-2.48,5.95-.5,8.57-.12l12.05,1.73c4.16.6,9.16,1.09,13.37.95l12.76-.43c.79-.03,2.96.53,3.55-.48.33-.56.26-2.05.2-2.7s.54-1.08,1.07-.84l-.08,1.04Z"/>
      <path class="cls-9" d="M86.2,53.78c1.67,3.44,5.52,3.63,9.34,3.25,1.19,4.21,4.11,4.83,7.07,5.05l-3.76,6.4c-.66-3.83-2.28-6.28-5.87-5.19,2.76,5.96,4.37,10.77,4.14,16.92-.05,1.23,1.96,1.67,2.56,1.03,1.68-1.79.3-5.91,1.06-7.8,1.35-3.4,3.17-6.19,3.98-9.32.43,2.09,1.72,4.42,2.69,6-.61,3.43-.27,8,1.5,11.04,2.43,4.17-.17,8.62-1.07,12.54-1.91,8.35-4.45,15.02-12.52,19.09-5.73,9.88-11.99,4.57-16.58,8.8-3.15,2.91-5.74,2.85-9.64,1.81l-8.42,1.31c-3.28-1.56-6.85-4.06-10.9-3.57-5.43.66-7.78-4.04-11.76-6.43l-8.29-4.72-.59-3.01,1.21-19.98c1.56.81,3.12,1.73,4.81,1.09,1.57-.59,3.12-1.92,3.08-4.64-.01-1.09-1.52-1.68-2.19-1.27-.55.33-1.28,1.04-2.07,2.01-3.08-1.71-3.4-7.75-.73-10.31.91.41,1.76,1.08,2.35,1.11,1.2.06,2.29-1.15,1.57-2.99-.72-1.84-2.16-3.29-3.4-4.24l.44-3c.24-1.59,1.71-3.64,1.65-5.36,4.27-2.91,8.45-4.62,13.82-4.17,4.01.34,8.91-8.17,17.12-4.65,3.76,1.61,7.36,1.87,11.2.19,3.09-1.35,5.89,1.33,8.2,3.05ZM89.16,74.99c1.54.77-.22,5.85,1.35,6.92.6.41,2.99-.1,2.98-.9l-.23-14.39c-.03-1.68-.65-2.36-1.53-3.31-.41-.44-1.81.37-1.85.98l-.19,2.91c-.1,1.5-.01,2.44-.6,2.87-.87.64-1.68.4-2.07-.18-.83-1.23-.05-3.77-.78-6.08-.15-.46-2.67-.43-2.66.06l.35,16.32c.03,1.36,1.26,1.93,1.9,1.97,3.02.18-.49-9.09,3.34-7.17ZM77.78,78.3c-2.32-2.63-1.85-8.33-.03-9.74l3.39.7c.51.11,1.29-1.98.58-3.74-.57-1.4-3.81-2.51-5.61-1.08-5.26,4.21-4.63,13.99.54,17.83,1.87,1.39,3.78.14,4.72-.7,1.34-1.2,2.51-3.46.25-5.44-.8.83-2.02,2.58-3.82,2.17ZM65.32,76.91l2.74,4.98c.7,1.27,2.36,1.86,3.2,1.35s1.2-2.33,1.12-3.54l-.83-12.55c-.09-1.29-.65-2.64-1.31-2.84-.46-.14-2.01.25-2.12.78-.79,3.54.42,6.59.57,10.27l-3.17-7.35c-.63-1.46-1.39-1.9-2.22-2.22-1.13-.44-2.76.04-2.66,1.45l1.13,15.9c.12,1.63,1.31,2.08,1.93,1.7,1.92-1.18,1.2-4.06,1.64-7.92ZM52.3,84.49c1.7,2.04,4.28.99,5.61-.1,1.52-1.24,2.57-3.09,2.42-5.54l-.68-11.35c-.09-1.44-3.76-1.37-3.83-.21,1.79,9.53.2,15.55-1.59,12.85-.2-.31-.86-.68-.94-1.5l-1.09-10.55c-.09-.84-2.49-.66-3.06.47-.41.81-.39,11.66,3.17,15.93ZM44.19,82.73c.5,1.58,2.45,4.79,4.08,4.54,2.46-2.07-.81-6-2.09-7.64,1.41-3.05,3.68-6.27,1.12-10.07-1.45-2.14-8.11-2.68-8.65.22-.75,5.77.71,11.22.82,16.5.04,1.63,2.85,2.11,3.28,1.14.49-1.1-.32-2.59,1.43-4.69ZM86.75,108.37c3.64.37,6.88-.08,9.71-1.34,1.07-.47.39-4.85-.78-4.75l-4.74.39,4.94-11c.87-1.94,1.1-5.79-1.37-5.95-3.11-.2-6.46.28-9.52,1.57-1.38.58-.16,3.73.81,4.43.91.66,2.98.35,4.95-.2l-5.44,11.33c-.68,1.42-.35,5.33,1.44,5.51ZM77.33,110.09l.39-7.49c3.41-.72,5.64-3.3,6.3-6.14.76-3.28-.48-6.65-3.25-8.5-2.07-1.38-8.23-.78-8.86,1.8-.93,7.41.63,14.15,1.43,21.06.14,1.17,3.93.61,4-.73ZM65.29,89.32c-1.09,1.63-.55,4.44.31,4.97,1.06.64,2.84.52,3.54-.26.84-.94,1.09-3.76.6-4.72-.53-1.04-3.45-1.5-4.45,0ZM58.87,104.7c1.07,1.31.36,5.5,1.6,7.79.61,1.12,4.52.16,4.44-1.18l-1.16-18.68c-.17-2.72-2.54-3.23-4.41-1.94-2.13,1.47,1.78,9.41-2.8,8.72l-1.33-8.3c-.36-1.11-4.47-.63-4.57.56-.22,7.17.5,13.89,1.72,21.01.23,1.36,3.55,1.07,4.13.01,1.14-2.07-.97-12.09,2.37-7.99ZM44.92,108.96c-3.84-2.68-3.08-9.86-.6-11.56,1.78,1.72,3.32,2.56,4.51,1.05,1.25-1.59.9-2.97-.03-4.96-1.41-3.03-5.44-3.42-7.9-.67-4.81,5.4-4.81,14.64-.48,20.4,1.48,1.97,3.97,2.51,6.17,1.91,1.47-.4,3.5-2.01,4.05-4.71.35-1.73-.96-3.43-2.13-3.56-.89-.1-2.81,2.64-3.58,2.1ZM70.92,109.64c.38-4.4-.27-8.6-1.38-12.91-.25-.98-2.96-.62-3.59.14-.91,1.12-.31,2.77-.17,4.21l.61,6.41c.14,1.46.54,2.88,1.36,3.4.67.43,3.06-.08,3.17-1.25Z"/>
      <path class="cls-55" d="M24.38,98.06l-3.43,6.99c1.24,5.53,1.31,10.67,0,16.1l-1.17,13.87c-.65,7.76-3.16,14.84-7.19,21.74-.87,1.49-2.06,3.17-1.4,5.25l11.55-12.55c2.2-2.39,4.17-4.96,4.09-8.47.13.14.44.19.69.28,7.49,2.8,19.34.8,21.2-4.68,2.31-6.79-7.8-15.07-18.15-13.15l-.87-13.49,8.29,4.72c3.98,2.39,6.34,7.09,11.76,6.43,4.05-.49,7.62,2.01,10.9,3.57-3.68,10.13-9.05,19.45-16.01,27.99l-6.16,7.81-2.68,1.5c-1.99-.45-5.32.24-7.05.59l-15.66,3.18c-.31.46-.51.91-.46,1.23l16.17-3.03c1.98-.37,3.97-1.87,6.81-.16l-6.33,6.7c-2.09-.06-4.23,1.12-6.66.39-2.54-.76-16.8,2.33-19.59-1.94-.27-.41,1.79-3.05,2.42-7.7,2.81-3.29,4.61-8.63,5.64-13,2.83-.63,2.49-7.45,2.43-14.13l-.1-12.18,1.5-28.76c1.56-2.51,4.89-3.55,7.1-5.45.07,3.49.97,7.22,2.36,10.33ZM19.68,110.98l-.23-5.88c-.11,0-.41.14-.62.52-.11,2.23-.41,4.98-.17,7.33l.58,5.83c1.02-2.3.55-5.06.44-7.79Z"/>
      <path class="cls-26" d="M114.87,23.22c4.25,1.6,10.02-1.25,12.93,2.24l-4.21,9.95-2.95-.23c.13-1.2,1.65-2.38.58-4.33l-10.15,19.36c-1.83,3.5-1.21,8.28-1.22,12.42l-.04,17.72c0,.66-.49.91-.91.79-1.77-3.05-2.11-7.61-1.5-11.04-.97-1.58-2.26-3.91-2.69-6-.17-.83-1.42-2.02-2.1-2.03-2.96-.22-5.88-.84-7.07-5.05-3.83.38-7.67.19-9.34-3.25,1.28-2.5,4.1-3.39,5.82-5.45l13.67-16.31c2.03-2.42,3.73-4.8,4.72-8.01,1.12-.79,2.55-1.52,4.46-.8ZM114.82,30.51c1.28-1.77-.77-3.08-1.58-.94-1.84-.51-3.73-.68-4.65,1.88,2.27-.67,3.65-1.13,6.23-.94Z"/>
      <path class="cls-54" d="M115.02,21.33l-8.9-.07-10.33.27-27.28-1.95-15.61-2.11-23.06-1.99c-5.54-.48-11.22,1.06-16.84-.49-.03-.69,0-1.77.28-2.3.68-1.32,11.15-.28,17.39-.88,5.06-.49,10.24.42,15.07.99l13.51,1.6,3,1.28c.49.21,1.82-.06,1.02-1.44l-14.71-2.24c-6.71-1.02-14.02-1.68-20.76-1.5l-10.19.29c-1.89.05-3.96.9-4.73-2.29,5.14-1.8,10.25-.46,15.21-1.04,4.39-.51,8.7.34,12.97.94l11.45,1.61,8.11,1.81,30.05,2.11,10.23-.44,26.73,1.37c1.08.06,1.99,1.22,1.9,1.83-.07.51-.64.98-.98,1.08-.98.29-7.03-1.32-17.3-1.29l-11.56.04-9.22.47c-5.89.3-11.84-.94-17.45-.85-.13.46,0,.95.42,1.23l19.77.92,8.35-.59,26.52,1.47c1.21.07,1.44,2.22.98,2.69-.34.35-.88.89-1.93.77l-12.13-1.32Z"/>
      <path class="cls-45" d="M34.21,64.72l-.44,3c-.22.9-1.22,1.09-2.14.92-5.39,4.71-5.49,13.33-1.29,18.32l-1.21,19.98c-2.41-2.28-3.4-5.85-4.74-8.89-1.38-3.12-2.29-6.84-2.36-10.33-.1-5.16,1.54-10.36,3.14-15.16,1.44-4.33,4.89-7.22,9.05-7.85Z"/>
      <path class="cls-43" d="M32.39,41c2.45,5.76,3.25,11.99,3.47,18.36.06,1.72-1.42,3.77-1.65,5.36-4.16.63-7.61,3.53-9.05,7.85l2.07-15.86-.46-11.75c-.04-1.02,2.89-4.59,4.13-4.29.39.1.95-.57,1.5.32Z"/>
      <path class="cls-16" d="M29.28,37.07c-1.77-.34-3.59-1.35-5.03-2.78-.74,1.2-1.38,1.18-1.58,1.23l-.72-5.01c-.38-2.68-1.02-4.57-.63-7.49,2.24-.75,3.21,2,4.47,3.18,4.99,4.67,14.72,11.07,11.03,13.12-2.76,1.53-4.84-5.51-7.55-2.25Z"/>
      <path class="cls-32" d="M115.02,21.33l-.15,1.89c-1.91-.72-3.35,0-4.46.8-2.94-2.33-7.75-.9-11.37-1.16l-37.12-2.67-12.81-2.02-19.08-1.97c-.28-.03-.38-.64-.2-.72l23.06,1.99,15.61,2.11,27.28,1.95,10.33-.27,8.9.07Z"/>
      <path class="cls-31" d="M47.23,42.51c-2.99,1.07-6.59-.57-6.2-3.8,8.98-1.71,15.95-7.72,21.47-4.69.89.49,1.03,2.34.73,2.91-.39.73-1.84.53-2.57.79l-13.43,4.79Z"/>
      <path class="cls-46" d="M80.94,24.9l-19.28,3.45-8.76.48c-4.26.23-8.34.54-12.51-.86l-13.5-4.53c-.59-.28-.43-.84-.35-.97l14.3,4.07c5.84,1.66,12.77,1.5,18.86.56l19.74-3.06c.87-.13,1.31.33,1.49.87Z"/>
      <path class="cls-17" d="M29.28,37.07c2.35.45,2.41,2.27,3.11,3.93-.55-.88-1.11-.22-1.5-.32-1.23-.31-4.17,3.26-4.13,4.29-.92-.27-1.65-.49-2.2-.91-.84-.64-.5-2.26-.55-2.93-1.62-1.23-3.14-3.89-1.34-5.6.2-.05.83-.03,1.58-1.23,1.44,1.44,3.26,2.45,5.03,2.78Z"/>
      <path class="cls-27" d="M107.67,178.89l-24.02-2.12-18.39-2.29-31.63-2.31-11.1.59.1-1.87c2.43.73,4.57-.45,6.66-.39l13.61.37c3.53.1,6.75.28,10.24.7l19.73,2.34,14.62,2.1,19.97,2.14c.3.03.39.6.21.75Z"/>
      <path class="cls-65" d="M118.84,8.11c-.69,1.85-2.05,2.02-3.5,1.9-1.77-.15-2.71-.76-3.95-2.98-2.57,2.48-5.58,3.09-7.95,1.36-2.1-1.53-4.36.56-6.42,1.11l-4.08-2.28-4.25,1.79c-1.41.59-2.96-1.21-2.8-2.11.71.1,1.91.07,2.45,1.08,5.24-6.49,7.48,3.18,12.52-2.21,2.48-.46,3.91,1.74,5.56,3.16,1.85-2.4,2.78-2.56,4.48-2.55,1.78,0,2.57,1,4,2.67,1.21-.15,3.08-.76,3.94-.93Z"/>
      <path class="cls-41" d="M127.2,9.73c-.18,1.57-1.73,1.03-2.46.91-1.88-.31-2.01-3.12-5.9-2.53,1.29-1.38,4.58-1.48,5.73,1.23.66.37,2.05.4,2.63.38Z"/>
      <path class="cls-1" d="M73.63,5.69c-.19,1.66-1.48,2.2-2.78,2.13.24-1.9,1.97-1.62,2.78-2.13Z"/>
      <path class="cls-12" d="M118.11,56.96c-1.48-4.21-.27-9.09,1.76-13.48l3.73-8.08,4.21-9.95c.39-.08.71-.06,1.23.03-.94,3.86-3.42,6.96-4.71,11.1l-1.26,4.03c-3.37,5.32-4.73,10.34-4.96,16.35Z"/>
      <path class="cls-58" d="M9.29,185.33c-.97-.03-2.32-2.32-3.44-2.7-1.02-.34-2.49.88-4.02,1.36-1.23-.1-.95-3.99.11-3.98l11.88,2.24c-1.17,1.43-3.32,3.12-4.52,3.08Z"/>
      <path class="cls-40" d="M105.48,127.84l-1.29,15.14-1.14,3.35c-.57.91-1.53,2.15-1.43,3.86l.79,12.79c.16,2.58-.31,4.04-1.8,7.07-9.91-5.06-20.55-4.84-31.79-2.71-5.16.98-10.6-2.59-15.5-3.65l-14.85-3.21,6.16-7.81c6.96-8.54,12.33-17.86,16.01-27.99l8.42-1.31c3.91,1.04,6.49,1.1,9.64-1.81,4.58-4.23,10.85,1.09,16.58-8.8,8.07-4.07,10.61-10.74,12.52-19.09l-.81,19.99-1.54,14.18ZM79.37,156.96l11.98-11.48c1.52-1.45-.87-4.33-2.14-4.38-5.85-.27-9.15,8.49-18.63,13.11-1.43.7-2.51,1.15-2.61,2.76-.08,1.38.73,2.68,2.49,3.01,3.11.58,6.24-.44,8.91-3.01Z"/>
      <path class="cls-59" d="M123.59,35.41l-3.73,8.08c-2.03,4.39-3.23,9.27-1.76,13.48l-.64,16.83c-.16,4.24-.25,8.51-.53,12.51l-9.1,7.37c.9-3.91,3.49-8.37,1.07-12.54.42.13.91-.13.91-.79l.04-17.72c0-4.14-.61-8.92,1.22-12.42.74.24,1.37.15,1.95-.36.7-.61.99-1.21,1.42-2.19l4.19-9.57c.48-1.1,1.89-1.91,2-2.91l2.95.23Z"/>
      <path class="cls-52" d="M113.87,130.52l3.07-44.21c.28-4,.36-8.27.53-12.51l.64-16.83c.89-.2,1.26.93.98,2.04-1.05,4.23-.17,8.09-.42,12l-3.79,59.33c-.02.27-.84.43-1.01.19Z"/>
      <path class="cls-10" d="M109.93,165.69c-3.6-5.37-4.66-12.53-6.56-14.04-.79-.63.65-2.06,1.31-1.73l5.81,14.19c.32.78-.19,1.45-.56,1.59Z"/>
      <path class="cls-67" d="M28.77,162.57l.04,1.39-16.17,3.03c-.04-.32.16-.77.46-1.23l15.66-3.18Z"/>
      <path class="cls-39" d="M103.06,146.33l1.14-3.35,1.29-15.14c.21-.09.74-.02,1,.28l-1.3,16.05c-.03.4-.98,1.37-.93,1.76s-.61.82-1.19.4Z"/>
      <path class="cls-15" d="M29.13,106.95l.59,3.01.87,13.49c-.89.16-1.78-.18-2.66.6-.69.61-.63,2.64-1.24,3.43l-3.1,3.95c-.88,3.91,2.68,5.83,5.08,6.75-.22.82-1.59,1.7-1.13,3.1-.25-.09-.56-.14-.69-.28l-3.54-3.6c-1.22-1.24-1.9-2.37-3.51-2.37l1.17-13.87c1.31-5.43,1.23-10.58,0-16.1l3.43-6.99c1.35,3.04,2.34,6.61,4.74,8.89Z"/>
      <path class="cls-68" d="M58.87,104.7c-3.34-4.11-1.23,5.92-2.37,7.99-.58,1.06-3.9,1.35-4.13-.01-1.22-7.12-1.94-13.84-1.72-21.01.1-1.19,4.21-1.67,4.57-.56l1.33,8.3c4.57.69.66-7.25,2.8-8.72,1.87-1.29,4.24-.78,4.41,1.94l1.16,18.68c.08,1.33-3.83,2.29-4.44,1.18-1.24-2.29-.54-6.48-1.6-7.79Z"/>
      <path class="cls-51" d="M86.75,108.37c-1.79-.18-2.12-4.1-1.44-5.51l5.44-11.33c-1.97.55-4.04.86-4.95.2-.97-.7-2.19-3.85-.81-4.43,3.05-1.29,6.4-1.77,9.52-1.57,2.47.16,2.24,4,1.37,5.95l-4.94,11,4.74-.39c1.17-.1,1.85,4.28.78,4.75-2.83,1.26-6.07,1.71-9.71,1.34Z"/>
      <path class="cls-24" d="M77.33,110.09c-.07,1.34-3.86,1.9-4,.73-.8-6.91-2.35-13.65-1.43-21.06.64-2.57,6.79-3.18,8.86-1.8,2.77,1.85,4.01,5.22,3.25,8.5-.66,2.84-2.88,5.42-6.3,6.14l-.39,7.49ZM77.12,97.69c2.62-.1,2.72-2.25,2.74-3.43.03-1.86-2.57-2.8-3.28-1.48-.66,1.22,0,3.6.55,4.91Z"/>
      <path class="cls-18" d="M44.92,108.96c.77.54,2.69-2.2,3.58-2.1,1.18.13,2.49,1.83,2.13,3.56-.55,2.71-2.58,4.31-4.05,4.71-2.19.6-4.69.06-6.17-1.91-4.33-5.76-4.33-15,.48-20.4,2.45-2.76,6.48-2.36,7.9.67.93,1.99,1.28,3.37.03,4.96-1.19,1.51-2.73.67-4.51-1.05-2.47,1.71-3.24,8.88.6,11.56Z"/>
      <path class="cls-66" d="M65.32,76.91c-.44,3.87.28,6.74-1.64,7.92-.62.38-1.81-.07-1.93-1.7l-1.13-15.9c-.1-1.41,1.53-1.88,2.66-1.45.83.32,1.59.76,2.22,2.22l3.17,7.35c-.15-3.68-1.36-6.73-.57-10.27.12-.52,1.66-.91,2.12-.78.66.2,1.23,1.55,1.31,2.84l.83,12.55c.08,1.21-.29,3.04-1.12,3.54s-2.5-.08-3.2-1.35l-2.74-4.98Z"/>
      <path class="cls-6" d="M44.19,82.73c-1.75,2.1-.94,3.59-1.43,4.69-.43.97-3.24.49-3.28-1.14-.12-5.28-1.58-10.73-.82-16.5.54-2.9,7.2-2.36,8.65-.22,2.57,3.8.29,7.02-1.12,10.07,1.27,1.64,4.55,5.56,2.09,7.64-1.63.26-3.58-2.95-4.08-4.54ZM43.14,76.15c1.9-.22,2.11-2.01,2.07-2.84-.05-.96-.91-2.18-2.34-1.64-1.58.61-.88,4.61.27,4.47Z"/>
      <path class="cls-30" d="M89.16,74.99c-3.83-1.92-.32,7.35-3.34,7.17-.64-.04-1.87-.6-1.9-1.97l-.35-16.32c-.01-.49,2.51-.52,2.66-.06.74,2.31-.04,4.86.78,6.08.39.58,1.2.82,2.07.18.59-.43.5-1.38.6-2.87l.19-2.91c.04-.61,1.44-1.41,1.85-.98.88.94,1.5,1.63,1.53,3.31l.23,14.39c.01.8-2.38,1.31-2.98.9-1.57-1.07.2-6.15-1.35-6.92Z"/>
      <path class="cls-57" d="M52.3,84.49c-3.55-4.27-3.58-15.12-3.17-15.93.57-1.14,2.98-1.31,3.06-.47l1.09,10.55c.09.82.74,1.2.94,1.5,1.79,2.7,3.38-3.32,1.59-12.85.06-1.15,3.74-1.23,3.83.21l.68,11.35c.15,2.45-.91,4.3-2.42,5.54-1.33,1.09-3.91,2.14-5.61.1Z"/>
      <path class="cls-23" d="M30.34,86.96c-4.2-4.99-4.1-13.6,1.29-18.32.93.17,1.92-.02,2.14-.92,1.24.95,2.67,2.39,3.4,4.24.72,1.84-.37,3.05-1.57,2.99-.58-.03-1.43-.69-2.35-1.11-2.68,2.55-2.35,8.6.73,10.31.79-.97,1.52-1.68,2.07-2.01.68-.4,2.18.18,2.19,1.27.03,2.73-1.51,4.05-3.08,4.64-1.69.64-3.25-.28-4.81-1.09Z"/>
      <path class="cls-49" d="M77.78,78.3c1.81.41,3.02-1.34,3.82-2.17,2.26,1.98,1.09,4.24-.25,5.44-.94.84-2.85,2.08-4.72.7-5.16-3.84-5.8-13.61-.54-17.83,1.8-1.44,5.04-.32,5.61,1.08.71,1.76-.06,3.85-.58,3.74l-3.39-.7c-1.81,1.42-2.29,7.11.03,9.74Z"/>
      <path class="cls-3" d="M104.72,64.1c-.81,3.13-2.63,5.92-3.98,9.32-.76,1.9.62,6.01-1.06,7.8-.6.64-2.6.2-2.56-1.03.23-6.15-1.38-10.96-4.14-16.92,3.59-1.09,5.21,1.36,5.87,5.19l3.76-6.4c.68,0,1.93,1.2,2.1,2.03Z"/>
      <path class="cls-62" d="M70.92,109.64c-.1,1.17-2.49,1.68-3.17,1.25-.82-.52-1.22-1.94-1.36-3.4l-.61-6.41c-.14-1.43-.74-3.09.17-4.21.62-.76,3.33-1.12,3.59-.14,1.11,4.31,1.76,8.51,1.38,12.91Z"/>
      <path class="cls-5" d="M65.29,89.32c1.01-1.5,3.92-1.05,4.45,0,.49.96.24,3.78-.6,4.72-.7.78-2.48.9-3.54.26-.87-.52-1.4-3.34-.31-4.97Z"/>
      <path class="cls-48" d="M27.53,141.27c-.46-1.4.91-2.28,1.13-3.1,5.98,2.29,14.12,1.85,16.41-3.77,1.75-4.32-8.96-9.76-15.42-7.83l-2.96.9c.62-.78.56-2.82,1.24-3.43.88-.78,1.77-.43,2.66-.6,10.36-1.92,20.46,6.36,18.15,13.15-1.87,5.48-13.71,7.48-21.2,4.68Z"/>
      <path class="cls-63" d="M26.84,140.99c.08,3.51-1.89,6.08-4.09,8.47l-11.55,12.55c-.66-2.08.53-3.77,1.4-5.25,4.03-6.9,6.54-13.98,7.19-21.74,1.61,0,2.29,1.13,3.51,2.37l3.54,3.6Z"/>
      <path class="cls-13" d="M19.68,110.98c.11,2.72.58,5.49-.44,7.79l-.58-5.83c-.24-2.35.06-5.09.17-7.33.2-.37.5-.51.62-.52l.23,5.88Z"/>
      <path class="cls-38" d="M120.64,35.18c-.11,1-1.52,1.81-2,2.91l-4.19,9.57c-.43.98-.72,1.58-1.42,2.19-.58.51-1.21.6-1.95.36l10.15-19.36c1.07,1.95-.45,3.13-.58,4.33Z"/>
      <path class="cls-20" d="M114.82,30.51c-2.58-.2-3.96.27-6.23.94.92-2.55,2.81-2.38,4.65-1.88.8-2.15,2.85-.83,1.58.94Z"/>
      <path class="cls-53" d="M79.37,156.96c-2.67,2.56-5.8,3.59-8.91,3.01-1.76-.33-2.57-1.62-2.49-3.01.1-1.61,1.18-2.06,2.61-2.76,9.48-4.62,12.79-13.38,18.63-13.11,1.27.06,3.66,2.93,2.14,4.38l-11.98,11.48Z"/>
      <path class="cls-47" d="M28.66,138.17c-2.4-.92-5.96-2.84-5.08-6.75l3.1-3.95,2.96-.9c.17,3.72-.24,7.72-.99,11.6Z"/>
      <path class="cls-35" d="M77.12,97.69c-.55-1.31-1.21-3.69-.55-4.91.71-1.32,3.31-.38,3.28,1.48-.02,1.17-.11,3.33-2.74,3.43Z"/>
      <path class="cls-33" d="M43.14,76.15c-1.15.13-1.85-3.87-.27-4.47,1.43-.55,2.29.68,2.34,1.64.04.82-.17,2.61-2.07,2.84Z"/>
      <path class="cls-11" d="M28.66,138.17c.75-3.87,1.16-7.87.99-11.6,6.47-1.93,17.18,3.51,15.42,7.83-2.28,5.62-10.43,6.06-16.41,3.77Z"/>
    </g>
  </g>
</svg>