<?xml version="1.0" encoding="UTF-8"?>
<svg id="Layer_2" data-name="Layer 2" xmlns="http://www.w3.org/2000/svg" viewBox="0 0 77.6 154.33">
  <defs>
    <style>
      .cls-1 {
        fill: #1c5a84;
      }

      .cls-2 {
        fill: #5dace0;
      }

      .cls-3 {
        fill: #236597;
      }

      .cls-4 {
        fill: #18486a;
      }

      .cls-5 {
        fill: #5dafde;
      }

      .cls-6 {
        fill: #2b7bb4;
      }

      .cls-7 {
        fill: #2f7ebf;
      }

      .cls-8 {
        fill: #5dafdf;
      }

      .cls-9 {
        fill: #353738;
      }

      .cls-10 {
        fill: #2d7ebc;
      }

      .cls-11 {
        fill: #226596;
      }

      .cls-12 {
        fill: #2b78b2;
      }

      .cls-13 {
        fill: #fefefd;
      }

      .cls-14 {
        fill: #191919;
      }

      .cls-15 {
        fill: #368fcf;
      }

      .cls-16 {
        fill: #3a3b3d;
      }

      .cls-17 {
        fill: #378dce;
      }

      .cls-18 {
        fill: #297ab3;
      }

      .cls-19 {
        fill: #3086c7;
      }

      .cls-20 {
        fill: #fefefe;
      }

      .cls-21 {
        fill: #121311;
      }

      .cls-22 {
        fill: #348ecf;
      }

      .cls-23 {
        fill: #fdfefe;
      }

      .cls-24 {
        fill: #164465;
      }

      .cls-25 {
        fill: #3487c7;
      }
    </style>
  </defs>
  <g id="Layer_1-2" data-name="Layer 1">
    <g>
      <path class="cls-14" d="M57.96,154.33l-39.41-.14c-4.52-.02-8.33-3.29-9.87-7.11.47-.81-.5-.82-.34-.18.22,1.22.15,2.27-.52,3.11s-1.61,1.11-2.96,1.05c-1.23-.05-3.08-.9-3.09-2.52l-.06-18.24c0-1.09.98-2.05,1.66-2.38,1-.5,2.28-.55,3.71-.02l-.67-14-2.69-45.5c-1.7.39-3.69-.33-3.69-1.93v-4.53c.01-.75-.21-1.87.36-2.59l9.82-12.25c.81-1.01,2.38-1.5,3.65-1.54l6.21-.2-.06-3.67c-4.96-1.95-9.12-4.96-12.26-9.21C1.96,24.64.75,13.43,9.77,8.74c3.21-1.67,6.8-2.14,10.51-2.17l4.56-.04c.47-2.6-.48-4.34,1.04-5.85.86-.85,1.88-.66,3.07-.66h19.86c1.1-.01,1.9-.15,2.76.63.56.52.98,1.25.99,2.33l.03,3.57,5.88-.03c8.02-.03,15.56,4.27,15.87,12.25.4,10.26-7.33,19.38-16.83,22.96l-.04,3.66,5.48.14c2.2.06,4.12.92,5.47,2.63l8.31,10.58c.69.87.87,1.82.87,2.9v4.17c0,.96-.37,1.73-.87,2.13-.77.61-1.52.66-2.86.4l-3.62,59.48c1.16-.27,2.3-.52,3.38-.07.79.33,1.96,1.2,1.96,2.44l.07,17.42c0,2.1-1.29,3.58-3.44,3.47-1.09-.05-2-.29-2.63-1.01-.68-.77-.62-1.65-.94-2.94-1.48,4.22-6.35,7.21-10.71,7.2ZM49.3,2.33l.11,4.16,2.37.05-.14-4.46c-.02-.6-.84-1.35-1.57-1.35l-22.68.02c-1.1,0-1.73,1.31-1.73,2.15v3.65s2.42,0,2.42,0v-2.97c0-.41.26-1.28.86-1.28l20.35.03ZM48.52,6.54c.17-1.59.16-2.47,0-3.57h-19.59s-.03,3.58-.03,3.58h19.64ZM4.01,18.29c-.37,3.74.63,7.3,2.46,10.69,3.99,7.43,11.4,12.39,19.72,13.57,7.62,1.08,15.08,1.05,22.77.35s14.26-3.77,19.12-9.46c3.65-4.27,5.85-9.49,5.47-15.03-.24-3.5-2.19-6.61-5.08-8.44-3.24-2.05-6.8-2.71-10.67-2.7l-39.4.09c-6.85.02-13.68,3.86-14.38,10.92ZM23.75,45.45l-.06-2.56-2.8-.82-.13,3.38h2.99ZM53.79,45.48l2.93-.02-.1-3.36-2.93.91.1,2.47ZM51.18,45.6l1.67-.14-.02-2.35c-9.39,1.32-18.82,1.21-28.19-.03-.15.91-.16,1.59,0,2.44l26.55.08ZM1.87,58.7c-.78.98-1.35,1.8-1.16,3.15.21,1.49-.39,3.35.3,4.98.47,1.1,2.05,1.01,3.49.8l4.28,75.42c.16,2.73.84,4.79,2.42,6.64,2.31,2.71,5.9,3.97,9.54,3.97l36.26-.03c5.79,0,11.19-3.56,11.56-9.77l1.29-21.5,3.09-50.53.33-4.08,2.41-.15c.74-.05,1.14-.72,1.14-1.46v-4.51c.02-.96-.03-1.65-.75-2.54l-1.57-1.94-6.79-8.62c-.89-1.13-2.15-2.28-3.85-2.28l-48.66-.06c-2.09,0-3.81.52-5.06,2.09L1.87,58.7ZM7.79,147.46l-.33-10.77c-.05-1.75.24-3.75-.36-5.46-.21-.61.22-1.98-.22-2.43-.85-.86-2.03-.7-2.95-.35-.61.23-1.55.77-1.55,1.9v18.13c0,.61.7,1.22,1.01,1.48.22.19,3.31.32,3.63-.24.39-.69.79-1.23.76-2.24ZM73.9,149.58c.46-.55.44-.58.85-.72l-.04-18.98c0-.98-1.36-1.46-2.05-1.61s-2.26.15-2.48.89l-.7,12.99.28,6.54c.06,1.44,3.18,2.02,4.14.89Z"/>
      <path class="cls-22" d="M61.94,71.63l-5.08,80.41c-.05.72-.11,1.1.13,1.6l-36.26.03-.94-12.61-4.16-69.49,46.32.07ZM50.42,88.66c-.96,0-1.29.5-1.9.82l-1.99-3.42c-.4-.68-1.08-1.47-1.98-1.48l-8.61-.1c1.14.6,1.92,1.46,2.57,2.59l3.47,6.03-1.96,1.28,7.17.39,3.23-6.11ZM34.68,95.01l3.75-6.4c-.65-1.26-1.31-2.46-2.41-3.26-1.64-1.21-3.79-.61-4.77,1.07l-2.94,5.01,6.36,3.58ZM53.81,104.67c1.7-1.04,2.1-2.96,1.18-4.55l-2.95-5.09-6.37,3.61,3.9,6.66c1.36.24,2.9.15,4.24-.64ZM26.63,110.57c.35-1.24.43-2.15,1.01-3.07l3.86-6.1c.75.32,1.13.86,2.19,1.01l-3.51-6.68-7.1.61c.5.6,1.1.75,1.93,1.18l-1.9,3.24c-.72,1.22-.65,2.63.07,3.87l3.45,5.93ZM50.78,111.87l3.81-6.66c-1.18.51-2.19.97-3.51.96l-6.88-.03-.32-2.33-3.89,6.04,3.97,6.4c.42-.75.28-1.49.21-2.45l3.7-.11c1.24-.04,2.27-.69,2.91-1.81ZM37.08,113.63l-.03-7.39h-7.7s-1.45,2.85-1.45,2.85c-.6,1.18-.25,2.37.46,3.37.57.8,1.65,1.31,2.83,1.26l5.9-.1Z"/>
      <path class="cls-12" d="M72.92,71.84l-3.09,50.53-1.29,21.5c-.37,6.21-5.77,9.76-11.56,9.77-.24-.5-.17-.88-.13-1.6l5.08-80.41,10.34-.04.64.24Z"/>
      <path class="cls-5" d="M15.62,71.57l4.16,69.49.94,12.61c-3.64,0-7.23-1.26-9.54-3.97l-1.47-31.6-2.63-46.48,8.53-.05Z"/>
      <path class="cls-15" d="M73.25,67.76l-11.19.11-46.48-.03.03,3.73-8.53.05,2.63,46.48,1.47,31.6c-1.57-1.85-2.26-3.91-2.42-6.64l-4.28-75.42c-1.44.21-3.02.3-3.49-.8-.69-1.63-.09-3.49-.3-4.98l1.68.54h71.4c1.29,0,2.09-.22,3.03-.75v4.51c-.02.74-.41,1.42-1.15,1.46l-2.41.15Z"/>
      <path class="cls-8" d="M73.54,18.41c-.23-.08-.48-.1-.68-.3-2.26-4.88-6.63-7.09-12.21-7.82l-43.22.11c-5.17.01-11.12,3.22-12.84,7.98l-.59-.08c.71-7.07,7.53-10.91,14.38-10.92l39.4-.09c3.87,0,7.43.65,10.67,2.7,2.89,1.82,4.84,4.94,5.08,8.44Z"/>
      <path class="cls-19" d="M72.87,18.11c.2.2.45.22.68.3.38,5.54-1.82,10.76-5.47,15.03-4.86,5.69-11.74,8.78-19.12,9.46s-15.15.73-22.77-.35c-8.32-1.18-15.73-6.14-19.72-13.57-1.82-3.4-2.83-6.95-2.46-10.69l.59.08c.21-.01.81-.15.9.1.07.21.04.76.51.69,0,10.37,9.06,19.65,19.33,21.37,8.68,1.45,18.97,1.62,27.67-.18,10.09-2.09,18.73-11.09,18.67-21.48.29-.06.38-.35.43-.55.07-.28.62-.37.76-.22Z"/>
      <path class="cls-17" d="M74.49,57.16c-.33,0-.68.03-.95.17-.38.21-.43.66-.35,1.19l-7.66-9.71c-.63-.8-1.75-.9-2.95-.9l-48.67.02c-.52,0-1.18.11-1.43.43l-8.54,11.04c-.51.16-1.08-.11-1.38-.56l-.7-.15,8.27-10.4c1.25-1.58,2.97-2.1,5.06-2.09l48.66.06c1.7,0,2.96,1.15,3.85,2.28l6.79,8.62Z"/>
      <path class="cls-2" d="M74.49,57.16l1.57,1.94c.72.89.76,1.58.76,2.54-.94.53-1.74.74-3.03.74H2.39s-1.68-.53-1.68-.53c-.19-1.36.38-2.17,1.16-3.15l.7.15c.3.44.87.72,1.38.56-.14.04-.1.63,0,.79.14.23.39.49,1.01.49l67.24-.02c.59,0,.83-.04,1.18-.3.24-.18.5-.54.28-.96l-.47-.9c-.08-.53-.03-.98.35-1.19.27-.14.62-.16.95-.17Z"/>
      <path class="cls-9" d="M7.79,147.46c.03,1.01-.37,1.55-.76,2.24-.32.56-3.41.43-3.63.24-.31-.26-1.01-.87-1.01-1.48v-18.13c0-1.13.93-1.67,1.54-1.9.92-.35,2.11-.51,2.95.35.44.45,0,1.83.22,2.43.6,1.71.3,3.71.36,5.46l.33,10.77Z"/>
      <path class="cls-16" d="M73.9,149.58c-.96,1.13-4.08.55-4.14-.89l-.28-6.54.7-12.99c.22-.73,1.8-1.04,2.48-.89s2.05.63,2.05,1.61l.04,18.98c-.42.14-.39.17-.85.72Z"/>
      <path class="cls-25" d="M49.3,2.33l-20.35-.03c-.6,0-.86.87-.86,1.28v2.97s-2.41,0-2.41,0v-3.65c-.02-.84.61-2.15,1.71-2.15l22.68-.02c.73,0,1.55.75,1.57,1.35l.14,4.46-2.37-.05-.11-4.16Z"/>
      <polygon class="cls-3" points="73.25 67.76 72.92 71.84 72.28 71.6 61.94 71.63 62.07 67.87 73.25 67.76"/>
      <polygon class="cls-10" points="53.79 45.48 53.69 43.01 56.62 42.1 56.72 45.46 53.79 45.48"/>
      <polygon class="cls-7" points="23.75 45.45 20.76 45.45 20.89 42.07 23.68 42.89 23.75 45.45"/>
      <polygon class="cls-6" points="62.07 67.87 61.94 71.63 15.62 71.57 15.59 67.84 62.07 67.87"/>
      <path class="cls-23" d="M26.63,110.57l-3.45-5.93c-.72-1.24-.79-2.65-.07-3.87l1.9-3.24c-.83-.43-1.43-.58-1.93-1.18l7.1-.61,3.51,6.68c-1.06-.15-1.43-.69-2.19-1.01l-3.86,6.1c-.58.91-.65,1.83-1.01,3.07Z"/>
      <path class="cls-20" d="M50.78,111.87c-.64,1.13-1.67,1.78-2.91,1.81l-3.7.11c.07.96.2,1.7-.21,2.45l-3.97-6.4,3.89-6.04.32,2.33,6.88.03c1.32,0,2.32-.45,3.51-.96l-3.81,6.66Z"/>
      <path class="cls-13" d="M50.42,88.66l-3.23,6.11-7.17-.39,1.96-1.28-3.47-6.03c-.65-1.13-1.43-1.99-2.57-2.59l8.61.1c.9.01,1.59.79,1.98,1.48l1.99,3.42c.61-.32.94-.82,1.9-.82Z"/>
      <path class="cls-23" d="M37.08,113.63l-5.9.1c-1.18.05-2.26-.46-2.83-1.26-.71-1-1.07-2.19-.46-3.37l1.45-2.84h7.7s.03,7.38.03,7.38Z"/>
      <path class="cls-13" d="M53.81,104.67c-1.34.79-2.87.88-4.24.64l-3.9-6.66,6.37-3.61,2.95,5.09c.92,1.59.52,3.5-1.18,4.55Z"/>
      <path class="cls-13" d="M34.68,95.01l-6.36-3.58,2.94-5.01c.99-1.68,3.13-2.28,4.77-1.07,1.09.8,1.76,2,2.41,3.26l-3.75,6.4Z"/>
      <path class="cls-18" d="M72.87,18.11c-.15-.15-.69-.06-.76.22-.05.2-.14.49-.43.55-2.71,8.04-9.5,15.27-18.37,17.23-10.03,2.21-20.07,1.67-30.05-.18-8.3-2.52-14.68-8.81-17.24-16.76-.47.06-.44-.49-.51-.69-.09-.26-.68-.12-.9-.1,1.72-4.76,7.67-7.97,12.84-7.98l43.22-.11c5.57.73,9.95,2.94,12.21,7.82Z"/>
      <path class="cls-11" d="M71.67,18.89c.06,10.39-8.57,19.39-18.67,21.48-8.7,1.8-18.99,1.64-27.67.18-10.26-1.72-19.33-11-19.33-21.37,2.56,7.95,8.94,14.24,17.24,16.76,9.98,1.85,20.02,2.39,30.05.18,8.88-1.96,15.66-9.19,18.37-17.23Z"/>
      <path class="cls-1" d="M65.53,48.81c-.06-.02-.49-.09-.62.04l-.04,11.2H12.58s-.09-11.69-.09-11.69c.26-.33.91-.43,1.43-.43l48.67-.02c1.2,0,2.32.1,2.95.9Z"/>
      <path class="cls-24" d="M65.53,48.81l7.66,9.71.47.9c-.11-.07-.42.34-.5.34l-8.28.3.04-11.2c.12-.13.55-.07.62-.04Z"/>
      <path class="cls-4" d="M12.58,60.04l-8-.19c-.24,0-.48-.48-.63-.45l8.54-11.04.09,11.68Z"/>
      <path class="cls-21" d="M12.58,60.04h52.3s8.28-.29,8.28-.29c.08,0,.38-.41.5-.34.22.42-.04.78-.28.96-.36.26-.59.3-1.18.3l-67.24.02c-.62,0-.87-.26-1.01-.49-.1-.16-.14-.75,0-.79.16-.03.39.44.63.45l8,.19Z"/>
    </g>
  </g>
</svg>