<?xml version="1.0" encoding="UTF-8"?>
<svg id="Layer_2" data-name="Layer 2" xmlns="http://www.w3.org/2000/svg" viewBox="0 0 79 132.8">
  <defs>
    <style>
      .cls-1 {
        fill: #6b868a;
      }

      .cls-2 {
        fill: #638686;
      }

      .cls-3 {
        fill: #a2bdc0;
      }

      .cls-4 {
        fill: #2c2f31;
      }

      .cls-5 {
        fill: #b7e2df;
      }

      .cls-6 {
        fill: #4c6e70;
      }

      .cls-7 {
        fill: #caefec;
      }

      .cls-8 {
        fill: #466768;
      }

      .cls-9 {
        fill: #436261;
      }

      .cls-10 {
        fill: #9ac4c3;
      }

      .cls-11 {
        fill: #b6e2df;
      }

      .cls-12 {
        fill: #eb872e;
      }

      .cls-13 {
        fill: #d9fcfa;
      }

      .cls-14 {
        fill: #78aaaa;
      }

      .cls-15 {
        fill: #4c6c6d;
      }

      .cls-16 {
        fill: #10110f;
      }

      .cls-17 {
        fill: #476767;
      }

      .cls-18 {
        fill: #678484;
      }

      .cls-19 {
        fill: #dbe1e0;
      }

      .cls-20 {
        fill: #314042;
      }

      .cls-21 {
        fill: #b6e4e2;
      }

      .cls-22 {
        fill: #8bbebd;
      }

      .cls-23 {
        fill: #749798;
      }
    </style>
  </defs>
  <g id="Layer_1-2" data-name="Layer 1">
    <g>
      <path class="cls-16" d="M11.12,131.34c-5.07-.48-10.38-4.08-10.42-8.47l-.35-34.45L0,43.11c-.03-4.12,3.89-6.34,7.83-6.83l5.44-.67,11.18-.43-.16-8.06c-.02-1.11-1.24-2.15-1.33-3.64-.35-6.12-.47-12.27-.02-18.35.17-2.31,1.94-3.83,4.25-4.19l6.26-.95,15.72.24c1.76.03,3.67.39,5.09,1.26,1.33.82,2.32,2.74,2.33,4.62l.11,17.16c.01,2-.98,2.62-2.52,3.82-1.11,2.09-.33,5.61.52,8.13l16.68,1.41c3.18.27,7.63,2.84,7.63,6.67l-.1,80.7c0,4.2-7.14,7.19-11.16,7.56-18.97,1.75-37.39,1.57-56.62-.24ZM55.28,25.21l-.26-19.73c-.05-4.15-9.61-4.93-15.78-4.47-5.64.43-14.63.15-14.92,4.09-.5,6.7-.49,13.2.15,20.29,10.2,2.73,20.64,3.24,30.8-.18ZM50.12,36.06c.75.66,2.06.2,2.84-.05l-.52-8.71c-8.78,2.19-16.95,1.78-26.02.06-1.15,1.95-1.61,5.75.03,6.97,7.16,2.6,14.73,2.16,21.69.45,1.07-.26,1.61.95,1.98,1.27ZM65,37.37l-11.38-.97c-1.43,1.21-3.25,2.77-5.6,3.19.85-.32,1.77-1.6,3-1.87-2.06-1.39-3.96-.69-5.98-.68l-14.47.09c-.98,0-1.61-.48-2.63-.95.31,1.95,2.25,2.34,3.72,2.82-1.71.84-3.15-.49-3.81-1.17-.37-.38-.89-1.56-1.8-1.49l-19.7,1.46c-2.04.15-4.39,1.89-4.39,4.28v74.52c0,2.88.19,6.02,1.04,8.36,2.37,6.49,16.09,5.64,25.08,6.14,8.64.48,16.9.45,25.55,0,11.67-.6,24.37.29,24.33-11.39l-.24-75.45c-.02-4.78-6.91-6.4-12.73-6.89Z"/>
      <path class="cls-7" d="M27.85,37.83c-1.54,1.57-3.32,1.21-5.46,1.21-5.62,0-16.54,1.42-17.26,3.02-.18.39.27.85.68.93-.51,1.42-.58,3.04-.57,4.97l.27,73.19c0,2.6,2.78,4.88,5.74,4.79l2.27.42,20.3.2c1.5,1.56,3.2.08,4.3.07-.05.07-.34.76-.09.82l2.1.55c8.6.91,16.92.29,25.59-.22,2.57-.15,5.62.26,7.2-2.07,1.4-2.08.86-4.88.92-7.11l.02-74.02c-.03-.54,0-2.06-.6-2.5-.56-.41-2.05-.82-2.89-.69.22-.4.05-1.28-.65-1.31l-10.75-.35c0-.08.06-.3.35-.43h4.59c.62,0,1.19-1.35,1.08-1.93,5.82.5,12.72,2.11,12.73,6.89l.24,75.45c.04,11.68-12.67,10.79-24.33,11.39-8.64.45-16.91.48-25.55,0-8.99-.5-22.72.35-25.08-6.14-.85-2.34-1.04-5.48-1.04-8.36V42.09c0-2.39,2.35-4.13,4.39-4.28l19.7-1.46c.9-.07,1.42,1.11,1.8,1.49Z"/>
      <path class="cls-19" d="M55.28,25.21c-10.16,3.42-20.6,2.9-30.8.18-.64-7.09-.65-13.59-.15-20.29.29-3.93,9.28-3.66,14.92-4.09,6.16-.47,15.72.32,15.78,4.47l.26,19.73ZM51.39,4.3l-18.64-.15c0-.18.11-.39.37-.5l15.16-.13c0-.16-.11-.39-.37-.5l-15.53.21c-.75.01-1.88.32-2.65,1.17,1.1.46,2.31.87,3.38.88l16.91.14c.37,0,1.34-.65,1.39-1.11Z"/>
      <path class="cls-5" d="M48.02,39.59l-3.43,1.28c-2.13.8-9.14.64-12.56-1.39,2.43,4.44,11.42,3.34,15.99.11,2.34-.41,4.17-1.98,5.6-3.19l11.38.97c.11.58-.46,1.93-1.08,1.93h-4.59c-.29.12-.35.34-.35.42l10.75.35c.7.02.87.9.65,1.31l-14.04,2.18-42.65-.04c-2.03-2.41-5.36-2.27-7.88-.54-.41-.08-.86-.54-.68-.93.73-1.6,11.64-3.02,17.26-3.02,2.14,0,3.92.37,5.46-1.21.66.68,2.11,2,3.81,1.17-1.47-.49-3.41-.87-3.72-2.82,1.01.47,1.65.96,2.63.95l14.47-.09c2.02-.01,3.92-.71,5.98.68-1.23.27-2.15,1.55-3,1.87Z"/>
      <path class="cls-12" d="M50.12,36.06c-.37-.33-.91-1.54-1.98-1.27-6.96,1.71-14.53,2.15-21.69-.45-1.64-1.22-1.18-5.02-.03-6.97,9.08,1.72,17.24,2.13,26.02-.06l.52,8.71c-.78.25-2.09.71-2.84.05Z"/>
      <path class="cls-22" d="M70.37,41.38c.83-.13,2.32.27,2.89.69.61.45.58,1.96.6,2.5l-4.09,2.34-.05,69.72c0,1.03-1.13,1.45-1.46,1.87-.72.62-1.55.76-2.55.67-1.43-.97-3.75-.78-5.65-.26-3.29.91-7.29-.67-7.06,1.13-2.47.15-4.97.33-7.45.33-1.1-.89-3.61-.89-4.71.01h-1.35c.19-.3-.2-.83-.41-.73-.43.2-1.93.47-1.67-.98l-11.17.42c-.17-.54-.76-.58-.88-.24-.1.29-.02.63,0,.87-1.22-.06-3.54-.38-4.61.07-.06-.33.01-.66-.17-1.26h-7.3c-.97-2.83,1.9-.5,5.84-2.47l.72-.05c.66,1.37,2.18.4,2.94.28,3.45-.57,7.43.24,11.16.23.15.16.1.39.3.78h10.51c.2-.4.15-.64-.04-.8l14.73-.62c.73-.03,1.8-.45,2.09-.83.39-.51.7-1.71.7-2.73l.09-68.57-6.03.46.03-.65,14.04-2.18ZM46.25,119c-.01-.15-.12-.34-.37-.45l-7.75.17c.02.11.1.36.36.57l7.76-.29Z"/>
      <path class="cls-11" d="M69.57,118.93c.23,1.41-.4,4.16-1.75,5.32l-8.89,1.44-39.27.05c-2.28,0-4.52-.96-7.13-.28-.49-.3-1.32-.2-1.26.48-2.97.09-5.74-2.19-5.74-4.79,1.25.17,3.31.03,3.71-1.27-.04-.1-.01-.55.19-.68l10.38.06c.24,0,.77.63.96.55,1.07-.45,3.38-.13,4.61-.07l14.13.66h1.35s4.71-.02,4.71-.02c2.48,0,4.98-.18,7.45-.33l8.36-.51c1.6-.1,2.94-.48,4.35-.36,1,.09,1.83-.05,2.55-.67l1.3.42Z"/>
      <path class="cls-3" d="M13.69,43.53c-.32,0-.57.29-.34.62-.78-.01-2.14.13-2.73.41-.68.32-1.29,1.79-1.29,2.87l-.05,66.78c0,1.5,2.47,1.67,3.45,1.7l6.39.17c-3.95,1.97-6.81-.36-5.84,2.47l-4.63.03c-.38.64-.06,1.18.57,1.29-.4,1.3-2.46,1.44-3.71,1.27l-.27-73.19c0-1.93.06-3.55.57-4.97,2.52-1.73,5.85-1.87,7.88.54Z"/>
      <path class="cls-14" d="M73.85,118.59c-1.32-.15-3.07-.26-4.28.33l-1.3-.42c.32-.42,1.45-.84,1.46-1.87l.05-69.72,4.09-2.34-.02,74.02Z"/>
      <path class="cls-10" d="M73.85,118.59c-.06,2.23.48,5.04-.92,7.11-1.58,2.33-4.63,1.92-7.2,2.07-8.67.51-17,1.13-25.59.22l-2.1-.55c-.25-.07.05-.75.09-.82l20.21-.09c.71,0,.83-.56.59-.85l8.89-1.44c1.35-1.16,1.98-3.91,1.75-5.32,1.2-.59,2.96-.48,4.28-.33Z"/>
      <path class="cls-23" d="M58.93,125.68c.24.29.12.85-.59.85l-20.21.09c-1.09,0-2.8,1.49-4.3-.07l-20.3-.2-2.27-.42c-.07-.68.77-.78,1.26-.48,2.62-.68,4.85.28,7.13.28l39.27-.05Z"/>
      <path class="cls-4" d="M51.39,4.3c-.04.46-1.02,1.12-1.39,1.11l-16.91-.14c-1.07,0-2.28-.42-3.38-.88.77-.85,1.91-1.16,2.65-1.17l15.53-.21c.27.11.37.35.37.5l-15.16.13c-.27.11-.37.31-.37.5l18.64.15Z"/>
      <path class="cls-20" d="M56.34,43.57l-.03.65-10.58.24c-2.92.07-6.48.77-9.47.07s-5.33-.02-7.75-.07l-11.69-.25-3.46-.05c-.23-.33.02-.62.34-.62l42.65.04Z"/>
      <path class="cls-16" d="M48.02,39.59c-4.57,3.23-13.56,4.33-15.99-.11,3.42,2.04,10.43,2.19,12.56,1.39l3.43-1.28Z"/>
      <path class="cls-21" d="M44.72,116.51l-10.77.03c-3.73,0-7.7-.8-11.16-.23l-2.94-.28-.72.05-6.39-.17c-.1-.36.27-.56.11-.75-.44-.53-.2-1.39,1.02-1.23l.45-9.82,1.05-33.47.55-25.16c.96-.26.89-.82.89-1.28l11.69.25c2.41.05,4.9-.6,7.75.07,2.99.7,6.56,0,9.47-.07l10.58-.24,6.03-.46-.09,68.57c0,1.01-.31,2.22-.7,2.73-.29.39-1.36.8-2.09.83l-14.73.62ZM37.8,111.16c1.38-1.68,1.23-3.07,1.33-4.74l.72-12,.6-11.38.74-18.07.23-12.79c-.22,0-.46.08-.59.34l-.34,7.32-.67,15.28-.66,14.95-.7,9.02-.54,9.43c-.04.74-.98,1.56-.12,2.66Z"/>
      <path class="cls-18" d="M39.5,120.4l-14.13-.66c-.01-.24-.1-.58,0-.87.12-.34.71-.31.88.24l11.17-.42c-.26,1.45,1.24,1.18,1.67.98.22-.1.61.43.41.73Z"/>
      <path class="cls-8" d="M65.72,119.18c-1.41-.12-2.75.26-4.35.36l-8.36.51c-.23-1.8,3.77-.22,7.06-1.13,1.9-.52,4.21-.71,5.65.26Z"/>
      <path class="cls-2" d="M13.29,118.55h7.3c.18.6.11.93.17,1.26-.19.08-.72-.54-.96-.55l-10.38-.06c-.2.13-.23.57-.19.68-.63-.12-.95-.65-.57-1.29l4.63-.03Z"/>
      <path class="cls-15" d="M44.72,116.51c.18.16.24.4.04.8h-10.51c-.2-.39-.15-.62-.3-.78l10.77-.03Z"/>
      <path class="cls-17" d="M46.25,119l-7.76.29c-.26-.21-.35-.46-.36-.57l7.75-.17c.25.1.35.3.37.45Z"/>
      <path class="cls-9" d="M45.56,120.38h-4.71c1.1-.89,3.61-.89,4.71,0Z"/>
      <path class="cls-6" d="M22.79,116.31c-.77.13-2.28,1.1-2.94-.28l2.94.28Z"/>
      <path class="cls-13" d="M13.35,44.15l3.46.05c0,.46.06,1.02-.89,1.28l-.55,25.16-1.05,33.47-.45,9.82c-1.22-.16-1.45.7-1.02,1.23.15.19-.21.38-.11.75-.98-.03-3.45-.2-3.45-1.7l.05-66.78c0-1.08.6-2.55,1.29-2.87.58-.27,1.94-.42,2.73-.41Z"/>
      <path class="cls-1" d="M37.8,111.16c-.86-1.09.08-1.92.12-2.66l.54-9.43.7-9.02.66-14.95.67-15.28.34-7.32c.13-.25.37-.35.59-.34l-.23,12.79-.74,18.07-.6,11.38-.72,12c-.1,1.67.06,3.07-1.33,4.74Z"/>
    </g>
  </g>
</svg>