<?xml version="1.0" encoding="UTF-8"?>
<svg id="Layer_2" data-name="Layer 2" xmlns="http://www.w3.org/2000/svg" viewBox="0 0 96.93 126.86">
  <defs>
    <style>
      .cls-1 {
        fill: #31110e;
      }

      .cls-2 {
        fill: #dd450c;
      }

      .cls-3 {
        fill: #e7461b;
      }

      .cls-4 {
        fill: #fa9e76;
      }

      .cls-5 {
        fill: #f06b3c;
      }

      .cls-6 {
        fill: #c7260e;
      }

      .cls-7 {
        fill: #eee5d9;
      }

      .cls-8 {
        fill: #ebbb97;
      }

      .cls-9 {
        fill: #e12a14;
      }

      .cls-10 {
        fill: #d0b699;
      }

      .cls-11 {
        fill: #dc552b;
      }

      .cls-12 {
        fill: #c0250d;
      }

      .cls-13 {
        fill: #451b13;
      }

      .cls-14 {
        fill: #fbd797;
      }

      .cls-15 {
        fill: #bb230d;
      }

      .cls-16 {
        fill: #cf5f35;
      }

      .cls-17 {
        fill: #f4e1ce;
      }

      .cls-18 {
        fill: #cc3314;
      }

      .cls-19 {
        fill: #f88148;
      }

      .cls-20 {
        fill: #401811;
      }

      .cls-21 {
        fill: #e86935;
      }

      .cls-22 {
        fill: #1b0e0d;
      }

      .cls-23 {
        fill: #db2e0f;
      }

      .cls-24 {
        fill: #f47114;
      }

      .cls-25 {
        fill: #f5ab7a;
      }

      .cls-26 {
        fill: #fa9a7d;
      }

      .cls-27 {
        fill: #c0200d;
      }

      .cls-28 {
        fill: #711a0f;
      }
    </style>
  </defs>
  <g id="Layer_1-2" data-name="Layer 1">
    <g>
      <path class="cls-22" d="M91.37,36.38c-.54.53-2.11,1.44-2.3,2.31l-.33,67.72c-.04,8.05-8.19,10.16-9.39,11.28-1.33-.37-3.12,1.95-5,.49,5.38-1.44,10.73-3.43,12.44-8.41.93-2.7,1.19-5.81,1.19-8.55l.06-48.9c0-3.34-1.11-6.72-.17-10.1.42-1.5-.13-2.78-.11-3.85.05-1.94-.46-3.56-1.45-5.25-2.86-4.89-2.27-5.91-1.05-3.87l.82,1.37c1.07,1.8,1.72,3.52,2.9,5.7,2.1-.93,2.82-2.73,4.63-4.09l1.7-1.28c1.77-1.33-6.02-9.32-11.82-11.47-3.01-1.12-6.96.8-9.32,2.53l7.28,6.02c.21.18.42.67.51.87.07.16-.07.44-.53.31-.41-.45-1.41-.82-1.76-1.26-3.79-4.72-10.88-6.29-5.4-7.53-.76-.7-1.36-.39-1.79-.3-.27.06-.7-.43-.34-.85,2.14.45,4.48-.66,6.96-.9,2.25-.23,4.4.01,6.03-2.06-1.93-.58-3.87-.68-5.23-.13.06-.4.11-.76.34-.8l1.54-.27,3.18.4c1.86.23,3.63.2,5.13-1.39,1.18-1.26.59-3.69.56-5.4-.03-1.58,1.08-4.85-.83-5.76-.74-1.4-1.98-1.19-3.59-1.35l-6.71-.67-42.08.21-18.12.75c-2.25.09-4.29.43-6.4.58-1.41,0-2.88.51-4.67,1.18.33,4.34-1.45,7.3,1,10.74,1.2-.7,1.77.21,2.13.12s1.13-.91,1.47-.06l53.58.06c1.37-1.21,3.11-.46,4.31-.61l.04.76c-.63-.46-1.69,0-2.25.32l-33.75.46c-5.96.08-11.67.39-17.64-.09-2.2-.18-4.43-.55-6.93.05,2.93.86,5.73,1.13,8.92,1.38l-.28,1.39-5.14-.97c-.52-.1-.4,2.03.28,2.13s1.5-.17,2.09-.28l5.98.66,19.15.36c0,.26.11.56-.13,1.23l-15.09-.34-10.15-.4c-1.78-.07-2.81.07-4.44,1.12-4.01,2.58-7.9,5.47-9.93,9.36-.27.52-.01,1.66.65,1.79l10.87,2.16-.08.64c-.75-.32-2.06-.24-3.41-.2l.24,67.5c.01,3.64-.25,7.53,2.24,10.3,4.08,4.53,10.8,6.13,16.87,6.63l7.96.66,26.29.12,3.94-.83c1.56.69,10.8-.2,12.3-2.14.82.23,1.31.02,2.28.22-3.4,2.54-7.67,3.08-12,3.24l-16.65.6c-3.02.11-5.72.1-8.76,0l-14.27-.49c-7.41-.95-14.68-2.54-19.49-7.77-1.99-4.23-2.21-8.59-2.21-13.59v-63.73c0-.73-2.39-1.45-2.7-.89l.28,74.78c.02,6.23,4.61,9.78,9.83,12.05,5.99,2.61,12.49,3.26,19.5,3.39l16.81.31c8.87.16,17.32-.23,25.77-2.23,8.76-2.07,13.05-7.19,15.42-14.37l-.13-73.78,1.24-.22.23,13.8.07,58.47c0,6.53-4.74,12.31-10.91,15.34-5.61,2.75-12.08,3.84-18.5,3.88l-30.64.16c-6.2.03-12.1-.93-17.56-2.69-8.83-2.84-12.91-9.16-12.89-17.56l.12-72.06c-1.5-.32-2.42-.51-3.06-.89-4.43-2.61,5.05-10.56,11.65-14.78-2.99-1.63-5.92-4.45-5.9-7.24l.04-8.7,6.02-1.93,28.31-1.03,34.61.09,11.73.44c2.34.09,4.54,1.63,4.49,3.76l-.24,9.82c-.08,3.17-9.12,2.53-4.2,5.89,3.36,2.3,6.1,5.07,8.69,7.99,2.13,2.4-1.92,5.39-4.97,8.38Z"/>
      <path class="cls-10" d="M93.17,109.21c-2.37,7.18-6.66,12.3-15.42,14.37-8.45,2-16.9,2.39-25.77,2.23l-16.81-.31c-7.02-.13-13.51-.78-19.5-3.39l.6-2.51c-2.31-.14-3.14-1.79-4.62-2.95l-1.72-1.34c-.61-.47-.74-1.56.53-1.83,4.82,5.23,12.08,6.82,19.49,7.77l14.27.49c3.04.1,5.73.11,8.76,0l16.65-.6c4.33-.15,8.59-.69,12-3.24-.96-.2-1.45.01-2.28-.22,1.2-1.13,9.35-3.23,9.39-11.28l.33-67.72c.19-.87,1.76-1.79,2.3-2.31.25.07.93.26.92.95l-.03,69.16c-.75.59-.56,1.73-.38,2.23.12.35,1.11.48,1.29.49Z"/>
      <path class="cls-9" d="M12.92,35.66c2.66,1.13,5.63.8,8.47,1.27,5.61.92,11.65,1.98,17.59.08,8.28,1.91,17.18,3.61,26.49,2.41,1.68-.24,3.13-.61,4.44-1.41l1.92,1.71c-.4.83.68,2.12.86,3.05l1.36,6.76c1.36,16.92,2.04,33.46.6,50.36l-.42,4.95c-.31,3.63-5.46,12.95-11.25,12.78.25,2.49,2.61,1.58,4.07,2.22l-3.94.83-26.29-.12-7.96-.66c-6.06-.5-12.79-2.1-16.87-6.63-2.49-2.77-2.23-6.66-2.24-10.3l-.24-67.5c1.35-.04,2.66-.12,3.41.2ZM19.72,47.63c3.25.57,6.04-2.43,5.84-5.06-.21-2.86-3.23-5.31-6.21-4.55-3.16.8-4.77,2.4-4.56,5.08.18,2.25,1.39,3.9,4.93,4.52ZM18.81,103.74l.57-19.4.48-29.91c.03-1.69-5.28-1.72-5.34.2l-1.43,47.5c2.19.11,3.25.72,5.73,1.61Z"/>
      <path class="cls-27" d="M72.16,19.3c-.36.41.08.9.34.85.42-.09,1.03-.4,1.79.3-5.48,1.25,1.6,2.81,5.4,7.53-.58.64-.66.97-.57,1.49.09.56.51.77.72,1.28l3.04,7.3c.86.94,3.7.54,4.89.33-.03,1.07.52,2.35.11,3.85-.94,3.38.18,6.76.17,10.1l-.06,48.9c0,2.73-.26,5.85-1.19,8.55-1.72,4.99-7.06,6.97-12.44,8.41,1.88,1.46,3.67-.86,5-.49-1.5,1.95-10.74,2.83-12.3,2.14-1.45-.64-3.82.27-4.07-2.22,5.78.17,10.94-9.15,11.25-12.78l.42-4.95c1.44-16.89.76-33.44-.6-50.36l-1.36-6.76c-.19-.93-1.26-2.22-.86-3.05,1.02-.55,1.94.71,2.56,1.03,3.86.65,8.44.7,11.98-.89-4.04-.21-7.15,1.39-11.38,0,5.3-3.98.86-13.52-4.72-18.14-.31,1.21.58,1.94,1.09,2.42-.46.01-.84.03-1.39.27-.93-1.32-3.03-1.81-2.46-3.39.15-.4.97-.56,1.5-.26l1,.58c.24-1.14-.44-1.49-.79-2.19.97-.7,2.16-.2,2.94.14Z"/>
      <path class="cls-23" d="M12.94,2.5l20.78.06,45.82-.36,2.15.11-.1,10.41-.57,1.22c-4.74.61-8.72-.2-10.25,0-1.2.15-2.94-.6-4.31.61l-53.58-.06c-.34-.85-1.11-.02-1.47.06s-.93-.82-2.13-.12c-2.46-3.44-.67-6.4-1-10.74,1.79-.67,3.27-1.18,4.67-1.18Z"/>
      <path class="cls-3" d="M42.6,20.42c6.2.63,12.61.08,19.48.18l-3.6,5.21c-1.58,1-3.31,2.59-3.91,4.86.61.32,1.63.6,1.9,1.23-.29.79-1.64,2.29-.36,3.01.94.52.54,2.15.58,2.98-.16.03-.49-.11-.67-.04.04-.29.09-.67-.02-.9-.18-.38-.88-.23-1.28-.32l-10.14-2.36-5.22-.72c-1.02,2.39-2.18,3.69-4.83,3.61l-5.78-.17c-3.21-.09-12.38-1.31-15.76-1.99l-10.87-2.16c-.66-.13-.92-1.27-.65-1.79,4.42-1.28,7.55-5.85,12.94-8.96.09-.29.35-.94.92-.7.27.11.72-.51.51-.82l10.15.4,15.09.34c.25-.66.14-.96.13-1.23.41-.21,1.16-.24,1.37.31Z"/>
      <path class="cls-17" d="M10.47,113.48c-1.27.27-1.14,1.36-.53,1.83l1.72,1.34c1.48,1.16,2.31,2.81,4.62,2.95l-.6,2.51c-5.22-2.27-9.81-5.82-9.83-12.05l-.28-74.78c.31-.56,2.69.16,2.69.89v63.73c0,4.99.23,9.36,2.22,13.59Z"/>
      <path class="cls-12" d="M86.32,33.14c-.42.18-.82.37-1.11.33-.38-.06-.62-.78-.9-1.09l-2.86-3.13c.46.14.6-.15.53-.31-.09-.21-.3-.7-.51-.87l-7.28-6.02c2.36-1.73,6.31-3.65,9.32-2.53,5.8,2.15,13.58,10.15,11.82,11.47l-1.7,1.28c-1.81,1.36-2.53,3.16-4.63,4.09-1.18-2.18-1.82-3.9-2.9-5.7l-.82-1.37c-1.22-2.04-1.81-1.03,1.05,3.87Z"/>
      <path class="cls-1" d="M69.22,19.16c.35.71,1.03,1.06.79,2.19l-1-.58c-.53-.31-1.35-.14-1.5.26-.58,1.58,1.52,2.07,2.46,3.39,2.7,3.82,2.73,8.91,1.43,13.46.25.76,2.22,1.28,2.85.92,3.72-2.17,1.25-10.75-2.89-14.65-.51-.48-1.39-1.21-1.09-2.42,5.58,4.61,10.02,14.16,4.72,18.14,4.22,1.38,7.33-.21,11.38,0-3.54,1.59-8.12,1.54-11.98.89-.62-.32-1.53-1.59-2.56-1.03l-1.92-1.71c-1.31.8-2.76,1.17-4.44,1.41-9.31,1.2-18.22-.5-26.49-2.41-5.94,1.9-11.98.85-17.59-.08-2.84-.47-5.81-.14-8.47-1.27l.08-.64c3.39.67,12.55,1.89,15.76,1.99l5.78.17c2.65.08,3.81-1.22,4.83-3.61l5.22.72,10.14,2.36c.4.09,1.09-.06,1.28.32.11.23.07.61.02.9-1.36.52-2.77-.84-3.91-1.06-1.75-.35-3.01-.05-4.18-.56-2.58-1.13-7.7-2.2-8.86-.41l7.47,2c1.15.31,2.29.35,3.79.44l7.57.44c1.31.08,2.3.52,4.77-.36-1.25-3.78.01-7.46,1.42-11.55l1.94-5.63,1.44-1.65c.5.02,1.32-.04,1.75-.35ZM64.35,38.37c1.34.28,2.17-.27,2.93-.85-.51-1.23,1.54-2.05,3.13-1.85,1.42-4.12.93-8.98-3.46-11.96l-3.29,7.06c-.89,1.92-.31,4.53,0,6.51,1.57-.64,2.34.5.68,1.08Z"/>
      <path class="cls-18" d="M70.8,14.69c1.22.9,2.99.39,4.78.55.32.11.28,1.3.22,1.18-2.86-.25-5.5.4-6.99,1.83-.47-.02-.96-.07-1.68,0-.53.05-.78,1.26.34,1.27l-1.44,1.65c-.76.13-1.31-.11-2.16-.54.55-.65,1.54-1.07,1.48-1.65-.08-.83-.74-2.34-1.8-2.28l-8.6.54c1.01,2.01,2.76.64,3.63.57,1.83-.14,3.73.3,5.14.1.4-.06.82,1.3.16,1.67-.33.18-1.23.93-1.22-.5-3.37.71-6.84.95-10.37.96l-.47-.88c-.11-.17.13-.62.34-.68.43-.03,1.32-.04,1.84-.78l-32.06-.1c-.37-.82-1.14-.75-1.56-.32-.23.23-.7.48-.67.96l-.84-.04.28-1.39c-3.19-.25-5.99-.52-8.92-1.38,2.5-.6,4.73-.22,6.93-.05,5.97.48,11.67.17,17.64.09l33.75-.46c.56-.33,1.62-.78,2.25-.32Z"/>
      <path class="cls-6" d="M89.84,2.98c1.91.91.8,4.18.83,5.76.03,1.71.62,4.15-.56,5.4-1.5,1.6-3.27,1.63-5.13,1.39l-3.18-.4c-.3.12-.73-.02-.8-.23-.09-.27-.13-.67.01-.97l.57-1.22.1-10.41c2.52.13,5.7-.5,8.16.67Z"/>
      <path class="cls-14" d="M79.55.97v1.23s-45.84.36-45.84.36l-20.78-.06c2.11-.16,4.15-.49,6.4-.58l18.12-.75,42.08-.21Z"/>
      <path class="cls-8" d="M18.87,18.2l.84.04c2.48.11,4.96.2,7.64.34l10.18.52c5.46,1.39,9.9-1.53,14.63-.62-.2.06-.45.51-.34.68l.47.88-9.7.39c-.22-.55-.97-.52-1.37-.31l-19.15-.36-5.98-.66c-.58.11-1.41.39-2.09.28s-.8-2.23-.28-2.13l5.14.97Z"/>
      <path class="cls-11" d="M81.45,29.24l2.86,3.13c.28.31.52,1.03.9,1.09.29.04.69-.14,1.11-.33.99,1.69,1.5,3.3,1.45,5.25-1.2.21-4.04.61-4.89-.33l-3.04-7.3c-.21-.51-.63-.73-.72-1.28-.09-.52-.01-.85.57-1.49.35.44,1.35.81,1.76,1.26Z"/>
      <path class="cls-25" d="M15.85,20.59c.2.3-.24.93-.51.82-.57-.24-.83.42-.92.7-5.39,3.11-8.52,7.67-12.94,8.96,2.03-3.89,5.93-6.77,9.93-9.36,1.64-1.06,2.66-1.19,4.44-1.12Z"/>
      <path class="cls-16" d="M72.16,19.3c-.78-.34-1.97-.85-2.94-.14-.43.31-1.25.37-1.75.35.28-.67.89-.87,1.34-1.26,1.56.07,9.12-1.25,11.12-2.05,1.36-.54,3.29-.45,5.23.13-1.63,2.08-3.78,1.84-6.03,2.06-2.47.25-4.81,1.35-6.96.9Z"/>
      <path class="cls-28" d="M81.01,13.94c-.14.3-.1.7-.01.97.07.21.5.35.8.23l-1.54.27c-.24.04-.29.4-.34.8-1.99.8-9.56,2.12-11.12,2.05,1.5-1.44,4.14-2.08,6.99-1.83.06.12.1-1.08-.22-1.18-1.79-.16-3.56.35-4.78-.55l-.04-.76c1.53-.19,5.52.61,10.25,0Z"/>
      <path class="cls-19" d="M89.84,2.98c-2.46-1.17-5.64-.53-8.16-.67l-2.15-.11V.97s6.72.67,6.72.67c1.61.16,2.85-.06,3.59,1.35Z"/>
      <path class="cls-26" d="M18.81,103.74c-2.48-.89-3.53-1.5-5.73-1.61l1.43-47.5c.06-1.91,5.37-1.89,5.34-.2l-.48,29.91-.57,19.4Z"/>
      <path class="cls-4" d="M19.72,47.63c-3.54-.62-4.75-2.27-4.93-4.52-.21-2.69,1.4-4.28,4.56-5.08,2.98-.76,6,1.69,6.21,4.55.19,2.62-2.59,5.63-5.84,5.06Z"/>
      <path class="cls-2" d="M71.36,24.15c4.14,3.89,6.61,12.48,2.89,14.65-.62.36-2.6-.16-2.85-.92,1.3-4.55,1.27-9.64-1.43-13.46.55-.24.92-.26,1.39-.27Z"/>
      <path class="cls-20" d="M63.87,20.62c-4.69,5.5-4.54,11.09-6.23,17.11l-.95.16c-.05-.83.35-2.46-.58-2.98-1.28-.71.07-2.22.36-3.01l2.02-6.09,3.6-5.21c-6.88-.1-13.29.45-19.48-.18l9.7-.39c3.52,0,7-.25,10.37-.96,0,1.43.89.68,1.22.5.66-.37.24-1.72-.16-1.67-1.41.2-3.31-.24-5.14-.1-.87.07-2.63,1.44-3.63-.57l8.6-.54c1.06-.07,1.72,1.45,1.8,2.28.05.58-.93,1.01-1.48,1.65Z"/>
      <path class="cls-7" d="M56.02,37.86c.18-.07.5.07.67.04l.95-.16c.25-.04.52.5.25.97l-7.57-.44c-1.5-.09-2.64-.13-3.79-.44.22-.73.99-1.07,1.39-1.59,1.17.51,2.43.21,4.18.56,1.14.23,2.55,1.58,3.91,1.06Z"/>
      <path class="cls-21" d="M58.48,25.82l-2.02,6.09c-.27-.63-1.29-.91-1.9-1.23.61-2.28,2.33-3.87,3.91-4.86Z"/>
      <path class="cls-15" d="M64.35,38.37c1.65-.59.89-1.73-.68-1.08-.31-1.97-.9-4.59,0-6.51l3.29-7.06c4.39,2.97,4.88,7.83,3.46,11.96-1.59-.21-3.64.62-3.13,1.85-.77.58-1.59,1.13-2.93.85Z"/>
      <path class="cls-24" d="M66.02,21.16l-1.94,5.63c-1.41,4.09-2.67,7.77-1.42,11.55-2.47.88-3.46.44-4.77.36.27-.47,0-1.01-.25-.97,1.68-6.02,1.54-11.61,6.23-17.11.85.43,1.39.67,2.16.54Z"/>
      <path class="cls-5" d="M47.92,36.23c-.4.52-1.18.86-1.39,1.59l-7.47-2c1.17-1.79,6.29-.73,8.86.41Z"/>
      <path class="cls-13" d="M52.17,18.48c-4.73-.91-9.17,2.01-14.63.62l-10.18-.52c-2.69-.14-5.16-.24-7.64-.34-.03-.48.44-.72.67-.96.42-.43,1.18-.51,1.56.32l32.06.1c-.52.75-1.41.75-1.84.78Z"/>
      <path class="cls-28" d="M68.8,18.25c-.45.4-1.06.59-1.34,1.26-1.12-.01-.87-1.22-.34-1.27.72-.06,1.21-.01,1.68,0Z"/>
    </g>
  </g>
</svg>