<?xml version="1.0" encoding="UTF-8"?>
<svg id="Layer_2" data-name="Layer 2" xmlns="http://www.w3.org/2000/svg" viewBox="0 0 98.47 91.45">
  <defs>
    <style>
      .cls-1 {
        fill: #ddd851;
      }

      .cls-2 {
        fill: #c0b732;
      }

      .cls-3 {
        fill: #c4bd38;
      }

      .cls-4 {
        fill: #cac53d;
      }

      .cls-5 {
        fill: #596e1a;
      }

      .cls-6 {
        fill: #ded854;
      }

      .cls-7 {
        fill: #c3bc34;
      }

      .cls-8 {
        fill: #beb631;
      }

      .cls-9 {
        fill: #5c7119;
      }

      .cls-10 {
        fill: #182019;
      }

      .cls-11 {
        fill: #7f9429;
      }

      .cls-12 {
        fill: #c2bb35;
      }

      .cls-13 {
        fill: #c5bf37;
      }

      .cls-14 {
        fill: #d0ce4b;
      }

      .cls-15 {
        fill: #bfb833;
      }

      .cls-16 {
        fill: #aeb437;
      }

      .cls-17 {
        fill: #c0b933;
      }

      .cls-18 {
        fill: #bfb630;
      }

      .cls-19 {
        fill: #c5c341;
      }

      .cls-20 {
        fill: #bfc13f;
      }
    </style>
  </defs>
  <g id="Layer_1-2" data-name="Layer 1">
    <g>
      <path class="cls-10" d="M52.7,90.58l-6.06.6c-12.97,1.28-37.78-1.87-44.78-12.3-2.81-4.19-2.33-11.35.71-15.28,4.24-5.48,11.21-8.12,17.88-9.42l10.18-1.98c-5.77-5.71-7.41-13.47-5.35-20.93,2.34-8.53,8.49-15.29,15.91-20.91C47.93,5.24,55.48,1.99,64.01.44c14.62-2.65,32.22,6.85,34.24,20.96,2.47,17.25-16.66,31.39-34.63,36.87l7.29,2.92c8.36,3.35,7.54,16.34.24,22.7-4.93,4.29-11.82,6.02-18.46,6.68ZM46.5,57.82c9.7,1.83,19.59-.9,27.95-5.27,11.86-6.2,23.02-16.22,22.69-28.74-.23-8.57-6.43-15.93-14.88-19.64-3.28-1.44-6.32-3.04-10.25-2.02-1.44-.86-3.31-.92-5.41-.63-7.48.56-21.85,7.19-21.22,7.94.14.16.7.55.44.73l-6.94,4.9c-12.11,8.56-17.54,23.89-9.09,34,3.97,4.76,10.4,7.53,16.71,8.72ZM13.8,59.09c-3.35.5-6.23,2.4-8.88,3.94-3.18,1.85-3.35,4.84-3.52,8.11-.26,5.11,1.4,8.61,6.02,11.41,15.17,9.22,47.52,10.71,61.75,1.28,5.42-3.59,7.2-10.16,6-15.83-1.28-6.04-10.18-8.09-17.36-8.36l-10.26-.38-8.4-2.22-6.36-3.6c-7.1.95-14.04,2.23-20.48,4.67.84.04,1.39.25,1.49.97Z"/>
      <path class="cls-9" d="M46.5,57.82c-6.31-1.19-12.73-3.96-16.71-8.72-8.44-10.12-3.01-25.44,9.09-34l6.94-4.9c.25-.18-.31-.57-.44-.73-.63-.75,13.74-7.38,21.22-7.94,2.1-.3,3.97-.23,5.41.63,3.93-1.02,6.97.59,10.25,2.02,8.45,3.71,14.65,11.06,14.88,19.64.33,12.52-10.83,22.54-22.69,28.74-8.36,4.37-18.25,7.11-27.95,5.27ZM74.73,4.5c-11.02.3-21.71,3.87-30.84,10.28-4.13,2.91-9.3,4.74-11.17,9.8l-2.2,5.94c-2.17,5.84-.05,10.73,3.8,14.98,1.63,1.8,1.78,2.51,3.98,3.3,9.06,3.27,19.09,1.54,27.16-3.88l7.34-4.93c4.8-3.22,9.41-7.16,12.3-12.13,4.44-7.61,6.31-14.76-2.95-21.2-1.23-.86-2.28-2.54-4.48-2.75-.81-.08-2.54-1.18-2.93.6Z"/>
      <path class="cls-5" d="M4.92,63.03l.79,7.44c11.88,8.55,29.13,10.23,44.48,7.81,1.62-.12,3.7-.93,5.46-1.37.1-.12.05-1.71.62-1.86l3.63-.56c2.32-.36,3-.92,4.29-1.79,1.22-.82,2.91-1.62,3.3-3.13s-.61-3.5-2.31-4.42c-5.33-2.88-11.44-2.73-17.31-3.07-2.46-.14-5.26-.8-7.25-1.79-.53-.69-1.52-1.51-2.21-1.82.11-.6.51-.94.74-1.43l8.4,2.22,10.26.38c7.18.27,16.08,2.31,17.36,8.36,1.2,5.67-.58,12.24-6,15.83-14.24,9.43-46.58,7.94-61.75-1.28-4.62-2.81-6.28-6.3-6.02-11.41.17-3.27.34-6.26,3.52-8.11Z"/>
      <path class="cls-1" d="M33.76,59.13c1.93.99,3.93,1.6,6.58,2.53-.85,2.18,1.1,2.59,1.85,3.52,1.75,2.19,2.97,3.31,5.54,4.58,3.36,1.66,5.5,5.39,8.54,5.29-.56.15-.51,1.74-.62,1.86-1.75.43-3.84,1.25-5.46,1.37-15.35,2.42-32.6.74-44.48-7.81l-.79-7.44c2.64-1.53,5.53-3.43,8.88-3.94l16.9-2.54c.5,1.23,1.84,1.95,3.06,2.58ZM17.59,67.68c3.54-.38,6.96-.09,9.99-1.61.62-.31.03-2.43-.63-2.67-3.71-.78-7.25.7-10.6,1.84-1.15.39-2.09.4-2.71.75-1.1.64-1.4,1.84-.54,2.5,1.48,1.11,3.29-.68,4.47-.81Z"/>
      <path class="cls-11" d="M39.15,57.05c-.23.48-.63.83-.74,1.43l-4.11-1.86c-.37.88.03,1.47,0,1.8-.02.21-.16.23-.55.71-1.22-.63-2.56-1.35-3.06-2.58l-16.9,2.54c-.11-.72-.66-.93-1.49-.97,6.44-2.44,13.38-3.72,20.48-4.67l6.36,3.6Z"/>
      <path class="cls-6" d="M85.09,27.85c-2.9,4.97-7.5,8.91-12.3,12.13-.81-4.75-3.33.13-8.79,1.67-7.03,1.98-11.88,8.08-23.94,5.5-.4.84-1.04,1.4-1.77,1.65-2.19-.79-2.34-1.49-3.98-3.3-3.85-4.25-5.97-9.14-3.8-14.98l2.2-5.94c1.88-5.05,7.04-6.89,11.17-9.8,9.13-6.41,19.81-9.98,30.84-10.28.45.19.61.44.69.75.12.45-.3,1.16-1.08,1.37.11,1.06.33,2.14.76,2.91l3.7-.81,1.16,1.29c.1.11-.82.69.1,1.1.79.36,1.71.92,2.17,1.33,1.26,1.14.25,1.75-.06,2.86-.62,2.2-.4,10.24-.01,10.79.24.34,1.31.42,1.7.74-1.01,1.45.67,1.53,1.24,1.01ZM58.21,19.59c-.18-1.3,1.54-4.27-.36-4.94-1.43-.48-1.94,2.47-2.22,3.48-.72,2.6-1.97,5.33-.49,8.03,2.02-1.85,3.43-4.02,3.07-6.57ZM69.18,15.12c-1.72-1.88-6.61,1.99-6.14,4.11,2.07,1.01,7.16-1.82,6.14-4.11ZM75.98,20.03c1.26-.39,1.23-1.72,1.25-2.4.02-.7-.8-2.21-1.66-1.96-3.3,3.5-8.33,6.91-12.38,8.61,5.74.85,8.66-2.97,12.79-4.25ZM50.81,24.37c-1.45-5.48-6-7.95-7-6.29-.24.4-.04,1.32.46,1.76l2.82,2.45c.61,1.24,1.74,2.65,3.73,2.09ZM45.48,26.47c-2.12-1.85-4.08-2.64-6.57-3.05-.62,1.69-.74,3.12,0,4.55,2.48-1.48,3.78-1.56,6.57-1.5ZM41.55,35.33c5.11-5.36,11.32-1.42,10.46-4.37-.16-.56-.38-.82-1.36-1.28-5.43.06-10.64,2.67-13.69,6.94-.52.73-.55,2.19.28,2.53,1.8-.78,3.05-2.49,4.31-3.82ZM62.46,32.34c2.57,1.96,5.4,2.92,7.95.85-3.7-3.46-10.24-4.77-11.62-2.8-.27.39.15,6.97,4.44,7.57.68.1,1.43-.61,1.52-.95.36-1.42-3.23-3.14-2.28-4.68ZM43.32,42.48c3.88-1.86,6.34-5.06,5.84-9.03l-5.84,9.03ZM55.66,38.37c-.51-1.68-.39-3.68-2.09-4.74-.78,1.84-1.59,3.16-1.78,5.08-.08.8,1.47,2.47,2.24,2.19,1.11-.41,2.07-1.06,1.63-2.52Z"/>
      <path class="cls-14" d="M85.09,27.85c-.57.52-2.25.44-1.24-1.01-.39-.32-1.47-.41-1.7-.74-.39-.55-.6-8.6.01-10.79.31-1.11,1.32-1.72.06-2.86-.45-.41-1.37-.97-2.17-1.33-.92-.41,0-.99-.1-1.1l-1.16-1.29-3.7.81c-.43-.77-.66-1.86-.76-2.91.78-.21,1.2-.92,1.08-1.37-.08-.32-.24-.57-.69-.75.39-1.79,2.12-.68,2.93-.6,2.2.21,3.25,1.9,4.48,2.75,9.26,6.44,7.39,13.59,2.95,21.2Z"/>
      <path class="cls-19" d="M72.79,39.98l-7.34,4.93c-8.07,5.42-18.09,7.15-27.16,3.88.73-.25,1.37-.81,1.77-1.65,12.06,2.58,16.91-3.52,23.94-5.5,5.45-1.53,7.98-6.42,8.79-1.67Z"/>
      <path class="cls-20" d="M38.41,58.48c.69.31,1.68,1.12,2.21,1.82,1.99.99,4.78,1.65,7.25,1.79-.94,4.93,7.7,2.96,9.97,8.98,1.84-.25,3.36-.87,4.88.16.18.54.46,1.47,1.47,1.47-1.29.87-1.98,1.43-4.29,1.79l-3.63.56c-3.03.1-5.18-3.63-8.54-5.29-2.57-1.27-3.78-2.38-5.54-4.58-.75-.93-2.69-1.35-1.85-3.52-2.65-.93-4.65-1.54-6.58-2.53.39-.49.53-.5.55-.71.03-.33-.38-.92,0-1.8l4.11,1.86Z"/>
      <path class="cls-16" d="M64.19,72.7c-1.01,0-1.29-.93-1.47-1.47-1.52-1.03-3.04-.41-4.88-.16-2.28-6.02-10.91-4.05-9.97-8.98,5.88.33,11.98.18,17.31,3.07,1.7.92,2.71,2.89,2.31,4.42s-2.08,2.3-3.3,3.13Z"/>
      <path class="cls-4" d="M17.59,67.68c-1.19.13-3,1.93-4.47.81-.87-.65-.56-1.86.54-2.5.62-.36,1.56-.36,2.71-.75,3.35-1.14,6.89-2.62,10.6-1.84.66.24,1.25,2.36.63,2.67-3.03,1.52-6.45,1.23-9.99,1.61Z"/>
      <path class="cls-12" d="M62.46,32.34c-.95,1.54,2.64,3.26,2.28,4.68-.09.34-.84,1.04-1.52.95-4.29-.6-4.71-7.18-4.44-7.57,1.38-1.97,7.93-.66,11.62,2.8-2.54,2.07-5.38,1.11-7.95-.85Z"/>
      <path class="cls-15" d="M41.55,35.33c-1.26,1.33-2.51,3.04-4.31,3.82-.83-.34-.81-1.8-.28-2.53,3.04-4.27,8.25-6.88,13.69-6.94.98.47,1.2.73,1.36,1.28.86,2.95-5.35-1-10.46,4.37Z"/>
      <path class="cls-3" d="M75.98,20.03c-4.13,1.27-7.05,5.1-12.79,4.25,4.05-1.7,9.08-5.11,12.38-8.61.87-.25,1.69,1.26,1.66,1.96-.02.68.01,2.01-1.25,2.4Z"/>
      <path class="cls-17" d="M58.21,19.59c.36,2.55-1.05,4.73-3.07,6.57-1.48-2.69-.23-5.43.49-8.03.28-1.01.8-3.96,2.22-3.48,1.9.67.18,3.64.36,4.94Z"/>
      <path class="cls-7" d="M50.81,24.37c-1.98.56-3.12-.85-3.73-2.09l-2.82-2.45c-.51-.44-.7-1.36-.46-1.76,1.01-1.66,5.55.81,7,6.29Z"/>
      <path class="cls-18" d="M55.66,38.37c.44,1.46-.52,2.11-1.63,2.52-.77.29-2.32-1.38-2.24-2.19.19-1.92.99-3.24,1.78-5.08,1.71,1.06,1.58,3.06,2.09,4.74Z"/>
      <path class="cls-8" d="M69.18,15.12c1.02,2.29-4.07,5.12-6.14,4.11-.47-2.12,4.42-5.99,6.14-4.11Z"/>
      <path class="cls-13" d="M45.48,26.47c-2.8-.06-4.09.02-6.57,1.5-.75-1.43-.63-2.86,0-4.55,2.5.41,4.45,1.2,6.57,3.05Z"/>
      <path class="cls-2" d="M43.32,42.48l5.84-9.03c.5,3.97-1.96,7.17-5.84,9.03Z"/>
    </g>
  </g>
</svg>