<?xml version="1.0" encoding="UTF-8"?>
<svg id="Layer_2" data-name="Layer 2" xmlns="http://www.w3.org/2000/svg" viewBox="0 0 98.04 102.04">
  <defs>
    <style>
      .cls-1 {
        fill: #120f0f;
      }

      .cls-2 {
        fill: #e59043;
      }

      .cls-3 {
        fill: #ec9849;
      }

      .cls-4 {
        fill: #ca6b29;
      }

      .cls-5 {
        fill: #ee9c47;
      }

      .cls-6 {
        fill: #130f0f;
      }

      .cls-7 {
        fill: #f79f4d;
      }

      .cls-8 {
        fill: #d26a28;
      }

      .cls-9 {
        fill: #e1893e;
      }
    </style>
  </defs>
  <g id="Layer_1-2" data-name="Layer 1">
    <g>
      <path class="cls-6" d="M53.95,37c1.74,10.94-2.16,21.36-13.93,22.07-10.5.63-20.3-2.34-28.77-7.94C0,43.7-3.38,30.35,3.71,19.12,10.01,9.14,21.25,2.42,33.64.56c7.67-1.15,24.97-.84,26.93,3.94,1.75,4.24-2.36,8.22-4.88,11.17,2.15,7.08,2.55,15.49-1.74,21.34ZM1.98,26.09c-.86,3.16-.51,7.4.19,10.71,2.68,12.75,22.04,21.87,37.57,21.02,7.59-.42,11.87-5.48,12.62-11.92.35-2.98.92-6.24.23-9.49,1.64-1.32,2.36-3.08,2.7-5.16,1.25-7.73,1.21-16.3-5.76-19.91,2.57,8.09,1.79,15.48-5.41,19.64-.73.42-1.55.58-3,.82,2.3,4.45,3.24,9.45,1.07,13.89-.44.9-.9,1.86-2.04,2.56-.03-1.43.81-2.15,1.06-3.13,1.38-5.32,1-13.6-4.12-13.9,2.89-.38,6.09-.62,8.2-2.74,6.77-6.78,3.3-16.83,2.5-16.92l-4.45-.5c4.22-1.62,8.62-.78,11.57,3.03,2.79-1.75,5.52-6.34,4.14-9.23-2.58-3.35-8.84-3-12.53-3.72s-6.4-.11-9.81.21C21.24,2.8,5.48,13.21,1.98,26.09Z"/>
      <path class="cls-1" d="M46.1,97.21c-5.1-2.94-14-11.63-11.94-16.87,6.5-1.2,12.48-2.63,13.82-8.73,1.95-8.91-1.26-13.01,4.68-13.3l8.72-.43c-2.97-4.62-2.65-13.36,1.18-15.62,2.55-1.51,8.04,4.84,13.81,5.83,4.24.73,7.72,2.91,10.91,5.52,7.87,6.44,11.89,15.41,10.48,25.39-1.4,9.91-9.69,17.73-19.94,20.91-10.86,3.37-21.9,2.96-31.72-2.69ZM51.86,87.97c-3.24,1.71-10.01,0-12.4-2.33,2.76.77,6.69,2.77,9.73,2.3,6.92-3.81,8.61-10.75,7.92-17.48,2.78,1.4,5.8,1.6,7.6-.52,2.25-2.65,2.56-8.32-.43-10.78l-13.29.18c-2.23,3.88,1.24,9.94-3.61,16.44-2.72,3.64-7.29,4.86-12.16,5.38-.23,1.58-.1,2.97.59,4,5.87,8.9,13.82,14.04,25.4,15.53,4.57.59,9.34-.31,14.01-1.42,10.25-2.43,19.41-9.95,21.08-19.67,1.31-7.64-.91-14.92-5.45-20.56-9.25-11.49-17.22-8.76-22.63-13.42-1.02-.88-3.61-2.41-4.87-2.05-3.77,1.09-3.58,12.15-.72,13.58,2.62,1.31,5.96-.73,9.09-1.09-1.38,2.13-4.31,1.64-6,2.69,3.82,5.16,1.14,12.41-1.74,13.53-1.64.64-3.19.35-5.58-.36.65,6.43-1.7,11.68-6.54,16.03Z"/>
      <path class="cls-7" d="M41.21,45.12c-8.71,3.84-20.14,1.3-29.12-3.9-9.18-5.32-7.66-14.28-8.73-15.16-.3-.24-1.27-.04-1.37.03C5.48,13.21,21.24,2.8,36.73,1.34c3.41-.32,6.23-.92,9.81-.21s9.95.37,12.53,3.72c1.38,2.9-1.35,7.48-4.14,9.23-2.96-3.81-7.35-4.66-11.57-3.03l4.45.5c.8.09,4.27,10.14-2.5,16.92-2.12,2.12-5.31,2.35-8.2,2.74,5.12.3,5.5,8.58,4.12,13.9Z"/>
      <path class="cls-8" d="M41.21,45.12c-.26.98-1.09,1.7-1.06,3.13,1.14-.7,1.6-1.66,2.04-2.56,3.22.26,6.09-.23,9.05-1.56.12,1.12.35,1.56,1.12,1.77-.75,6.44-5.03,11.5-12.62,11.92-15.53.85-34.89-8.27-37.57-21.02-.69-3.31-1.04-7.55-.19-10.71.1-.07,1.07-.27,1.37-.03,1.07.88-.45,9.84,8.73,15.16,8.98,5.2,20.41,7.73,29.12,3.9Z"/>
      <path class="cls-9" d="M52.6,36.4c-.69.43-1.52-.31-.42-.8-2.41-3.36-7.4.28-9.63-3.4l5.01-.13c-.23.89.68.69,1.13,1.03.64.48,1.24-.16.65-.71-.47-.44-1.44-.23-1.79-.33-.44-1.15-2.92.17-3.43-1.09,7.2-4.16,7.98-11.55,5.41-19.64,6.97,3.61,7.02,12.18,5.76,19.91-.34,2.09-1.06,3.85-2.7,5.16Z"/>
      <path class="cls-3" d="M47.55,32.07l-5.01.13c2.23,3.68,7.22.04,9.63,3.4-1.1.49-.27,1.23.42.8.68,3.26.11,6.51-.23,9.49-.77-.21-1.01-.65-1.12-1.77-2.96,1.33-5.83,1.82-9.05,1.56,2.17-4.44,1.23-9.44-1.07-13.89,1.46-.24,2.27-.4,3-.82.51,1.26,2.99-.05,3.43,1.09Z"/>
      <path class="cls-2" d="M90.84,59.05l-1.8.11c.29,3.54,1.74,8.3.46,11.58l-2.45,6.27c-1.39,3.55-4.27,6.42-8.05,7.9-8.61,3.37-18.4,5.06-27.14,3.05,4.84-4.35,7.19-9.6,6.54-16.03,2.39.71,3.94,1,5.58.36,2.88-1.12,5.56-8.37,1.74-13.53,1.7-1.05,4.62-.55,6-2.69-3.13.36-6.47,2.39-9.09,1.09-2.87-1.43-3.05-12.49.72-13.58,1.26-.36,3.85,1.17,4.87,2.05,5.41,4.66,13.37,1.93,22.63,13.42Z"/>
      <path class="cls-4" d="M90.84,59.05c4.54,5.64,6.77,12.92,5.45,20.56-1.67,9.72-10.83,17.24-21.08,19.67-4.67,1.11-9.44,2-14.01,1.42-11.57-1.49-19.53-6.63-25.4-15.53.23-.83.08-1.54.47-2.64l3.18,3.11c2.39,2.34,9.16,4.05,12.4,2.33,8.74,2.01,18.53.32,27.14-3.05,3.78-1.48,6.67-4.35,8.05-7.9l2.45-6.27c1.28-3.28-.17-8.04-.46-11.58l1.8-.11Z"/>
      <path class="cls-5" d="M39.47,85.64l-3.18-3.11c-.4,1.1-.24,1.81-.47,2.64-.68-1.04-.82-2.42-.59-4,4.87-.52,9.44-1.74,12.16-5.38,4.86-6.5,1.38-12.55,3.61-16.44l13.29-.18c2.99,2.46,2.68,8.12.43,10.78-1.79,2.12-4.82,1.91-7.6.52.69,6.73-.99,13.67-7.92,17.48-3.04.47-6.97-1.53-9.73-2.3Z"/>
      <path class="cls-3" d="M47.55,32.07c.34.09,1.32-.11,1.79.33.58.55-.02,1.19-.65.71-.45-.34-1.36-.14-1.13-1.03Z"/>
    </g>
  </g>
</svg>