<?xml version="1.0" encoding="UTF-8"?>
<svg id="Layer_2" data-name="Layer 2" xmlns="http://www.w3.org/2000/svg" viewBox="0 0 167.92 61.08">
  <defs>
    <style>
      .cls-1 {
        fill: #5b6972;
      }

      .cls-2 {
        fill: #909ca3;
      }

      .cls-3 {
        fill: #7caeaf;
      }

      .cls-4 {
        fill: #131616;
      }

      .cls-5 {
        fill: #2e312c;
      }

      .cls-6 {
        fill: #7dadad;
      }

      .cls-7 {
        fill: #505b64;
      }

      .cls-8 {
        fill: #3d4d55;
      }

      .cls-9 {
        fill: #5d6a73;
      }

      .cls-10 {
        fill: #a3b7b7;
      }

      .cls-11 {
        fill: #ccc4b4;
      }

      .cls-12 {
        fill: #cbc3b4;
      }

      .cls-13 {
        fill: #5d707a;
      }

      .cls-14 {
        fill: #969fa3;
      }

      .cls-15 {
        fill: #dbd2bf;
      }

      .cls-16 {
        fill: #5e707b;
      }

      .cls-17 {
        fill: #cbc2b3;
      }

      .cls-18 {
        fill: #567680;
      }

      .cls-19 {
        fill: #c6bfb2;
      }
    </style>
  </defs>
  <g id="Layer_1-2" data-name="Layer 1">
    <g>
      <path class="cls-4" d="M120.35,43.57c-3.95,1.75-6.88-4.01-6.8-9.64-2.31-.34-4.46-.17-6.84.01-.45,5.86,1.11,11.36,5.19,15.52-3.74,2.53-8.19-3.98-9.23-9.85-.25-1.44.01-4.39-1.38-5.15l-10.9.2c-.31,6.06,1.32,11.05,5.42,15.97-8.05.12-9.47-8-10.52-14.9-3-.05-5.12-.1-8,.53l.65,6.94c.84,8.96,5.62,12.11,5.79,13.63.39,3.34-7.81-.75-9.78-11.21l-1.78-9.41-6.93.29c-.08,1.68-.31,3.03-.14,4.45l.71,5.93c1,8.38,6.06,11.63,3.78,12.42-3.17,1.09-6.99-5.12-7.66-9.45l-1.86-12.1c-.8-.08-1.99-.06-3.44.18l-1.56,8.34c-.94,5.01-3.82,9.67-8.26,12.71-3.59,2.45-6.89,2.53-10.98,1.33-13.45-3.96-25.14-11.5-34.23-21.55-3.62-4-.56-9.1,3.66-12.68C17.9,15.33,36.39,6.42,52.73,2.25c9.35-2.39,18.56-3.58,27.74.02,2.25.88,3.91,2.49,3.39,5.14s-3.45,4.25-5.56,5.61c-1.64,5.28-1.64,10.91-.93,16.46l8.07-.75,1.26-9.39c.52-3.84,1.21-8.33,4.87-10.86.67-.46,2.23.25,2.47.67.69,1.19-4.91,11.47-3.36,19.49l10.75-1.17c.38-3.77.76-7.85,2.36-11.34.77-.91,1.57-1.37,2.21-1.11,2.83,1.15-.21,6.47.52,12.65l6.82-.38c.43-4.52.2-8.97,2.76-10.29,1.2-.62,2.54,1.94,1.97,3.24-1.11,2.49-.91,5.05-.53,7.05,4.11.81,5.04-.81,6.97-2.86,6.99-7.43,15.92-12.85,25.24-17.42l8.46-2.78c3.46-1.14,8.22-.52,9.43,1.6,2.23,3.92-9.93,17.99-15.81,24.49,6.43,5.46,18.5,21.41,14.01,23.27-3.14,1.3-7.15.39-10.48-.07-12.85-1.78-24.6-7.77-32.13-17.84-.75-1-1.18-2.1-1.73-2.62-.73-.68-3.1-.77-3.95-.11-.81,3.43.67,7.33,2.79,10.6ZM52.79,15.37c2.13,4.61,2.98,9.63,3.62,14.66l3.69.13.28-7.25,1.24-8.37c-3.22-.34-5.67.1-8.47.03,1.46-.72,3.38-1.33,5.02-1.26l13.37.61c2.68.12,10.27-3.36,11.2-7.5.85-3.74-12.14-6.11-19.7-4.93-9.48,1.48-18.39,3.76-27.4,7.96,5.18-.02,9.36,2.03,12.41,2.5,2.52.38,3.88,1.58,4.74,3.44ZM123.76,27.34c-.59.79-1.52,1.34-1.18,3.22,3.6-.63,6.94-.49,10.46-.13l8.44.85c2.33.23,5.09-.64,7.21.79.53.36,1.32.49,1.78.3.57-.23.8-1.34-.37-1.98,4.67-5.16,9.31-10.17,13.02-16.21,1.61-2.62,3.44-5.54,3.09-8.63-.71-1.02-3.32-.64-4.37-.64s-1.84.01-2.72.25c-9.63,2.53-18.02,7.21-25.77,13.16-3.74,2.87-7.03,5.62-9.59,9.04ZM92.1,48.65c-2.36-6.5-3.31-13.15-2.77-20.02.51-6.49.83-12.7,3.95-18.87-2.09-.44-3.41,1.38-3.91,2.97-2.83,9.07-3.61,19.05-2.08,28.46.46,2.83,1.81,5.85,4.8,7.45ZM11.44,46.27c7.68,5.74,23.79,15.57,32.22,13.02,6.23-1.88,10.1-11.1,10.67-17.97.31-3.78,1.12-7.63.71-11.33-.81-7.49-2.53-16.31-9.83-18.13-1.86-.47-3.89-.93-5.8-.91-2.06.02-4.45-.54-6.27-.08-7.91,1.98-21.73,11.32-28.27,17.27-2.08,1.89-4.63,5.6-3.33,8.03,2.26,4.22,6.25,7.39,9.88,10.1ZM68.51,58.44l-2.31-5.55-1.93-8.33-.02-27.79c.73-.54.68-1.46.3-1.99-1.24-1.72-2.72,1.21-2.73,5.95l-.07,20.76.75,5.99c.53,4.25,2.17,8.53,6.02,10.97ZM77.9,47.9l-1.37-6.99-.42-15.87.4-8.87c.03-.58.71-2.06.1-2.33-2.96-1.28-2.86,5.72-3.26,11.3-.73,10.25.5,26.92,8.28,30.64-1.88-2.89-3.16-4.96-3.73-7.88ZM72.36,19.06c.9-1.43.46-2.84.55-4.28l-7.08-.29c-1.34,5.15-1.24,10.3-.69,15.56l6.96-.51.26-10.48ZM105.38,31.61l.65-13.62c.02-.34,1.02-.79.12-1.49-.28-.21-.5-.72-1.03-.25-.39.35-.82.82-.96,1.34-2.22,8.38-2.46,16.99.56,25.38.68,1.89,1.89,3.76,3.86,4.97-2.43-5.24-3.48-10.32-3.19-16.33ZM116.16,30.28l.7-9.82c.35-4.88-3.35-1.39-2.41,12.72.23,3.41.22,7.26,3.94,9.56-1.9-3.96-2.55-7.91-2.23-12.46ZM90.79,32.38c3.73.94,6.83.32,10.38.53l.27-4.49-8.38.87c-1.24.13-1.82.24-2.41.76-.42.37-.62,2.14.14,2.33ZM120.94,29.99c.49.02.65-1.55-.01-1.72-.58-.15-1.34-.35-2.01.67-.54-.66-2.33-.07-1.02.87-1.28.25-.11,1.59.45.65.32-.54.28-1.16,1.27-1.03.41.05.72.07,1.32.55ZM107.13,30.15c-.53.8-.99,1.66-.54,3.04l6.33-.23c.43-1.2.38-2.48.32-3.47-3.91-1.49-7.95-.25-6.11.66ZM72.19,35.08l-.06-4.31c-2.4-.28-4.82-.24-7.15.58l.39,4.26,6.82-.52ZM151.85,32.49c-.15,1.07-.84,1.37-.82,1.29-4.68-2.02-9.44-1.69-13.94-2.15l-6.62-.68-8.12.1c2.15,5.68,6.28,9.2,11.08,12.56,9.06,6.35,19.87,9.72,32.05,9.38-.39-5.33-3.61-9.41-6.92-13.35-2.19-2.61-3.95-5.32-6.71-7.16Z"/>
      <path class="cls-3" d="M39.42,10.95c-.48,1.05.58,1.68,1.24,2.39,5.22,5.57,6.24,12.14,6.17,19.2-.05,5.3-1.09,10.35-6.34,13.63-2.92,3.92-7.79,6.84-13.28,6.26-4.25-.44-6.99-2.85-10.37-4.96-.81-.5-2.27-.25-2.99-1.66-.2-.38-1.35-.7-1.77-.5-.26.12-.5.52-.64.96-3.62-2.71-7.62-5.88-9.88-10.1-1.3-2.43,1.25-6.14,3.33-8.03,6.54-5.95,20.36-15.29,28.27-17.27,1.83-.46,4.21.11,6.27.08ZM30.25,33.17c3.03-1.09,4.73-4.08,4.7-6.74-.02-2.36-2.65-3.64-4.3-4.12-2.33-.68-4.93-.25-6.17,1.55-1.48,2.15-1.99,4.71-.64,7,.86,1.46,3.35,3.4,6.4,2.31Z"/>
      <path class="cls-18" d="M11.44,46.27c.14-.44.38-.84.64-.96.42-.19,1.57.12,1.77.5.72,1.41,2.18,1.16,2.99,1.66,3.38,2.1,6.12,4.52,10.37,4.96,5.49.57,10.36-2.35,13.28-6.26,5.25-3.28,6.29-8.33,6.34-13.63.07-7.06-.95-13.63-6.17-19.2-.66-.7-1.72-1.34-1.24-2.39,1.91-.02,3.94.44,5.8.91,7.3,1.83,9.01,10.64,9.83,18.13.4,3.71-.4,7.55-.71,11.33-.57,6.87-4.44,16.08-10.67,17.97-8.43,2.54-24.54-7.28-32.22-13.02Z"/>
      <path class="cls-16" d="M151.85,32.49c2.76,1.83,4.52,4.55,6.71,7.16,3.31,3.94,6.54,8.02,6.92,13.35-12.18.34-22.99-3.03-32.05-9.38-4.81-3.37-8.94-6.89-11.08-12.56l8.12-.1,6.62.68c4.5.46,9.26.13,13.94,2.15-.02.08.67-.22.82-1.29ZM133.06,37.44c-.23-1.57-1.62-2.28-2.72-1.34.93.98,1.95,1.24,2.72,1.34Z"/>
      <path class="cls-13" d="M123.76,27.34c.55.44,1.07.44,1.78-.19,9.99-8.92,21.22-15.99,34.03-21.03.48-.19,1.02-.23,1.52-.26.38-.02.72-.42.76-.96,1.05,0,3.66-.38,4.37.64.35,3.09-1.48,6-3.09,8.63-3.71,6.04-8.35,11.06-13.02,16.21,1.17.64.94,1.75.37,1.98-.45.18-1.24.05-1.78-.3-2.13-1.43-4.88-.56-7.21-.79l-8.44-.85c-3.52-.35-6.86-.5-10.46.13-.34-1.88.59-2.43,1.18-3.22Z"/>
      <path class="cls-6" d="M53.14,14.56c.47.46.07.9-.35.81-.86-1.86-2.22-3.05-4.74-3.44-3.05-.46-7.23-2.51-12.41-2.5,9.01-4.2,17.91-6.48,27.4-7.96,7.55-1.18,20.54,1.19,19.7,4.93-.94,4.14-8.53,7.62-11.2,7.5l-13.37-.61c-1.64-.07-3.56.54-5.02,1.26Z"/>
      <path class="cls-19" d="M68.51,58.44c-3.85-2.44-5.49-6.72-6.02-10.97l-.75-5.99.07-20.76c.02-4.74,1.5-7.67,2.73-5.95.38.52.42,1.44-.3,1.99l.02,27.79,1.93,8.33,2.31,5.55Z"/>
      <path class="cls-17" d="M77.9,47.9c.57,2.92,1.86,4.99,3.73,7.88-7.79-3.72-9.01-20.39-8.28-30.64.4-5.59.3-12.58,3.26-11.3.6.26-.08,1.74-.1,2.33l-.4,8.87.42,15.87,1.37,6.99Z"/>
      <path class="cls-11" d="M92.1,48.65c-2.99-1.6-4.34-4.62-4.8-7.45-1.53-9.41-.76-19.39,2.08-28.46.5-1.59,1.82-3.41,3.91-2.97-3.13,6.17-3.44,12.38-3.95,18.87-.54,6.87.41,13.51,2.77,20.02Z"/>
      <path class="cls-10" d="M161.85,4.9c-.04.53-.38.94-.76.96-.5.03-1.04.07-1.52.26-12.81,5.04-24.05,12.11-34.03,21.03-.7.63-1.22.63-1.78.19,2.56-3.42,5.85-6.17,9.59-9.04,7.75-5.94,16.14-10.63,25.77-13.16.88-.23,1.69-.25,2.72-.25Z"/>
      <path class="cls-12" d="M105.38,31.61c-.29,6.01.77,11.09,3.19,16.33-1.97-1.2-3.19-3.08-3.86-4.97-3.01-8.39-2.78-17.01-.56-25.38.14-.52.57-.99.96-1.34.53-.47.76.04,1.03.25.9.7-.1,1.15-.12,1.49l-.65,13.62Z"/>
      <path class="cls-15" d="M116.16,30.28c-.32,4.55.33,8.5,2.23,12.46-3.72-2.3-3.71-6.15-3.94-9.56-.94-14.11,2.76-17.6,2.41-12.72l-.7,9.82Z"/>
      <path class="cls-1" d="M90.79,32.38c-.76-.19-.56-1.97-.14-2.33.59-.51,1.17-.63,2.41-.76l8.38-.87-.27,4.49c-3.55-.21-6.65.41-10.38-.53Z"/>
      <path class="cls-9" d="M72.19,35.08l-6.82.52-.39-4.26c2.33-.82,4.76-.86,7.15-.58l.06,4.31Z"/>
      <path class="cls-7" d="M113.23,29.49c.06.99.11,2.27-.32,3.47l-6.33.23c-.45-1.38.01-2.24.54-3.04,2.08-.35,3.96-.98,6.11-.66Z"/>
      <path class="cls-14" d="M120.94,29.99c-.61-.48-.92-.5-1.32-.55-.99-.13-.95.49-1.27,1.03-.56.94-1.73-.41-.45-.65-1.32-.94.48-1.52,1.02-.87.67-1.02,1.44-.82,2.01-.67.66.17.5,1.74.01,1.72Z"/>
      <path class="cls-2" d="M113.23,29.49c-2.14-.31-4.03.31-6.11.66-1.84-.91,2.2-2.16,6.11-.66Z"/>
      <path class="cls-5" d="M30.25,33.17c-3.05,1.1-5.53-.85-6.4-2.31-1.36-2.29-.84-4.85.64-7,1.24-1.8,3.84-2.24,6.17-1.55,1.64.48,4.27,1.76,4.3,4.12.03,2.66-1.68,5.65-4.7,6.74Z"/>
      <path class="cls-8" d="M133.06,37.44c-.77-.1-1.79-.36-2.72-1.34,1.1-.94,2.49-.23,2.72,1.34Z"/>
    </g>
  </g>
</svg>