<?xml version="1.0" encoding="UTF-8"?>
<svg id="Layer_2" data-name="Layer 2" xmlns="http://www.w3.org/2000/svg" viewBox="0 0 116.97 113.16">
  <defs>
    <style>
      .cls-1 {
        fill: #16110a;
      }

      .cls-2 {
        fill: #db8500;
      }

      .cls-3 {
        fill: #bf7b00;
      }

      .cls-4 {
        fill: #f7a800;
      }

      .cls-5 {
        fill: #c56c00;
      }

      .cls-6 {
        fill: #e79700;
      }

      .cls-7 {
        fill: #a44501;
      }
    </style>
  </defs>
  <g id="Layer_1-2" data-name="Layer 1">
    <g>
      <path class="cls-1" d="M94.04,102c4.1,4.32,11.96,6.82,10.81,9.49-.33.78-1.3,1.46-2.6,1.56-15.57,1.22-30.23-7.85-37.59-21.35-4.69,3.12-10.1,4.95-15.97,5.57-8.26,7.93-19.1,12.69-30.64,12.94-9.21.2-19.63-3.59-17.85-8.39,1.09-2.94,11.5-3.57,19.26-8.55,13.2-8.48,19.11-22.6,21.44-36.67l1.28-7.71-.06-28.22c0-3.37-11.64-10.49-5.39-17.93C38.34.81,45.84-.16,46.79.02c1.88.37,3.18,5.42,3.4,9.13.58,9.71,13.95,12.56,19.94,20.89,3.59,4.99,5.24,10.66,6.19,16.49l1.94,11.87,1.2,5.57,3.01,10.32c3.11,10.64,13.93,20.67,26.3,21.24,4.3.2,6.53-1.08,8.13.86,1.24,6.9-13.87,8.41-22.86,5.6ZM49.38,8.85l-1.96-6.62c-.4-.32-1.01-.59-1.06-1.69-1.76,1.36-3.83,1.06-5.65,1.46-3.41.75-4.62,3.05-4.38,6.13.45,5.75.96,1.69,13.05.72ZM59.92,63.99l.74-.06c-.33,1.82.4,3.76-.45,5.82-.58,1.39-.14,3.11-.62,4.52l-2.33,6.88c-1.77,5.24-4.13,10.06-7.38,14.75,5.3-.74,10.09-2.53,14.4-5.27-2.29-5.51-3.84-10.41-3.22-15.73,1.47,10.79,5.94,21.39,15.62,28.91,13.34,10.36,31.19,9.42,25.95,5.93l-7.01-4.67c-2.08-1.38-3.86-2.97-4.52-5.04l4.82,1.2c9.16,2.27,20.36-.32,20-3.8-.28-2.72-13.65,3.31-26.5-9.44-4.7-4.66-7.36-9.85-8.94-15.85l-2.97-11.27-3.7-19.44c-1.27-6.66-4.74-12.49-10.56-16.35l-8.01-5.31c-3.52-2.33-5.68-5.65-6.4-9.73-3.6.25-7.26.83-10.64,2.1,2,3.08,5.27,5.69,5.29,9.13l.14,25.85-.83,5.62c-1.32,9.01-3.47,17.65-7.87,25.81C23.44,99.8,2.43,99.35,1.49,101.79c-1.83,4.72,12.49,8.39,18.65,7.41,11.17-1.77,22.29-6,29.18-15.09,6.74-8.9,10.5-19.76,10.6-30.12Z"/>
      <path class="cls-4" d="M63.23,25.06c-1.26,1.91-4.74,3.02-3.91,4.65.31.61.91,2.2,1.77,2.43,3.5.95,4.64,3.29,6.16,6.15,2.57,4.81,2.49,10.34,3.69,15.87.23,1.05,1.27,2.49,1.53,3.82l1.84,9.34c.01,6.97,2.31,12.92,6.46,18.8.96,1.36,2.5,2.96,2.5,4.54-.56,0-1.67.14-1.83.53-.8,2.04,4.23,2.27,5.51,5.97.62,1.79,2.69,2.49,4.12,2.85.66,2.08,2.44,3.66,4.52,5.04l7.01,4.67c5.24,3.49-12.61,4.43-25.95-5.93-9.68-7.52-14.15-18.12-15.62-28.91-.65.29-.83-.31-.83-.52,0-.18-.5-.29-.64-.11.48-1.4.04-3.13.62-4.52.86-2.06.13-4,.45-5.82.28-1.58.72-2.94.69-4.92l-.21-12.89h-1.03s-.18,17.87-.18,17.87c-.11,10.37-3.86,21.23-10.6,30.12-6.88,9.08-18,13.32-29.18,15.09-6.16.98-20.48-2.69-18.65-7.41.95-2.44,21.95-1.99,33.42-23.27,4.4-8.16,6.55-16.81,7.87-25.81l.83-5.62-.14-25.85c-.02-3.44-3.29-6.06-5.29-9.13,3.38-1.26,7.05-1.85,10.64-2.1.71,4.08,2.88,7.4,6.4,9.73l8.01,5.31ZM50.79,47.98s.23-.13.38-.33c.05-.9.22-1.88-.25-2.78-.04.01-.23.13-.38.33-.05.9-.22,1.88.25,2.78Z"/>
      <path class="cls-6" d="M91.08,100.01c-1.43-.35-3.5-1.06-4.12-2.85-1.28-3.7-6.31-3.93-5.51-5.97.15-.39,1.27-.52,1.83-.53,0-1.58-1.54-3.18-2.5-4.54-4.15-5.88-6.45-11.83-6.46-18.8l-1.84-9.34c-.26-1.33-1.31-2.77-1.53-3.82-1.2-5.53-1.12-11.06-3.69-15.87-1.53-2.86-2.66-5.2-6.16-6.15-.86-.23-1.46-1.82-1.77-2.43-.83-1.62,2.65-2.74,3.91-4.65,5.82,3.86,9.29,9.69,10.56,16.35l3.7,19.44,2.97,11.27c1.58,6,4.24,11.19,8.94,15.85,12.85,12.74,26.22,6.72,26.5,9.44.36,3.48-10.84,6.07-20,3.8l-4.82-1.2Z"/>
      <path class="cls-5" d="M61.05,74.89c-.62,5.32.93,10.23,3.22,15.73-4.31,2.73-9.1,4.52-14.4,5.27,3.26-4.69,5.61-9.51,7.38-14.75l2.33-6.88c.14-.18.64-.07.64.11,0,.21.18.81.83.52Z"/>
      <path class="cls-7" d="M49.38,8.85c-12.09.96-12.6,5.03-13.05-.72-.24-3.08.96-5.37,4.38-6.13,1.82-.4,3.89-.1,5.65-1.46.05,1.1.66,1.37,1.06,1.69l1.96,6.62Z"/>
      <path class="cls-3" d="M60.65,63.93l-.74.06.18-17.88h1.03s.21,12.9.21,12.9c.03,1.97-.41,3.34-.69,4.92Z"/>
      <path class="cls-2" d="M50.79,47.98c-.47-.9-.3-1.88-.25-2.78.16-.2.34-.32.38-.33.47.9.3,1.88.25,2.78-.16.2-.34.32-.38.33Z"/>
    </g>
  </g>
</svg>