<?xml version="1.0" encoding="UTF-8"?>
<svg id="Layer_2" data-name="Layer 2" xmlns="http://www.w3.org/2000/svg" viewBox="0 0 109.91 101.39">
  <defs>
    <style>
      .cls-1 {
        fill: #0c0b0a;
      }

      .cls-2 {
        fill: #fbedca;
      }

      .cls-3 {
        fill: #feecc9;
      }

      .cls-4 {
        fill: #dab36d;
      }

      .cls-5 {
        fill: #fcf1d4;
      }
    </style>
  </defs>
  <g id="Layer_1-2" data-name="Layer 1">
    <g>
      <path class="cls-1" d="M6.74,90.91c-2.07-.35-3.63-1.34-4.22-2.38-.99-1.74-.33-3.23.33-4.79l2.51-5.95c-1.92-.89-1.69-2.49-2.43-3.18-.95-.13-1.62-.16-2.1-.44s-1.2-1.35-.64-2.18c3.17-4.67,5.44-9.4,7.81-14.31l11.09-23.01,8.9-20.75c1.1-2.56,2.5-3.78,5.53-4.95l4.95-1.91c1.3-3.04,2.48-5.33,5.45-7.06l62.98,10.8c2.79.76,3.31,5.63,2.83,7.61l-1.4,5.75-19.12,59.01c-1.71,5.28-3.63,10.04-6.08,14.86-1.31,2.58-3.83,3.72-7.08,3.26l-7.37-1.04-42.95-6.14-19.01-3.2ZM44.51,85.6l26.04,6.82c3.55-4.96,5.79-9.93,8.19-14.98l5.9-12.39,13.62-32.35,8.38-20.78-7.03-1.29L44.46,1.19c-2.35,1.37-3.46,3.53-4.5,5.8l-5.76,12.6-14.49,29.7-10.67,19.13-4.62,7.67,9.22,2.1,30.87,7.42ZM11.44,62.02l10.06-18.95,11.33-23.49,4.18-10.03c-2.41.27-6.05.75-7.03,3.05C21.59,32.51,13.02,52.04,2.4,70.91c-.39.7-1.24,1.41-.93,2.02.18.36,1.62.71,2.33.57,3.27-3.36,5.46-7.39,7.64-11.48ZM65.33,96.18c2.52.6,4.59,1.19,6.06,2.52-1.15.92.07,1.12.42,1.02,1.89-.52,5.31,1.42,9.16-.53,3.46-5.58,5.4-11.55,7.47-17.85l17.49-53.33,3.05-11.92c-.12-1.15-1.12-2.5-1.5-3.19l-13.37,33.23-7.14,16.69-6.88,14.6c-2.59,5.49-5.15,10.82-8.86,16.11l-39.96-10.01-23.72-5.51c-1.23.58-2.19,2.53-2.11,4.02l59.88,14.13ZM70.24,99.11c-5.78-2.21-11.46-3.43-17.74-4.89l-47.22-11.02c-2.03.68-2.71,5.02-.74,5.79,2.86,1.11,5.1,1.45,7.56,1.81l58.14,8.32Z"/>
      <path class="cls-3" d="M44.51,85.6l-30.87-7.42-9.22-2.1,4.62-7.67,10.67-19.13,14.49-29.7,5.76-12.6c1.04-2.27,2.14-4.43,4.5-5.8l55.16,9.43,7.03,1.29-8.38,20.78-13.62,32.35-5.9,12.39c-2.4,5.05-4.65,10.02-8.19,14.98l-26.04-6.82Z"/>
      <path class="cls-4" d="M65.33,96.18l-59.88-14.13c-.08-1.49.88-3.44,2.11-4.02l23.72,5.51,39.96,10.01c3.71-5.29,6.27-10.62,8.86-16.11l6.88-14.6,7.14-16.69,13.37-33.23c.37.7,1.37,2.05,1.5,3.19l-3.05,11.92-17.49,53.33c-2.07,6.3-4,12.28-7.47,17.85-3.85,1.94-7.27,0-9.16.53-.35.1-1.57-.1-.42-1.02-1.48-1.33-3.54-1.93-6.06-2.52Z"/>
      <path class="cls-5" d="M11.44,62.02c-2.17,4.09-4.37,8.12-7.64,11.48-.71.14-2.15-.21-2.33-.57-.31-.6.53-1.32.93-2.02C13.02,52.04,21.59,32.51,29.99,12.61c.97-2.3,4.62-2.79,7.03-3.05l-4.18,10.03-11.33,23.49-10.06,18.95Z"/>
      <path class="cls-2" d="M70.24,99.11l-58.14-8.32c-2.46-.35-4.7-.7-7.56-1.81-1.97-.76-1.29-5.1.74-5.79l47.22,11.02c6.28,1.47,11.96,2.69,17.74,4.89Z"/>
    </g>
  </g>
</svg>