<?xml version="1.0" encoding="UTF-8"?>
<svg id="Layer_2" data-name="Layer 2" xmlns="http://www.w3.org/2000/svg" viewBox="0 0 162.45 141.69">
  <defs>
    <style>
      .cls-1 {
        fill: #383123;
      }

      .cls-2 {
        fill: #eec779;
      }

      .cls-3 {
        fill: #0d0d0e;
      }

      .cls-4 {
        fill: #403825;
      }

      .cls-5 {
        fill: #342f24;
      }

      .cls-6 {
        fill: #3a3324;
      }

      .cls-7 {
        fill: #f5d287;
      }

      .cls-8 {
        fill: #353021;
      }

      .cls-9 {
        fill: #413826;
      }

      .cls-10 {
        fill: #312a20;
      }

      .cls-11 {
        fill: #373325;
      }

      .cls-12 {
        fill: #caa258;
      }
    </style>
  </defs>
  <g id="Layer_1-2" data-name="Layer 1">
    <g>
      <path class="cls-3" d="M135.2,136.47c-1.24,3.6-3.18,5.43-6.54,5.2l-27.95-1.91-11.78-.92-13.87-1-10.24-1.11-22.25-1.85-16.15-1.39-12.14-1.15c-3.38-.32-7.45.54-10.57-3.77l15.87-27.24L0,50.2,27.51.27l42.56.45,27.81.51c1.51-2.41,3.68-.56,5.02-.39,6.76.84,13.31-.19,20.01-.28l23.14-.32c1.15-.02,2.1,1.79,2.05,2.65-.05.92-.45,2.52-.96,3.78l-16.4,40.44,23.19,6.41c3.19.88,6.49,1.01,8.52,4.12l-13.6,39.23-13.64,39.6ZM8.06,53.42c-1.52-.43-4.04-.32-4.45,1.54l17.56,46.31c3.01,1.23,5.75,1.13,7.44,3.02-2.49.32-5.1-.87-7.58-2.04l-15.39,26.74,8.77,1.26,10.24,1.13,21.38,1.7,18.74,1.5,8.57,1.16,15.03.88,9.76,1.12,33.96,1.11,13.83-38.83,14.49-41.86-31.01-9.11c-5.27,9.28-4.07,13.58-2.89,23.92l.96,8.51c.51,4.48.1,9.42,1.2,14.31,1.13,4.99.87,9.79,1.23,14.46l2.19,28.6c-3.03-3.28-1.53-8.69-1.95-12.78l-2.87-28.38-.67-10.07-2.55-23.73c-.19-1.77-1.16-3.94-.29-5.96l15.91-36.85,6.17-16.9c.72-1.96-2.86-1.96-4.19-1.96l-113.35.05L3,47.63c-.59,1.06-1.19,1.9-1.09,2.89.31,3.22,5.21.31,6.15,2.9Z"/>
      <path class="cls-2" d="M8.06,53.42c.63,1.74,3.5.88,4.86.92,3.03.08,5.88.46,9.07.59l12.61.19c1.61,1.23,2.64,1.49,4.49,1.42,2.88-.11,5.87.39,8.99.52l12.67.15c1.2,1.26,2.11,1.5,3.57,1.48,3.28-.04,6.72.21,10.25.42l15.95.89c.33.75,1.81.77,2.5.77,3.14.02,6.48.38,9.88.56l13.53.73c1.62.09,2.61.96,4.53.05,1.1-.52,1.08,1.23,1.21,1.76s1.8.08,1.89.02l2.55,23.73.67,10.07,2.87,28.38c.41,4.09-1.09,9.5,1.95,12.78l-33.96-1.11-9.76-1.12-15.03-.88-8.57-1.16-18.74-1.5-21.38-1.7-10.24-1.13-8.77-1.26,15.39-26.74c2.49,1.17,5.09,2.36,7.58,2.04,1.31,1.59,9.9,4.37,13.06,4.26.68,1.17,9.9,4.74,13.07,4.28,1.51,1.32,3.64,2.64,6.18,1.82-1.89-1.97-3.99-2.14-6.18-1.82.29-.6-.23-1.13-.55-1.07-1.79.36-7.63-3.3-12.52-3.21-.67-1.14-9.7-4.69-13.06-4.26-1.69-1.89-4.43-1.79-7.44-3.02L3.61,54.96c.41-1.86,2.93-1.97,4.45-1.54ZM74.43,118.99c1.97,1.52,4.1,2.78,6.72,2.54,1.39,1.34,4.68,2.12,6.58,1.86.02.85.74,1.32,1.72,1.25,3.97,1.33,7.35,2.64,11.77,3.21,3.39,2.45,8.51,3.73,12.83,3.99,2.44,2.16,7.76,3.79,11.23,2.69-3.78-.97-7.12-2.45-11.23-2.69-3.9-2.61-9.02-3.63-12.83-3.99-3.11-2.25-10.66-4.84-13.49-4.46-2.05-1.63-4.53-2.49-6.58-1.86-1.89-1.83-4.2-2.61-6.72-2.54-3.41-2.62-8.21-2.96-12.2-4.26l-.58.86,9.05,3.24c1.3.47,2.87.45,3.74.16Z"/>
      <path class="cls-7" d="M124.06,63.89c-.09.06-1.76.51-1.89-.02s-.12-2.29-1.21-1.76c-1.91.91-2.9.04-4.53-.05.66-1.32-4.85-1.74-9.87-1.91l-13.34-.43c-.24.22-.3.82-.2,1.05-.69,0-2.17-.02-2.5-.77.35-1.61-6.34-1.71-12.58-1.96l-12.78-.52c-.78-.03-.97.72-.84,1.17-1.46.02-2.37-.22-3.57-1.48-2.24-1.48-5.24-.21-8.09-1.24-3.07-1.11-11.91-1.09-13.57.56-1.85.07-2.88-.19-4.49-1.42-2.45-1.87-6.21.13-9.18-1.15s-11.02-1.23-12.5.38c-1.36-.03-4.23.83-4.86-.92-.94-2.59-5.84.32-6.15-2.9-.09-.99.5-1.83,1.09-2.89L28.31,2.27l113.35-.05c1.33,0,4.91,0,4.19,1.96l-6.17,16.9-15.91,36.85c-.87,2.02.1,4.19.29,5.96Z"/>
      <path class="cls-12" d="M132.1,138.85l-2.19-28.6c-.36-4.68-.11-9.47-1.23-14.46-1.1-4.89-.69-9.83-1.2-14.31l-.96-8.51c-1.17-10.35-2.38-14.64,2.89-23.92l31.01,9.11-14.49,41.86-13.83,38.83Z"/>
      <path class="cls-1" d="M90.53,59.99l-15.95-.89c-3.53-.2-6.97-.46-10.25-.42-.13-.45.05-1.2.84-1.17l12.78.52c6.24.25,12.93.34,12.58,1.96Z"/>
      <path class="cls-11" d="M116.43,62.05l-13.53-.73c-3.4-.18-6.74-.54-9.88-.56-.1-.23-.04-.83.2-1.05l13.34.43c5.03.16,10.54.59,9.87,1.91Z"/>
      <path class="cls-5" d="M60.76,57.21l-12.67-.15c-3.13-.13-6.12-.63-8.99-.52,1.67-1.66,10.5-1.67,13.57-.56,2.84,1.03,5.85-.24,8.09,1.24Z"/>
      <path class="cls-10" d="M34.6,55.11l-12.61-.19c-3.19-.13-6.04-.51-9.07-.59,1.48-1.6,9.63-1.62,12.5-.38s6.73-.72,9.18,1.15Z"/>
      <path class="cls-4" d="M101.22,127.85c-4.42-.56-7.8-1.88-11.77-3.21-.99.07-1.7-.4-1.72-1.25,2.83-.38,10.38,2.21,13.49,4.46Z"/>
      <path class="cls-3" d="M41.68,108.55c-3.16.11-11.75-2.67-13.06-4.26,3.36-.43,12.4,3.12,13.06,4.26Z"/>
      <path class="cls-6" d="M54.75,112.83c-3.17.47-12.38-3.11-13.07-4.28,4.9-.09,10.73,3.57,12.52,3.21.31-.06.84.47.55,1.07Z"/>
      <path class="cls-8" d="M74.43,118.99c-.87.29-2.44.31-3.74-.16l-9.05-3.24.58-.86c3.99,1.3,8.79,1.64,12.2,4.26Z"/>
      <path class="cls-4" d="M114.05,131.84c-4.31-.25-9.44-1.54-12.83-3.99,3.81.36,8.93,1.37,12.83,3.99Z"/>
      <path class="cls-4" d="M114.05,131.84c4.12.24,7.45,1.72,11.23,2.69-3.47,1.1-8.8-.54-11.23-2.69Z"/>
      <path class="cls-6" d="M54.75,112.83c2.2-.32,4.29-.15,6.18,1.82-2.54.82-4.67-.49-6.18-1.82Z"/>
      <path class="cls-9" d="M87.73,123.39c-1.9.26-5.19-.52-6.58-1.86,2.04-.63,4.53.23,6.58,1.86Z"/>
      <path class="cls-8" d="M81.16,121.53c-2.63.23-4.75-1.03-6.72-2.54,2.52-.07,4.83.72,6.72,2.54Z"/>
    </g>
  </g>
</svg>