<?xml version="1.0" encoding="UTF-8"?>
<svg id="Layer_2" data-name="Layer 2" xmlns="http://www.w3.org/2000/svg" viewBox="0 0 159.05 133.16">
  <defs>
    <style>
      .cls-1 {
        fill: #34302b;
      }

      .cls-2 {
        fill: #ceb69f;
      }

      .cls-3 {
        fill: #434446;
      }

      .cls-4 {
        fill: #c7b09a;
      }

      .cls-5 {
        fill: #c6ae95;
      }

      .cls-6 {
        fill: #c8af98;
      }

      .cls-7 {
        fill: #e3cfb1;
      }

      .cls-8 {
        fill: #262421;
      }

      .cls-9 {
        fill: #efdbbc;
      }

      .cls-10 {
        fill: #292623;
      }

      .cls-11 {
        fill: #434545;
      }

      .cls-12 {
        fill: #c9b19a;
      }

      .cls-13 {
        fill: #0e0e0e;
      }

      .cls-14 {
        fill: #454748;
      }

      .cls-15 {
        fill: #e3ceae;
      }

      .cls-16 {
        fill: #cbb69d;
      }

      .cls-17 {
        fill: #444647;
      }
    </style>
  </defs>
  <g id="Layer_1-2" data-name="Layer 1">
    <g>
      <path class="cls-13" d="M154.99,17.84c-1.68.87-1.1-2.29-4.36-8.72-1.25-2.47-2.35-5.32-4.34-7.32l-18.63,4.45-31.51,5.61-11.13,1.69-10.99,1.42c-15.42.82-30.78.48-46.36.04-1.47,2.44-.6,5.12-.78,7.28l-1.19,14.48-.76,16.46-.84,10.21-.72,16.7-.82,11.13-1.21,18.7c-.26,3.95-1,7.59-.82,11.16.14,2.8.2,5.53-.75,8.62,1.78,1.33,3.69,1.71,5.79,1.7l68.34-.28c16.19-.07,32.01-.66,48.05-2.38,1.47-.16,2.76-.99,3.53-1.87,1.11-1.26.47-3.08.62-4.42l3.63-33.11,4.92-44.68,2.85-24.41-42.28.47-22.7-.16c-.36-.16-.39-.55-.37-.54,3.95-1.28,9.11.87,12.46-1.15,2.07-1.38,4.16-.74,6.25-1.15,1.61-.84,2.97-.89,4.35-.68.02.86-.47,1.47-1.21,1.19-.42-.15-1.89-1.04-2.15,1.07,9.12.33,18.28.15,27.41-.12l16.8-.61c.68-.31,3.16.34,2.98,2.01l-11.3,103.89c-.2,1.87-.36,3.57-1.22,4.3s-2.11,1.29-3.3,1.38l-20.84,1.61-28.53,1.06-68.47.28c-2.47.01-5.05-.49-6.37-2.05s-1.82-3.76-2.27-6.05L0,39.59c.97-7.26,8.85-11.58,14.78-12.03l10.16-2.97c.31-3.38-.02-7.07,1.44-9.94,1.31-2.58,4.73-1.17,6.85-1.18l37.45-.06c3.72,0,7.4-.53,10.82-1.04l22.94-3.44c3.78-.57,7.59-1.08,11.56-1.97l31.11-6.96c4.31,5.43,7.11,11.56,7.88,17.84ZM21.77,87.9l.75-14.96.85-11.87.74-14.18.85-13.47c.14-2.16.09-4.49-.18-6.56l-17.97,4.68,5.65,24.68,7.7,51.19.73-10.21.87-9.3ZM18.35,124.59c3.12-9.36.55-16.81-.65-25.01l-5.98-40.78-5.59-26.4c-2.2,2.03-3.74,4.45-5.19,7.2l3.75,16.6,10.22,51.06,3.44,17.33Z"/>
      <path class="cls-16" d="M150.63,9.12c3.26,6.43,2.69,9.58,4.36,8.72.57-.07.89.57,1.07.78l-16.8.61c-9.12.27-18.28.45-27.41.12.26-2.11,1.73-1.23,2.15-1.07.75.27,1.23-.33,1.21-1.19,3.87.6,14.2-2.21,15.09-3.43,4.09.05,8.43-1.53,11.97-3.47,1.74.38,3.2-.96,4.81-1.14.52-.4.78-.67,1.14-.74,1.24-.22,1.37,1.92,2.4.81Z"/>
      <path class="cls-9" d="M150.63,9.12c-1.03,1.1-1.15-1.03-2.4-.81-.37.07-.63.34-1.14.74.36-1.07-.68-1.86-1.15-1.49l-1.11.87c-1.02.8-2.33.98-2.54,1.76-1.35-.3-11.13,2.32-11.97,3.47-4.92-.04-15.04,2.88-15.09,3.43-1.38-.21-2.74-.16-4.35.68-2.08.42-4.17-.23-6.25,1.15-3.35,2.01-8.51-.14-12.46,1.15-.02,0,.01.38.37.54l22.7.16,42.28-.47-2.85,24.41-4.92,44.68-3.63,33.11c-.84-.56-1.33-1.65-.78-2.85-12.05,2.78-23.89,3.81-36.48,3.8l-37.4-.04c.99-4.2.7-8.7.89-13.47l.72-18.16,1.39-14.65-39.32-1.43-2.8,41.16-.76,4.2-11.04.07c-.17-3.56.57-7.21.82-11.16l1.21-18.7.82-11.13.72-16.7.84-10.21.76-16.46,1.19-14.48c.18-2.16-.69-4.84.78-7.28,15.58.44,30.93.78,46.36-.04l10.99-1.42,11.13-1.69,31.51-5.61,18.63-4.45c1.99,2,3.09,4.84,4.34,7.32ZM63.51,57.06l1.61-27.84-5.16-.08-.68,15.01-9.12-17.84-5.14-.18c.74,3.97-.31,6.83-.48,10.06l-1.06,19.83c2.12.47,3.8.47,5.54.14l.51-18.45,9.06,19.3,4.92.04ZM82.36,45.88l.11-4.46-8.58-.46.03-4.95,8.73.21c-.2-2.03-.12-3.43.83-5.24-5.08-.66-9.43-.93-14.23-.93-.82,9.29-1.09,17.75-1.06,27.08l14.61.92c.53-1.83.63-3.35.5-5.68l-9.59-.88c-.12-2.04-.14-4.96,1.15-5.41,2.38-.83,5.18-.19,7.5-.2ZM109.71,32.2l-3.86,17.55-2-18.13-5.87-.1-4.57,19.61-2.19-20.11-5.24-.28,3.09,27.08,6.79.74,4.76-18.98c.37,6.76,1.15,12.62,2.07,19.16l5.77.32,7.51-27.17c-2.33.02-4.52-.32-6.26.33ZM128.75,61.25c4.99-.42,7.73-5.97,6.11-11.28-1.69-5.56-9.72-5.86-10.94-8.16-.48-.91.11-2.34,1.18-2.71,2.45-.85,5.13.1,7.6,1.59l2.34-4.37c-2.6-2.58-6.06-3.15-9.47-2.9-4.5.33-7.47,3.07-7.94,7.6-.93,8.98,9.07,8.4,11.77,11.95,1.35,1.77-3.07,5.92-11.51-.03-1.05,1.76-2.29,3.97-1.18,4.97,3.21,2.9,7.84,3.68,12.03,3.32ZM140.79,70.93l-17.42-.47-18.77-.95-28.91-.79-24.32-.86-19.72-.32c-.01.31.11.62.44.79l9.5.42,26.44.85,22.77.88,26.49.88,17.9.68c1.79.07,4.36,1.91,5.6-1.11ZM138.88,85.53c-1.12-3.68-2.86-4.88-5.41-4.97l-19.86-.72-30.82-.05c-1.47,0-1.61,4.76-.14,4.78l27,.31c10.14.12,19.85,1.13,29.22.65ZM134.99,95.95c1.4.04,2.14-1.55,2.67-1.85s.83-2.76.09-2.78l-55.18-1.39c-1.27-.03-1.66,4.15-.72,4.29l20.65.82,32.49.91ZM137.02,101.19l-19.41-.27-36.43-.29c-1.31-.01-1.41,3.57-.57,4.13.74.49,2.27.81,3.6.83l51.8.85c1.43.02,2.14-4.9,1.01-5.25ZM132.23,116.25c1.23.02,2.06-1.68,1.41-3.23-.44-1.05-2-1.39-3.35-1.41l-50.04-.68c-1.23-.02-1.29,3.69-.71,4.58.68,1.05,3.09-.09,4.15-.07l48.54.81Z"/>
      <path class="cls-5" d="M146.12,122.49c-.15,1.35.49,3.16-.62,4.42-.77.88-2.06,1.72-3.53,1.87-16.04,1.71-31.86,2.31-48.05,2.38l-68.34.28c-2.09,0-4-.37-5.79-1.7.95-3.09.88-5.83.75-8.62l11.04-.07,31.1,2.35h8.79s37.4.04,37.4.04c12.59.01,24.43-1.01,36.48-3.8-.55,1.19-.06,2.29.78,2.85Z"/>
      <path class="cls-7" d="M21.77,87.9l-.87,9.3-.73,10.21-7.7-51.19-5.65-24.68,17.97-4.68c.26,2.07.31,4.39.18,6.56l-.85,13.47-.74,14.18-.85,11.87-.75,14.96Z"/>
      <path class="cls-15" d="M18.35,124.59l-3.44-17.33L4.69,56.2.94,39.6c1.45-2.76,2.99-5.18,5.19-7.2l5.59,26.4,5.98,40.78c1.2,8.2,3.77,15.65.65,25.01Z"/>
      <path class="cls-8" d="M130.31,13.66c-.89,1.22-11.22,4.03-15.09,3.43.05-.55,10.17-3.47,15.09-3.43Z"/>
      <path class="cls-1" d="M142.28,10.19c-3.54,1.94-7.88,3.52-11.97,3.47.84-1.15,10.62-3.77,11.97-3.47Z"/>
      <path class="cls-1" d="M147.09,9.05c-1.61.18-3.06,1.52-4.81,1.14.21-.78,1.52-.96,2.54-1.76l1.11-.87c.47-.37,1.51.41,1.15,1.49Z"/>
      <path class="cls-2" d="M71.46,123.4h-8.79s-31.1-2.35-31.1-2.35l.76-4.2,2.8-41.16,39.32,1.43-1.39,14.65-.72,18.16c-.19,4.77.11,9.27-.89,13.47Z"/>
      <path class="cls-14" d="M109.71,32.2c1.73-.65,3.93-.31,6.26-.33l-7.51,27.17-5.77-.32c-.92-6.54-1.7-12.4-2.07-19.16l-4.76,18.98-6.79-.74-3.09-27.08,5.24.28,2.19,20.11,4.57-19.61,5.87.1,2,18.13,3.86-17.55Z"/>
      <path class="cls-17" d="M63.51,57.06l-4.92-.04-9.06-19.3-.51,18.45c-1.74.33-3.41.33-5.54-.14l1.06-19.83c.17-3.23,1.22-6.08.48-10.06l5.14.18,9.12,17.84.68-15.01,5.16.08-1.61,27.84Z"/>
      <path class="cls-3" d="M128.75,61.25c-4.2.35-8.83-.42-12.03-3.32-1.11-1.01.13-3.21,1.18-4.97,8.44,5.95,12.86,1.81,11.51.03-2.71-3.56-12.71-2.97-11.77-11.95.47-4.53,3.45-7.27,7.94-7.6,3.41-.25,6.86.31,9.47,2.9l-2.34,4.37c-2.48-1.5-5.15-2.44-7.6-1.59-1.07.37-1.66,1.8-1.18,2.71,1.22,2.3,9.25,2.6,10.94,8.16,1.62,5.32-1.12,10.86-6.11,11.28Z"/>
      <path class="cls-12" d="M138.88,85.53c-9.37.48-19.07-.53-29.22-.65l-27-.31c-1.47-.02-1.33-4.78.14-4.78l30.82.05,19.86.72c2.55.09,4.29,1.29,5.41,4.97Z"/>
      <path class="cls-12" d="M137.02,101.19c1.13.35.42,5.27-1.01,5.25l-51.8-.85c-1.33-.02-2.87-.34-3.6-.83-.84-.56-.74-4.14.57-4.13l36.43.29,19.41.27Z"/>
      <path class="cls-11" d="M82.36,45.88c-2.32.02-5.12-.62-7.5.2-1.29.45-1.27,3.37-1.15,5.41l9.59.88c.13,2.33.04,3.85-.5,5.68l-14.61-.92c-.03-9.33.24-17.79,1.06-27.08,4.8,0,9.15.27,14.23.93-.96,1.81-1.04,3.21-.83,5.24l-8.73-.21-.03,4.95,8.58.46-.11,4.46Z"/>
      <path class="cls-4" d="M134.99,95.95l-32.49-.91-20.65-.82c-.94-.14-.55-4.33.72-4.29l55.18,1.39c.73.02.44,2.48-.09,2.78s-1.27,1.89-2.67,1.85Z"/>
      <path class="cls-6" d="M132.23,116.25l-48.54-.81c-1.06-.02-3.47,1.12-4.15.07-.58-.89-.52-4.6.71-4.58l50.04.68c1.35.02,2.91.36,3.35,1.41.64,1.55-.18,3.25-1.41,3.23Z"/>
      <path class="cls-10" d="M140.79,70.93c-1.24,3.02-3.81,1.18-5.6,1.11l-17.9-.68-26.49-.88-22.77-.88-26.44-.85-9.5-.42c-.33-.18-.45-.49-.44-.79l19.72.32,24.32.86,28.91.79,18.77.95,17.42.47Z"/>
    </g>
  </g>
</svg>