<?xml version="1.0" encoding="UTF-8"?>
<svg id="Layer_2" data-name="Layer 2" xmlns="http://www.w3.org/2000/svg" viewBox="0 0 86.11 290.7">
  <defs>
    <style>
      .cls-1 {
        fill: #eee9df;
      }

      .cls-2 {
        fill: #8b8a85;
      }

      .cls-3 {
        fill: #e6c6b1;
      }

      .cls-4 {
        fill: #e5d1bf;
      }

      .cls-5 {
        fill: #fbf9f4;
      }

      .cls-6 {
        fill: #e7cfbc;
      }

      .cls-7 {
        fill: #7b7a76;
      }

      .cls-8 {
        fill: #6f6e6b;
      }

      .cls-9 {
        fill: #81807d;
      }

      .cls-10 {
        fill: #e6d4c4;
      }

      .cls-11 {
        fill: #76746e;
      }

      .cls-12 {
        fill: #878480;
      }

      .cls-13 {
        fill: #f9f5e6;
      }

      .cls-14 {
        fill: #edeae4;
      }

      .cls-15 {
        fill: #676763;
      }

      .cls-16 {
        fill: #f9f5ec;
      }

      .cls-17 {
        fill: #f8f5ee;
      }

      .cls-18 {
        fill: #e9ceb9;
      }

      .cls-19 {
        fill: #dacdbf;
      }

      .cls-20 {
        fill: #6a6863;
      }
    </style>
  </defs>
  <g id="Layer_1-2" data-name="Layer 1">
    <g>
      <path class="cls-12" d="M85.15,281.68c-1.26,3.46-4.34,9-8.86,9H10.15c-4.47.01-8.48-4.92-9.03-8.51-.15-.98-.1-1.36-1.02-1.91l.08-203.55c1.68-7.49,6.15-11.76,12.76-13.7l10.71-.6c.36-.02,1.32-1.18,1.18-1.34l-1.73-1.86-.23-23.94c2.3-1.68,4.25-1.13,6.69-1.77-.58-2.59-.15-4.78,1.04-5.78,1.33-1.12,3.98-1.04,6.5-.55l.07-17.21-12.99-2.16c-6.5-1.08-13.96,1.11-20.32,3.43L0,6.05C19.56-6.34,38.84,4.66,49.29,1.56c2.24-.66,4.98-.59,7.75-.92,3.39-.4,5.53,7.38,2.97,10.58l-10.84.67-.42,14.44,6.37.95c2.17.32,2.36,4.53,2.23,6.66,1.94.23,3.7-.13,5.77,1.12l-.03,24.04c-1.43.52-1.82,2.26-1.38,3.04.96,1.69,19.43-4.29,24.4,15.46l-.06,201.62-.89,2.46ZM51.5,10.27c2.21.32,5.58.63,7.51-.25,2.46-1.12,1.27-4.18.64-5.54-1.07-2.3-2.99-3.54-5.98-2.41l-2.1.79c-4.76.24-10.47.41-15.14-.22l-7.71-1.03C19.67.4,10.59,2.14,1.89,6.18c2,7.18,8.24-1.93,24.44.43l25.18,3.66ZM39.09,12.44c-1.63,4.07-.8,8.53-.97,13.95,2.08.56,4.26.77,6-.14,1.79.91,2.99.96,2.99-.21v-14.74s-8.08-1.01-8.08-1.01c-.91-.11-1.38,1.9.06,2.15ZM47.68,59.68l11.43-.09v-21.91s-1,0-1,0l-.11,20.85c-1.38-.39-1.88-1.68-1.89-3.14l-.13-17.07-1.39-.13-.37,19.9c-4.02-1.89.88-10.21-1.56-22.22,1.9.3,2.7,1.64,3.85,1.39.68-.15,1.47-1.36,1.21-1.97-2.62-.14-4.26-.39-5.66.37l-15.17-.87c.02-.2.14-.57.55-.81,3.56.24,7.46.08,10.85-.52,1.63-.05,4.49,1.14,7.3.31,1.44-.43,1.38-3.46.28-5.11-.89-1.33-3.82-1.73-4.96.13-.92-1.52-1.76-1.11-2.52-1.1l-17.28.25c-.51,2.53-.59,3.61-.49,4.42.18,1.52,2.02,1.82,3.06,2.16l-6.59.67c-1.44,7.47-.07,14.79-1.22,22.82l-.69-21.68c-.02-.57-1.98-.19-1.79.29l.73,1.85v20.24l23.57,1ZM44.11,62.48c.12-.46.18-1.29-.44-1.8l-15.99.03c-.73,0-1.63,1.01-1.7,1.97l18.13-.2ZM58.35,59.89l-13.24.24v1.56s15,.22,15,.22c-.09-.97-1.03-2.03-1.76-2.01ZM81.6,68.57c-2.19-2.66-5.87-4.85-9.37-4.89l-50.12-.47c-6.36-.06-12.42-.02-17.79,5.47l77.28-.11ZM54.23,289.68h20.93c3.53-.56,8.95-8.91,8.95-8.91V74.19s-1.53-4.07-2.54-4.5l-17.54,1H9.37c-1.69-.86-4.25-.97-5.55.03-3.12,2.38-2.71,12.84-2.71,12.84v194.11s5.36,11.44,9.94,12.03h43.18Z"/>
      <path class="cls-13" d="M63.8,69.48l1.31,8.45-.16,192.94c0,6.63-3.18,11.32-7.52,14.98-1.37,1.16-3.24,1.74-3.45,3.82l-43.25-.38c-4.58-.04-9.61-6.1-9.62-11.5l-.22-194.38c2.31-3.15-.53-10.47,2.6-12.86,1.3-1,3.87-.89,5.56-.89l54.75-.2Z"/>
      <path class="cls-4" d="M53.9,290.02c.21-2.09,2.12-2.67,3.52-3.83,4.44-3.67,7.68-8.36,7.69-14.99l.16-193.06-1.34-8.46,17.95.2c1.03.29,2.83,3.14,3.23,4.37l-.15,207.01c0,5.35-6.03,8.36-9.64,8.42l-21.42.34Z"/>
      <path class="cls-14" d="M48.11,27.44l-.09,5.78c-3.33.61-7.18.77-10.68.52-.4.24-.52.61-.54.81l14.93.87c-.39.21-.87.63-1.46.52-1.18-.21-1.37,3.68-1.68,9.76l-.55,10.94c-.03.61-.42,1.23-.29,2.06l-23.64-.22.11-20.24-.72-1.85c-.19-.48,1.75-.86,1.76-.29l.68,21.73c1.14-8.04-.22-15.38,1.2-22.87l6.49-.67c-1.02-.34-2.83-.64-3.01-2.16-.09-.82-.02-1.89.48-4.43l17.01-.25ZM28.33,58.69c.24,0,.6-.16.78-.59l-.25-22.6c-.34.01-.76.42-.75.9l.22,22.29ZM31.33,58.68c.24,0,.6-.16.78-.59l-.22-22.29c-.24,0-.6.16-.78.59l.22,22.29ZM36.07,40.49c.04-2.42-.11-3.94-1.96-4.67l.19,21.86h1.46s.31-17.19.31-17.19ZM38.33,58.68c.24,0,.6-.16.78-.59l-.22-22.29c-.24,0-.6.16-.78.59l.22,22.29ZM41.33,58.68c.24,0,.6-.16.78-.59l-.22-22.29c-.24,0-.6.16-.78.59l.22,22.29ZM46.11,59.09v-23.7c-.84.15-1.27.66-2,1.42v20.86c.73.76,1.16,1.27,2,1.42Z"/>
      <path class="cls-17" d="M79.05,68.68l-72.19.11c5.02-5.13,10.68-5.16,16.62-5.11l46.82.44c3.27.03,6.71,2.08,8.76,4.56Z"/>
      <path class="cls-16" d="M53.67,2.08c-.39,2.84-2.43,5.18-2.17,8.2l-25.18-3.66C10.13,4.25,3.89,13.36,1.89,6.18,10.59,2.14,19.67.4,28.72,1.62l7.71,1.03c4.67.63,10.39.46,15.14.22l2.1-.79Z"/>
      <path class="cls-10" d="M47.9,59.78c-.13-.83.25-1.46.28-2.08.66,0,1.14.5,1.93,1.17l.2-21.56c.53.1.97-.28,1.32-.48,1.24-.69,2.7-.47,5.03-.33.23.56-.47,1.66-1.08,1.8-1.02.23-1.73-.99-3.42-1.26,2.17,10.97-2.19,18.56,1.38,20.29l.33-18.17,1.23.12.11,16.12c.01,1.46.51,2.75,1.89,3.14l.11-20.85h1.89s0,22,0,22l-11.21.1Z"/>
      <path class="cls-5" d="M44.61,26.25c-1.73.91-3.92.7-6,.14.16-5.42-.66-9.88.97-13.95.97-.34,4.43-.32,4.49,1.18l.54,12.63Z"/>
      <path class="cls-6" d="M51.5,10.27c-.27-3.01,1.77-5.35,2.17-8.2,2.99-1.13,4.91.11,5.98,2.41.63,1.36,1.82,4.41-.64,5.54-1.93.88-5.29.58-7.51.25Z"/>
      <path class="cls-18" d="M44.13,26.25l-.54-12.63c-.06-1.51-3.53-1.53-4.49-1.18-1.44-.26-.96-2.27-.06-2.15l8.07,1.01v14.74c.01,1.17-1.19,1.12-2.98.21Z"/>
      <path class="cls-3" d="M48.11,33.69l.09-5.76c.73-.01,1.56-.42,2.45,1.1,1.11-1.87,3.97-1.47,4.83-.13,1.06,1.64,1.13,4.68-.28,5.11-2.73.83-5.51-.36-7.1-.31Z"/>
      <path class="cls-1" d="M45.31,61.68l-20.55.23c.08-1.09,1.1-2.23,1.93-2.23l18.12-.04c.69.58.63,1.52.49,2.04Z"/>
      <path class="cls-19" d="M58.35,60.67c.74-.01,1.68,1.05,1.76,2.01l-15-.22v-1.56s13.24-.24,13.24-.24Z"/>
      <path class="cls-2" d="M35.88,40.5l-.31,17.18h-1.46s-.19-21.85-.19-21.85c1.85.73,2,2.25,1.96,4.67Z"/>
      <path class="cls-9" d="M46.11,59.09c-.84-.15-1.27-.66-2-1.42v-20.86c.73-.76,1.16-1.27,2-1.42v23.7Z"/>
      <path class="cls-7" d="M47.91,57.06l.55-10.91c.3-6.07.49-9.94,1.66-9.73l-.22,21.8c-.81-.66-1.3-1.16-1.98-1.15Z"/>
      <path class="cls-11" d="M28.11,58.19v-21.33c.34-.46.74-.85,1-.86v21.62c.13.41-.21.56-1,.57Z"/>
      <path class="cls-20" d="M31.11,58.19v-21.33c.33-.41.66-.56,1-.57v21.33c-.06.41-.4.56-1,.57Z"/>
      <path class="cls-15" d="M38.11,58.19v-21.33c-.11-.41.23-.56,1-.57v21.33c-.5.41-.83.56-1,.57Z"/>
      <path class="cls-8" d="M41.11,58.19v-21.33c.64-.41.98-.56,1-.57v21.33c.26.41-.08.56-1,.57Z"/>
    </g>
  </g>
</svg>