<?xml version="1.0" encoding="UTF-8"?>
<svg id="Layer_2" data-name="Layer 2" xmlns="http://www.w3.org/2000/svg" xmlns:xlink="http://www.w3.org/1999/xlink" viewBox="0 0 135.92 221.83">
  <defs>
    <style>
      .cls-1 {
        fill: #bf1413;
      }

      .cls-2 {
        fill: #fe6945;
      }

      .cls-3 {
        fill: #fa6e0c;
      }

      .cls-4 {
        fill: #ffb973;
      }

      .cls-5 {
        fill: #fea45c;
      }

      .cls-6 {
        fill: #df4702;
      }

      .cls-7 {
        fill: #fd4731;
      }

      .cls-8 {
        fill: #f25f0b;
      }

      .cls-9 {
        fill: #fd9c4f;
      }

      .cls-10 {
        fill: #e92f20;
      }

      .cls-11 {
        fill: #fe442c;
      }

      .cls-12 {
        fill: #fb3d24;
      }

      .cls-13 {
        fill: #b7350c;
      }

      .cls-14 {
        fill: url(#linear-gradient);
      }

      .cls-15 {
        fill: #e62d21;
      }

      .cls-16 {
        fill: #fe7c57;
      }
    </style>
    <linearGradient id="linear-gradient" x1="-4314.75" y1="-479.84" x2="-4109.51" y2="-92.17" gradientTransform="translate(1060.63 278.41) scale(.24 .45)" gradientUnits="userSpaceOnUse">
      <stop offset="0" stop-color="#ff821d"/>
      <stop offset="1" stop-color="#eb5b06"/>
    </linearGradient>
  </defs>
  <g id="Layer_1-2" data-name="Layer 1">
    <g>
      <path class="cls-14" d="M96.88,45.15c1.7,3.16,4.55,5.59,7.21,8.48,22.38,24.36,30.03,53.59,31.57,84.56.95,19.18-.65,38.02-4.66,56.8-1.36,6.36-2.88,12.48-5.48,18.45-2.31,5.29-7.48,8.14-13.96,7.96l-3.97.44c.02-.14.02-.36-.23-.69H24.37s-.09.6-.09.6c-7.31,0-11.79-3.97-13.99-9.98C.95,186.2-1.37,155.24.7,128.51c.4.02,1.01.6.44,1.55-.56,1.74,2.53,1.6,1.49-.31.71-.72,1.39-.04,1.62.22-.49,8.49-.82,17.07-.32,25.95.85,15.17,2.27,29.94,6.76,45.07,2.8-2.58,1.92-5.96,1.66-9.14l-.79-9.63c-1.26-15.27-3.51-30.22-3.1-45.59l.9-11.67c.98-12.75,4.28-25.19,9.6-37.12,6.15-13.78,15.13-26.17,27.1-37.1.76-.7.77-1.94.88-2.46.23-1.05-.19-1.81-1.7-2.07,11.4-.54,23.11-.13,34.5.1,2.54-2.43,6.21-.52,8.96-1.49,2.58-.91,5.72-.18,8.17.35ZM79.86,71.82c-5.11,19.12,4.43,47.2,21.53,60.32,3.58,2.75,7.84,2.7,11.85,1.61l-1.12,2.43c10.19-2.39,8.55-20,6.02-29.81-.44-1.72-1.4-3.23-3.28-3.43l-3.87-10.91c-2.65-7.46-6.94-14.11-12.72-19.74-1.51-1.47-2.23-3.88-4.73-4.92l2.93-1.53c-3.05-2.23-7.63-4.25-11.17-3.23-4.22,1.22-6.68,4.34-7.56,7.28,1.68.21,1.43,1.41,2.12,1.91ZM109.07,167.85c-.04-8.24-3.45-15.24-9.36-21.78l-11.08-12.28c-10.46-11.59-17.76-24.35-20.7-38.65l-2.47-12c-.88-3.11-3.8-4.24-7.28-4.27l-25.83-.28c-12.72,20.7-18.23,43.21-17.97,66.74.15,13.9,2.54,26.42,7.74,39.17,3.5,8.57,11.26,14.37,22.22,14.5,15.21.17,30.4.54,45.58-.67,5.87-.47,10.67-3.56,13.9-7.76,5.24-6.81,5.28-14.92,5.24-22.72Z"/>
      <path class="cls-3" d="M88.7,44.8c-2.75.97-6.42-.94-8.96,1.49-11.39-.23-23.1-.64-34.5-.1-.38,1.32-2.51.93-3.19,1.51-9.86,8.47-17.3,17.89-23,28.65-7.97,15.05-13.47,30.96-14.43,47.36l-.36,6.24c-.23-.25-.92-.94-1.62-.22,1.05,1.91-2.05,2.06-1.49.31.57-.95-.04-1.52-.44-1.55,2.44-31.42,13.91-60.31,37.99-83.21.68-.42,2.67-1.4,3.51-1.47l34.6.13,11.9.85Z"/>
      <path class="cls-15" d="M91.79,13.88c-2.04,1.49.62,4.54-.05,8.22-2.97,1.47-6.7.15-9.03.18l-.64-14.41c-.07-2.06-.64-3.5.85-6.14l-15.53-.19c-5.39-.07-10.77-.36-16.81.55l-3.1,17.84c-.09.49-.63,1.23-.59,1.61.03.35.73.68,1.12,1.01-.7.06-2.34.97-2.56-.65-.1-.73.26-1.79-.62-2.29l2.58-14.22c.27-1.5.65-2.76,1.81-3.62,3.34-2.48,26.28-1.97,36.17-.81,2.47.29,4.21,1.66,4.57,3.48l1.86,9.43Z"/>
      <path class="cls-1" d="M96.88,45.15c-2.45-.53-5.6-1.26-8.17-.35l-11.9-.85-34.6-.13c-.84.07-2.83,1.04-3.51,1.47,1.27-1.23.62-2.27.7-3.61l.78-13.15c.14-2.3.83-4.35,3.88-4.95l.76-3.98c.89.49.52,1.55.62,2.29.23,1.62,1.86.7,2.56.65l4.21-.33,5.77.42,24.73-.36c2.33-.03,6.07,1.29,9.03-.18.67-3.67-1.99-6.73.05-8.22l1.69,10.06c1.07.89,3.59,1.8,3.67,3.75l.41,9.73c.12,2.76.18,5.25-.68,7.73ZM42.19,39.55c-.04.56-.18,1.45.02,1.83.45.85,29.23,1.14,39.63.89l13.7.67c1.62-2.78,1.08-5.48.96-8.82-.09-2.4.89-6.72-2.21-8.17-3.44-1.61-8.35-1.11-12.03-1.22l-22.46-.7h-12.11c-2.9.01-4.55,1.58-4.72,4.08l-.79,11.44Z"/>
      <path class="cls-13" d="M107.57,221.83l-83.29-.1.09-.6h82.97c.25.33.25.56.23.69Z"/>
      <path class="cls-12" d="M109.07,167.85c.04,7.8,0,15.91-5.24,22.72-3.23,4.2-8.03,7.29-13.9,7.76-15.18,1.22-30.37.84-45.58.67-10.96-.12-18.73-5.93-22.22-14.5-5.21-12.75-7.59-25.27-7.74-39.17-.26-23.53,5.25-46.03,17.97-66.74l25.83.28c3.48.04,6.39,1.16,7.28,4.27l2.47,12c2.95,14.3,10.25,27.06,20.7,38.65l11.08,12.28c5.91,6.54,9.31,13.55,9.36,21.78Z"/>
      <path class="cls-6" d="M98.27,72.31c5.78,5.63,10.07,12.28,12.72,19.74l3.87,10.91c2.31,6.51,3.05,13.66,2.61,20.7-.17,4.05-1.21,7.55-4.23,10.11-4.01,1.08-8.27,1.13-11.85-1.61-17.1-13.13-26.64-41.21-21.53-60.32,1.14-.51,2.01-1.51,2.79-2.67,2.24,1.08,5.01.34,7.46.9,2.78.63,5.13,3.2,8.17,2.26ZM112.61,110.42c-1.9-10.61-5.87-20.41-12.29-29.66-2.59-3.73-5.7-7.51-10.33-9.38-2.49-1-5,1.36-5.85,3.29-2.29,5.2-1.92,10.58-1.14,16.23,1.53,11.11,5.75,21.5,12.41,30.9,3.63,5.12,9.62,10.3,14.21,8.11,4.94-2.35,4.27-12.38,2.99-19.51Z"/>
      <path class="cls-4" d="M9.36,124.94c-1.61-.73-3.04-1.32-4.74-1.22.95-16.4,6.45-32.31,14.43-47.36,5.7-10.77,13.14-20.19,23-28.65.68-.59,2.82-.19,3.19-1.51,1.52.25,1.94,1.02,1.7,2.07-.12.52-.12,1.76-.88,2.46-11.97,10.93-20.95,23.32-27.1,37.1-5.33,11.94-8.63,24.37-9.6,37.12Z"/>
      <path class="cls-5" d="M9.36,124.94l-.9,11.67c-.4,15.37,1.84,30.33,3.1,45.59l.79,9.63c.26,3.18,1.15,6.56-1.66,9.14-4.49-15.13-5.91-29.9-6.76-45.07-.5-8.88-.18-17.45.32-25.95l.36-6.24c1.69-.1,3.13.49,4.74,1.22Z"/>
      <path class="cls-8" d="M98.27,72.31c-3.03.94-5.39-1.62-8.17-2.26-2.45-.56-5.22.18-7.46-.9-.77,1.16-1.65,2.16-2.79,2.67-.69-.51-.44-1.71-2.12-1.91.88-2.94,3.33-6.06,7.56-7.28,3.54-1.02,8.13,1,11.17,3.23l-2.93,1.53c2.5,1.04,3.23,3.46,4.73,4.92Z"/>
      <path class="cls-9" d="M113.24,133.76c3.02-2.56,4.06-6.06,4.23-10.11.43-7.04-.3-14.18-2.61-20.7,1.88.2,2.84,1.71,3.28,3.43,2.53,9.81,4.16,27.42-6.02,29.81l1.12-2.43Z"/>
      <path class="cls-7" d="M82.71,22.28l-24.73.36-5.77-.42,1.56-19.04,12.08-.27c.69-.02,1.27-.02,1.53-.35.17-.22.09-.73.01-1.01l15.53.19c-1.49,2.65-.91,4.08-.85,6.14l.64,14.41Z"/>
      <path class="cls-16" d="M67.39,1.54c.07.29.16.79-.01,1.01-.26.34-.84.34-1.53.35l-12.08.27-1.56,19.04-4.21.33c-.38-.34-1.08-.66-1.12-1.01-.04-.38.51-1.12.59-1.61l3.1-17.84c6.04-.91,11.42-.61,16.81-.55Z"/>
      <path class="cls-11" d="M82.27,24.73l.11,15.99c-.92.35-.66,1.15-.53,1.55-10.4.25-39.18-.04-39.63-.89-.21-.39-.06-1.27-.02-1.83,2.86,2.34,10.21,1.3,10.3,1.26.46-.24.72-.92.75-1.77l.41-12.37c1.68.15,3.22.23,4.35-.17.89-.31,1.72-1.25,1.8-2.47l22.46.7Z"/>
      <path class="cls-10" d="M81.85,42.27c-.13-.4-.39-1.2.53-1.55l-.11-15.99c3.68.11,8.59-.38,12.03,1.22,3.09,1.44,2.12,5.76,2.21,8.17.12,3.34.66,6.04-.96,8.82l-13.7-.67Z"/>
      <path class="cls-2" d="M59.81,24.03c-.08,1.22-.91,2.16-1.8,2.47-1.14.4-2.68.32-4.35.17l-.41,12.37c-.03.85-.29,1.53-.75,1.77-.09.05-7.44,1.09-10.3-1.26l.79-11.44c.17-2.5,1.82-4.06,4.72-4.07h12.11Z"/>
    </g>
  </g>
</svg>