<?xml version="1.0" encoding="UTF-8"?>
<svg id="Layer_2" data-name="Layer 2" xmlns="http://www.w3.org/2000/svg" viewBox="0 0 174.07 269.96">
  <defs>
    <style>
      .cls-1 {
        fill: #d1f0f7;
      }

      .cls-2 {
        fill: #d2f1fa;
      }

      .cls-3 {
        fill: #44b5ea;
      }

      .cls-4 {
        fill: #37a8e2;
      }

      .cls-5 {
        fill: #ecf8fb;
      }

      .cls-6 {
        fill: #41b6f1;
      }

      .cls-7 {
        fill: #2298d9;
      }

      .cls-8 {
        fill: #afd5e5;
      }

      .cls-9 {
        fill: #1c85c6;
      }

      .cls-10 {
        fill: #626e77;
      }

      .cls-11 {
        fill: #d7eff8;
      }

      .cls-12 {
        fill: #3eaae1;
      }

      .cls-13 {
        fill: #ecf9fb;
      }

      .cls-14 {
        fill: #2e99d3;
      }

      .cls-15 {
        fill: #707c7f;
      }

      .cls-16 {
        fill: #697276;
      }

      .cls-17 {
        fill: #226894;
      }

      .cls-18 {
        fill: #2a96d0;
      }

      .cls-19 {
        fill: #768185;
      }
    </style>
  </defs>
  <g id="Layer_1-2" data-name="Layer 1">
    <g>
      <path class="cls-19" d="M64.51,266.32c-4.98,4.75-15.77,5.58-19.78-1.91l-4.07-5.49c-7.3,2.86-14.41.23-17.62-5.92,3.51,2.8,8.92,6.28,13.93,5.58,5.23-.73,9.49-5.2,14.99-3.77-3.49,1.83-6.81,1.33-10.15,3.64,3.26,4.66,6.2,9.48,11.58,10.29,3.39.51,10.07-.92,12.27-5.14l51.65-98.69c1.88-3.6-4.61-11.39-1.65-17.08,1.66-3.21,3.66-5.86,7.57-6.06,6.58-.33,11.12-7,15.06-14.61-.89-3.71.98-7.32,4.57-8.73l12.61-24.24c4.06-7.8,5.15-16.84,3.5-25.05l-4.03-20.07-8.01-3.75c-6.89-3.23-13.58-6.99-20.26-11.09l-17.92,7.74c-7.05,3.04-14.01,7.24-17.82,14.45l-14.15,26.74c-1,1.89-.29,4.46-.34,5.65-3.37,2.46-5.42,6.93-7.45,10.64-5.71,10.41,2.89,14.24-.44,21.56-1.88,4.14-4.68,7.17-9.43,7.37-2.09.09-6.11,2.17-7.48,4.82L2.81,227.11c-2.82,5.42-1.37,12.9,1.98,16.36,3.78,3.9,9.63,3.59,14.42,2.8-.51-4.1-1.38-6.58-3.04-8.47-.2-1.5,1.49-2.19,2.46-.44l1.53,5.75c.92,2.73.34,7.86,2.88,9.89-1.71-.9-3.02-3.07-3.66-5.18-3.78,0-7.98.39-11.33-.84-6.2-2.29-8.72-8.56-7.9-14.9.11-.85,1.46-1.92.51-3.59l51.11-97.58c5.94-5.93,11.57-2.13,15.46-9.35,2.06-3.82.03-6.21-1-9.86-2.41-8.47,2.55-18.26,8.72-23.53-.08-1.46,0-3.7.44-4.51l16.2-30.3c2.8-5.23,8.57-8.68,13.61-10.92l19.43-8.6c2.8-1.24,5.84-5.09,4.86-7.7-.34-.79-2.98-1.48-3.05-2.35-.05-.64.98-2.05,1.54-2.59.48-.47,1.27.04,1.77.38-.03.63.16.82.57,1.04-.61,1.37-1.67-.37-2.69,1.09l36.04,18.42c-2.78-4.91-7.67-6.03-11.73-8.16.02-.29.32-.74.6-.82l8.81,4.7c.63-1.27,1.3-1.47,1.96-1.36-.56,1.69.23,2.69,1.32,3.85.95,1.02-.53,3.29-1.33,3.11s-1.95-.72-3.22-1.56-4.35,2.66-3.94,4.85l4.11,21.92c1.11,5.94,2.18,12.98-.91,18.92l-16.78,32.27c-1.31,2.52-3.48,2.62-3.48,6.51,0,3.07-3.71,8.3-5.52,10.89-5.86,8.41-15.2,3.48-17.23,11.91-1.33,5.5,2.86,8.8,2.32,15.45l-52.45,100.6c-.65.05-1.36.81-1.67,1.11ZM153.09,46.36c1.81.93,5.04-4.27,3.85-5.58-8.39-4.19-17.23-7.76-25.13-13.6-1.83,2.08-2.68,3.85-3.62,6.79,9.18,3.44,16.42,8.04,24.9,12.38Z"/>
      <path class="cls-17" d="M163.3,36.5c-.66-.12-1.33.09-1.96,1.36l-8.81-4.7c-.29.08-.58.53-.6.82l-21.62-11.35c-.41-.22-.6-.41-.57-1.04,2.07-1.25,2.09-2.33,2.77-4.21,1.93-5.36,4.94-11.04,8.16-15.71,1.76-2.55,5.26-1.69,7.22-.67l23.39,12.19c1.93,1,3.61,3.9,2.38,6.24l-8.2,15.64c-.52.99-1.68,1.59-2.15,1.43ZM167.76,13.85c.13-.25.18-.65-.06-.99l-21.34-10.92c-.14.27-.18.68.06,1.02l21.35,10.9ZM156.09,24.42l5.52-10.31c.42-.78-.62-2.31-2.21-2.52l-7.15,14.24c-.39.78,2.11,1.75,2.63.8l1.21-2.22ZM140.25,19.5l7.05-13.6c.36-.69-1.77-1.97-2.1-1.33l-7.29,13.86c-.3.56,2.04,1.66,2.34,1.07ZM143.7,21l7.12-13.29c-.08-1.24-1.99-1.71-2.26-1.21l-7.4,13.54c.13,1.25,2.09,1.82,2.55.97ZM148.25,21.5l5.82-11.13c.67-1.29-.48-2.67-1.82-2.28-.94.28-7.73,13.62-7.37,14.15.49.73,1.1,1.03,1.6,1.02.63-.02,1.27-.81,1.77-1.76ZM151.2,24.86l7.08-13.44c-.06-.62-1.78-1.66-2.5-1.39l-7.22,13.95c.2,1.27,2.17,1.78,2.64.89ZM163.85,17.19c.68-1.24.26-2.46-.49-3.06l-7.03,13.9,1.22.63,6.3-11.48ZM163.36,30.21l6.42-12.76-1.26-.66-7.2,13.8,2.04-.38Z"/>
      <path class="cls-1" d="M146.93,45.33c-3.53,16.27,1.34,25.58-8.93,44.54l-12.58,23.49-44.75-22.93c-.27-.14-.79.19-.88.53l44.9,23.56c-2.53,5.02-4.29,11.12-8.96,15.35-2.21,2.01-5.87,2.68-6.69,5.73l-3.92-1.92c-.3.98.14,1.59.65,1.94-.28,2.1-2.41,6.05-4.62,7.1-1.06,0-2.94-1.08-4.33.4,1.64,1.3,2.57,1.77,4.59,2.38l.38,12.58-41.32,79.73c-3.87,7.46-8.73,12.75-16.81,15.23.55-8.05-4.66-14.37-11.89-14.52-4.25-.09-8.19,2.11-11.62,4.58l-1.53-5.75,47.97-92.16c4.65-8.94,12.4-5.7,14.77-16.83l-8.69-3.74c-3.73,4.87-7.94,7.76-13.9,9.45L7.68,231.28c-.73,1.38-.49,2.37-.46,2.99.05,1.22,5.88,5.72,8.96,3.54,1.66,1.89,2.53,4.37,3.04,8.47-4.79.79-10.65,1.1-14.42-2.8-3.34-3.46-4.8-10.94-1.98-16.36l48.82-93.89c1.38-2.65,5.4-4.73,7.48-4.82,4.74-.2,7.54-3.23,9.43-7.37,3.33-7.32-5.28-11.15.44-21.56,2.04-3.72,4.08-8.19,7.45-10.64.05-1.19-.66-3.77.34-5.65l14.15-26.74c3.81-7.21,10.77-11.4,17.82-14.45l17.92-7.74c6.68,4.1,13.37,7.86,20.26,11.09ZM96.76,87.16l12.64-23.56c6.63-9.63,23.51-19.24,21.69-22.39-1.26-2.19-4.23-.75-6.05-.04-9.85,3.84-20.11,8.2-27,17.31-5.3,7.01-7.9,15.24-12.32,23.01,3.36,2.82,6.84,5.19,11.03,5.67ZM85.76,124.36c.09-.2.15-.58-.09-.92l-13.05-6.51c-.09.2-.15.58.09.92l13.05,6.51Z"/>
      <path class="cls-8" d="M23.04,253c-2.54-2.03-1.96-7.17-2.88-9.89,3.43-2.46,7.37-4.67,11.62-4.58,7.22.15,12.44,6.47,11.89,14.52,8.07-2.48,12.94-7.77,16.81-15.23l41.32-79.73-.38-12.58c-2.01-.62-2.94-1.09-4.59-2.38,1.39-1.48,3.27-.4,4.33-.4,2.21-1.05,4.34-4.99,4.62-7.1,4.51.9,7.64,5.25,13.3,5.05l-10.03-5.07c.82-3.05,4.47-3.72,6.69-5.73,4.66-4.23,6.43-10.33,8.96-15.35l9.57,4.99c.33.01.66-.15.85-.54l-9.69-5.61,12.58-23.49c10.27-18.96,5.4-28.27,8.93-44.54l8.01,3.75,4.03,20.07c1.65,8.21.56,17.24-3.5,25.05l-12.61,24.24c-3.59,1.41-5.46,5.02-4.57,8.73-3.94,7.61-8.48,14.28-15.06,14.61-3.9.19-5.9,2.85-7.57,6.06-2.96,5.7,3.54,13.48,1.65,17.08l-51.65,98.69c-2.21,4.21-8.89,5.65-12.27,5.14-5.38-.81-8.32-5.64-11.58-10.29,3.34-2.31,6.65-1.81,10.15-3.64-5.5-1.44-9.76,3.04-14.99,3.77-5.01.7-10.42-2.78-13.93-5.58Z"/>
      <path class="cls-5" d="M18.63,237.36c-.97-1.74-2.66-1.06-2.46.44-3.08,2.19-8.91-2.32-8.96-3.54-.02-.62-.26-1.6.46-2.99l51.09-97.19c5.96-1.7,10.17-4.58,13.9-9.45l8.69,3.74c-2.37,11.13-10.12,7.89-14.77,16.83l-47.97,92.16Z"/>
      <path class="cls-2" d="M153.09,46.36c-8.47-4.34-15.71-8.95-24.9-12.38.94-2.94,1.79-4.71,3.62-6.79,7.9,5.84,16.73,9.41,25.13,13.6,1.2,1.31-2.03,6.51-3.85,5.58Z"/>
      <path class="cls-11" d="M151.93,33.98c4.05,2.13,8.95,3.25,11.73,8.16l-36.04-18.42c1.02-1.46,2.08.28,2.69-1.09l21.62,11.35Z"/>
      <path class="cls-18" d="M156.09,24.42l-1.21,2.22c-.52.95-3.02-.01-2.63-.8l7.15-14.24c1.59.2,2.63,1.74,2.21,2.52l-5.52,10.31Z"/>
      <path class="cls-4" d="M148.25,21.5c-.5.95-1.14,1.74-1.77,1.76-.5.02-1.11-.28-1.6-1.02-.36-.53,6.43-13.88,7.37-14.15,1.34-.39,2.49.99,1.82,2.28l-5.82,11.13Z"/>
      <path class="cls-14" d="M151.2,24.86c-.47.89-2.43.38-2.64-.89l7.22-13.95c.72-.26,2.44.78,2.5,1.39l-7.08,13.44Z"/>
      <path class="cls-12" d="M143.7,21c-.46.85-2.41.29-2.55-.97l7.4-13.54c.27-.5,2.18-.04,2.26,1.21l-7.12,13.29Z"/>
      <path class="cls-3" d="M140.25,19.5c-.3.59-2.64-.51-2.34-1.07l7.29-13.86c.33-.63,2.46.65,2.1,1.33l-7.05,13.6Z"/>
      <polygon class="cls-9" points="163.36 30.21 161.32 30.6 168.52 16.79 169.78 17.46 163.36 30.21"/>
      <path class="cls-7" d="M163.85,17.19l-6.3,11.48-1.22-.63,7.03-13.9c.75.6,1.17,1.82.49,3.06Z"/>
      <path class="cls-6" d="M167.76,13.85l-21.35-10.9c-.24-.34-.2-.74-.06-1.02l21.34,10.92c.24.34.19.74.06.99Z"/>
      <path class="cls-13" d="M96.76,87.16c-4.19-.48-7.67-2.85-11.03-5.67,4.42-7.77,7.03-16,12.32-23.01,6.89-9.11,17.14-13.48,27-17.31,1.82-.71,4.79-2.15,6.05.04,1.82,3.16-15.06,12.77-21.69,22.39l-12.64,23.56Z"/>
      <path class="cls-15" d="M124.69,114.54l-44.9-23.56c.09-.35.61-.67.88-.53l44.75,22.93,9.69,5.61c-.2.4-.52.55-.85.54l-9.57-4.99Z"/>
      <path class="cls-10" d="M105.77,135.63c-.5-.35-.94-.96-.65-1.94l3.92,1.92,10.03,5.07c-5.66.19-8.79-4.15-13.3-5.05Z"/>
      <path class="cls-16" d="M85.76,124.36l-13.05-6.51c-.24-.34-.19-.73-.09-.92l13.05,6.51c.24.34.19.73.09.92Z"/>
    </g>
  </g>
</svg>