<?xml version="1.0" encoding="UTF-8"?>
<svg id="Layer_2" data-name="Layer 2" xmlns="http://www.w3.org/2000/svg" viewBox="0 0 58.68 60.82">
  <defs>
    <style>
      .cls-1 {
        fill: #d0eaed;
      }

      .cls-2 {
        fill: #afcbcf;
      }

      .cls-3 {
        fill: #d1eaec;
      }

      .cls-4 {
        fill: #597984;
      }

      .cls-5 {
        fill: #8fb2b9;
      }

      .cls-6 {
        fill: #7ea0a9;
      }

      .cls-7 {
        fill: #648691;
      }

      .cls-8 {
        fill: #bbd7d9;
      }

      .cls-9 {
        fill: #b5d0d3;
      }

      .cls-10 {
        fill: #cae5e7;
      }

      .cls-11 {
        fill: #cbe6e8;
      }

      .cls-12 {
        fill: #b4cfd2;
      }

      .cls-13 {
        fill: #d8f1f3;
      }

      .cls-14 {
        fill: #84a7ae;
      }

      .cls-15 {
        fill: #b4d0d3;
      }

      .cls-16 {
        fill: #c0dbdd;
      }

      .cls-17 {
        fill: #b3cfd2;
      }

      .cls-18 {
        fill: #c9e4e6;
      }

      .cls-19 {
        fill: #8cafb6;
      }

      .cls-20 {
        fill: #cce7e9;
      }

      .cls-21 {
        fill: #8fb2b8;
      }

      .cls-22 {
        fill: #7b9ea7;
      }

      .cls-23 {
        fill: #8eb1b8;
      }

      .cls-24 {
        fill: #94b6bd;
      }

      .cls-25 {
        fill: #b3d0d3;
      }

      .cls-26 {
        fill: #8eb2b8;
      }

      .cls-27 {
        fill: #b4d0d2;
      }

      .cls-28 {
        fill: #d7ebed;
      }

      .cls-29 {
        fill: #81a4ac;
      }
    </style>
  </defs>
  <g id="Layer_1-2" data-name="Layer 1">
    <g>
      <path class="cls-7" d="M16.61,19.86c.15.18.21.42.34.45.37.09.53-.9.91-.47l-1.21,1.83-.47.9c-.35.58-1.02,1.14-1.01,1.88-.56-.17-.56.57-.77.84-.46.59-1.08,1.33-1.16,2.01-.13.12-.33.21-.46.45-.09.18-.2.32,0,.55-.66.01-.79.61-1.14,1.13l-7.45,10.97-1.66,2.74c.86.66.99,1.76,1.54,2.57,1.21,1.79,2.71,3.12,4.24,4.6,1.82,1.76,3.79,3.51,6.22,4.87-.21.05-.47-.14-.19-.37.02-.16.18-.28.34-.27l.3.32c-.25.02.14.17-.11.53,1.47.88,3.06,2.01,4.9,2.13.76.05,1.07-.88,1.43-1.13.81-.57,1.96-1.51,2.58-2.28.38-.47,2.92-2.23,3.06-2.69l.17-.57c.05-.16.53-.09.66-.2l4.31-3.85c.46-.41.94-.53,1.08-1.43l-4.67-2.42c-.21-.11-.53-.35-.58-.62-.03-.2.22-.34.34-.62.04.08.13.1.2.14l4.09,2.1,1.84.79c.62-.61,1.16-.75,1.64-1.51-2.03-.74-4.21-1.9-5.95-3.2,0-.21.35-.54.52-.66.05,0,.1-.06.16-.11,1.82,1.46,3.97,2.45,6.2,3.28l1.43-1.46-4.38-2.2-1.69-1.04c.25-.24.39-.43.56-.72.08-.09.23-.05.32-.03.47.53,1.15.94,1.88,1.3l4.21,2.08c.61-.46.99-.86,1.48-1.5-.92-.24-1.52-.61-2.26-1.04l-3.86-2.22c.12-.27.42-.44.56-.56.07-.06-.02-.14,0-.27.04.13.2.2.34.03,1.69,1.38,3.69,2.43,6.02,3.3.58.11,1.33-.86,1.7-1.26l.69-.74c.58-.62,1.57-.92,2.1-1.92-.52.23-.84.06-1.27-.18l-4.89-2.77c-.37.16-.65-.19-.44-.38l.51-.46.21-.21c1.82,1.32,6.11,3.69,6.53,3.6.29-.06.42-.36.37-.77,1.33-.17,2.45-1.85,3.21-2.49l3.7-3.11c-3.23-1.47-6.01-3.38-8.82-5.6-3.88-3.07-7.49-6.2-10.89-9.58l-1.98-1.97-3.58-4.38c.23-.48-.5-.45-.57-1.14-.02-.16-.3-.32-.46-.15.39-.6.66-1.16.22-1.78-.14-.2.14-.81-.4-.9.14-.77.69-1.31,1.45-1.98,3.02-.52,7.27,3.02,10.24,5.25,6.18,4.64,11.81,9.81,16.99,15.51,1.01,1.11,1.87,2.32,2.43,3.75s-.63,2.84-2.17,3.19c-.68.15-1.42.34-2.02.87l-22.99,20.12-9.48,8.56-3.25,2.66c-1.22,1-2.73,1.13-4.04.42-3.37-1.84-6.18-4.33-9.11-6.9-1.83-1.61-3.58-3.17-4.9-5.16-.93-1.41-.73-2.96.24-4.44l5.36-8.13,10.4-15.88ZM39.11,6.79l-.05.75-.73-.75s.26-.21.37-.35c.06-.08-.02-.33-.31-.15-4.55-4.04-12.13-8.03-8.59-2.03-.03.05-.24.07-.42.14s-.19.39.04.38c.14,0,.56.11.13.42l1.4,2.11c.25-.08.51.01.5.11l-.04.56,3,3.2c.31-.32.58.06.22.25.81,1.14,2.16,1.88,3.08,2.9,2.13,2.36,4.41,4.34,7.08,6.11.71.47,1.28,1.48,2.15,1.69.13-.31.51-.2.5-.04,0,.11-.09.34.05.43l2.99,2.01,3.88,2.22c.23.13.41.16.67.17.2,0,.38-.48,0-.61-.45-.15-1-.31-.98-.92,1.23.9,2.44,1.14,3.6.31-.15-.96-.53-1.6-.99-2.2l-2.05-2.67-2.84-3.03-5.71-5.34c-.69-.65-1.3-1.19-2.05-1.79l-4.86-3.87ZM3.02,48.83c-.13.04-.22.16-.21.25.1,1.14,7.07,6.59,9.79,8.55l2.37,1.7c1.04.75,2.41.55,3.5-.44-.78-.71-1.64-.95-2.45-1.5l-2.19-1.49-.96-.34c-1.13-.4-1.99-1.57-2.9-2.46l-5.23-5.14-2.94-3.41c-.29.21-.49.62-.46.74s.37.17.27.24c-.37.25-.78.29-.67.59l.23.63c-.08.66.77,1.46,1.2,1.94.17.03.54-.07.65.13Z"/>
      <path class="cls-22" d="M27.61,4.72l-5.43,8.34c.06.35.43.67.65,1l.96,1.46,2.56,3.12c4.2,5.11,8.78,8.03,13.55,11.87l-.51.46c-.21.19.08.54.44.38-.09.2-.23.24-.35.23-.31-.02-.31-.27-.41-.38-1.09-1.15-3.01-2.36-4.5-3.53-3.22-2.54-6.1-5.1-8.75-8.01-1.58-1.74-2.95-3.66-4.18-5.73-.53.82-.58,1.18-1.28,1.89.4.04.48.3.24.56l2.68,3.61,1.25,1.43c.7.8,1.34,1.55,2.06,2.2l7.35,6.62,3.75,2.51,6.19,3.47-.69.74-6.43-3.54c-4.66-3.12-8.85-6.86-12.68-10.91l-3.82-4.72c-.21.08-.29-.24-.01-.33.12-.04-.35-.18-.5-.36-.41.41-.82,1.1-1.08,1.59.83,1.43,1.64,2.44,2.55,3.53l1.34,1.61c3.6,4.31,7.95,7.9,12.57,11.07-.01.13.08.21,0,.27-.14.12-.44.29-.56.56l3.86,2.22c.74.42,1.34.79,2.26,1.04-.49.64-.87,1.04-1.48,1.5l-4.21-2.08c-.73-.36-1.41-.77-1.88-1.3.38-.38,1.08-.9,1.21-1.54-4.63-3.24-8.6-6.83-12.3-10.73l-3.18-3.63c.03-.56-.42-1.15-.98-1.36-.38-.43-.54.57-.91.47-.13-.03-.19-.27-.34-.45L27.21,3.38l.22-1.35c.54.08.26.7.4.9.44.63.17,1.18-.22,1.78Z"/>
      <path class="cls-2" d="M14.34,30.6l-8.95,11.61c-.53.68-.88,1.32-.93,2.1-.04.62.33,1.3.93,1.79l5.61-6.87,4.68-6.28,1.4,1.25c.15.14.32.03.37-.06,3.08,3.17,6.55,5.87,10.04,8.4l-4.05,4.36-3.21,3.24-3.4,3.49c-.53.54-1.17,1.26-1.86,1.23l-.3-.32c-.16-.01-.32.1-.34.27-.28.22-.02.42.19.37-2.43-1.36-4.4-3.12-6.22-4.87-1.53-1.47-3.03-2.81-4.24-4.6-.55-.81-.68-1.91-1.54-2.57l1.66-2.74,7.45-10.97c.35-.51.48-1.11,1.14-1.13l1.56,2.29Z"/>
      <path class="cls-15" d="M33.13,12.32c.83,1.06,1.74,2.06,2.75,3.07l3.62,3.6,4.73,4.35c.35.32,1.48.69,1.2,1.4-.42,1.03-3.53,3.8-5.32,5.55l-.21.21c-4.77-3.84-9.35-6.76-13.55-11.87l6.2-7.06.58.75Z"/>
      <path class="cls-19" d="M28.16,41.72c-.11.29-.37.43-.34.62.05.27.36.51.58.62l4.67,2.42c-.14.9-.62,1.02-1.08,1.43l-4.31,3.85c-.13.12-.62.05-.66.2l-.17.57c-.14.46-2.68,2.22-3.06,2.69-.62.78-1.77,1.72-2.58,2.28-.36.25-.66,1.18-1.43,1.13-1.84-.13-3.43-1.25-4.9-2.13.25-.35-.14-.51.11-.53.69.03,1.33-.69,1.86-1.23l3.4-3.49,3.21-3.24,4.05-4.36c-3.49-2.53-6.96-5.23-10.04-8.4-.6-.62-1.25-1.21-1.88-1.99l-1.24-1.54-1.56-2.29c-.19-.23-.08-.38,0-.55.13-.24.33-.33.46-.45l2.86,3.86,1.53,1.7c.1.11.61.02.61.17v.53c3.06,3.15,6.44,5.73,9.91,8.16Z"/>
      <path class="cls-5" d="M40.11,30.3c1.79-1.75,4.9-4.52,5.32-5.55.29-.71-.85-1.09-1.2-1.4l-4.73-4.35-3.62-3.6c-1.01-1.01-1.92-2.01-2.75-3.07.41-.14.73.08,1.08.03,3.41,3.38,7.01,6.51,10.89,9.58,2.8,2.22,5.59,4.13,8.82,5.6l-3.7,3.11c-.76.64-1.88,2.32-3.21,2.49.06.41-.08.71-.37.77-.42.09-4.7-2.28-6.53-3.6Z"/>
      <path class="cls-13" d="M38.32,6.79c-2.47-2.52-7.42-5.13-7.56-3.15-.02.26.18.64.41.95l2.22,3.05,1.37,1.37,2.7,2.74,8.22,7.27,2.95,2.25,3.83,2.48c.74.48,1.48.98,2.54,1.01l-.71-2.47c-.22-.77-.83-1.36-1.17-1.99.16-.13.33-.02.67.05.11.25.44.72.79.47l2.05,2.67c.46.6.85,1.24.99,2.2-1.15.83-2.37.59-3.6-.31-.02.61.53.76.98.92.39.13.21.62,0,.61-.26-.01-.44-.04-.67-.17l-3.88-2.22-2.99-2.01c-.14-.09-.06-.32-.05-.43.01-.16-.37-.27-.5.04-.88-.22-1.44-1.22-2.15-1.69-2.67-1.77-4.95-3.76-7.08-6.11-.92-1.02-2.27-1.76-3.08-2.9.36-.19.09-.58-.22-.25l-3-3.2.04-.56c0-.09-.26-.19-.5-.11l-1.4-2.11c.43-.31.01-.42-.13-.42-.22.01-.2-.31-.04-.38s.39-.09.42-.14c-3.54-5.99,4.04-2,8.59,2.03.28-.18.37.07.31.15-.11.14-.36.34-.37.35Z"/>
      <path class="cls-1" d="M34.21,12.35c-.35.05-.67-.17-1.08-.03l-.58-.75-6.2,7.06-2.56-3.12-.96-1.46c.19.05.56.3.66.13l.44-.75c1.52-2.59,3.4-4.87,4.73-7.43l3.58,4.38,1.98,1.97Z"/>
      <path class="cls-15" d="M28.36,41.86c-.07-.04-.16-.05-.2-.14-3.46-2.43-6.85-5.01-9.91-8.16v-.53c0-.15-.5-.05-.61-.17l-1.53-1.7-2.86-3.86c.08-.68.7-1.42,1.16-2.01.28.34.68.63.91,1.04,1.11,2.06,2.73,3.56,4.38,5.23,3.16,3.18,6.56,5.88,10.17,8.44l-1.53,1.86Z"/>
      <path class="cls-29" d="M41.96,9.43c-.88.79-1.09,2.28-2.24,3.48-.47-.59-.85-.99-1.33-.89-.74-.64-1.62-1.21-2.18-2.11l-2.64-2.41c-.09,0-.19.11-.19.14l-2.22-3.05c-.22-.31-.42-.69-.41-.95.14-1.98,5.1.63,7.56,3.15l.73.75.05-.75,2.85,2.64Z"/>
      <path class="cls-12" d="M33.11,37.09c-.09-.01-.24-.06-.32.03-4.39-3.06-8.46-6.54-12.11-10.44.19-.76.76-1.39,1.35-1.86,3.7,3.9,7.66,7.49,12.3,10.73-.13.64-.82,1.15-1.21,1.54Z"/>
      <path class="cls-27" d="M36.75,33.42l-1.29,1.5c-.15.17-.31.1-.34-.03-4.62-3.17-8.97-6.76-12.57-11.07.36-.42.72-.82,1-1.48.17.24.38.25.52.16,3.83,4.06,8.03,7.79,12.68,10.91Z"/>
      <path class="cls-14" d="M18.47,28.87c3.37,4.16,7.74,7.33,12.03,10.51-.17.12-.53.45-.52.66,1.74,1.31,3.91,2.46,5.95,3.2-.48.76-1.01.9-1.64,1.51l-1.84-.79-4.09-2.1,1.53-1.86c-3.61-2.55-7.01-5.26-10.17-8.44-1.65-1.66-3.27-3.16-4.38-5.23-.22-.41-.63-.7-.91-1.04.21-.27.2-1.01.77-.84l1.23,1.89,2.05,2.53Z"/>
      <path class="cls-17" d="M30.67,39.26c-.06.06-.11.12-.16.11-4.29-3.17-8.66-6.35-12.03-10.51l1.53-1.4c3.79,3.78,7.82,7.38,12.23,10.38l-1.56,1.41Z"/>
      <path class="cls-25" d="M13.83,55.91c-.14.77-.6,1.25-1.23,1.72-2.73-1.96-9.69-7.41-9.79-8.55,0-.09.08-.22.21-.25.39.68.79-.54,1.72-.86l5.23,5.14c.91.89,1.77,2.06,2.9,2.46l.96.34Z"/>
      <path class="cls-6" d="M20.68,26.68c3.65,3.9,7.72,7.38,12.11,10.44-.17.29-.32.48-.56.72-4.41-3-8.44-6.6-12.23-10.38l-1.29-1.51-2.52-3.38.47-.9c1.51,1.53,2.43,3.7,4.01,5.02Z"/>
      <path class="cls-8" d="M28.65,6.01c-1.33,2.56-3.22,4.84-4.73,7.43l-.44.75c-.1.18-.47-.08-.66-.13-.22-.33-.58-.65-.65-1l5.43-8.34c.16-.16.45,0,.46.15.08.69.8.66.57,1.14Z"/>
      <path class="cls-23" d="M43.88,36.22l-6.19-3.47c.36-.5.77-1.04,1.38-1.54.1.11.1.36.41.38.12,0,.26-.04.35-.23l4.89,2.77c.42.24.75.4,1.27.18-.53,1-1.53,1.3-2.1,1.92Z"/>
      <path class="cls-26" d="M43.19,36.96c-.37.4-1.12,1.36-1.7,1.26-2.33-.86-4.32-1.91-6.02-3.3l1.29-1.5,6.43,3.54Z"/>
      <path class="cls-21" d="M30.67,39.26l1.56-1.41,1.69,1.04,4.38,2.2-1.43,1.46c-2.22-.83-4.38-1.82-6.2-3.28Z"/>
      <path class="cls-11" d="M22.02,24.82c-.59.48-1.16,1.1-1.35,1.86-1.59-1.32-2.51-3.49-4.01-5.02l1.21-1.83c.56.21,1.01.8.98,1.36l3.18,3.63Z"/>
      <path class="cls-18" d="M20,27.46l-1.53,1.4-2.05-2.53-1.23-1.89c-.01-.74.66-1.3,1.01-1.88l2.52,3.38,1.29,1.51Z"/>
      <path class="cls-16" d="M4.74,47.97c-.93.32-1.33,1.53-1.72.86-.11-.19-.48-.09-.65-.13-.42-.49-1.28-1.28-1.2-1.94l-.23-.63c-.11-.29.3-.34.67-.59.1-.08-.24-.13-.27-.24s.17-.52.46-.74l2.94,3.41Z"/>
      <path class="cls-28" d="M54.58,20.82c-.34.25-.67-.22-.79-.47-.34-.07-.51-.18-.67-.05-.79-1.46-1.97-2.62-3.23-3.76l-7.93-7.11-2.85-2.64,4.86,3.87c.75.6,1.36,1.15,2.05,1.79l5.71,5.34,2.84,3.03Z"/>
      <path class="cls-9" d="M39.07,31.2c-.61.51-1.03,1.04-1.38,1.54l-3.75-2.51-7.35-6.62c-.71-.64-1.36-1.4-2.06-2.2.24-.66.68-1.42,1.29-1.76,2.65,2.91,5.53,5.48,8.75,8.01,1.49,1.17,3.41,2.38,4.5,3.53Z"/>
      <path class="cls-20" d="M25.82,19.66c-.62.34-1.05,1.1-1.29,1.76l-1.25-1.43-2.68-3.61c.24-.26.16-.52-.24-.56.7-.71.75-1.07,1.28-1.89,1.23,2.06,2.6,3.98,4.18,5.73Z"/>
      <path class="cls-10" d="M24.07,22.51c-.14.09-.36.07-.52-.16-.27.66-.64,1.06-1,1.48l-1.34-1.61c-.91-1.08-1.72-2.1-2.55-3.53.26-.5.67-1.18,1.08-1.59.14.17.62.31.5.36-.28.09-.19.42.01.33l3.82,4.72Z"/>
      <path class="cls-3" d="M17.46,34.14c-.04.1-.21.2-.37.06l-1.4-1.25-4.68,6.28-5.61,6.87c-.6-.49-.98-1.17-.93-1.79.05-.78.4-1.41.93-2.1l8.95-11.61,1.24,1.54c.63.78,1.27,1.38,1.88,1.99Z"/>
      <path class="cls-24" d="M53.12,20.3c.34.63.95,1.22,1.17,1.99l.71,2.47c-1.05-.03-1.8-.54-2.54-1.01l-3.83-2.48c.26-.42-.43-.56-.59-.75-1.2-1.47-2.52-2.32-3.88-3.49l-5.78-5c.48-.1.86.3,1.33.89,1.15-1.2,1.36-2.69,2.24-3.48l7.93,7.11c1.26,1.13,2.44,2.29,3.23,3.76Z"/>
      <path class="cls-4" d="M38.39,12.02l5.78,5c1.36,1.18,2.68,2.03,3.88,3.49.15.19.85.33.59.75l-2.95-2.25-8.22-7.27-2.7-2.74-1.37-1.37s.1-.13.19-.14l2.64,2.41c.56.9,1.44,1.47,2.18,2.11Z"/>
    </g>
  </g>
</svg>