<?xml version="1.0" encoding="UTF-8"?>
<svg id="Layer_2" data-name="Layer 2" xmlns="http://www.w3.org/2000/svg" viewBox="0 0 93.83 103.37">
  <defs>
    <style>
      .cls-1 {
        fill: #19597a;
      }

      .cls-2 {
        fill: #baedf0;
      }

      .cls-3 {
        fill: #b4eaee;
      }

      .cls-4 {
        fill: #b8ecf0;
      }

      .cls-5 {
        fill: #b5eaee;
      }

      .cls-6 {
        fill: #15597a;
      }

      .cls-7 {
        fill: #c5f3f5;
      }

      .cls-8 {
        fill: #b6eaee;
      }

      .cls-9 {
        fill: #7fc4d6;
      }

      .cls-10 {
        fill: #043f66;
      }

      .cls-11 {
        fill: #194b6d;
      }

      .cls-12 {
        fill: #69aec2;
      }

      .cls-13 {
        fill: #08496d;
      }

      .cls-14 {
        fill: #cff7fa;
      }

      .cls-15 {
        fill: #4c8ea7;
      }

      .cls-16 {
        fill: #3f7b96;
      }

      .cls-17 {
        fill: #7dc0d1;
      }

      .cls-18 {
        fill: #11567b;
      }

      .cls-19 {
        fill: #0a5279;
      }

      .cls-20 {
        fill: #165b7c;
      }

      .cls-21 {
        fill: #176a8e;
      }

      .cls-22 {
        fill: #155f83;
      }

      .cls-23 {
        fill: #b3e7ec;
      }

      .cls-24 {
        fill: #05436a;
      }

      .cls-25 {
        fill: #044a75;
      }

      .cls-26 {
        fill: #dafbfc;
      }

      .cls-27 {
        fill: #7ec4d5;
      }

      .cls-28 {
        fill: #b4ebef;
      }

      .cls-29 {
        fill: #b5ebef;
      }

      .cls-30 {
        fill: #16688e;
      }

      .cls-31 {
        fill: #165c80;
      }

      .cls-32 {
        fill: #7dc1d2;
      }

      .cls-33 {
        fill: #07527b;
      }

      .cls-34 {
        fill: #6cb2c7;
      }

      .cls-35 {
        fill: #b5ebee;
      }
    </style>
  </defs>
  <g id="Layer_1-2" data-name="Layer 1">
    <g>
      <path class="cls-12" d="M6.07,9.67c2.09.71,4.84,1.21,7.21,1.27-.01.35-.12.66.13,1.48,2.65-.48,5.06.3,7.75.34l27.57.38,21.99-.54c-.21.5.15,1.18.84,1.09.52-.06.99.19.84.74-1.86.72-4.68.52-7.13.5l-35.34-.19-3.08-.43-11.98-.17-8.09-.43,1.38,13.18c.11,1.08.45,2.06,1.31,2.76,1.03.84,2.35-.03,3.74-.33,1.03-.22,1.02.99.66,1.09-.28.08.87.31,1.2.31,2.35.03,6.13.59,8.55,1.5,1.18.44,2.67-.22,4-.19,15.08.31,30.07-.39,45.08-1.25l11.26-.5c1.26,2.75.94,5.72-.38,8.3,1.2,1.89.02,3.76-.23,5.43-.48-.1-.91-.2-1.21-.13-.45.09,0,1.27-.34,1.74l-12.81,1.14-9.23.95-30.47.12c-.28-.82-.98-.69-1.29-.62-1.14-.38-2.65.46-3.61.28-3.29-.62-7.48.02-11.49-1.4l.67,6.98c3.93,0,7.35.78,10.77.2,0,.8-.51,1.36-.84,2.01l-9.94-.98.77,11.74c.43,6.51,1.16,12.63,2.67,19.34.4,1.76-.49,4.97,2.08,5.79,2.42.77,5.63.14,7.97.27l.64.45-6.23.55c2.47.53,4.7.95,7.67.78,1.79-.1,4.34,1.15,6.31-.29-1.93-.25-3.74.41-5.25-1.06l9.36.41-3.57,1.04c6.5.88,12.99,1.15,19.72.26.32-.04.21-1.31.06-1.45.72-.11,1.28.53,1,1.58l10.64-.48c2.89-.13,5.47-.75,8.11-.35-.23.45-.09,1.07.43,1.3.28.13.86.05,1.04-.03.23.34.25.77-.11,1.11-.38-.25-.99-.52-1.46-.53-5.25-.14-10.46.2-15.6.88h-9.51s-20.11.18-20.11.18c-1.52.01-3.26.99-5.06.18-.6-.27-2.32,0-2.43.63-.52,2.8,2.77,3.28,2.32,5.09-4.19.34-7.29-.37-7.82-3.09-.06-.33-.98-.59-1.25.07-.11-.26-.29-.72-.3-1.07,1.24-.94,1.34-3.44-.09-4.21-.77-.42-.7-1.9-.68-2.61,1.31-.37.75-1.51.83-2.37s.31-1.76-1.2-1.6c-.48.05-.53-1.09-.46-1.54,1.19-.88,1.51-4.2-.11-4.65-.87-.24-.59-.97-.61-1.42,1.21-.23.73-1.15.8-1.69.12-.93.16-1.56-.99-1.75-.88-.14-.68-1.44-.64-2,1.21-.83,1.31-3.5-.16-4.1l-.62-3.42c1.28-.69,1.23-2.83.03-3.47-.96-.52-.79-1.83-.81-2.65,1.24-.94,1.27-3.42-.03-4.22-.56-.5-.81-1.9-.73-2.63,1.24-.17.73-1.14.81-1.68.13-.87.22-1.72-1.2-1.67l-1.98-12.33c1.18-.85,1.26-3.35.03-4.13-.83-.52-.96-1.55-1.19-2.26.45-1.15.5-2.27.23-3.88-.78.23-1,.75-1.07,1.19-.18-.58-.51-1.2-.4-1.82,1.93-2.72-.66-6.93.02-12.31l-1.65.75.09-1.4c.96-.03.75-.62.82-1.02.15-.91.09-1.5-.83-1.69,0-.76-.15-1.1-.92-2.36l3.17,1.07ZM58.95,45.68c3.24-.38,7.02.5,10.39-.31.45-2.02.88-3.25.71-5.45-14.04,2.01-27.6,1.92-41.63,1.61-1.01-.02-1.03-1.62-.45-1.62,13.25-.02,26.19-.12,39.81-1.32,2.66-.23,3.71-3.71,3.3-5.75-20.62,1.77-39.96,1.66-60.57.28l.48,6.84c4.74-.15,9.29-1.13,13.87.78-4.52,1.37-8.14-.13-12.76-.08-.65.65-1.03,4.67.52,4.76l10.48.6c10.35.59,25.21.91,35.85-.34Z"/>
      <path class="cls-16" d="M89.58,13.7l-2.25-.11-13.54,1.22c-.4.04-1.01-.53-1.38-.38.16-.55-.32-.8-.84-.74-.37-.64-.19-1.17.47-1.32.84-.19,1.57-.11,2.22.56,3.01-1.59,9.05.07,14.8-2.27-2.13-.75-4.5-.5-6.77,0-3.83.83-7.82.41-11.5.43-5.62.02-11.67.07-17.93.16l-26.76.37c-.9-.96-2.36-1.45-2.67-.39l-10.15-.28c-2.37-.07-5.12-.57-7.21-1.27,1.04.23,2.2-.26,2.95-.24l21.43.43c9.1.18,18.41.82,27.43,0,5.38-.49,10.57.3,15.62-.86.51.45,1.43.71,2.8.61l15.1-1.08,1.07-5.52c-4.15,1.61-7.56.72-11.41.67l-8.8-.11c-1.21-.02-3.23.12-4.02-.91,4.39.2,9.01-.09,13.29-.23l10.13-.33c.35-.13.43-.4.42-.56l-21.84-.28c-.35,0-1.28-.63-1.61-.56l-.2-.67,8.54.27,16.19.44c1.2,2.5.89,7.15-1.59,8.85-2.08,1.42-1.71,2.29-1.99,4.1Z"/>
      <path class="cls-15" d="M22.73,0v.71c-.07-.16-.78.58-1.04.58l-17.03.27c.29.36,1.47,1.16,1.88,1.16l24.81-.13c12.64-.07,24.54-.5,36.9.07.79,1.02,2.81.89,4.02.91l.11,1.25-14.21-.5-46.33-.08c-1.49,0-2.92,1.04-3.33,1.76-.53.91-.05,2.61.51,3.44-.75-.01-1.91.47-2.95.24l-3.17-1.07c.77,1.26.92,1.6.92,2.36C.75,10.32-1.05,3.47.66.86l15.83-.34C18.75.48,20.66,0,22.73,0Z"/>
      <path class="cls-1" d="M89.58,13.7c-.12.8-1.18,1.96-.71,3.39.64,1.96-.5,3.69-.64,5.39-.31,3.79.41,7.43-2.31,10.57.29,4.27-.85,8.31-1.71,12.69l-7.24,48.37c-.18.08-.76.15-1.04.03-.52-.23-.66-.86-.43-1.3l3.49-19.66,4.35-29.19c.25-1.67,1.42-3.54.23-5.43,1.32-2.58,1.64-5.55.38-8.3,2.68.15,2.36-1.93,2.61-3.52l1.13-7.24c.33-2.14,1.03-4.21-.36-5.91l2.25.11Z"/>
      <path class="cls-6" d="M15.93,98.63c.27-.67,1.18-.41,1.25-.07.53,2.73,3.64,3.43,7.82,3.09,1.03-.08,1.77.41,2.79.44l15.04.54c2.01.07,3.42.17,5.55,0l10.04-.85c2.06,1.04,5.02.82,7.54-.27,3.17.53,5.56.03,8.51-.98l.94-5.83c.46.01,1.08.28,1.46.53-1.08,1.03-.37,2.95-.71,3.97-.97,2.95-3.2,3.38-5.84,3.5l-14.02.64-25.07.03c-4.68,0-13.72-1.19-14.08-1.99l-1.22-2.74Z"/>
      <polygon class="cls-11" points="68.43 .04 68.63 .71 22.72 .71 22.73 0 68.43 .04"/>
      <path class="cls-18" d="M5.38,26.65c.36-2.09-.18-3.86-.69-6.22-.39-1.81.65-4.03-.95-5.35l1.65-.75c-.68,5.38,1.92,9.59-.02,12.31Z"/>
      <path class="cls-13" d="M14.02,85.23c.18-1.18.17-3.3-.11-4.65,1.62.44,1.3,3.77.11,4.65Z"/>
      <path class="cls-33" d="M7.78,37.55l.03-4.13c1.23.78,1.15,3.28-.03,4.13Z"/>
      <path class="cls-24" d="M10.9,60.07l-.03-4.22c1.3.8,1.27,3.28.03,4.22Z"/>
      <path class="cls-25" d="M12.47,73.72c.09-1.33.07-2.82-.16-4.1,1.48.6,1.38,3.27.16,4.1Z"/>
      <path class="cls-22" d="M14.85,90.75c.03-1.22.17-2.74-.38-3.97,1.51-.16,1.28.78,1.2,1.6s.48,2-.83,2.37Z"/>
      <path class="cls-10" d="M15.63,97.57l-.09-4.21c1.43.78,1.33,3.27.09,4.21Z"/>
      <path class="cls-19" d="M6.62,31.15l-.84-2.68c.08-.44.29-.97,1.07-1.19.27,1.6.22,2.73-.23,3.88Z"/>
      <path class="cls-21" d="M13.3,79.16l-.19-3.44c1.15.18,1.11.81.99,1.75-.07.54.41,1.46-.8,1.69Z"/>
      <path class="cls-20" d="M10.14,53.22c.12-1.09-.2-2.2-.38-3.35,1.41-.05,1.33.8,1.2,1.67-.08.54.43,1.51-.81,1.68Z"/>
      <path class="cls-30" d="M11.69,66.2l.03-3.47c1.2.64,1.25,2.78-.03,3.47Z"/>
      <path class="cls-31" d="M3.83,13.68v-2.72c.91.19.98.78.82,1.69-.07.4.13.99-.82,1.02Z"/>
      <path class="cls-3" d="M23.48,55.26l-.59,34.9c3.95-1,5.36-4.25,5.75-7.38,1.07-8.66.68-17.17.42-26.32l17.97.15c.25-.57.16-1,.14-1.31l17.02-.29c1.25-.02,2.33-.6,3.28.22l-4.2,27.05-2.12,8.83-8.53.36c.6,1.52,2.12,1.34,3.12.64.15.14.26,1.41-.06,1.45-6.73.89-13.22.62-19.72-.26l3.57-1.04-9.36-.41c1.51,1.47,3.32.81,5.25,1.06-1.97,1.44-4.52.18-6.31.29-2.97.17-5.2-.25-7.67-.78l6.23-.55-.64-.45c-2.34-.13-5.55.5-7.97-.27-2.57-.82-1.68-4.03-2.08-5.79-1.51-6.7-2.25-12.83-2.67-19.34l-.77-11.74,9.94.98Z"/>
      <path class="cls-29" d="M72.4,14.43c.37-.14.98.42,1.38.38l-.68,11.81c-.85,1.37-.95,2.8-.42,4.15-15.01.86-30,1.56-45.08,1.25.28-.08-.82-.68-.84-.99l-1.16-15.14c1.25-.46,1.32-1.03,1.24-1.58l3.08.43,35.34.19c2.45.01,5.27.22,7.13-.5Z"/>
      <path class="cls-9" d="M83.33,44l-4.35,29.19-3.49,19.66c-2.64-.39-5.22.22-8.11.35l-10.64.48c.28-1.05-.28-1.7-1-1.58-1,.7-2.52.88-3.12-.64l8.53-.36,2.12-8.83,4.2-27.05c1.65-1.34,4.51-.42,6-.79l3.68-.91-8.71-.31c-.47-2.23.72-4.31.55-6.48l12.81-1.14c.34-.47-.11-1.65.34-1.74.3-.06.73.03,1.21.13Z"/>
      <path class="cls-35" d="M58.95,45.68c-10.64,1.26-25.5.94-35.85.34l-10.48-.6c-1.56-.09-1.18-4.12-.52-4.76,4.62-.04,8.24,1.46,12.76.08-4.58-1.91-9.13-.93-13.87-.78l-.48-6.84c20.6,1.39,39.95,1.5,60.57-.28.41,2.04-.64,5.51-3.3,5.75-13.62,1.19-26.56,1.3-39.81,1.32-.58,0-.56,1.6.45,1.62,14.03.3,27.6.4,41.63-1.61.17,2.2-.25,3.43-.71,5.45-3.37.81-7.15-.07-10.39.31Z"/>
      <path class="cls-28" d="M68.98,46.74c.17,2.17-1.02,4.25-.55,6.48l-1.44.69-14.68.35-22.03.31c-.36,0-1.23-1-1.26-.66l-1.03-6.74c.3-.07,1.01-.2,1.29.62l30.47-.12,9.23-.95Z"/>
      <path class="cls-26" d="M27.99,47.19l1.03,6.74c.07.49-.18,1.37.48,1.35l2.69-.05c3.79-.07,7.63,1.32,11.23.32,1.36-.38,2.54-.23,3.74-.25.02.31.11.75-.14,1.31l-17.97-.15c.26,9.15.66,17.66-.42,26.32-.39,3.14-1.8,6.38-5.75,7.38l.59-34.9c.33-.66.84-1.21.84-2.01l.05-5.78c.97.18,2.47-.65,3.61-.28Z"/>
      <path class="cls-23" d="M59.8,95.58c-.3,2.08-.61,4.16-1.39,6.19l-10.04.85c-2.12.18-3.53.08-5.55,0l-15.04-.54c-1.01-.04-1.75-.53-2.79-.44.45-1.8-2.83-2.29-2.32-5.09.12-.63,1.83-.9,2.43-.63,1.81.81,3.54-.16,5.06-.18l20.11-.18h9.51Z"/>
      <path class="cls-27" d="M87.33,13.6c1.38,1.7.69,3.77.36,5.91l-1.13,7.24c-.25,1.59.07,3.66-2.61,3.52l-11.26.5c-.53-1.35-.43-2.78.42-4.15l.68-11.81,13.54-1.22Z"/>
      <path class="cls-14" d="M26.85,14.31c.08.54,0,1.12-1.24,1.58l1.16,15.14c.02.31,1.12.91.84.99-1.33-.03-2.82.63-4,.19-2.42-.91-6.2-1.47-8.55-1.5l.45-15.48c-.63-.23-.8-.64-.64-1.09l11.98.17Z"/>
      <path class="cls-5" d="M14.87,14.14c-.16.46.01.87.64,1.09l-.45,15.48c-.33,0-1.48-.23-1.2-.31.36-.1.37-1.31-.66-1.09-1.39.3-2.71,1.17-3.74.33-.86-.7-1.19-1.67-1.31-2.76l-1.38-13.18,8.09.43Z"/>
      <path class="cls-8" d="M71.57,13.69c-.69.08-1.05-.59-.84-1.09l-21.99.54-27.57-.38c-2.69-.04-5.1-.82-7.75-.34-.25-.82-.14-1.13-.13-1.48l10.15.28c.31-1.05,1.77-.56,2.67.39l26.76-.37c6.26-.09,12.31-.14,17.93-.16,3.68-.01,7.67.4,11.5-.43,2.27-.49,4.64-.75,6.77,0-5.75,2.34-11.8.68-14.8,2.27-.65-.67-1.38-.74-2.22-.56-.66.15-.84.67-.47,1.32Z"/>
      <path class="cls-32" d="M75.4,94.7l-.94,5.83c-2.95,1-5.34,1.51-8.51.98-2.52,1.09-5.48,1.31-7.54.27.78-2.03,1.09-4.11,1.39-6.19,5.14-.69,10.35-1.02,15.6-.88Z"/>
      <path class="cls-4" d="M24.37,47.47l-.05,5.78c-3.42.58-6.84-.2-10.77-.2l-.67-6.98c4.01,1.42,8.2.79,11.49,1.4Z"/>
      <path class="cls-2" d="M72.38,4.81c.55-.11,1.61.66,1.41,1.25-.39,1.14-.49,1.83-.28,2.94-5.05,1.15-10.24.37-15.62.86-9.02.82-18.33.18-27.43,0l-21.43-.43c-.57-.83-1.04-2.53-.51-3.44.41-.72,1.83-1.76,3.33-1.76l46.33.08,14.21.5Z"/>
      <path class="cls-7" d="M68.63.71c.33-.08,1.27.55,1.61.56l21.84.28c.01.16-.06.42-.42.56l-10.13.33c-4.28.14-8.9.44-13.29.23-12.36-.58-24.26-.14-36.9-.07l-24.81.13c-.41,0-1.59-.8-1.88-1.16l17.03-.27c.26,0,.97-.75,1.03-.58h45.91Z"/>
      <path class="cls-17" d="M73.5,9c-.21-1.11-.11-1.8.28-2.94.2-.58-.85-1.36-1.41-1.25l-.11-1.25,8.8.11c3.85.05,7.25.94,11.41-.67l-1.07,5.52-15.1,1.08c-1.38.1-2.29-.16-2.8-.61Z"/>
      <path class="cls-34" d="M67.47,55.22c-.95-.82-2.03-.25-3.28-.22l-17.02.29c-1.2.02-2.38-.13-3.74.25-3.6,1.01-7.44-.39-11.23-.32l-2.69.05c-.66.01-.41-.87-.48-1.35.03-.35.9.66,1.26.66l22.03-.31,14.68-.35,1.44-.69,8.71.31-3.68.91c-1.49.37-4.35-.56-6,.79Z"/>
    </g>
  </g>
</svg>