<?xml version="1.0" encoding="UTF-8"?>
<svg id="Layer_2" data-name="Layer 2" xmlns="http://www.w3.org/2000/svg" viewBox="0 0 94.99 149.34">
  <defs>
    <style>
      .cls-1 {
        fill: #737e7f;
      }

      .cls-2 {
        fill: #cff0f7;
      }

      .cls-3 {
        fill: #aed4e4;
      }

      .cls-4 {
        fill: #7f8483;
      }

      .cls-5 {
        fill: #8c9496;
      }

      .cls-6 {
        fill: #afd6e7;
      }

      .cls-7 {
        fill: #778083;
      }

      .cls-8 {
        fill: #d2f1f8;
      }

      .cls-9 {
        fill: #6f7b7e;
      }

      .cls-10 {
        fill: #858e8d;
      }

      .cls-11 {
        fill: #d8f3f9;
      }

      .cls-12 {
        fill: #eaf8fb;
      }
    </style>
  </defs>
  <g id="Layer_1-2" data-name="Layer 1">
    <g>
      <path class="cls-8" d="M89.13,3.84c.55-.05,1.04.26.94,1.02-.13.99.98,1.3,1.51,1.21,2.42,1.7,2.15,2.9,1.6,4.55-.95,2.82-2.22,2.11-3.99,2.73-1.97.69-4,1.03-6.23,1.3l-9.21,1.12-16.28.88c-5.73.31-12.02.43-17.73.06l-16.41-1.06-8.8-.82c-2.24-.21-4.26-1.13-6.15-.16,1.25,1.03,2.17.57,2.72.55l3.82,42.61,6.09,72.75c4.44.47,7.61-.48,10.78.81-.01,1.46.25,3.07-.47,4.71l-9.93-2.07c-.02-.9-.3-1.96-.59-2.13-1.49-.89-2.17.78-4.33,1.51l-.88-9.88-1.03-10.06-.85-10.85L5.21,17.76c-.11-1.07-.67-1.93-.16-2.91.36-.7,1.3-.78,2.97-1.05-2-.76-3.95-1.78-6.05-1.7.32-.71.09-1.69-.5-2.04-.33-.19-1.02-.1-1.43-.01-.04-.35-.05-.71.01-.98.49-.02,1.09.06,1.45-.08s.33-1.65.65-1.91c3.46-2.69,8.67-3.09,12.37-3.77,6.64-1.21,9.84.57,8.95-2.6.36-.29,1.09-.18.95.63l44.57.81,8.07.83,7.43.98,3.2.99c.46.14,1.38.18,1.45-1.12ZM64.58,13.63l12.72-1.05c4.86-.4,9.96-.46,14.87-3.55-5.55-4.42-11.75-4.26-17.65-4.67l-14.83-1.02c-8.32-.57-17.19-.52-25.51.01l-15.72,1.02c-4.9.32-10.15.43-14.83,3.74,1.5,2.68,4.12,2.77,6.75,3.19l8.1,1.29,12,1.08,34.11-.04Z"/>
      <path class="cls-9" d="M79.1,138.48c-.18,1.78.46,3.55-1.42,4.84-1.02.7-2.5,1.77-4.21,2.27-17.6,5.12-36.76,5.23-53.96-1.12-1.37-.51-2.85-1.38-3.48-2.2-.73-.95-.17-2.65-.07-3.5s-.27-2.33-.35-3.06c.25-.75.72-1.27,1.25-.88,12.69,10.29,52.94,8.65,60.75.93,1.63-1.61.98-4.02,1.21-6.43l9.55-97.4c.39-3.95,1.08-7.75.79-11.5l1.02-2.56c.32-.8-.49-1.56-1.08-2.54,1.65-.55.24-1.78.1-1.97,1.76-.62,3.04.09,3.99-2.73.56-1.64.83-2.85-1.6-4.55-.54.09-1.64-.22-1.51-1.21,2.5-.66,4.22,1.41,4.77,3.57.75,2.95-1.47,4.79-3.39,6.48l-12.34,123.57ZM76.36,138.12c-7.68,4.36-17.07,5.28-25.07,5.28h-6.74c-8.74,0-17.59-1.26-26.26-5.37-.8-.38-1.75,2.22-.89,2.92l2.98,2.42c17.84,6.26,37.16,6.34,54.93.07,1.36-.48,2.47-2,2.8-3.11.23-.76-1.07-2.6-1.75-2.21Z"/>
      <path class="cls-10" d="M16.48,133.41c.37.1.71.78.38,1.42-.52-.39-1,.13-1.25.88l-.96-9.12-1.01-10.01-.87-10.89L3.78,14.21c-.45-.59-2.28-1.11-1.82-2.1,2.1-.08,4.05.95,6.05,1.7-1.67.27-2.6.34-2.97,1.05-.5.98.06,1.84.16,2.91l8.51,84.86.85,10.85,1.03,10.06.88,9.88Z"/>
      <path class="cls-5" d="M89.13,3.84c-.07,1.29-.99,1.26-1.45,1.12l-3.2-.99-7.43-.98-8.07-.83-44.57-.81L36.98.19c6.1-.23,12.85-.3,19.01.05l16.82.95,9.2,1.11c2.44.29,4.87.58,7.12,1.54Z"/>
      <path class="cls-4" d="M23.46.72c.89,3.18-2.31,1.39-8.95,2.6-3.7.68-8.91,1.08-12.37,3.77-.33.25-.29,1.77-.65,1.91s-.95.06-1.45.08c.67-3.04,2.09-4.44,4.94-4.99L23.46.72Z"/>
      <path class="cls-10" d="M1.96,12.11c-.91.03-1.82-1.07-1.93-2.05.41-.09,1.1-.18,1.43.01.59.35.83,1.33.5,2.04Z"/>
      <path class="cls-3" d="M89.09,15.33c.6.98,1.4,1.74,1.08,2.54l-1.02,2.56c.29,3.76-.4,7.55-.79,11.5l-9.55,97.4c-.24,2.41.41,4.82-1.21,6.43-7.82,7.72-48.07,9.36-60.75-.93.33-.64,0-1.32-.38-1.42,2.15-.73,2.84-2.4,4.33-1.51.29.17.57,1.23.59,2.13l9.93,2.07c.72-1.64.46-3.25.47-4.71v-.96s15.41-.62,15.41-.62c6.35-.27,15.99-4.3,16.65-12.87l7.22-99.21,18.02-2.4Z"/>
      <path class="cls-12" d="M26.17,17.27l5.63,113.15v.96c-3.18-1.29-6.35-.34-10.79-.81l-6.09-72.75-3.82-42.61c1.82,1.9,4.43.7,6.69,1.13,3.1.6,5.62,1.54,8.38.92Z"/>
      <path class="cls-1" d="M64.58,13.63l-34.11.04-12-1.08-8.1-1.29c-2.63-.42-5.25-.51-6.75-3.19,4.68-3.31,9.93-3.43,14.83-3.74l15.72-1.02c8.33-.54,17.19-.59,25.51-.01l14.83,1.02c5.9.41,12.1.25,17.65,4.67-4.91,3.09-10.01,3.14-14.87,3.55l-12.72,1.05ZM74.48,11.56c4.36-.29,8.66-.2,13.61-2.65-2.58-2.2-5.2-1.99-8.03-2.39l-9.18-1.29-47.89.04-10.17,1.27c-2.34.29-4.73.02-7.16,1.95,9.82,3.3,20.14,3.34,30.55,4.14,7.56.58,15.2.46,22.58-.02l15.7-1.03Z"/>
      <path class="cls-7" d="M89.09,15.33l-18.02,2.4c-1.74.25-4.26.05-6.79.08l-30.56.38c-2.63.03-5.14-1.46-7.56-.91-2.76.62-5.28-.32-8.38-.92-2.26-.43-4.87.77-6.69-1.13-.55.02-1.46.47-2.72-.55,1.89-.96,3.91-.05,6.15.16l8.8.82,16.41,1.06c5.71.37,12.01.25,17.73-.06l16.28-.88,9.21-1.12c2.23-.27,4.26-.61,6.23-1.3.14.19,1.55,1.43-.1,1.97Z"/>
      <path class="cls-6" d="M76.36,138.12c.68-.39,1.98,1.45,1.75,2.21-.33,1.1-1.44,2.63-2.8,3.11-17.78,6.28-37.09,6.19-54.93-.07l-2.98-2.42c-.86-.7.09-3.3.89-2.92,8.67,4.11,17.52,5.37,26.26,5.37h6.74c8,0,17.4-.92,25.07-5.27Z"/>
      <path class="cls-2" d="M71.08,17.73l-7.22,99.21c-.66,8.57-10.31,12.59-16.65,12.87l-15.41.62-5.63-113.15c2.42-.54,4.93.94,7.56.91l30.56-.38c2.53-.03,5.04.17,6.79-.08Z"/>
      <path class="cls-11" d="M74.48,11.56l-15.7,1.03c-7.37.48-15.02.6-22.58.02-10.42-.8-20.73-.83-30.55-4.14,2.42-1.93,4.82-1.66,7.16-1.95l10.17-1.27,47.89-.04,9.18,1.29c2.83.4,5.45.19,8.03,2.39-4.95,2.44-9.25,2.36-13.61,2.65Z"/>
    </g>
  </g>
</svg>